<svg width="20" height="20" viewBox="0 0 20 20" fill="none" xmlns="http://www.w3.org/2000/svg">
<path d="M16.668 13.333H15.418V1.24967C15.418 1.01967 15.2313 0.833008 15.0013 0.833008H5.0013C4.7713 0.833008 4.58464 1.01967 4.58464 1.24967V2.49967H3.33464C3.1013 2.49967 2.91797 2.68301 2.91797 2.91634V17.083C2.91797 18.233 3.8513 19.1663 5.0013 19.1663H15.0013C15.6846 19.1663 16.2846 18.8413 16.668 18.333C16.9263 17.9913 17.0846 17.5497 17.0846 17.083V13.7497C17.0846 13.5163 16.9013 13.333 16.668 13.333ZM5.41797 1.66634H14.5846V15.833H13.7513V14.583V13.7497V2.91634C13.7513 2.68301 13.568 2.49967 13.3346 2.49967H5.41797V1.66634ZM5.0013 18.333C4.30964 18.333 3.7513 17.7747 3.7513 17.083V3.33301H12.918V13.7497V14.583V17.083C12.918 17.5497 13.0763 17.9913 13.3346 18.333H5.0013ZM13.7513 17.083V16.6663H15.0013C15.2313 16.6663 15.418 16.4797 15.418 16.2497V14.1663H16.2513V17.083C16.2513 17.7747 15.693 18.333 15.0013 18.333C14.3096 18.333 13.7513 17.7747 13.7513 17.083Z" fill="white"/>
<path d="M6.40964 9.99935H10.2596C10.8096 9.99935 11.2513 9.55768 11.2513 9.00768V5.15768C11.2513 4.60768 10.8096 4.16602 10.2596 4.16602H6.40964C5.85964 4.16602 5.41797 4.60768 5.41797 5.15768V9.00768C5.41797 9.55768 5.85964 9.99935 6.40964 9.99935ZM6.2513 5.15768C6.2513 5.06602 6.31797 4.99935 6.40964 4.99935H10.2596C10.3513 4.99935 10.418 5.06602 10.418 5.15768V9.00768C10.418 9.09935 10.3513 9.16602 10.2596 9.16602H6.40964C6.31797 9.16602 6.2513 9.09935 6.2513 9.00768V5.15768Z" fill="white"/>
<path d="M11.6693 10.833H5.0026C4.7726 10.833 4.58594 11.0197 4.58594 11.2497C4.58594 11.4797 4.7726 11.6663 5.0026 11.6663H11.6693C11.8993 11.6663 12.0859 11.4797 12.0859 11.2497C12.0859 11.0197 11.8993 10.833 11.6693 10.833Z" fill="white"/>
<path d="M11.6693 14.166H5.0026C4.7726 14.166 4.58594 14.3527 4.58594 14.5827C4.58594 14.8127 4.7726 14.9993 5.0026 14.9993H11.6693C11.8993 14.9993 12.0859 14.8127 12.0859 14.5827C12.0859 14.3527 11.8993 14.166 11.6693 14.166Z" fill="white"/>
<path d="M11.6693 12.5H5.0026C4.7726 12.5 4.58594 12.6867 4.58594 12.9167C4.58594 13.1467 4.7726 13.3333 5.0026 13.3333H11.6693C11.8993 13.3333 12.0859 13.1467 12.0859 12.9167C12.0859 12.6867 11.8993 12.5 11.6693 12.5Z" fill="white"/>
<path d="M10.8346 15.833H5.83464C5.60464 15.833 5.41797 16.0197 5.41797 16.2497C5.41797 16.4797 5.60464 16.6663 5.83464 16.6663H10.8346C11.0646 16.6663 11.2513 16.4797 11.2513 16.2497C11.2513 16.0197 11.0646 15.833 10.8346 15.833Z" fill="white"/>
<path d="M8.04031 8.21101C8.05365 8.22434 8.19531 8.36101 8.40198 8.32768C8.60865 8.29434 8.69948 8.12017 8.70781 8.10267L9.54115 6.43601C9.64448 6.23018 9.56031 5.98018 9.35448 5.87684C9.14865 5.77434 8.89948 5.85768 8.79531 6.06351L8.22031 7.21268L7.79698 6.78767C7.63448 6.62517 7.37031 6.62517 7.20781 6.78767C7.04531 6.95017 7.04531 7.21434 7.20781 7.37684L8.04031 8.21101Z" fill="white"/>
</svg>
