<svg width="20" height="20" viewBox="0 0 20 20" fill="none" xmlns="http://www.w3.org/2000/svg">
<g clip-path="url(#clip0_22736_73395)">
<path d="M10.0013 9.5807C11.8091 9.5807 13.2798 8.11012 13.2798 6.30254C13.2798 4.49496 11.8091 3.02441 10.0013 3.02441C8.19344 3.02441 6.72266 4.49496 6.72266 6.30254C6.72266 8.11012 8.19344 9.5807 10.0013 9.5807ZM10.0013 4.19613C11.1629 4.19613 12.108 5.14109 12.108 6.30254C12.108 7.46402 11.1629 8.40898 10.0013 8.40898C8.83957 8.40898 7.89453 7.46402 7.89453 6.30254C7.89453 5.14109 8.83961 4.19613 10.0013 4.19613Z" fill="white"/>
<path d="M6.43022 12.1926C7.3183 13.3948 6.96151 12.9273 9.51951 16.5795C9.75201 16.9127 10.2464 16.9143 10.4803 16.58C13.0498 12.9105 12.6963 13.3752 13.5699 12.1926C14.4549 10.9945 15.37 9.75555 15.8715 8.30375C16.5973 6.20215 16.2836 4.12273 14.9881 2.44852C14.9881 2.44852 14.9881 2.44848 14.9881 2.44848C13.8014 0.915312 11.9367 0 10.0001 0C8.06338 0 6.19869 0.915312 5.01201 2.44855C3.71658 4.12277 3.40283 6.20223 4.12869 8.30383C4.6301 9.75559 5.54526 10.9945 6.43022 12.1926ZM5.93881 3.16559C6.90514 1.91711 8.42338 1.17172 10.0001 1.17172C11.5767 1.17172 13.095 1.91711 14.0613 3.16559L14.0612 3.16555C15.1068 4.5168 15.3563 6.20578 14.7638 7.92133C14.3208 9.20367 13.4599 10.3693 12.6272 11.4965C11.979 12.3741 12.173 12.1057 10.0001 15.2204C7.8294 12.1088 8.02096 12.3738 7.37287 11.4965C6.54026 10.3693 5.67928 9.20363 5.23635 7.92133C4.64385 6.20574 4.8933 4.5168 5.93881 3.16559Z" fill="white"/>
<path d="M6.91107 14.733C6.73826 14.4595 6.37638 14.3777 6.10279 14.5506L4.43677 15.6028C4.07333 15.8324 4.07298 16.3637 4.43677 16.5934L9.68677 19.9094C9.87791 20.0301 10.1215 20.0301 10.3126 19.9094L15.5626 16.5934C15.9261 16.3639 15.9264 15.8326 15.5626 15.6028L13.8966 14.5506C13.6229 14.3778 13.2611 14.4595 13.0883 14.733C12.9154 15.0066 12.9972 15.3684 13.2708 15.5412L14.1526 16.0981L9.99966 18.7211L5.84681 16.0981L6.72861 15.5412C7.0022 15.3684 7.08388 15.0066 6.91107 14.733Z" fill="white"/>
</g>
<defs>
<clipPath id="clip0_22736_73395">
<rect width="20" height="20" fill="white"/>
</clipPath>
</defs>
</svg>
