<svg width="20" height="20" viewBox="0 0 20 20" fill="none" xmlns="http://www.w3.org/2000/svg">
<path d="M15.625 6.875V15.625C15.625 15.9565 15.4933 16.2745 15.2589 16.5089C15.0245 16.7433 14.7065 16.875 14.375 16.875H3.125C2.79348 16.875 2.47554 16.7433 2.24112 16.5089C2.0067 16.2745 1.875 15.9565 1.875 15.625V6.875C1.875 6.54348 2.0067 6.22554 2.24112 5.99112C2.47554 5.7567 2.79348 5.625 3.125 5.625H14.375C14.7065 5.625 15.0245 5.7567 15.2589 5.99112C15.4933 6.22554 15.625 6.54348 15.625 6.875ZM16.875 3.125H5C4.83424 3.125 4.67527 3.19085 4.55806 3.30806C4.44085 3.42527 4.375 3.58424 4.375 3.75C4.375 3.91576 4.44085 4.07473 4.55806 4.19194C4.67527 4.30915 4.83424 4.375 5 4.375H16.875V13.75C16.875 13.9158 16.9408 14.0747 17.0581 14.1919C17.1753 14.3092 17.3342 14.375 17.5 14.375C17.6658 14.375 17.8247 14.3092 17.9419 14.1919C18.0592 14.0747 18.125 13.9158 18.125 13.75V4.375C18.125 4.04348 17.9933 3.72554 17.7589 3.49112C17.5245 3.2567 17.2065 3.125 16.875 3.125Z" fill="#00A849"/>
</svg>
