<svg width="20" height="21" viewBox="0 0 20 21" fill="none" xmlns="http://www.w3.org/2000/svg">
<path d="M18.125 7.58105C18.125 7.24953 17.9933 6.93159 17.7589 6.69717C17.5245 6.46275 17.2065 6.33105 16.875 6.33105H14.375V3.83105C14.375 3.49953 14.2433 3.18159 14.0089 2.94717C13.7745 2.71275 13.4565 2.58105 13.125 2.58105H3.125C2.79348 2.58105 2.47554 2.71275 2.24112 2.94717C2.0067 3.18159 1.875 3.49953 1.875 3.83105V13.8311C1.87467 13.9494 1.90837 14.0653 1.97209 14.1651C2.0358 14.2648 2.12685 14.3441 2.23438 14.3936C2.31732 14.4335 2.40797 14.4548 2.5 14.4561C2.64277 14.457 2.78123 14.4072 2.89063 14.3154L5.625 12.1123V14.4561C5.625 14.7876 5.7567 15.1055 5.99112 15.3399C6.22554 15.5744 6.54348 15.7061 6.875 15.7061H14.1875L17.1094 18.0654C17.1997 18.1402 17.3096 18.1873 17.426 18.2012C17.5424 18.215 17.6603 18.195 17.7656 18.1436C17.8732 18.0941 17.9642 18.0148 18.0279 17.9151C18.0916 17.8153 18.1253 17.6994 18.125 17.5811V7.58105ZM5.20313 10.8467L3.125 12.5186V3.83105H13.125V10.7061H5.59375C5.45098 10.7051 5.31252 10.7549 5.20313 10.8467ZM14.7969 14.5967C14.6875 14.5049 14.549 14.4551 14.4063 14.4561H6.875V11.9561H13.125C13.4565 11.9561 13.7745 11.8244 14.0089 11.5899C14.2433 11.3555 14.375 11.0376 14.375 10.7061V7.58105H16.875V16.2686L14.7969 14.5967Z" fill="white"/>
</svg>
