<svg width="20" height="21" viewBox="0 0 20 21" fill="none" xmlns="http://www.w3.org/2000/svg">
<path d="M15.3417 15.3174L12.9917 17.6674" stroke="white" stroke-width="1.2" stroke-linecap="round" stroke-linejoin="round"/>
<path d="M15.3417 17.6674L12.9917 15.3174" stroke="white" stroke-width="1.2" stroke-linecap="round" stroke-linejoin="round"/>
<path d="M10.1331 9.30085C10.0498 9.29251 9.9498 9.29251 9.85814 9.30085C7.8748 9.23418 6.2998 7.60918 6.2998 5.60918C6.2998 3.56751 7.9498 1.90918 9.9998 1.90918C12.0415 1.90918 13.6998 3.56751 13.6998 5.60918C13.6915 7.60918 12.1165 9.23418 10.1331 9.30085Z" stroke="white" stroke-width="1.2" stroke-linecap="round" stroke-linejoin="round"/>
<path d="M10 18.4173C8.48333 18.4173 6.975 18.0339 5.825 17.2673C3.80833 15.9173 3.80833 13.7173 5.825 12.3756C8.11667 10.8423 11.875 10.8423 14.1667 12.3756" stroke="white" stroke-width="1.2" stroke-linecap="round" stroke-linejoin="round"/>
</svg>
