<svg width="20" height="20" viewBox="0 0 20 20" fill="none" xmlns="http://www.w3.org/2000/svg">
<path opacity="0.2" d="M17.5 4.375L10 11.25L2.5 4.375H17.5Z" fill="white"/>
<path d="M17.5 3.75H2.5C2.33424 3.75 2.17527 3.81585 2.05806 3.93306C1.94085 4.05027 1.875 4.20924 1.875 4.375V15C1.875 15.3315 2.0067 15.6495 2.24112 15.8839C2.47554 16.1183 2.79348 16.25 3.125 16.25H16.875C17.2065 16.25 17.5245 16.1183 17.7589 15.8839C17.9933 15.6495 18.125 15.3315 18.125 15V4.375C18.125 4.20924 18.0592 4.05027 17.9419 3.93306C17.8247 3.81585 17.6658 3.75 17.5 3.75ZM10.9453 9.53125L10 10.3984L4.10938 5H15.8906L10.9453 9.53125ZM7.71094 10L3.125 14.2031V5.79687L7.71094 10ZM8.63281 10.8516L9.57812 11.7109C9.69334 11.8163 9.84384 11.8748 10 11.8748C10.1562 11.8748 10.3067 11.8163 10.4219 11.7109L11.3672 10.8516L15.8906 15H4.10938L8.63281 10.8516ZM12.2891 10L16.875 5.79687V14.2031L12.2891 10Z" fill="white"/>
</svg>
