<svg width="28" height="28" viewBox="0 0 28 28" fill="none" xmlns="http://www.w3.org/2000/svg">
<path d="M22.4375 14C22.4375 12.3312 21.9427 10.6999 21.0155 9.31238C20.0884 7.92484 18.7706 6.84338 17.2289 6.20477C15.6871 5.56616 13.9906 5.39907 12.3539 5.72463C10.7172 6.05019 9.2138 6.85379 8.03379 8.03379C6.85379 9.2138 6.05019 10.7172 5.72463 12.3539C5.39907 13.9906 5.56616 15.6871 6.20477 17.2289C6.84338 18.7706 7.92484 20.0884 9.31238 21.0155C10.6999 21.9427 12.3312 22.4375 14 22.4375C16.2371 22.4354 18.382 21.5458 19.9639 19.9639C21.5458 18.382 22.4354 16.2371 22.4375 14ZM14.9375 20.4922V16.1875H16.5C16.7486 16.1875 16.9871 16.0887 17.1629 15.9129C17.3387 15.7371 17.4375 15.4986 17.4375 15.25C17.4375 15.0014 17.3387 14.7629 17.1629 14.5871C16.9871 14.4113 16.7486 14.3125 16.5 14.3125H14.9375V12.75C14.9375 12.5014 15.0363 12.2629 15.2121 12.0871C15.3879 11.9113 15.6264 11.8125 15.875 11.8125H17.125C17.3736 11.8125 17.6121 11.7137 17.7879 11.5379C17.9637 11.3621 18.0625 11.1236 18.0625 10.875C18.0625 10.6264 17.9637 10.3879 17.7879 10.2121C17.6121 10.0363 17.3736 9.9375 17.125 9.9375H15.875C15.1291 9.9375 14.4137 10.2338 13.8863 10.7613C13.3588 11.2887 13.0625 12.0041 13.0625 12.75V14.3125H11.5C11.2514 14.3125 11.0129 14.4113 10.8371 14.5871C10.6613 14.7629 10.5625 15.0014 10.5625 15.25C10.5625 15.4986 10.6613 15.7371 10.8371 15.9129C11.0129 16.0887 11.2514 16.1875 11.5 16.1875H13.0625V20.4922C11.4204 20.2552 9.929 19.405 8.88848 18.1127C7.84795 16.8204 7.33554 15.1819 7.45435 13.527C7.57317 11.8722 8.31439 10.3237 9.52886 9.19333C10.7433 8.06293 12.3409 7.4345 14 7.4345C15.6591 7.4345 17.2567 8.06293 18.4712 9.19333C19.6856 10.3237 20.4268 11.8722 20.5457 13.527C20.6645 15.1819 20.1521 16.8204 19.1115 18.1127C18.071 19.405 16.5796 20.2552 14.9375 20.4922Z" fill="white"/>
</svg>
