<svg width="28" height="28" viewBox="0 0 28 28" fill="none" xmlns="http://www.w3.org/2000/svg">
<path opacity="0.2" d="M21.5 13.6875C19.9304 13.6886 18.4 13.1967 17.125 12.2812V16.1875C17.1255 17.1982 16.8376 18.1881 16.2952 19.041C15.7528 19.8938 14.9784 20.5743 14.0629 21.0024C13.1473 21.4305 12.1286 21.5886 11.1263 21.4581C10.1241 21.3275 9.17986 20.9138 8.40451 20.2654C7.62917 19.617 7.05487 18.7609 6.74904 17.7976C6.44321 16.8342 6.41853 15.8036 6.67791 14.8267C6.93729 13.8499 7.46995 12.9673 8.21338 12.2825C8.9568 11.5978 9.88014 11.1393 10.875 10.9609V14.2109C10.5213 14.3787 10.2191 14.6383 9.99996 14.9627C9.78079 15.287 9.65269 15.6643 9.62901 16.055C9.60532 16.4458 9.68693 16.8357 9.86532 17.1842C10.0437 17.5326 10.3123 17.8268 10.6432 18.0361C10.974 18.2454 11.3549 18.362 11.7462 18.3739C12.1375 18.3857 12.5248 18.2924 12.8677 18.1035C13.2106 17.9147 13.4966 17.6373 13.6957 17.3003C13.8949 16.9633 14 16.579 14 16.1875V6.1875H17.125C17.125 7.34782 17.5859 8.46062 18.4064 9.28109C19.2269 10.1016 20.3397 10.5625 21.5 10.5625V13.6875Z" fill="white"/>
<path d="M21.5 9.9375C20.5054 9.9375 19.5516 9.54241 18.8483 8.83915C18.1451 8.13589 17.75 7.18206 17.75 6.1875C17.75 6.02174 17.6842 5.86277 17.5669 5.74556C17.4497 5.62835 17.2908 5.5625 17.125 5.5625H14C13.8342 5.5625 13.6753 5.62835 13.5581 5.74556C13.4408 5.86277 13.375 6.02174 13.375 6.1875V16.1875C13.3744 16.4669 13.2989 16.741 13.1564 16.9813C13.0138 17.2215 12.8095 17.4192 12.5646 17.5537C12.3197 17.6882 12.0433 17.7545 11.764 17.7459C11.4848 17.7372 11.213 17.6538 10.9769 17.5044C10.7409 17.355 10.5492 17.1451 10.4218 16.8964C10.2944 16.6477 10.2361 16.3695 10.2528 16.0906C10.2695 15.8117 10.3607 15.5425 10.5168 15.3108C10.673 15.0791 10.8884 14.8936 11.1406 14.7734C11.2482 14.724 11.3392 14.6447 11.4029 14.545C11.4666 14.4452 11.5003 14.3293 11.5 14.2109V10.9609C11.5015 10.8683 11.4819 10.7765 11.4427 10.6926C11.4034 10.6086 11.3455 10.5348 11.2734 10.4766C11.2035 10.4189 11.1218 10.3772 11.0341 10.3543C10.9465 10.3313 10.8548 10.3277 10.7656 10.3438C9.65374 10.5429 8.62174 11.0551 7.79075 11.8202C6.95976 12.5853 6.36426 13.5716 6.07416 14.6633C5.78405 15.755 5.81138 16.9068 6.15292 17.9835C6.49447 19.0602 7.13606 20.0172 8.00239 20.742C8.86873 21.4669 9.92386 21.9296 11.0439 22.0758C12.164 22.222 13.3026 22.0457 14.3259 21.5675C15.3493 21.0893 16.2151 20.3292 16.8216 19.3762C17.4281 18.4233 17.7501 17.3171 17.75 16.1875V13.3984C18.9076 14.0023 20.1944 14.3159 21.5 14.3125C21.6658 14.3125 21.8247 14.2467 21.9419 14.1294C22.0592 14.0122 22.125 13.8533 22.125 13.6875V10.5625C22.125 10.3967 22.0592 10.2378 21.9419 10.1206C21.8247 10.0033 21.6658 9.9375 21.5 9.9375ZM20.875 13.0312C19.655 12.923 18.4866 12.4885 17.4922 11.7734C17.3981 11.7085 17.2882 11.6703 17.1741 11.6628C17.0601 11.6553 16.9461 11.6788 16.8444 11.7309C16.7426 11.783 16.6569 11.8616 16.5962 11.9585C16.5356 12.0554 16.5023 12.167 16.5 12.2812V16.1875C16.4995 17.0468 16.2629 17.8894 15.816 18.6233C15.369 19.3571 14.729 19.954 13.9657 20.3487C13.2025 20.7434 12.3454 20.9208 11.4882 20.8613C10.631 20.8019 9.80662 20.5079 9.10517 20.0117C8.40371 19.5154 7.85216 18.8358 7.51079 18.0473C7.16943 17.2587 7.05137 16.3915 7.16953 15.5404C7.2877 14.6893 7.63753 13.8871 8.1808 13.2214C8.72407 12.5556 9.43988 12.052 10.25 11.7656V13.8516C9.84589 14.1216 9.51865 14.4917 9.30018 14.9258C9.08171 15.36 8.97947 15.8433 9.00342 16.3287C9.02737 16.8141 9.1767 17.2851 9.43686 17.6956C9.69701 18.1061 10.0591 18.4422 10.4878 18.6711C10.9165 18.9 11.3973 19.0139 11.8831 19.0017C12.369 18.9895 12.8434 18.8516 13.2601 18.6015C13.6768 18.3513 14.0215 17.9975 14.2607 17.5744C14.4999 17.1513 14.6254 16.6735 14.625 16.1875V6.8125H16.5391C16.6791 7.91355 17.181 8.93687 17.9658 9.7217C18.7506 10.5065 19.774 11.0084 20.875 11.1484V13.0312Z" fill="white"/>
</svg>
