<svg width="28" height="28" viewBox="0 0 28 28" fill="none" xmlns="http://www.w3.org/2000/svg">
<path d="M14 10.4062C13.2892 10.4062 12.5944 10.617 12.0034 11.0119C11.4124 11.4068 10.9518 11.9681 10.6798 12.6247C10.4078 13.2814 10.3366 14.004 10.4753 14.7011C10.614 15.3982 10.9562 16.0386 11.4588 16.5412C11.9614 17.0438 12.6018 17.386 13.2989 17.5247C13.996 17.6634 14.7186 17.5922 15.3753 17.3202C16.0319 17.0482 16.5932 16.5876 16.9881 15.9966C17.383 15.4056 17.5938 14.7108 17.5938 14C17.5938 13.0469 17.2151 12.1328 16.5412 11.4588C15.8672 10.7849 14.9531 10.4062 14 10.4062ZM14 15.7188C13.6601 15.7188 13.3278 15.6179 13.0451 15.4291C12.7625 15.2402 12.5422 14.9718 12.4121 14.6577C12.282 14.3437 12.248 13.9981 12.3143 13.6647C12.3806 13.3313 12.5443 13.025 12.7847 12.7847C13.025 12.5443 13.3313 12.3806 13.6647 12.3143C13.9981 12.248 14.3437 12.282 14.6577 12.4121C14.9718 12.5422 15.2402 12.7625 15.4291 13.0451C15.6179 13.3278 15.7188 13.6601 15.7188 14C15.7167 14.4552 15.535 14.8912 15.2131 15.2131C14.8912 15.535 14.4552 15.7167 14 15.7188ZM17.75 5.5625H10.25C9.0068 5.5625 7.81451 6.05636 6.93544 6.93544C6.05636 7.81451 5.5625 9.0068 5.5625 10.25V17.75C5.5625 18.9932 6.05636 20.1855 6.93544 21.0646C7.81451 21.9436 9.0068 22.4375 10.25 22.4375H17.75C18.9932 22.4375 20.1855 21.9436 21.0646 21.0646C21.9436 20.1855 22.4375 18.9932 22.4375 17.75V10.25C22.4375 9.0068 21.9436 7.81451 21.0646 6.93544C20.1855 6.05636 18.9932 5.5625 17.75 5.5625ZM20.5625 17.75C20.5625 18.4959 20.2662 19.2113 19.7387 19.7387C19.2113 20.2662 18.4959 20.5625 17.75 20.5625H10.25C9.50408 20.5625 8.78871 20.2662 8.26126 19.7387C7.73382 19.2113 7.4375 18.4959 7.4375 17.75V10.25C7.4375 9.50408 7.73382 8.78871 8.26126 8.26126C8.78871 7.73382 9.50408 7.4375 10.25 7.4375H17.75C18.4959 7.4375 19.2113 7.73382 19.7387 8.26126C20.2662 8.78871 20.5625 9.50408 20.5625 10.25V17.75ZM19.3125 9.9375C19.3125 10.1847 19.2392 10.4264 19.1018 10.632C18.9645 10.8375 18.7693 10.9977 18.5409 11.0923C18.3124 11.187 18.0611 11.2117 17.8186 11.1635C17.5762 11.1153 17.3534 10.9962 17.1786 10.8214C17.0038 10.6466 16.8847 10.4238 16.8365 10.1814C16.7883 9.93889 16.813 9.68755 16.9076 9.45915C17.0023 9.23074 17.1625 9.03551 17.368 8.89816C17.5736 8.76081 17.8153 8.6875 18.0625 8.6875C18.394 8.6875 18.712 8.8192 18.9464 9.05362C19.1808 9.28804 19.3125 9.60598 19.3125 9.9375Z" fill="white"/>
</svg>
