<svg width="28" height="28" viewBox="0 0 28 28" fill="none" xmlns="http://www.w3.org/2000/svg">
<path opacity="0.2" d="M21.1875 7.4375V20.5625C21.1875 20.7283 21.1217 20.8872 21.0044 21.0044C20.8872 21.1217 20.7283 21.1875 20.5625 21.1875H7.4375C7.27174 21.1875 7.11277 21.1217 6.99556 21.0044C6.87835 20.8872 6.8125 20.7283 6.8125 20.5625V7.4375C6.8125 7.27174 6.87835 7.11277 6.99556 6.99556C7.11277 6.87835 7.27174 6.8125 7.4375 6.8125H20.5625C20.7283 6.8125 20.8872 6.87835 21.0044 6.99556C21.1217 7.11277 21.1875 7.27174 21.1875 7.4375Z" fill="white"/>
<path d="M11.5 12.75V17.75C11.5 17.9158 11.4342 18.0747 11.3169 18.1919C11.1997 18.3092 11.0408 18.375 10.875 18.375C10.7092 18.375 10.5503 18.3092 10.4331 18.1919C10.3158 18.0747 10.25 17.9158 10.25 17.75V12.75C10.25 12.5842 10.3158 12.4253 10.4331 12.3081C10.5503 12.1908 10.7092 12.125 10.875 12.125C11.0408 12.125 11.1997 12.1908 11.3169 12.3081C11.4342 12.4253 11.5 12.5842 11.5 12.75ZM10.875 9.3125C10.6896 9.3125 10.5083 9.36748 10.3542 9.4705C10.2 9.57351 10.0798 9.71993 10.0089 9.89123C9.93791 10.0625 9.91934 10.251 9.95551 10.4329C9.99169 10.6148 10.081 10.7818 10.2121 10.9129C10.3432 11.044 10.5102 11.1333 10.6921 11.1695C10.874 11.2057 11.0625 11.1871 11.2338 11.1161C11.4051 11.0452 11.5515 10.925 11.6545 10.7708C11.7575 10.6167 11.8125 10.4354 11.8125 10.25C11.8125 10.0014 11.7137 9.7629 11.5379 9.58709C11.3621 9.41127 11.1236 9.3125 10.875 9.3125ZM21.8125 7.4375V20.5625C21.8125 20.894 21.6808 21.212 21.4464 21.4464C21.212 21.6808 20.894 21.8125 20.5625 21.8125H7.4375C7.10598 21.8125 6.78804 21.6808 6.55362 21.4464C6.3192 21.212 6.1875 20.894 6.1875 20.5625V7.4375C6.1875 7.10598 6.3192 6.78804 6.55362 6.55362C6.78804 6.3192 7.10598 6.1875 7.4375 6.1875H20.5625C20.894 6.1875 21.212 6.3192 21.4464 6.55362C21.6808 6.78804 21.8125 7.10598 21.8125 7.4375ZM20.5625 20.5625V7.4375H7.4375V20.5625H20.5625ZM15.5625 12.125C14.9999 12.125 14.4501 12.2937 13.9844 12.6094C13.9502 12.4594 13.8619 12.3273 13.7364 12.2384C13.611 12.1494 13.4571 12.1098 13.3043 12.1273C13.1514 12.1447 13.0104 12.2178 12.9081 12.3327C12.8059 12.4476 12.7496 12.5962 12.75 12.75V17.75C12.75 17.9158 12.8158 18.0747 12.9331 18.1919C13.0503 18.3092 13.2092 18.375 13.375 18.375C13.5408 18.375 13.6997 18.3092 13.8169 18.1919C13.9342 18.0747 14 17.9158 14 17.75V14.9375C14 14.5231 14.1646 14.1257 14.4576 13.8326C14.7507 13.5396 15.1481 13.375 15.5625 13.375C15.9769 13.375 16.3743 13.5396 16.6674 13.8326C16.9604 14.1257 17.125 14.5231 17.125 14.9375V17.75C17.125 17.9158 17.1908 18.0747 17.3081 18.1919C17.4253 18.3092 17.5842 18.375 17.75 18.375C17.9158 18.375 18.0747 18.3092 18.1919 18.1919C18.3092 18.0747 18.375 17.9158 18.375 17.75V14.9375C18.375 14.1916 18.0787 13.4762 17.5512 12.9488C17.0238 12.4213 16.3084 12.125 15.5625 12.125Z" fill="white"/>
</svg>
