<svg width="28" height="28" viewBox="0 0 28 28" fill="none" xmlns="http://www.w3.org/2000/svg">
<path opacity="0.2" d="M21.5 8.375L14 15.25L6.5 8.375H21.5Z" fill="white"/>
<path d="M21.5 7.75H6.5C6.33424 7.75 6.17527 7.81585 6.05806 7.93306C5.94085 8.05027 5.875 8.20924 5.875 8.375V19C5.875 19.3315 6.0067 19.6495 6.24112 19.8839C6.47554 20.1183 6.79348 20.25 7.125 20.25H20.875C21.2065 20.25 21.5245 20.1183 21.7589 19.8839C21.9933 19.6495 22.125 19.3315 22.125 19V8.375C22.125 8.20924 22.0592 8.05027 21.9419 7.93306C21.8247 7.81585 21.6658 7.75 21.5 7.75ZM14.9453 13.5312L14 14.3984L8.10938 9H19.8906L14.9453 13.5312ZM11.7109 14L7.125 18.2031V9.79687L11.7109 14ZM12.6328 14.8516L13.5781 15.7109C13.6933 15.8163 13.8438 15.8748 14 15.8748C14.1562 15.8748 14.3067 15.8163 14.4219 15.7109L15.3672 14.8516L19.8906 19H8.10938L12.6328 14.8516ZM16.2891 14L20.875 9.79687V18.2031L16.2891 14Z" fill="white"/>
</svg>
