<svg width="28" height="28" viewBox="0 0 28 28" fill="none" xmlns="http://www.w3.org/2000/svg">
<path opacity="0.2" d="M10.8748 14.5388L21.5077 6.85913C21.4323 6.82354 21.3504 6.80379 21.2671 6.8011C21.1838 6.79841 21.1008 6.81284 21.0233 6.84351L6.6014 12.5076C6.02328 12.7341 6.1014 13.5779 6.71078 13.7029L10.8748 14.5388ZM14.3827 17.6248L11.9452 20.0623C11.8582 20.1506 11.7469 20.211 11.6255 20.2359C11.5041 20.2609 11.3781 20.2491 11.2634 20.2022C11.1486 20.1554 11.0505 20.0754 10.9813 19.9726C10.9121 19.8698 10.875 19.7487 10.8748 19.6248V14.5388L14.3827 17.6248Z" fill="white"/>
<path d="M22.0703 6.4769C21.8969 6.32996 21.6869 6.23276 21.4627 6.19562C21.2385 6.15848 21.0084 6.18279 20.7969 6.26596L6.37498 11.93C6.12203 12.0264 5.90776 12.2033 5.76518 12.4334C5.6226 12.6635 5.55962 12.934 5.58592 13.2035C5.60939 13.4728 5.71953 13.7272 5.89982 13.9286C6.08012 14.1301 6.32085 14.2676 6.58592 14.3206L10.25 15.0472V19.6253C10.2499 19.873 10.3233 20.1151 10.461 20.321C10.5987 20.5268 10.7945 20.6872 11.0234 20.7816C11.175 20.8426 11.3366 20.8744 11.5 20.8753C11.6642 20.8759 11.8268 20.8437 11.9784 20.7807C12.13 20.7176 12.2675 20.625 12.3828 20.5081L14.414 18.4847L17.4844 21.1878C17.711 21.3877 18.0024 21.4988 18.3047 21.5003C18.4376 21.5031 18.5699 21.4819 18.6953 21.4378C18.9015 21.3726 19.087 21.2547 19.2336 21.0957C19.3802 20.9368 19.4828 20.7423 19.5312 20.5316L22.4687 7.70346C22.5201 7.4821 22.5101 7.25094 22.4399 7.03483C22.3697 6.81871 22.2419 6.62582 22.0703 6.4769ZM10.7265 13.8675L6.83592 13.0941L17.7422 8.80502L10.7265 13.8675ZM11.5 19.6253V15.9222L13.4687 17.6566L11.5 19.6253ZM18.3125 20.2503L11.875 14.5863L21.1484 7.89096L18.3125 20.2503Z" fill="white"/>
</svg>
