<svg width="15" height="13" viewBox="0 0 15 13" fill="none" xmlns="http://www.w3.org/2000/svg">
<path d="M14.3564 2.85631L12.4689 4.73756C12.0939 9.10631 8.40642 12.5001 4.00017 12.5001C3.09392 12.5001 2.34392 12.3563 1.77517 12.0751C1.31892 11.8438 1.13142 11.6001 1.08142 11.5251C1.04005 11.4622 1.01339 11.3909 1.00343 11.3163C0.993472 11.2417 1.00047 11.1659 1.0239 11.0944C1.04732 11.0229 1.08658 10.9576 1.13875 10.9034C1.19091 10.8492 1.25463 10.8075 1.32517 10.7813C1.33767 10.7751 2.81267 10.2126 3.76892 9.13131C3.17588 8.70905 2.65464 8.19414 2.22517 7.60631C1.36892 6.44381 0.462666 4.42506 1.00642 1.41256C1.02351 1.323 1.06447 1.23972 1.12498 1.17151C1.18548 1.10331 1.26328 1.05271 1.35017 1.02506C1.43733 0.996519 1.53065 0.992502 1.61994 1.01345C1.70923 1.03439 1.79104 1.07949 1.85642 1.14381C1.87517 1.16881 3.95642 3.21881 6.50017 3.88131V3.50006C6.50262 3.10363 6.58314 2.71156 6.73712 2.34625C6.89109 1.98094 7.11552 1.64953 7.39758 1.37095C7.67964 1.09238 8.01381 0.872085 8.38101 0.722656C8.7482 0.573227 9.14124 0.497589 9.53767 0.500059C10.058 0.507479 10.5675 0.649547 11.0166 0.912421C11.4656 1.1753 11.839 1.55001 12.1002 2.00006H14.0002C14.0989 1.99975 14.1955 2.02867 14.2778 2.08317C14.3601 2.13767 14.4244 2.21531 14.4627 2.30631C14.4987 2.39866 14.5078 2.49933 14.489 2.59666C14.4702 2.694 14.4242 2.78402 14.3564 2.85631Z" fill="white"/>
</svg>
