<svg width="28" height="28" viewBox="0 0 28 28" fill="none" xmlns="http://www.w3.org/2000/svg">
<path opacity="0.2" d="M21.7031 9.60942C21.6536 9.41864 21.5599 9.24218 21.4296 9.09426C21.2993 8.94634 21.1361 8.83111 20.9531 8.75786C18.3359 7.75786 14 7.7813 14 7.7813C14 7.7813 9.66406 7.75786 7.04688 8.75786C6.86388 8.83111 6.70067 8.94634 6.57039 9.09426C6.44011 9.24218 6.34642 9.41864 6.29687 9.60942C6.11719 10.3125 5.875 11.6719 5.875 14C5.875 16.3282 6.11719 17.6875 6.29687 18.3907C6.34642 18.5815 6.44011 18.7579 6.57039 18.9058C6.70067 19.0538 6.86388 19.169 7.04688 19.2422C9.66406 20.2422 14 20.2188 14 20.2188C14 20.2188 18.3359 20.2422 20.9531 19.2422C21.1361 19.169 21.2993 19.0538 21.4296 18.9058C21.5599 18.7579 21.6536 18.5815 21.7031 18.3907C21.8828 17.6875 22.125 16.3282 22.125 14C22.125 11.6719 21.8828 10.3125 21.7031 9.60942ZM12.75 16.5V11.5L16.5 14L12.75 16.5Z" fill="white"/>
<path d="M16.8438 13.4766L13.0938 10.9766C12.9988 10.9163 12.8899 10.8817 12.7776 10.8762C12.6653 10.8707 12.5535 10.8945 12.4531 10.9453C12.3532 10.9992 12.2699 11.0794 12.2121 11.1771C12.1542 11.2748 12.1241 11.3865 12.125 11.5V16.5C12.1241 16.6135 12.1542 16.7252 12.2121 16.8229C12.2699 16.9206 12.3532 17.0008 12.4531 17.0547C12.5453 17.1008 12.6469 17.1249 12.75 17.125C12.8718 17.1237 12.9908 17.0885 13.0938 17.0234L16.8438 14.5234C16.9308 14.4666 17.0023 14.389 17.0518 14.2976C17.1013 14.2062 17.1272 14.1039 17.1272 14C17.1272 13.8961 17.1013 13.7938 17.0518 13.7024C17.0023 13.611 16.9308 13.5334 16.8438 13.4766ZM13.375 15.3359V12.6641L15.375 14L13.375 15.3359ZM22.3047 9.45313C22.2329 9.1651 22.0923 8.89878 21.895 8.67699C21.6977 8.4552 21.4496 8.28456 21.1719 8.17969C18.5 7.14844 14.2344 7.15625 14 7.15625C13.7656 7.15625 9.5 7.14844 6.82812 8.17969C6.55042 8.28456 6.30229 8.4552 6.10499 8.67699C5.9077 8.89878 5.76712 9.1651 5.69531 9.45313C5.49219 10.2266 5.25 11.6484 5.25 14C5.25 16.3516 5.49219 17.7734 5.69531 18.5469C5.76712 18.8349 5.9077 19.1012 6.10499 19.323C6.30229 19.5448 6.55042 19.7154 6.82812 19.8203C9.39062 20.8125 13.4062 20.8438 13.9453 20.8438H14.0547C14.5938 20.8438 18.6094 20.8125 21.1719 19.8203C21.4496 19.7154 21.6977 19.5448 21.895 19.323C22.0923 19.1012 22.2329 18.8349 22.3047 18.5469C22.5078 17.7734 22.75 16.3516 22.75 14C22.75 11.6484 22.5078 10.2266 22.3047 9.45313ZM21.0938 18.2344C21.0707 18.3289 21.0253 18.4165 20.9614 18.4899C20.8975 18.5633 20.817 18.6204 20.7266 18.6563C18.25 19.6094 14.0469 19.5938 14 19.5938C13.9531 19.5938 9.75 19.6094 7.27344 18.6563C7.183 18.6204 7.10247 18.5633 7.03859 18.4899C6.9747 18.4165 6.92933 18.3289 6.90625 18.2344C6.71875 17.5234 6.5 16.2188 6.5 14C6.5 11.7813 6.71875 10.4766 6.90625 9.76563C6.92933 9.6711 6.9747 9.58347 7.03859 9.51008C7.10247 9.43668 7.183 9.37965 7.27344 9.34375C9.75 8.39063 13.9531 8.40625 14 8.40625C14.0469 8.40625 18.25 8.39063 20.7266 9.34375C20.817 9.37965 20.8975 9.43668 20.9614 9.51008C21.0253 9.58347 21.0707 9.6711 21.0938 9.76563C21.2812 10.4766 21.5 11.7813 21.5 14C21.5 16.2188 21.2812 17.5234 21.0938 18.2344Z" fill="white"/>
</svg>
