<svg width="28" height="28" viewBox="0 0 28 28" fill="none" xmlns="http://www.w3.org/2000/svg">
<path opacity="0.2" d="M21.5 10.875V19.625C21.5 19.7908 21.4342 19.9497 21.3169 20.0669C21.1997 20.1842 21.0408 20.25 20.875 20.25H8.375C8.04348 20.25 7.72554 20.1183 7.49112 19.8839C7.2567 19.6495 7.125 19.3315 7.125 19V9C7.125 9.33152 7.2567 9.64946 7.49112 9.88388C7.72554 10.1183 8.04348 10.25 8.375 10.25H20.875C21.0408 10.25 21.1997 10.3158 21.3169 10.4331C21.4342 10.5503 21.5 10.7092 21.5 10.875Z" fill="white"/>
<path d="M20.875 9.625H8.375C8.20924 9.625 8.05027 9.55915 7.93306 9.44194C7.81585 9.32473 7.75 9.16576 7.75 9C7.75 8.83424 7.81585 8.67527 7.93306 8.55806C8.05027 8.44085 8.20924 8.375 8.375 8.375H19C19.1658 8.375 19.3247 8.30915 19.4419 8.19194C19.5592 8.07473 19.625 7.91576 19.625 7.75C19.625 7.58424 19.5592 7.42527 19.4419 7.30806C19.3247 7.19085 19.1658 7.125 19 7.125H8.375C7.87835 7.12706 7.40263 7.32526 7.05145 7.67645C6.70026 8.02763 6.50206 8.50335 6.5 9V19C6.50206 19.4966 6.70026 19.9724 7.05145 20.3236C7.40263 20.6747 7.87835 20.8729 8.375 20.875H20.875C21.2065 20.875 21.5245 20.7433 21.7589 20.5089C21.9933 20.2745 22.125 19.9565 22.125 19.625V10.875C22.125 10.5435 21.9933 10.2255 21.7589 9.99112C21.5245 9.7567 21.2065 9.625 20.875 9.625ZM20.875 19.625H8.375C8.20924 19.625 8.05027 19.5592 7.93306 19.4419C7.81585 19.3247 7.75 19.1658 7.75 19V10.7656C7.95045 10.8379 8.16191 10.8749 8.375 10.875H20.875V19.625ZM17.125 15.25C17.125 15.0646 17.18 14.8833 17.283 14.7292C17.386 14.575 17.5324 14.4548 17.7037 14.3839C17.875 14.3129 18.0635 14.2943 18.2454 14.3305C18.4273 14.3667 18.5943 14.456 18.7254 14.5871C18.8565 14.7182 18.9458 14.8852 18.982 15.0671C19.0182 15.249 18.9996 15.4375 18.9286 15.6088C18.8577 15.7801 18.7375 15.9265 18.5833 16.0295C18.4292 16.1325 18.2479 16.1875 18.0625 16.1875C17.8139 16.1875 17.5754 16.0887 17.3996 15.9129C17.2238 15.7371 17.125 15.4986 17.125 15.25Z" fill="white"/>
</svg>
