<svg width="44" height="45" viewBox="0 0 44 45" fill="none" xmlns="http://www.w3.org/2000/svg">
<rect x="0.5" y="0.625" width="43" height="43" rx="21.5" stroke="#D9D9D9"/>
<path d="M24.5 22.125C24.5 22.6195 24.3534 23.1028 24.0787 23.5139C23.804 23.925 23.4135 24.2455 22.9567 24.4347C22.4999 24.6239 21.9972 24.6734 21.5123 24.577C21.0273 24.4805 20.5819 24.2424 20.2322 23.8928C19.8826 23.5431 19.6445 23.0977 19.548 22.6127C19.4516 22.1278 19.5011 21.6251 19.6903 21.1683C19.8795 20.7115 20.2 20.321 20.6111 20.0463C21.0222 19.7716 21.5055 19.625 22 19.625C22.6624 19.6271 23.2971 19.8911 23.7655 20.3595C24.2339 20.8279 24.4979 21.4626 24.5 22.125ZM29.8125 18.6875V25.5625C29.8125 26.7228 29.3516 27.8356 28.5311 28.6561C27.7106 29.4766 26.5978 29.9375 25.4375 29.9375H18.5625C17.4022 29.9375 16.2894 29.4766 15.4689 28.6561C14.6484 27.8356 14.1875 26.7228 14.1875 25.5625V18.6875C14.1875 17.5272 14.6484 16.4144 15.4689 15.5939C16.2894 14.7734 17.4022 14.3125 18.5625 14.3125H25.4375C26.5978 14.3125 27.7106 14.7734 28.5311 15.5939C29.3516 16.4144 29.8125 17.5272 29.8125 18.6875ZM25.75 22.125C25.75 21.3833 25.5301 20.6583 25.118 20.0416C24.706 19.4249 24.1203 18.9443 23.4351 18.6605C22.7498 18.3766 21.9958 18.3024 21.2684 18.4471C20.541 18.5918 19.8728 18.9489 19.3483 19.4733C18.8239 19.9978 18.4668 20.666 18.3221 21.3934C18.1774 22.1208 18.2516 22.8748 18.5355 23.5601C18.8193 24.2453 19.2999 24.831 19.9166 25.243C20.5333 25.6551 21.2583 25.875 22 25.875C22.9946 25.875 23.9484 25.4799 24.6517 24.7767C25.3549 24.0734 25.75 23.1196 25.75 22.125ZM27 18.0625C27 17.8771 26.945 17.6958 26.842 17.5417C26.739 17.3875 26.5926 17.2673 26.4213 17.1964C26.25 17.1254 26.0615 17.1068 25.8796 17.143C25.6977 17.1792 25.5307 17.2685 25.3996 17.3996C25.2685 17.5307 25.1792 17.6977 25.143 17.8796C25.1068 18.0615 25.1254 18.25 25.1964 18.4213C25.2673 18.5926 25.3875 18.739 25.5417 18.842C25.6958 18.945 25.8771 19 26.0625 19C26.3111 19 26.5496 18.9012 26.7254 18.7254C26.9012 18.5496 27 18.3111 27 18.0625Z" fill="white"/>
</svg>
