<svg width="30" height="31" viewBox="0 0 30 31" fill="none" xmlns="http://www.w3.org/2000/svg">
<g filter="url(#filter0_i_21127_59399)">
<rect y="0.125" width="30" height="30" rx="6" fill="url(#paint0_linear_21127_59399)"/>
<rect x="0.5" y="0.625" width="29" height="29" rx="5.5" stroke="url(#paint1_linear_21127_59399)"/>
<path d="M19.375 9.875H18.0625V9.4375C18.0625 9.32147 18.0164 9.21019 17.9344 9.12814C17.8523 9.04609 17.741 9 17.625 9C17.509 9 17.3977 9.04609 17.3156 9.12814C17.2336 9.21019 17.1875 9.32147 17.1875 9.4375V9.875H12.8125V9.4375C12.8125 9.32147 12.7664 9.21019 12.6844 9.12814C12.6023 9.04609 12.491 9 12.375 9C12.259 9 12.1477 9.04609 12.0656 9.12814C11.9836 9.21019 11.9375 9.32147 11.9375 9.4375V9.875H10.625C10.3929 9.875 10.1704 9.96719 10.0063 10.1313C9.84219 10.2954 9.75 10.5179 9.75 10.75V19.5C9.75 19.7321 9.84219 19.9546 10.0063 20.1187C10.1704 20.2828 10.3929 20.375 10.625 20.375H19.375C19.6071 20.375 19.8296 20.2828 19.9937 20.1187C20.1578 19.9546 20.25 19.7321 20.25 19.5V10.75C20.25 10.5179 20.1578 10.2954 19.9937 10.1313C19.8296 9.96719 19.6071 9.875 19.375 9.875ZM13.6875 18.4062C13.3393 18.4059 13.0053 18.2684 12.7578 18.0234C12.676 17.9414 12.63 17.8303 12.63 17.7145C12.63 17.5986 12.676 17.4875 12.7578 17.4055C12.7981 17.3643 12.8461 17.3316 12.8992 17.3092C12.9522 17.2869 13.0092 17.2754 13.0668 17.2754C13.1244 17.2754 13.1814 17.2869 13.2344 17.3092C13.2875 17.3316 13.3355 17.3643 13.3758 17.4055C13.4598 17.4857 13.5713 17.5308 13.6875 17.5312C13.8035 17.5312 13.9148 17.4852 13.9969 17.4031C14.0789 17.3211 14.125 17.2098 14.125 17.0938C14.125 16.9777 14.0789 16.8664 13.9969 16.7844C13.9148 16.7023 13.8035 16.6562 13.6875 16.6562H13.5508L13.5289 16.6453H13.5125L13.4852 16.6344H13.4797L13.4469 16.6125H13.4359L13.4141 16.5961L13.3922 16.5797L13.3813 16.5687L13.3648 16.5523C13.3362 16.5194 13.3123 16.4826 13.2938 16.443C13.278 16.4139 13.267 16.3825 13.2609 16.35C13.2555 16.3445 13.2555 16.3391 13.2555 16.3281C13.2557 16.3252 13.2554 16.3222 13.2544 16.3194C13.2535 16.3165 13.252 16.3139 13.25 16.3117V16.1805C13.25 16.1695 13.2555 16.1641 13.2555 16.1586V16.1367C13.2598 16.1303 13.2618 16.1226 13.2609 16.1148C13.2664 16.1094 13.2664 16.1039 13.2664 16.093L13.2773 16.0766C13.2773 16.0656 13.2773 16.0602 13.2828 16.0547L13.2938 16.0328V16.0164L13.3047 15.9945L13.3156 15.9781L13.332 15.9562L13.343 15.9453L13.6492 15.5625H13.0312C12.9152 15.5625 12.8039 15.5164 12.7219 15.4344C12.6398 15.3523 12.5938 15.241 12.5938 15.125C12.5938 15.009 12.6398 14.8977 12.7219 14.8156C12.8039 14.7336 12.9152 14.6875 13.0312 14.6875H14.5625C14.6447 14.688 14.7251 14.7116 14.7945 14.7556C14.864 14.7997 14.9195 14.8625 14.9549 14.9367C14.9903 15.0109 15.0041 15.0936 14.9947 15.1752C14.9852 15.2569 14.9529 15.3343 14.9016 15.3984L14.4203 16.0055C14.6533 16.1626 14.8298 16.3903 14.9237 16.6552C15.0176 16.9201 15.024 17.2081 14.9419 17.4769C14.8599 17.7457 14.6937 17.9811 14.4679 18.1484C14.2421 18.3157 13.9685 18.4061 13.6875 18.4062ZM17.1875 17.9688C17.1875 18.0848 17.1414 18.1961 17.0594 18.2781C16.9773 18.3602 16.866 18.4062 16.75 18.4062C16.634 18.4062 16.5227 18.3602 16.4406 18.2781C16.3586 18.1961 16.3125 18.0848 16.3125 17.9688V16L16.1375 16.1312C16.0442 16.1995 15.9279 16.2285 15.8134 16.2122C15.699 16.1958 15.5955 16.1354 15.525 16.0438C15.4554 15.9509 15.4255 15.8342 15.4419 15.7194C15.4583 15.6045 15.5197 15.5009 15.6125 15.4313L16.4875 14.775C16.5525 14.7263 16.6298 14.6966 16.7107 14.6893C16.7916 14.682 16.873 14.6974 16.9457 14.7337C17.0183 14.77 17.0794 14.8259 17.1222 14.895C17.1649 14.9641 17.1875 15.0438 17.1875 15.125V17.9688ZM19.375 12.5H10.625V10.75H11.9375V11.1875C11.9375 11.3035 11.9836 11.4148 12.0656 11.4969C12.1477 11.5789 12.259 11.625 12.375 11.625C12.491 11.625 12.6023 11.5789 12.6844 11.4969C12.7664 11.4148 12.8125 11.3035 12.8125 11.1875V10.75H17.1875V11.1875C17.1875 11.3035 17.2336 11.4148 17.3156 11.4969C17.3977 11.5789 17.509 11.625 17.625 11.625C17.741 11.625 17.8523 11.5789 17.9344 11.4969C18.0164 11.4148 18.0625 11.3035 18.0625 11.1875V10.75H19.375V12.5Z" fill="#F5FFF9"/>
</g>
<defs>
<filter id="filter0_i_21127_59399" x="0" y="0.125" width="30" height="33" filterUnits="userSpaceOnUse" color-interpolation-filters="sRGB">
<feFlood flood-opacity="0" result="BackgroundImageFix"/>
<feBlend mode="normal" in="SourceGraphic" in2="BackgroundImageFix" result="shape"/>
<feColorMatrix in="SourceAlpha" type="matrix" values="0 0 0 0 0 0 0 0 0 0 0 0 0 0 0 0 0 0 127 0" result="hardAlpha"/>
<feOffset dy="3"/>
<feGaussianBlur stdDeviation="2.5"/>
<feComposite in2="hardAlpha" operator="arithmetic" k2="-1" k3="1"/>
<feColorMatrix type="matrix" values="0 0 0 0 0.137255 0 0 0 0 0.137255 0 0 0 0 0.137255 0 0 0 1 0"/>
<feBlend mode="normal" in2="shape" result="effect1_innerShadow_21127_59399"/>
</filter>
<linearGradient id="paint0_linear_21127_59399" x1="15" y1="30.125" x2="15" y2="0.125" gradientUnits="userSpaceOnUse">
<stop offset="0.72" stop-color="#0F0F0F"/>
<stop offset="1" stop-color="#1A1A1A"/>
</linearGradient>
<linearGradient id="paint1_linear_21127_59399" x1="15" y1="30.125" x2="15" y2="0.125" gradientUnits="userSpaceOnUse">
<stop stop-color="white" stop-opacity="0.06"/>
<stop offset="1" stop-color="white" stop-opacity="0.06"/>
</linearGradient>
</defs>
</svg>
