<svg width="30" height="31" viewBox="0 0 30 31" fill="none" xmlns="http://www.w3.org/2000/svg">
<g filter="url(#filter0_i_21127_59405)">
<rect y="0.125" width="30" height="30" rx="6" fill="url(#paint0_linear_21127_59405)"/>
<rect x="0.5" y="0.625" width="29" height="29" rx="5.5" stroke="url(#paint1_linear_21127_59405)"/>
<path d="M15 9.4375C13.8751 9.4375 12.7755 9.77107 11.8402 10.396C10.9049 11.021 10.1759 11.9092 9.74544 12.9485C9.31496 13.9877 9.20233 15.1313 9.42179 16.2346C9.64124 17.3378 10.1829 18.3513 10.9783 19.1467C11.7737 19.9421 12.7872 20.4838 13.8904 20.7032C14.9937 20.9227 16.1373 20.81 17.1765 20.3796C18.2158 19.9491 19.104 19.2201 19.729 18.2848C20.3539 17.3495 20.6875 16.2499 20.6875 15.125C20.6846 13.6175 20.0845 12.1725 19.0185 11.1065C17.9525 10.0405 16.5075 9.44039 15 9.4375ZM18.0625 15.5625H15C14.884 15.5625 14.7727 15.5164 14.6906 15.4344C14.6086 15.3523 14.5625 15.241 14.5625 15.125V12.0625C14.5625 11.9465 14.6086 11.8352 14.6906 11.7531C14.7727 11.6711 14.884 11.625 15 11.625C15.116 11.625 15.2273 11.6711 15.3094 11.7531C15.3914 11.8352 15.4375 11.9465 15.4375 12.0625V14.6875H18.0625C18.1785 14.6875 18.2898 14.7336 18.3719 14.8156C18.4539 14.8977 18.5 15.009 18.5 15.125C18.5 15.241 18.4539 15.3523 18.3719 15.4344C18.2898 15.5164 18.1785 15.5625 18.0625 15.5625Z" fill="#F5FFF9"/>
</g>
<defs>
<filter id="filter0_i_21127_59405" x="0" y="0.125" width="30" height="33" filterUnits="userSpaceOnUse" color-interpolation-filters="sRGB">
<feFlood flood-opacity="0" result="BackgroundImageFix"/>
<feBlend mode="normal" in="SourceGraphic" in2="BackgroundImageFix" result="shape"/>
<feColorMatrix in="SourceAlpha" type="matrix" values="0 0 0 0 0 0 0 0 0 0 0 0 0 0 0 0 0 0 127 0" result="hardAlpha"/>
<feOffset dy="3"/>
<feGaussianBlur stdDeviation="2.5"/>
<feComposite in2="hardAlpha" operator="arithmetic" k2="-1" k3="1"/>
<feColorMatrix type="matrix" values="0 0 0 0 0.137255 0 0 0 0 0.137255 0 0 0 0 0.137255 0 0 0 1 0"/>
<feBlend mode="normal" in2="shape" result="effect1_innerShadow_21127_59405"/>
</filter>
<linearGradient id="paint0_linear_21127_59405" x1="15" y1="30.125" x2="15" y2="0.125" gradientUnits="userSpaceOnUse">
<stop offset="0.72" stop-color="#0F0F0F"/>
<stop offset="1" stop-color="#1A1A1A"/>
</linearGradient>
<linearGradient id="paint1_linear_21127_59405" x1="15" y1="30.125" x2="15" y2="0.125" gradientUnits="userSpaceOnUse">
<stop stop-color="white" stop-opacity="0.06"/>
<stop offset="1" stop-color="white" stop-opacity="0.06"/>
</linearGradient>
</defs>
</svg>
