<svg width="44" height="45" viewBox="0 0 44 45" fill="none" xmlns="http://www.w3.org/2000/svg">
<rect x="0.5" y="0.625" width="43" height="43" rx="21.5" stroke="#D9D9D9"/>
<path d="M30.1232 22.1236C30.1192 24.1087 29.3907 26.024 28.0745 27.51C26.7583 28.9959 24.9449 29.9503 22.9748 30.1939C22.9308 30.1983 22.8865 30.1934 22.8445 30.1798C22.8024 30.1661 22.7637 30.1439 22.7307 30.1146C22.6977 30.0852 22.6711 30.0494 22.6526 30.0092C22.6341 29.9691 22.6241 29.9256 22.6232 29.8814V23.9986H24.4982C24.5837 23.9988 24.6683 23.9814 24.7468 23.9476C24.8253 23.9138 24.896 23.8642 24.9546 23.802C25.0132 23.7397 25.0584 23.6661 25.0874 23.5858C25.1164 23.5054 25.1286 23.4199 25.1232 23.3346C25.1094 23.1729 25.0348 23.0226 24.9145 22.9139C24.7941 22.8051 24.637 22.7461 24.4748 22.7486H22.6232V20.8736C22.6232 20.5421 22.7549 20.2242 22.9894 19.9897C23.2238 19.7553 23.5417 19.6236 23.8732 19.6236H25.1232C25.2087 19.6238 25.2933 19.6064 25.3718 19.5726C25.4503 19.5388 25.521 19.4892 25.5796 19.427C25.6382 19.3647 25.6834 19.2911 25.7124 19.2108C25.7414 19.1304 25.7536 19.0449 25.7482 18.9596C25.7344 18.798 25.6598 18.6476 25.5395 18.5389C25.4191 18.4301 25.262 18.3711 25.0998 18.3736H23.8732C23.2102 18.3736 22.5743 18.637 22.1055 19.1059C21.6366 19.5747 21.3732 20.2106 21.3732 20.8736V22.7486H19.4982C19.4128 22.7485 19.3282 22.7658 19.2497 22.7996C19.1712 22.8335 19.1005 22.883 19.0419 22.9453C18.9833 23.0075 18.9381 23.0811 18.9091 23.1615C18.8801 23.2419 18.8679 23.3274 18.8732 23.4127C18.8871 23.5743 18.9617 23.7246 19.082 23.8334C19.2024 23.9421 19.3595 24.0012 19.5217 23.9986H21.3732V29.8814C21.3735 29.9252 21.3645 29.9686 21.3469 30.0087C21.3292 30.0488 21.3034 30.0848 21.271 30.1142C21.2385 30.1437 21.2003 30.166 21.1587 30.1798C21.1171 30.1935 21.0731 30.1983 21.0295 30.1939C16.9045 29.6939 13.717 26.108 13.8811 21.8189C13.9732 19.7008 14.8895 17.7026 16.4346 16.2507C17.9797 14.7989 20.031 14.0085 22.1508 14.0483C24.2705 14.0881 26.2908 14.9548 27.7803 16.4636C29.2699 17.9723 30.1107 20.0035 30.1232 22.1236Z" fill="white"/>
</svg>
