<svg width="22" height="23" viewBox="0 0 22 23" fill="none" xmlns="http://www.w3.org/2000/svg">
<g clip-path="url(#clip0_22047_43880)">
<path d="M4.39844 1.22656H17.5984C18.6984 1.22656 19.5984 2.12656 19.5984 3.22656V5.42656C19.5984 6.22656 19.0984 7.22656 18.5984 7.72656L14.2984 11.5266C13.6984 12.0266 13.2984 13.0266 13.2984 13.8266V18.1266C13.2984 18.7266 12.8984 19.5266 12.3984 19.8266L10.9984 20.7266C9.69844 21.5266 7.89844 20.6266 7.89844 19.0266V13.7266C7.89844 13.0266 7.49844 12.1266 7.09844 11.6266L3.29844 7.62656C2.79844 7.12656 2.39844 6.22656 2.39844 5.62656V3.32656C2.39844 2.12656 3.29844 1.22656 4.39844 1.22656Z" stroke="white" stroke-miterlimit="10" stroke-linecap="round" stroke-linejoin="round"/>
<path d="M9.93 1.22656L5 9.12656" stroke="white" stroke-miterlimit="10" stroke-linecap="round" stroke-linejoin="round"/>
</g>
<defs>
<clipPath id="clip0_22047_43880">
<rect width="22" height="22" fill="white" transform="translate(0 0.125)"/>
</clipPath>
</defs>
</svg>
