<svg width="380" height="45" viewBox="0 0 380 45" fill="none" xmlns="http://www.w3.org/2000/svg">
<rect x="0.5" y="0.625" width="43" height="43" rx="21.5" stroke="#D9D9D9"/>
<path d="M30.1232 22.1236C30.1192 24.1087 29.3907 26.024 28.0745 27.51C26.7583 28.9959 24.9449 29.9503 22.9748 30.1939C22.9308 30.1983 22.8865 30.1934 22.8445 30.1798C22.8024 30.1661 22.7637 30.1439 22.7307 30.1146C22.6977 30.0852 22.6711 30.0494 22.6526 30.0092C22.6341 29.9691 22.6241 29.9256 22.6232 29.8814V23.9986H24.4982C24.5837 23.9988 24.6683 23.9814 24.7468 23.9476C24.8253 23.9138 24.896 23.8642 24.9546 23.802C25.0132 23.7397 25.0584 23.6661 25.0874 23.5858C25.1164 23.5054 25.1286 23.4199 25.1232 23.3346C25.1094 23.1729 25.0348 23.0226 24.9145 22.9139C24.7941 22.8051 24.637 22.7461 24.4748 22.7486H22.6232V20.8736C22.6232 20.5421 22.7549 20.2242 22.9894 19.9897C23.2238 19.7553 23.5417 19.6236 23.8732 19.6236H25.1232C25.2087 19.6238 25.2933 19.6064 25.3718 19.5726C25.4503 19.5388 25.521 19.4892 25.5796 19.427C25.6382 19.3647 25.6834 19.2911 25.7124 19.2108C25.7414 19.1304 25.7536 19.0449 25.7482 18.9596C25.7344 18.798 25.6598 18.6476 25.5395 18.5389C25.4191 18.4301 25.262 18.3711 25.0998 18.3736H23.8732C23.2102 18.3736 22.5743 18.637 22.1055 19.1059C21.6366 19.5747 21.3732 20.2106 21.3732 20.8736V22.7486H19.4982C19.4128 22.7485 19.3282 22.7658 19.2497 22.7996C19.1712 22.8335 19.1005 22.883 19.0419 22.9453C18.9833 23.0075 18.9381 23.0811 18.9091 23.1615C18.8801 23.2419 18.8679 23.3274 18.8732 23.4127C18.8871 23.5743 18.9617 23.7246 19.082 23.8334C19.2024 23.9421 19.3595 24.0012 19.5217 23.9986H21.3732V29.8814C21.3735 29.9252 21.3645 29.9686 21.3469 30.0087C21.3292 30.0488 21.3034 30.0848 21.271 30.1142C21.2385 30.1437 21.2003 30.166 21.1587 30.1798C21.1171 30.1935 21.0731 30.1983 21.0295 30.1939C16.9045 29.6939 13.717 26.108 13.8811 21.8189C13.9732 19.7008 14.8895 17.7026 16.4346 16.2507C17.9797 14.7989 20.031 14.0085 22.1508 14.0483C24.2705 14.0881 26.2908 14.9548 27.7803 16.4636C29.2699 17.9723 30.1107 20.0035 30.1232 22.1236Z" fill="white"/>
<rect x="56.5" y="0.625" width="43" height="43" rx="21.5" stroke="#D9D9D9"/>
<path d="M80.5 22.125C80.5 22.6195 80.3534 23.1028 80.0787 23.5139C79.804 23.925 79.4135 24.2455 78.9567 24.4347C78.4999 24.6239 77.9972 24.6734 77.5123 24.577C77.0273 24.4805 76.5819 24.2424 76.2322 23.8928C75.8826 23.5431 75.6445 23.0977 75.548 22.6127C75.4516 22.1278 75.5011 21.6251 75.6903 21.1683C75.8795 20.7115 76.2 20.321 76.6111 20.0463C77.0222 19.7716 77.5055 19.625 78 19.625C78.6624 19.6271 79.2971 19.8911 79.7655 20.3595C80.2339 20.8279 80.4979 21.4626 80.5 22.125ZM85.8125 18.6875V25.5625C85.8125 26.7228 85.3516 27.8356 84.5311 28.6561C83.7106 29.4766 82.5978 29.9375 81.4375 29.9375H74.5625C73.4022 29.9375 72.2894 29.4766 71.4689 28.6561C70.6484 27.8356 70.1875 26.7228 70.1875 25.5625V18.6875C70.1875 17.5272 70.6484 16.4144 71.4689 15.5939C72.2894 14.7734 73.4022 14.3125 74.5625 14.3125H81.4375C82.5978 14.3125 83.7106 14.7734 84.5311 15.5939C85.3516 16.4144 85.8125 17.5272 85.8125 18.6875ZM81.75 22.125C81.75 21.3833 81.5301 20.6583 81.118 20.0416C80.706 19.4249 80.1203 18.9443 79.4351 18.6605C78.7498 18.3766 77.9958 18.3024 77.2684 18.4471C76.541 18.5918 75.8728 18.9489 75.3483 19.4733C74.8239 19.9978 74.4668 20.666 74.3221 21.3934C74.1774 22.1208 74.2516 22.8748 74.5355 23.5601C74.8193 24.2453 75.2999 24.831 75.9166 25.243C76.5333 25.6551 77.2583 25.875 78 25.875C78.9946 25.875 79.9484 25.4799 80.6517 24.7767C81.3549 24.0734 81.75 23.1196 81.75 22.125ZM83 18.0625C83 17.8771 82.945 17.6958 82.842 17.5417C82.739 17.3875 82.5926 17.2673 82.4213 17.1964C82.25 17.1254 82.0615 17.1068 81.8796 17.143C81.6977 17.1792 81.5307 17.2685 81.3996 17.3996C81.2685 17.5307 81.1792 17.6977 81.143 17.8796C81.1068 18.0615 81.1254 18.25 81.1964 18.4213C81.2673 18.5926 81.3875 18.739 81.5417 18.842C81.6958 18.945 81.8771 19 82.0625 19C82.3111 19 82.5496 18.9012 82.7254 18.7254C82.9012 18.5496 83 18.3111 83 18.0625Z" fill="white"/>
<rect x="112.5" y="0.625" width="43" height="43" rx="21.5" stroke="#D9D9D9"/>
<path fill-rule="evenodd" clip-rule="evenodd" d="M141.988 29.9375L135.74 20.831L135.751 20.8395L141.384 14.3125H139.502L134.913 19.625L131.269 14.3125H126.331L132.164 22.8146L132.164 22.8139L126.012 29.9375H127.894L132.996 24.027L137.051 29.9375H141.988ZM130.523 15.7329L139.289 28.5171H137.797L129.024 15.7329H130.523Z" fill="white"/>
<rect x="168.5" y="0.625" width="43" height="43" rx="21.5" stroke="#D9D9D9"/>
<path d="M196.562 14.3125H183.438C183.106 14.3125 182.788 14.4442 182.554 14.6786C182.319 14.913 182.188 15.231 182.188 15.5625V28.6875C182.188 29.019 182.319 29.337 182.554 29.5714C182.788 29.8058 183.106 29.9375 183.438 29.9375H196.562C196.894 29.9375 197.212 29.8058 197.446 29.5714C197.681 29.337 197.812 29.019 197.812 28.6875V15.5625C197.812 15.231 197.681 14.913 197.446 14.6786C197.212 14.4442 196.894 14.3125 196.562 14.3125ZM187.5 25.875C187.5 26.0408 187.434 26.1997 187.317 26.3169C187.2 26.4342 187.041 26.5 186.875 26.5C186.709 26.5 186.55 26.4342 186.433 26.3169C186.316 26.1997 186.25 26.0408 186.25 25.875V20.875C186.25 20.7092 186.316 20.5503 186.433 20.4331C186.55 20.3158 186.709 20.25 186.875 20.25C187.041 20.25 187.2 20.3158 187.317 20.4331C187.434 20.5503 187.5 20.7092 187.5 20.875V25.875ZM186.875 19.3125C186.69 19.3125 186.508 19.2575 186.354 19.1545C186.2 19.0515 186.08 18.9051 186.009 18.7338C185.938 18.5625 185.919 18.374 185.956 18.1921C185.992 18.0102 186.081 17.8432 186.212 17.7121C186.343 17.581 186.51 17.4917 186.692 17.4555C186.874 17.4193 187.062 17.4379 187.234 17.5089C187.405 17.5798 187.551 17.7 187.655 17.8542C187.758 18.0083 187.812 18.1896 187.812 18.375C187.812 18.6236 187.714 18.8621 187.538 19.0379C187.362 19.2137 187.124 19.3125 186.875 19.3125ZM194.375 25.875C194.375 26.0408 194.309 26.1997 194.192 26.3169C194.075 26.4342 193.916 26.5 193.75 26.5C193.584 26.5 193.425 26.4342 193.308 26.3169C193.191 26.1997 193.125 26.0408 193.125 25.875V23.0625C193.125 22.6481 192.96 22.2507 192.667 21.9576C192.374 21.6646 191.977 21.5 191.562 21.5C191.148 21.5 190.751 21.6646 190.458 21.9576C190.165 22.2507 190 22.6481 190 23.0625V25.875C190 26.0408 189.934 26.1997 189.817 26.3169C189.7 26.4342 189.541 26.5 189.375 26.5C189.209 26.5 189.05 26.4342 188.933 26.3169C188.816 26.1997 188.75 26.0408 188.75 25.875V20.875C188.75 20.7212 188.806 20.5726 188.908 20.4577C189.01 20.3428 189.151 20.2697 189.304 20.2523C189.457 20.2348 189.611 20.2744 189.736 20.3634C189.862 20.4523 189.95 20.5844 189.984 20.7344C190.407 20.4477 190.9 20.2816 191.41 20.254C191.921 20.2264 192.429 20.3383 192.88 20.5776C193.331 20.8169 193.709 21.1747 193.972 21.6125C194.236 22.0503 194.375 22.5516 194.375 23.0625V25.875Z" fill="white"/>
<rect x="224.5" y="0.625" width="43" height="43" rx="21.5" stroke="#D9D9D9"/>
<path d="M254.125 18.6875V21.8125C254.125 21.9783 254.059 22.1372 253.942 22.2544C253.825 22.3717 253.666 22.4375 253.5 22.4375C252.194 22.4409 250.908 22.1273 249.75 21.5234V24.3125C249.75 25.4421 249.428 26.5483 248.822 27.5012C248.215 28.4542 247.349 29.2143 246.326 29.6925C245.303 30.1707 244.164 30.347 243.044 30.2008C241.924 30.0546 240.869 29.5919 240.002 28.867C239.136 28.1422 238.494 27.1852 238.153 26.1085C237.811 25.0318 237.784 23.88 238.074 22.7883C238.364 21.6966 238.96 20.7103 239.791 19.9452C240.622 19.1801 241.654 18.6679 242.766 18.4688C242.855 18.4527 242.946 18.4563 243.034 18.4793C243.122 18.5022 243.203 18.5439 243.273 18.6016C243.346 18.6598 243.403 18.7336 243.443 18.8176C243.482 18.9015 243.502 18.9933 243.5 19.0859V22.3359C243.5 22.4543 243.467 22.5702 243.403 22.67C243.339 22.7697 243.248 22.849 243.141 22.8984C242.888 23.0186 242.673 23.2041 242.517 23.4358C242.361 23.6675 242.27 23.9367 242.253 24.2156C242.236 24.4945 242.294 24.7727 242.422 25.0214C242.549 25.2701 242.741 25.48 242.977 25.6294C243.213 25.7788 243.485 25.8622 243.764 25.8709C244.043 25.8795 244.32 25.8132 244.565 25.6787C244.809 25.5442 245.014 25.3465 245.156 25.1063C245.299 24.866 245.374 24.5919 245.375 24.3125V14.3125C245.375 14.1467 245.441 13.9878 245.558 13.8706C245.675 13.7533 245.834 13.6875 246 13.6875H249.125C249.291 13.6875 249.45 13.7533 249.567 13.8706C249.684 13.9878 249.75 14.1467 249.75 14.3125C249.75 15.3071 250.145 16.2609 250.848 16.9642C251.552 17.6674 252.505 18.0625 253.5 18.0625C253.666 18.0625 253.825 18.1283 253.942 18.2456C254.059 18.3628 254.125 18.5217 254.125 18.6875Z" fill="white"/>
<rect x="280.5" y="0.625" width="43" height="43" rx="21.5" stroke="#D9D9D9"/>
<path d="M310.072 14.6029C309.899 14.4559 309.689 14.3587 309.465 14.3216C309.24 14.2845 309.01 14.3088 308.799 14.3919L294.377 20.056C294.124 20.1524 293.91 20.3292 293.767 20.5593C293.625 20.7894 293.562 21.06 293.588 21.3294C293.611 21.5987 293.721 21.8532 293.902 22.0546C294.082 22.256 294.323 22.3936 294.588 22.4466L298.252 23.1732V27.7513C298.252 27.999 298.325 28.2411 298.463 28.447C298.601 28.6528 298.796 28.8131 299.025 28.9076C299.177 28.9685 299.339 29.0004 299.502 29.0013C299.666 29.0019 299.829 28.9697 299.98 28.9067C300.132 28.8436 300.269 28.751 300.385 28.6341L302.416 26.6107L305.486 29.3138C305.713 29.5137 306.004 29.6247 306.307 29.6263C306.44 29.629 306.572 29.6079 306.697 29.5638C306.903 29.4986 307.089 29.3807 307.236 29.2217C307.382 29.0628 307.485 28.8683 307.533 28.6576L310.471 15.8294C310.522 15.6081 310.512 15.3769 310.442 15.1608C310.372 14.9447 310.244 14.7518 310.072 14.6029ZM298.728 21.9935L294.838 21.2201L305.744 16.931L298.728 21.9935ZM299.502 27.7513V24.0482L301.471 25.7826L299.502 27.7513ZM306.314 28.3763L299.877 22.7122L309.15 16.0169L306.314 28.3763Z" fill="white"/>
<rect x="336.5" y="0.625" width="43" height="43" rx="21.5" stroke="#D9D9D9"/>
<path d="M366.305 17.5781C366.233 17.2901 366.092 17.0238 365.895 16.802C365.698 16.5802 365.45 16.4096 365.172 16.3047C362.5 15.2734 358.234 15.2813 358 15.2813C357.766 15.2813 353.5 15.2734 350.828 16.3047C350.55 16.4096 350.302 16.5802 350.105 16.802C349.908 17.0238 349.767 17.2901 349.695 17.5781C349.492 18.3516 349.25 19.7734 349.25 22.125C349.25 24.4766 349.492 25.8984 349.695 26.6719C349.767 26.9599 349.908 27.2262 350.105 27.448C350.302 27.6698 350.55 27.8404 350.828 27.9453C353.391 28.9375 357.406 28.9688 357.945 28.9688H358.055C358.594 28.9688 362.609 28.9375 365.172 27.9453C365.45 27.8404 365.698 27.6698 365.895 27.448C366.092 27.2262 366.233 26.9599 366.305 26.6719C366.508 25.8984 366.75 24.4766 366.75 22.125C366.75 19.7734 366.508 18.3516 366.305 17.5781ZM360.672 22.3828L356.922 24.8828C356.872 24.9194 356.812 24.9386 356.75 24.9375C356.698 24.9356 356.648 24.9222 356.602 24.8984C356.552 24.8725 356.51 24.8332 356.481 24.7849C356.452 24.7366 356.437 24.6813 356.438 24.625V19.625C356.437 19.5687 356.452 19.5134 356.481 19.4651C356.51 19.4168 356.552 19.3775 356.602 19.3516C356.651 19.325 356.707 19.3124 356.764 19.3152C356.82 19.3179 356.875 19.3359 356.922 19.3672L360.672 21.8672C360.715 21.8946 360.751 21.9327 360.776 21.9778C360.801 22.0228 360.814 22.0735 360.814 22.125C360.814 22.1765 360.801 22.2272 360.776 22.2722C360.751 22.3173 360.715 22.3554 360.672 22.3828Z" fill="white"/>
</svg>
