<svg width="44" height="45" viewBox="0 0 44 45" fill="none" xmlns="http://www.w3.org/2000/svg">
<rect x="0.5" y="0.625" width="43" height="43" rx="21.5" stroke="#D9D9D9"/>
<path d="M30.0722 14.6029C29.8988 14.4559 29.6889 14.3587 29.4647 14.3216C29.2404 14.2845 29.0103 14.3088 28.7988 14.3919L14.3769 20.056C14.124 20.1524 13.9097 20.3292 13.7671 20.5593C13.6246 20.7894 13.5616 21.06 13.5879 21.3294C13.6113 21.5987 13.7215 21.8532 13.9018 22.0546C14.0821 22.256 14.3228 22.3936 14.5879 22.4466L18.2519 23.1732V27.7513C18.2518 27.999 18.3253 28.2411 18.463 28.447C18.6007 28.6528 18.7964 28.8131 19.0254 28.9076C19.1769 28.9685 19.3386 29.0004 19.5019 29.0013C19.6661 29.0019 19.8288 28.9697 19.9803 28.9067C20.1319 28.8436 20.2694 28.751 20.3847 28.6341L22.416 26.6107L25.4863 29.3138C25.713 29.5137 26.0044 29.6247 26.3066 29.6263C26.4395 29.629 26.5718 29.6079 26.6972 29.5638C26.9034 29.4986 27.089 29.3807 27.2356 29.2217C27.3822 29.0628 27.4848 28.8683 27.5332 28.6576L30.4707 15.8294C30.522 15.6081 30.5121 15.3769 30.4419 15.1608C30.3717 14.9447 30.2439 14.7518 30.0722 14.6029ZM18.7285 21.9935L14.8379 21.2201L25.7441 16.931L18.7285 21.9935ZM19.5019 27.7513V24.0482L21.4707 25.7826L19.5019 27.7513ZM26.3144 28.3763L19.8769 22.7122L29.1504 16.0169L26.3144 28.3763Z" fill="white"/>
</svg>
