<svg width="44" height="45" viewBox="0 0 44 45" fill="none" xmlns="http://www.w3.org/2000/svg">
<rect x="0.5" y="0.625" width="43" height="43" rx="21.5" stroke="#D9D9D9"/>
<path d="M28.5625 14.3125H15.4375C15.106 14.3125 14.788 14.4442 14.5536 14.6786C14.3192 14.913 14.1875 15.231 14.1875 15.5625V28.6875C14.1875 29.019 14.3192 29.337 14.5536 29.5714C14.788 29.8058 15.106 29.9375 15.4375 29.9375H28.5625C28.894 29.9375 29.212 29.8058 29.4464 29.5714C29.6808 29.337 29.8125 29.019 29.8125 28.6875V15.5625C29.8125 15.231 29.6808 14.913 29.4464 14.6786C29.212 14.4442 28.894 14.3125 28.5625 14.3125ZM19.5 25.875C19.5 26.0408 19.4342 26.1997 19.3169 26.3169C19.1997 26.4342 19.0408 26.5 18.875 26.5C18.7092 26.5 18.5503 26.4342 18.4331 26.3169C18.3158 26.1997 18.25 26.0408 18.25 25.875V20.875C18.25 20.7092 18.3158 20.5503 18.4331 20.4331C18.5503 20.3158 18.7092 20.25 18.875 20.25C19.0408 20.25 19.1997 20.3158 19.3169 20.4331C19.4342 20.5503 19.5 20.7092 19.5 20.875V25.875ZM18.875 19.3125C18.6896 19.3125 18.5083 19.2575 18.3542 19.1545C18.2 19.0515 18.0798 18.9051 18.0089 18.7338C17.9379 18.5625 17.9193 18.374 17.9555 18.1921C17.9917 18.0102 18.081 17.8432 18.2121 17.7121C18.3432 17.581 18.5102 17.4917 18.6921 17.4555C18.874 17.4193 19.0625 17.4379 19.2338 17.5089C19.4051 17.5798 19.5515 17.7 19.6545 17.8542C19.7575 18.0083 19.8125 18.1896 19.8125 18.375C19.8125 18.6236 19.7137 18.8621 19.5379 19.0379C19.3621 19.2137 19.1236 19.3125 18.875 19.3125ZM26.375 25.875C26.375 26.0408 26.3092 26.1997 26.1919 26.3169C26.0747 26.4342 25.9158 26.5 25.75 26.5C25.5842 26.5 25.4253 26.4342 25.3081 26.3169C25.1908 26.1997 25.125 26.0408 25.125 25.875V23.0625C25.125 22.6481 24.9604 22.2507 24.6674 21.9576C24.3743 21.6646 23.9769 21.5 23.5625 21.5C23.1481 21.5 22.7507 21.6646 22.4576 21.9576C22.1646 22.2507 22 22.6481 22 23.0625V25.875C22 26.0408 21.9342 26.1997 21.8169 26.3169C21.6997 26.4342 21.5408 26.5 21.375 26.5C21.2092 26.5 21.0503 26.4342 20.9331 26.3169C20.8158 26.1997 20.75 26.0408 20.75 25.875V20.875C20.7496 20.7212 20.8059 20.5726 20.9081 20.4577C21.0104 20.3428 21.1514 20.2697 21.3043 20.2523C21.4571 20.2348 21.611 20.2744 21.7364 20.3634C21.8619 20.4523 21.9502 20.5844 21.9844 20.7344C22.4073 20.4477 22.9003 20.2816 23.4105 20.254C23.9206 20.2264 24.4287 20.3383 24.8801 20.5776C25.3314 20.8169 25.7091 21.1747 25.9725 21.6125C26.2359 22.0503 26.375 22.5516 26.375 23.0625V25.875Z" fill="white"/>
</svg>
