<svg width="20" height="21" viewBox="0 0 20 21" fill="none" xmlns="http://www.w3.org/2000/svg">
<path d="M17.9453 17.1797L14.5625 13.8047C15.7564 12.3833 16.3555 10.5558 16.2348 8.70344C16.114 6.85107 15.2828 5.11682 13.9146 3.86238C12.5463 2.60794 10.7465 1.93018 8.89063 1.97045C7.03477 2.01071 5.2661 2.7659 3.9535 4.0785C2.6409 5.3911 1.88571 7.15977 1.84545 9.01563C1.80518 10.8715 2.48294 12.6713 3.73738 14.0396C4.99182 15.4078 6.72607 16.239 8.57844 16.3598C10.4308 16.4805 12.2583 15.8814 13.6797 14.6875L17.0547 18.0703C17.1741 18.1858 17.3338 18.2504 17.5 18.2504C17.6662 18.2504 17.8258 18.1858 17.9453 18.0703C18.0627 17.9518 18.1285 17.7918 18.1285 17.625C18.1285 17.4582 18.0627 17.2982 17.9453 17.1797ZM3.125 9.1875C3.125 8.01317 3.47323 6.86522 4.12565 5.8888C4.77807 4.91238 5.70538 4.15136 6.79032 3.70196C7.87525 3.25257 9.06909 3.13499 10.2208 3.36409C11.3726 3.59319 12.4306 4.15868 13.2609 4.98905C14.0913 5.81943 14.6568 6.87739 14.8859 8.02915C15.115 9.18091 14.9974 10.3747 14.548 11.4597C14.0986 12.5446 13.3376 13.4719 12.3612 14.1243C11.3848 14.7768 10.2368 15.125 9.0625 15.125C7.48841 15.1229 5.97938 14.4967 4.86634 13.3837C3.75329 12.2706 3.12707 10.7616 3.125 9.1875Z" fill="white"/>
</svg>
