<svg width="44" height="45" viewBox="0 0 44 45" fill="none" xmlns="http://www.w3.org/2000/svg">
<rect x="0.5" y="0.625" width="43" height="43" rx="21.5" stroke="#D9D9D9"/>
<path d="M30.125 18.6875V21.8125C30.125 21.9783 30.0592 22.1372 29.9419 22.2544C29.8247 22.3717 29.6658 22.4375 29.5 22.4375C28.1944 22.4409 26.9076 22.1273 25.75 21.5234V24.3125C25.7501 25.4421 25.4281 26.5483 24.8216 27.5012C24.2151 28.4542 23.3493 29.2143 22.3259 29.6925C21.3026 30.1707 20.164 30.347 19.0439 30.2008C17.9239 30.0546 16.8687 29.5919 16.0024 28.867C15.1361 28.1422 14.4945 27.1852 14.1529 26.1085C13.8114 25.0318 13.7841 23.88 14.0742 22.7883C14.3643 21.6966 14.9598 20.7103 15.7907 19.9452C16.6217 19.1801 17.6537 18.6679 18.7656 18.4688C18.8548 18.4527 18.9465 18.4563 19.0341 18.4793C19.1218 18.5022 19.2035 18.5439 19.2734 18.6016C19.3455 18.6598 19.4034 18.7336 19.4427 18.8176C19.4819 18.9015 19.5015 18.9933 19.5 19.0859V22.3359C19.5003 22.4543 19.4666 22.5702 19.4029 22.67C19.3392 22.7697 19.2482 22.849 19.1406 22.8984C18.8884 23.0186 18.673 23.2041 18.5168 23.4358C18.3607 23.6675 18.2695 23.9367 18.2528 24.2156C18.2361 24.4945 18.2944 24.7727 18.4218 25.0214C18.5492 25.2701 18.7409 25.48 18.9769 25.6294C19.213 25.7788 19.4848 25.8622 19.764 25.8709C20.0433 25.8795 20.3197 25.8132 20.5646 25.6787C20.8095 25.5442 21.0138 25.3465 21.1564 25.1063C21.2989 24.866 21.3744 24.5919 21.375 24.3125V14.3125C21.375 14.1467 21.4408 13.9878 21.5581 13.8706C21.6753 13.7533 21.8342 13.6875 22 13.6875H25.125C25.2908 13.6875 25.4497 13.7533 25.5669 13.8706C25.6842 13.9878 25.75 14.1467 25.75 14.3125C25.75 15.3071 26.1451 16.2609 26.8483 16.9642C27.5516 17.6674 28.5054 18.0625 29.5 18.0625C29.6658 18.0625 29.8247 18.1283 29.9419 18.2456C30.0592 18.3628 30.125 18.5217 30.125 18.6875Z" fill="white"/>
</svg>
