<svg width="44" height="45" viewBox="0 0 44 45" fill="none" xmlns="http://www.w3.org/2000/svg">
<rect x="0.5" y="0.625" width="43" height="43" rx="21.5" stroke="#D9D9D9"/>
<path d="M30.3047 17.5781C30.2329 17.2901 30.0923 17.0238 29.895 16.802C29.6977 16.5802 29.4496 16.4096 29.1719 16.3047C26.5 15.2734 22.2344 15.2813 22 15.2813C21.7656 15.2813 17.5 15.2734 14.8281 16.3047C14.5504 16.4096 14.3023 16.5802 14.105 16.802C13.9077 17.0238 13.7671 17.2901 13.6953 17.5781C13.4922 18.3516 13.25 19.7734 13.25 22.125C13.25 24.4766 13.4922 25.8984 13.6953 26.6719C13.7671 26.9599 13.9077 27.2262 14.105 27.448C14.3023 27.6698 14.5504 27.8404 14.8281 27.9453C17.3906 28.9375 21.4062 28.9688 21.9453 28.9688H22.0547C22.5938 28.9688 26.6094 28.9375 29.1719 27.9453C29.4496 27.8404 29.6977 27.6698 29.895 27.448C30.0923 27.2262 30.2329 26.9599 30.3047 26.6719C30.5078 25.8984 30.75 24.4766 30.75 22.125C30.75 19.7734 30.5078 18.3516 30.3047 17.5781ZM24.6719 22.3828L20.9219 24.8828C20.8721 24.9194 20.8117 24.9386 20.75 24.9375C20.6982 24.9356 20.6476 24.9222 20.6016 24.8984C20.5516 24.8725 20.5099 24.8332 20.4809 24.7849C20.4519 24.7366 20.4369 24.6813 20.4375 24.625V19.625C20.4369 19.5687 20.4519 19.5134 20.4809 19.4651C20.5099 19.4168 20.5516 19.3775 20.6016 19.3516C20.6514 19.325 20.7075 19.3124 20.7639 19.3152C20.8203 19.3179 20.8749 19.3359 20.9219 19.3672L24.6719 21.8672C24.7154 21.8946 24.7514 21.9327 24.7762 21.9778C24.8011 22.0228 24.8142 22.0735 24.8142 22.125C24.8142 22.1765 24.8011 22.2272 24.7762 22.2722C24.7514 22.3173 24.7154 22.3554 24.6719 22.3828Z" fill="white"/>
</svg>
