<svg width="22" height="22" viewBox="0 0 22 22" fill="none" xmlns="http://www.w3.org/2000/svg">
<g clip-path="url(#clip0_22047_43848)">
<mask id="path-1-inside-1_22047_43848" fill="white">
<path d="M11.0016 15.8734C10.9525 15.8733 10.904 15.8632 10.8589 15.8439C10.8138 15.8245 10.773 15.7963 10.7391 15.7609L3.23906 8.26094C3.1849 8.18872 3.15861 8.0994 3.16501 8.00935C3.17141 7.91931 3.21007 7.8346 3.2739 7.77077C3.33773 7.70694 3.42244 7.66828 3.51248 7.66188C3.60252 7.65548 3.69185 7.68178 3.76406 7.73594L11.0016 14.9641L18.2391 7.73594C18.2713 7.69296 18.3124 7.6574 18.3596 7.63169C18.4067 7.60597 18.4589 7.59069 18.5125 7.58688C18.5661 7.58307 18.6199 7.59082 18.6702 7.60961C18.7205 7.6284 18.7662 7.65778 18.8042 7.69577C18.8422 7.73376 18.8716 7.77947 18.8904 7.82981C18.9092 7.88014 18.9169 7.93393 18.9131 7.98752C18.9093 8.04111 18.894 8.09326 18.8683 8.14043C18.8426 8.18761 18.807 8.2287 18.7641 8.26094L11.2641 15.7609C11.2301 15.7963 11.1893 15.8245 11.1443 15.8439C11.0992 15.8632 11.0506 15.8733 11.0016 15.8734Z"/>
</mask>
<path d="M11.0016 15.8734C10.9525 15.8733 10.904 15.8632 10.8589 15.8439C10.8138 15.8245 10.773 15.7963 10.7391 15.7609L3.23906 8.26094C3.1849 8.18872 3.15861 8.0994 3.16501 8.00935C3.17141 7.91931 3.21007 7.8346 3.2739 7.77077C3.33773 7.70694 3.42244 7.66828 3.51248 7.66188C3.60252 7.65548 3.69185 7.68178 3.76406 7.73594L11.0016 14.9641L18.2391 7.73594C18.2713 7.69296 18.3124 7.6574 18.3596 7.63169C18.4067 7.60597 18.4589 7.59069 18.5125 7.58688C18.5661 7.58307 18.6199 7.59082 18.6702 7.60961C18.7205 7.6284 18.7662 7.65778 18.8042 7.69577C18.8422 7.73376 18.8716 7.77947 18.8904 7.82981C18.9092 7.88014 18.9169 7.93393 18.9131 7.98752C18.9093 8.04111 18.894 8.09326 18.8683 8.14043C18.8426 8.18761 18.807 8.2287 18.7641 8.26094L11.2641 15.7609C11.2301 15.7963 11.1893 15.8245 11.1443 15.8439C11.0992 15.8632 11.0506 15.8733 11.0016 15.8734Z" fill="#111827"/>
<path d="M10.7391 15.7609L11.4607 15.0686L11.4535 15.0612L11.4462 15.0538L10.7391 15.7609ZM3.23906 8.26094L2.43906 8.86094L2.4817 8.91779L2.53196 8.96804L3.23906 8.26094ZM3.76406 7.73594L4.47071 7.02837L4.42066 6.97838L4.36406 6.93594L3.76406 7.73594ZM11.0016 14.9641L10.2949 15.6716L11.0016 16.3774L11.7082 15.6716L11.0016 14.9641ZM18.2391 7.73594L18.9457 8.4435L18.9962 8.39305L19.0391 8.33594L18.2391 7.73594ZM18.7641 8.26094L18.1641 7.46094L18.1072 7.50358L18.057 7.55383L18.7641 8.26094ZM11.2641 15.7609L10.557 15.0538L10.5496 15.0612L10.5425 15.0686L11.2641 15.7609ZM11.0052 14.8734C11.0904 14.8738 11.1745 14.8912 11.2528 14.9247L10.465 16.763C10.6334 16.8352 10.8146 16.8728 10.9979 16.8734L11.0052 14.8734ZM11.2528 14.9247C11.331 14.9583 11.4017 15.0072 11.4607 15.0686L10.0175 16.4532C10.1443 16.5855 10.2965 16.6908 10.465 16.763L11.2528 14.9247ZM11.4462 15.0538L3.94617 7.55383L2.53196 8.96804L10.032 16.468L11.4462 15.0538ZM4.03906 7.66094C4.12933 7.7813 4.17316 7.93018 4.16249 8.08024L2.16752 7.93847C2.14406 8.26862 2.24047 8.59615 2.43906 8.86094L4.03906 7.66094ZM4.16249 8.08024C4.15183 8.23031 4.08739 8.37149 3.981 8.47788L2.56679 7.06367C2.33275 7.29771 2.19099 7.60832 2.16752 7.93847L4.16249 8.08024ZM3.981 8.47788C3.87462 8.58426 3.73343 8.6487 3.58337 8.65937L3.44159 6.6644C3.11144 6.68786 2.80083 6.82962 2.56679 7.06367L3.981 8.47788ZM3.58337 8.65937C3.4333 8.67003 3.28442 8.62621 3.16406 8.53594L4.36406 6.93594C4.09927 6.73735 3.77174 6.64093 3.44159 6.6644L3.58337 8.65937ZM3.05741 8.4435L10.2949 15.6716L11.7082 14.2565L4.47071 7.02837L3.05741 8.4435ZM11.7082 15.6716L18.9457 8.4435L17.5324 7.02837L10.2949 14.2565L11.7082 15.6716ZM19.0391 8.33594C18.9853 8.40758 18.9168 8.46683 18.8382 8.50969L17.8809 6.75368C17.708 6.84797 17.5573 6.97833 17.4391 7.13594L19.0391 8.33594ZM18.8382 8.50969C18.7596 8.55255 18.6727 8.57802 18.5834 8.58437L18.4416 6.5894C18.2451 6.60336 18.0539 6.65939 17.8809 6.75368L18.8382 8.50969ZM18.5834 8.58437C18.494 8.59071 18.4044 8.57779 18.3205 8.54648L19.0199 6.67274C18.8353 6.60385 18.6381 6.57543 18.4416 6.5894L18.5834 8.58437ZM18.3205 8.54648C18.2366 8.51517 18.1604 8.46619 18.0971 8.40288L19.5113 6.98867C19.372 6.84937 19.2044 6.74163 19.0199 6.67274L18.3205 8.54648ZM18.0971 8.40288C18.0338 8.33956 17.9848 8.26338 17.9535 8.17948L19.8273 7.48013C19.7584 7.29557 19.6506 7.12797 19.5113 6.98867L18.0971 8.40288ZM17.9535 8.17948C17.9222 8.0956 17.9093 8.00596 17.9156 7.91663L19.9106 8.05841C19.9246 7.8619 19.8961 7.66469 19.8273 7.48013L17.9535 8.17948ZM17.9156 7.91663C17.922 7.82732 17.9474 7.7404 17.9903 7.66178L19.7463 8.61909C19.8406 8.44612 19.8966 8.25491 19.9106 8.05841L17.9156 7.91663ZM17.9903 7.66178C18.0332 7.58316 18.0924 7.51467 18.1641 7.46094L19.3641 9.06094C19.5217 8.94274 19.652 8.79205 19.7463 8.61909L17.9903 7.66178ZM18.057 7.55383L10.557 15.0538L11.9712 16.468L19.4712 8.96804L18.057 7.55383ZM10.5425 15.0686C10.6014 15.0072 10.6721 14.9583 10.7503 14.9247L11.5382 16.763C11.7066 16.6908 11.8588 16.5855 11.9857 16.4532L10.5425 15.0686ZM10.7503 14.9247C10.8286 14.8912 10.9128 14.8738 10.9979 14.8734L11.0052 16.8734C11.1885 16.8728 11.3697 16.8352 11.5382 16.763L10.7503 14.9247Z" fill="white" mask="url(#path-1-inside-1_22047_43848)"/>
</g>
<defs>
<clipPath id="clip0_22047_43848">
<rect width="22" height="22" fill="white"/>
</clipPath>
</defs>
</svg>
