<svg width="22" height="22" viewBox="0 0 22 22" fill="none" xmlns="http://www.w3.org/2000/svg">
<g clip-path="url(#clip0_22047_44639)">
<path d="M4.39844 1.10156H17.5984C18.6984 1.10156 19.5984 2.00156 19.5984 3.10156V5.30156C19.5984 6.10156 19.0984 7.10156 18.5984 7.60156L14.2984 11.4016C13.6984 11.9016 13.2984 12.9016 13.2984 13.7016V18.0016C13.2984 18.6016 12.8984 19.4016 12.3984 19.7016L10.9984 20.6016C9.69844 21.4016 7.89844 20.5016 7.89844 18.9016V13.6016C7.89844 12.9016 7.49844 12.0016 7.09844 11.5016L3.29844 7.50156C2.79844 7.00156 2.39844 6.10156 2.39844 5.50156V3.20156C2.39844 2.00156 3.29844 1.10156 4.39844 1.10156Z" stroke="white" stroke-miterlimit="10" stroke-linecap="round" stroke-linejoin="round"/>
<path d="M9.93 1.10156L5 9.00156" stroke="white" stroke-miterlimit="10" stroke-linecap="round" stroke-linejoin="round"/>
</g>
<defs>
<clipPath id="clip0_22047_44639">
<rect width="22" height="22" fill="white"/>
</clipPath>
</defs>
</svg>
