<svg width="20" height="20" viewBox="0 0 20 20" fill="none" xmlns="http://www.w3.org/2000/svg">
<path d="M17.9453 17.0547L14.5625 13.6797C15.7564 12.2583 16.3555 10.4308 16.2348 8.57844C16.114 6.72607 15.2828 4.99182 13.9146 3.73738C12.5463 2.48294 10.7465 1.80518 8.89063 1.84545C7.03477 1.88571 5.2661 2.6409 3.9535 3.9535C2.6409 5.2661 1.88571 7.03477 1.84545 8.89063C1.80518 10.7465 2.48294 12.5463 3.73738 13.9146C4.99182 15.2828 6.72607 16.114 8.57844 16.2348C10.4308 16.3555 12.2583 15.7564 13.6797 14.5625L17.0547 17.9453C17.1741 18.0608 17.3338 18.1254 17.5 18.1254C17.6662 18.1254 17.8258 18.0608 17.9453 17.9453C18.0627 17.8268 18.1285 17.6668 18.1285 17.5C18.1285 17.3332 18.0627 17.1732 17.9453 17.0547ZM3.125 9.0625C3.125 7.88817 3.47323 6.74022 4.12565 5.7638C4.77807 4.78738 5.70538 4.02636 6.79032 3.57696C7.87525 3.12757 9.06909 3.00999 10.2208 3.23909C11.3726 3.46819 12.4306 4.03368 13.2609 4.86405C14.0913 5.69443 14.6568 6.75239 14.8859 7.90415C15.115 9.05591 14.9974 10.2497 14.548 11.3347C14.0986 12.4196 13.3376 13.3469 12.3612 13.9993C11.3848 14.6518 10.2368 15 9.0625 15C7.48841 14.9979 5.97938 14.3717 4.86634 13.2587C3.75329 12.1456 3.12707 10.6366 3.125 9.0625Z" fill="white"/>
</svg>
