<svg width="20" height="20" viewBox="0 0 20 20" fill="none" xmlns="http://www.w3.org/2000/svg">
<path d="M17.5006 9.99912C17.5006 10.1649 17.4347 10.3239 17.3175 10.4411C17.2003 10.5583 17.0413 10.6241 16.8756 10.6241H4.6334L9.1959 15.1788C9.31326 15.2973 9.3791 15.4573 9.3791 15.6241C9.3791 15.7909 9.31326 15.9509 9.1959 16.0694C9.07644 16.1849 8.91676 16.2495 8.75059 16.2495C8.58441 16.2495 8.42474 16.1849 8.30527 16.0694L2.68027 10.4444C2.56291 10.3259 2.49707 10.1659 2.49707 9.99912C2.49707 9.83234 2.56291 9.67231 2.68027 9.55381L8.30527 3.92881C8.42671 3.82914 8.58087 3.77821 8.73778 3.78592C8.89469 3.79362 9.04312 3.85942 9.1542 3.9705C9.26529 4.08159 9.33108 4.23002 9.33879 4.38693C9.3465 4.54383 9.29556 4.698 9.1959 4.81943L4.6334 9.37412H16.8756C17.0413 9.37412 17.2003 9.43997 17.3175 9.55718C17.4347 9.67439 17.5006 9.83336 17.5006 9.99912Z" fill="white"/>
</svg>
