<svg width="16" height="16" viewBox="0 0 16 16" fill="none" xmlns="http://www.w3.org/2000/svg">
<path d="M14.9375 12.8887L14.0437 4.88874C14.0174 4.64401 13.9012 4.41774 13.7176 4.25378C13.534 4.08982 13.2961 3.99983 13.05 4.00124H10.9562C10.8359 3.30442 10.4733 2.6725 9.9324 2.217C9.39151 1.76151 8.70711 1.51172 7.99997 1.51172C7.29284 1.51172 6.60843 1.76151 6.06754 2.217C5.52665 2.6725 5.16405 3.30442 5.04372 4.00124H2.94997C2.70383 3.99983 2.46592 4.08982 2.28233 4.25378C2.09874 4.41774 1.98253 4.64401 1.95622 4.88874L1.06247 12.8887C1.04733 13.0292 1.06176 13.1713 1.10481 13.3058C1.14787 13.4404 1.2186 13.5644 1.31247 13.67C1.40602 13.7746 1.52067 13.8582 1.64886 13.9153C1.77706 13.9724 1.91589 14.0017 2.05622 14.0012H13.9437C14.0841 14.0017 14.2229 13.9724 14.3511 13.9153C14.4793 13.8582 14.5939 13.7746 14.6875 13.67C14.7813 13.5644 14.8521 13.4404 14.8951 13.3058C14.9382 13.1713 14.9526 13.0292 14.9375 12.8887ZM5.99997 6.50124C5.99997 6.63385 5.94729 6.76103 5.85352 6.8548C5.75976 6.94856 5.63258 7.00124 5.49997 7.00124C5.36736 7.00124 5.24019 6.94856 5.14642 6.8548C5.05265 6.76103 4.99997 6.63385 4.99997 6.50124V5.50124C4.99997 5.36863 5.05265 5.24146 5.14642 5.14769C5.24019 5.05392 5.36736 5.00124 5.49997 5.00124C5.63258 5.00124 5.75976 5.05392 5.85352 5.14769C5.94729 5.24146 5.99997 5.36863 5.99997 5.50124V6.50124ZM6.06247 4.00124C6.17262 3.57104 6.42282 3.18972 6.77363 2.91742C7.12443 2.64512 7.55589 2.49732 7.99997 2.49732C8.44406 2.49732 8.87551 2.64512 9.22632 2.91742C9.57712 3.18972 9.82732 3.57104 9.93747 4.00124H6.06247ZM11 6.50124C11 6.63385 10.9473 6.76103 10.8535 6.8548C10.7598 6.94856 10.6326 7.00124 10.5 7.00124C10.3674 7.00124 10.2402 6.94856 10.1464 6.8548C10.0526 6.76103 9.99997 6.63385 9.99997 6.50124V5.50124C9.99997 5.36863 10.0526 5.24146 10.1464 5.14769C10.2402 5.05392 10.3674 5.00124 10.5 5.00124C10.6326 5.00124 10.7598 5.05392 10.8535 5.14769C10.9473 5.24146 11 5.36863 11 5.50124V6.50124Z" fill="#8F8F8F"/>
</svg>
