<svg width="16" height="16" viewBox="0 0 16 16" fill="none" xmlns="http://www.w3.org/2000/svg">
<path d="M11.3813 13.175C11.4435 13.2477 11.4835 13.3368 11.4966 13.4316C11.5097 13.5263 11.4953 13.6229 11.4552 13.7098C11.415 13.7966 11.3508 13.8701 11.2701 13.9216C11.1895 13.973 11.0957 14.0003 11 14H5.00001C4.90432 14.0003 4.81058 13.973 4.72989 13.9216C4.64921 13.8701 4.58499 13.7966 4.54485 13.7098C4.50471 13.6229 4.49034 13.5263 4.50344 13.4316C4.51654 13.3368 4.55657 13.2477 4.61876 13.175L7.61876 9.67501C7.6657 9.6197 7.72412 9.57525 7.78995 9.54478C7.85579 9.5143 7.92746 9.49851 8.00001 9.49851C8.07256 9.49851 8.14424 9.5143 8.21008 9.54478C8.27591 9.57525 8.33433 9.6197 8.38126 9.67501L11.3813 13.175ZM13 2.50001H3.00001C2.8028 2.49919 2.60737 2.53742 2.42501 2.61251C2.24265 2.6876 2.07696 2.79806 1.93751 2.93751C1.79806 3.07696 1.6876 3.24265 1.61251 3.42501C1.53742 3.60737 1.49919 3.8028 1.50001 4.00001V11C1.49919 11.1972 1.53742 11.3927 1.61251 11.575C1.6876 11.7574 1.79806 11.9231 1.93751 12.0625C2.07696 12.202 2.24265 12.3124 2.42501 12.3875C2.60737 12.4626 2.8028 12.5008 3.00001 12.5H3.76876C3.80438 12.4993 3.83945 12.4911 3.87174 12.476C3.90402 12.461 3.93281 12.4393 3.95626 12.4125L6.86251 9.02501C7.00274 8.86026 7.17709 8.72794 7.37349 8.63719C7.56989 8.54645 7.78366 8.49945 8.00001 8.49945C8.21637 8.49945 8.43013 8.54645 8.62654 8.63719C8.82294 8.72794 8.99728 8.86026 9.13751 9.02501L12.0438 12.4125C12.0672 12.4393 12.096 12.461 12.1283 12.476C12.1606 12.4911 12.1956 12.4993 12.2313 12.5H13C13.1972 12.5008 13.3927 12.4626 13.575 12.3875C13.7574 12.3124 13.9231 12.202 14.0625 12.0625C14.202 11.9231 14.3124 11.7574 14.3875 11.575C14.4626 11.3927 14.5008 11.1972 14.5 11V4.00001C14.5008 3.8028 14.4626 3.60737 14.3875 3.42501C14.3124 3.24265 14.202 3.07696 14.0625 2.93751C13.9231 2.79806 13.7574 2.6876 13.575 2.61251C13.3927 2.53742 13.1972 2.49919 13 2.50001Z" fill="#8F8F8F"/>
</svg>
