<svg width="16" height="16" viewBox="0 0 16 16" fill="none" xmlns="http://www.w3.org/2000/svg">
<path d="M14.1187 6.425C13.8812 6.18125 13.6375 5.925 13.5437 5.70625C13.45 5.4875 13.4563 5.1625 13.45 4.83125C13.4437 4.225 13.4312 3.53125 12.95 3.05C12.4688 2.56875 11.775 2.55625 11.1687 2.55C10.8375 2.54375 10.5 2.5375 10.2937 2.45625C10.0875 2.375 9.81875 2.11875 9.575 1.88125C9.14375 1.46875 8.65 1 8 1C7.35 1 6.85625 1.46875 6.425 1.88125C6.18125 2.11875 5.925 2.3625 5.70625 2.45625C5.4875 2.55 5.1625 2.54375 4.83125 2.55C4.225 2.55625 3.53125 2.56875 3.05 3.05C2.56875 3.53125 2.55625 4.225 2.55 4.83125C2.54375 5.1625 2.5375 5.5 2.45625 5.70625C2.375 5.9125 2.11875 6.18125 1.88125 6.425C1.46875 6.85625 1 7.35 1 8C1 8.65 1.46875 9.14375 1.88125 9.575C2.11875 9.81875 2.3625 10.075 2.45625 10.2937C2.55 10.5125 2.54375 10.8375 2.55 11.1687C2.55625 11.775 2.56875 12.4688 3.05 12.95C3.53125 13.4312 4.225 13.4437 4.83125 13.45C5.1625 13.4563 5.5 13.4625 5.70625 13.5437C5.9125 13.625 6.18125 13.8812 6.425 14.1187C6.85625 14.5312 7.35 15 8 15C8.65 15 9.14375 14.5312 9.575 14.1187C9.81875 13.8812 10.075 13.6375 10.2937 13.5437C10.5125 13.45 10.8375 13.4563 11.1687 13.45C11.775 13.4437 12.4688 13.4312 12.95 12.95C13.4312 12.4688 13.4437 11.775 13.45 11.1687C13.4563 10.8375 13.4625 10.5 13.5437 10.2937C13.625 10.0875 13.8812 9.81875 14.1187 9.575C14.5312 9.14375 15 8.65 15 8C15 7.35 14.5312 6.85625 14.1187 6.425ZM7.5 5C7.5 4.86739 7.55268 4.74021 7.64645 4.64645C7.74021 4.55268 7.86739 4.5 8 4.5C8.13261 4.5 8.25979 4.55268 8.35355 4.64645C8.44732 4.74021 8.5 4.86739 8.5 5V8.5C8.5 8.63261 8.44732 8.75979 8.35355 8.85355C8.25979 8.94732 8.13261 9 8 9C7.86739 9 7.74021 8.94732 7.64645 8.85355C7.55268 8.75979 7.5 8.63261 7.5 8.5V5ZM8 11.5C7.85166 11.5 7.70666 11.456 7.58332 11.3736C7.45999 11.2912 7.36386 11.1741 7.30709 11.037C7.25032 10.9 7.23547 10.7492 7.26441 10.6037C7.29335 10.4582 7.36478 10.3246 7.46967 10.2197C7.57456 10.1148 7.7082 10.0434 7.85368 10.0144C7.99917 9.98547 8.14997 10.0003 8.28701 10.0571C8.42406 10.1139 8.54119 10.21 8.6236 10.3333C8.70601 10.4567 8.75 10.6017 8.75 10.75C8.75 10.9489 8.67098 11.1397 8.53033 11.2803C8.38968 11.421 8.19891 11.5 8 11.5Z" fill="#8F8F8F"/>
</svg>
