<svg width="16" height="16" viewBox="0 0 16 16" fill="none" xmlns="http://www.w3.org/2000/svg">
<path d="M5.5 0.5C5.5 0.367392 5.55268 0.240215 5.64645 0.146447C5.74021 0.0526784 5.86739 0 6 0L10 0C10.1326 0 10.2598 0.0526784 10.3536 0.146447C10.4473 0.240215 10.5 0.367392 10.5 0.5C10.5 0.632608 10.4473 0.759785 10.3536 0.853553C10.2598 0.947322 10.1326 1 10 1H6C5.86739 1 5.74021 0.947322 5.64645 0.853553C5.55268 0.759785 5.5 0.632608 5.5 0.5ZM13 3.5V13C12.9984 13.3973 12.8398 13.7779 12.5588 14.0588C12.2779 14.3398 11.8973 14.4984 11.5 14.5H4.5C4.10268 14.4984 3.72211 14.3398 3.44116 14.0588C3.16021 13.7779 3.00165 13.3973 3 13V3.5C3.00165 3.10268 3.16021 2.72211 3.44116 2.44116C3.72211 2.16021 4.10268 2.00165 4.5 2H11.5C11.8973 2.00165 12.2779 2.16021 12.5588 2.44116C12.8398 2.72211 12.9984 3.10268 13 3.5ZM9.4125 7.96875C9.36713 7.90109 9.30571 7.8457 9.23374 7.80753C9.16177 7.76937 9.08147 7.7496 9 7.75H7.7375L8.4625 5.9375C8.49196 5.87595 8.50851 5.80902 8.51114 5.74083C8.51376 5.67264 8.50239 5.60463 8.47774 5.541C8.45309 5.47737 8.41567 5.41946 8.3678 5.37083C8.31992 5.3222 8.2626 5.28389 8.19936 5.25826C8.13612 5.23262 8.0683 5.2202 8.00007 5.22176C7.93185 5.22331 7.86467 5.23882 7.80267 5.26732C7.74067 5.29583 7.68515 5.33672 7.63955 5.38748C7.59395 5.43825 7.55922 5.49781 7.5375 5.5625L6.5375 8.0625C6.50665 8.13872 6.49507 8.22137 6.50379 8.30314C6.51251 8.3849 6.54126 8.46325 6.5875 8.53125C6.63287 8.59891 6.69428 8.6543 6.76626 8.69247C6.83823 8.73063 6.91853 8.7504 7 8.75H8.2625L7.5375 10.5625C7.51214 10.6232 7.49916 10.6883 7.4993 10.754C7.49944 10.8197 7.5127 10.8848 7.53832 10.9453C7.56393 11.0059 7.60138 11.0607 7.64846 11.1066C7.69554 11.1524 7.75131 11.1885 7.8125 11.2125C7.87201 11.2369 7.93567 11.2497 8 11.25C8.09962 11.2506 8.1971 11.2211 8.27965 11.1654C8.36219 11.1096 8.42593 11.0302 8.4625 10.9375L9.4625 8.4375C9.49335 8.36128 9.50493 8.27863 9.49621 8.19686C9.48749 8.1151 9.45874 8.03675 9.4125 7.96875Z" fill="#8F8F8F"/>
</svg>
