<svg width="14" height="14" viewBox="0 0 14 14" fill="none" xmlns="http://www.w3.org/2000/svg">
<g clip-path="url(#clip0_16354_14392)">
<path fill-rule="evenodd" clip-rule="evenodd" d="M5.763 2.263C6.00774 2.01843 6.31948 1.8519 6.65883 1.78445C6.99818 1.717 7.34992 1.75165 7.66958 1.88404C7.98924 2.01642 8.26249 2.24058 8.45479 2.52821C8.6471 2.81583 8.74983 3.15401 8.75 3.5H5.25C5.25 3.036 5.434 2.59 5.763 2.263ZM3.75 3.5C3.75 2.63805 4.09241 1.8114 4.7019 1.2019C5.3114 0.59241 6.13805 0.25 7 0.25C7.86195 0.25 8.6886 0.59241 9.2981 1.2019C9.90759 1.8114 10.25 2.63805 10.25 3.5H11.5C12.163 3.5 12.7989 3.76339 13.2678 4.23223C13.7366 4.70107 14 5.33696 14 6V11.5C14 12.163 13.7366 12.7989 13.2678 13.2678C12.7989 13.7366 12.163 14 11.5 14H2.5C1.83696 14 1.20107 13.7366 0.732233 13.2678C0.263392 12.7989 0 12.163 0 11.5L0 6C0 5.33696 0.263392 4.70107 0.732233 4.23223C1.20107 3.76339 1.83696 3.5 2.5 3.5H3.75ZM6.665 6.567C6.78455 6.51732 6.91363 6.49478 7.04293 6.50102C7.17224 6.50725 7.29855 6.5421 7.41277 6.60305C7.52698 6.664 7.62624 6.74954 7.7034 6.85349C7.78056 6.95744 7.83369 7.07722 7.85896 7.20418C7.88424 7.33115 7.88102 7.46214 7.84955 7.58772C7.81808 7.71329 7.75913 7.83032 7.67697 7.93036C7.5948 8.0304 7.49146 8.11096 7.37439 8.16623C7.25733 8.22151 7.12946 8.25012 7 8.25C6.83424 8.25 6.67527 8.31585 6.55806 8.43306C6.44085 8.55027 6.375 8.70924 6.375 8.875V9.875C6.375 10.0408 6.44085 10.1997 6.55806 10.3169C6.67527 10.4342 6.83424 10.5 7 10.5C7.16576 10.5 7.32473 10.4342 7.44194 10.3169C7.55915 10.1997 7.625 10.0408 7.625 9.875V9.406C8.00091 9.29032 8.33734 9.07259 8.59684 8.77703C8.85634 8.48148 9.02872 8.11971 9.0948 7.73199C9.16087 7.34427 9.11805 6.94582 8.97109 6.581C8.82413 6.21618 8.57881 5.8993 8.26243 5.66564C7.94606 5.43198 7.57104 5.29071 7.17913 5.25755C6.78722 5.2244 6.3938 5.30066 6.04267 5.47785C5.69153 5.65504 5.39646 5.9262 5.19031 6.26115C4.98415 6.5961 4.875 6.98169 4.875 7.375C4.875 7.54076 4.94085 7.69973 5.05806 7.81694C5.17527 7.93415 5.33424 8 5.5 8C5.66576 8 5.82473 7.93415 5.94194 7.81694C6.05915 7.69973 6.125 7.54076 6.125 7.375C6.12507 7.20203 6.1764 7.03295 6.27251 6.88914C6.36862 6.74533 6.50521 6.63322 6.665 6.567ZM7.002 12.875C6.90351 12.875 6.80598 12.8556 6.71499 12.8179C6.62399 12.7802 6.54131 12.725 6.47167 12.6553C6.40203 12.5857 6.34678 12.503 6.30909 12.412C6.2714 12.321 6.252 12.2235 6.252 12.125C6.252 12.0265 6.2714 11.929 6.30909 11.838C6.34678 11.747 6.40203 11.6643 6.47167 11.5947C6.54131 11.525 6.62399 11.4698 6.71499 11.4321C6.80598 11.3944 6.90351 11.375 7.002 11.375C7.20091 11.375 7.39168 11.454 7.53233 11.5947C7.67298 11.7353 7.752 11.9261 7.752 12.125C7.752 12.3239 7.67298 12.5147 7.53233 12.6553C7.39168 12.796 7.20091 12.875 7.002 12.875Z" fill="#8F8F8F"/>
</g>
<defs>
<clipPath id="clip0_16354_14392">
<rect width="14" height="14" fill="white"/>
</clipPath>
</defs>
</svg>
