<svg width="16" height="16" viewBox="0 0 16 16" fill="none" xmlns="http://www.w3.org/2000/svg">
<g clip-path="url(#clip0_16354_14438)">
<path d="M8 0C6.98769 0 6.15385 0.833846 6.15385 1.84615C6.15385 2.61969 6.65846 3.13354 7 3.40369C7.17046 3.53908 7.31015 3.65415 7.36554 3.71138C7.38215 3.72862 7.38092 3.72985 7.38462 3.73108V3.98092C6.85969 4.29415 1.91323 7.23877 1.51938 7.48062C1.19262 7.68185 0.860923 7.864 0.557539 8.15385C0.254154 8.44308 0 8.89169 0 9.40369C0 9.90708 0.241846 10.3668 0.596308 10.6535C0.950154 10.9415 1.38892 11.0769 1.84615 11.0769H2.46154V9.84615H1.84615C1.624 9.84615 1.45662 9.78523 1.36554 9.71138C1.27446 9.63754 1.23077 9.568 1.23077 9.40369C1.23077 9.224 1.25969 9.176 1.40369 9.03815C1.54769 8.90031 1.83015 8.73046 2.17292 8.51938C2.44062 8.35446 7.46523 5.34092 8 5.01908C8.53539 5.34092 13.5594 8.35446 13.8271 8.51938C14.1698 8.72985 14.4517 8.90092 14.5963 9.03877C14.7403 9.176 14.7692 9.224 14.7692 9.40369C14.7692 9.568 14.7262 9.63754 14.6345 9.71138C14.5434 9.78523 14.376 9.84615 14.1538 9.84615H13.5385V11.0769H14.1538C14.6111 11.0769 15.0498 10.9409 15.4037 10.6535C15.589 10.5021 15.7385 10.3116 15.8416 10.0956C15.9446 9.87966 15.9987 9.6436 16 9.40431C16 8.89169 15.7458 8.44369 15.4425 8.15385C15.1385 7.86462 14.8074 7.68185 14.4806 7.48062C14.0868 7.23877 9.14031 4.29415 8.61539 3.98092V3.69231C8.61539 3.336 8.42585 3.02831 8.24985 2.84615C8.07446 2.664 7.90646 2.55077 7.76923 2.44246C7.49538 2.22523 7.38462 2.15262 7.38462 1.84615C7.38462 1.49846 7.65231 1.23077 8 1.23077C8.34769 1.23077 8.61539 1.49846 8.61539 1.84615C8.61539 2.00936 8.68022 2.16589 8.79563 2.2813C8.91103 2.3967 9.06756 2.46154 9.23077 2.46154C9.39398 2.46154 9.5505 2.3967 9.66591 2.2813C9.78132 2.16589 9.84615 2.00936 9.84615 1.84615C9.84615 0.833846 9.01231 0 8 0ZM3.69231 8.61539C3.5291 8.61539 3.37257 8.68022 3.25717 8.79563C3.14176 8.91103 3.07692 9.06756 3.07692 9.23077V15.3846C3.07692 15.5478 3.14176 15.7044 3.25717 15.8198C3.37257 15.9352 3.5291 16 3.69231 16H12.3077C12.4709 16 12.6274 15.9352 12.7428 15.8198C12.8582 15.7044 12.9231 15.5478 12.9231 15.3846V9.23077C12.9231 9.06756 12.8582 8.91103 12.7428 8.79563C12.6274 8.68022 12.4709 8.61539 12.3077 8.61539H3.69231Z" fill="#8F8F8F"/>
</g>
<defs>
<clipPath id="clip0_16354_14438">
<rect width="16" height="16" fill="white"/>
</clipPath>
</defs>
</svg>
