<svg width="16" height="16" viewBox="0 0 16 16" fill="none" xmlns="http://www.w3.org/2000/svg">
<path d="M5.33296 1.33203C4.80253 1.33203 4.29382 1.54274 3.91875 1.91782C3.54368 2.29289 3.33296 2.8016 3.33296 3.33203C3.33296 3.86246 3.54368 4.37117 3.91875 4.74624C4.29382 5.12132 4.80253 5.33203 5.33296 5.33203C5.8634 5.33203 6.3721 5.12132 6.74718 4.74624C7.12225 4.37117 7.33296 3.86246 7.33296 3.33203C7.33296 2.8016 7.12225 2.29289 6.74718 1.91782C6.3721 1.54274 5.8634 1.33203 5.33296 1.33203ZM10.6663 1.33203C10.1359 1.33203 9.62716 1.54274 9.25208 1.91782C8.87701 2.29289 8.6663 2.8016 8.6663 3.33203C8.6663 3.86246 8.87701 4.37117 9.25208 4.74624C9.62716 5.12132 10.1359 5.33203 10.6663 5.33203C11.1967 5.33203 11.7054 5.12132 12.0805 4.74624C12.4556 4.37117 12.6663 3.86246 12.6663 3.33203C12.6663 2.8016 12.4556 2.29289 12.0805 1.91782C11.7054 1.54274 11.1967 1.33203 10.6663 1.33203ZM2.73496 7.4527C2.7182 7.26818 2.74007 7.08219 2.79919 6.90659C2.85831 6.731 2.95337 6.56965 3.07832 6.43285C3.20328 6.29604 3.35537 6.18678 3.5249 6.11203C3.69443 6.03728 3.87768 5.99868 4.06296 5.9987H6.60296C6.78824 5.99868 6.97149 6.03728 7.14103 6.11203C7.31056 6.18678 7.46265 6.29604 7.5876 6.43285C7.71255 6.56965 7.80762 6.731 7.86674 6.90659C7.92586 7.08219 7.94773 7.26818 7.93096 7.4527L7.3303 14.0594C7.31516 14.225 7.23866 14.379 7.1158 14.4911C6.99295 14.6032 6.83262 14.6654 6.6663 14.6654H3.99963C3.8332 14.6654 3.67278 14.6031 3.54991 14.4909C3.42705 14.3786 3.35061 14.2245 3.33563 14.0587L2.73496 7.4527ZM9.87963 5.9987C9.57139 5.99873 9.27269 6.10556 9.03434 6.301C8.79598 6.49645 8.63271 6.76844 8.5723 7.0707L8.0123 9.86803C7.99296 9.96477 7.99534 10.0646 8.01925 10.1603C8.04316 10.256 8.08802 10.3452 8.15058 10.4215C8.21314 10.4978 8.29185 10.5592 8.38103 10.6014C8.47022 10.6435 8.56765 10.6654 8.6663 10.6654V13.9987C8.6663 14.1755 8.73654 14.3451 8.86156 14.4701C8.98658 14.5951 9.15615 14.6654 9.33296 14.6654H11.9996C12.1764 14.6654 12.346 14.5951 12.471 14.4701C12.5961 14.3451 12.6663 14.1755 12.6663 13.9987V10.6654C12.7649 10.6653 12.8622 10.6434 12.9513 10.6012C13.0404 10.5589 13.1191 10.4975 13.1816 10.4212C13.244 10.345 13.2888 10.2558 13.3127 10.1601C13.3366 10.0645 13.339 9.96471 13.3196 9.86803L12.761 7.0707C12.7005 6.76833 12.5372 6.49625 12.2987 6.30079C12.0602 6.10533 11.7613 5.99858 11.453 5.9987H9.87963Z" fill="#8F8F8F"/>
</svg>
