<svg width="16" height="16" viewBox="0 0 16 16" fill="none" xmlns="http://www.w3.org/2000/svg">
<path d="M13 2H3C2.73478 2 2.48043 2.10536 2.29289 2.29289C2.10536 2.48043 2 2.73478 2 3V13C2 13.2652 2.10536 13.5196 2.29289 13.7071C2.48043 13.8946 2.73478 14 3 14H13C13.2652 14 13.5196 13.8946 13.7071 13.7071C13.8946 13.5196 14 13.2652 14 13V3C14 2.73478 13.8946 2.48043 13.7071 2.29289C13.5196 2.10536 13.2652 2 13 2ZM11.2063 7C11.018 6.8145 10.7643 6.71051 10.5 6.71051C10.2357 6.71051 9.98201 6.8145 9.79375 7L7 9.79375L5.70625 8.5C5.51799 8.3145 5.2643 8.21051 5 8.21051C4.7357 8.21051 4.48201 8.3145 4.29375 8.5L3 9.79375V3H13V8.79375L11.2063 7ZM7 5.75C7 5.89834 6.95601 6.04334 6.8736 6.16668C6.79119 6.29001 6.67406 6.38614 6.53701 6.44291C6.39997 6.49968 6.24917 6.51453 6.10368 6.48559C5.9582 6.45665 5.82456 6.38522 5.71967 6.28033C5.61478 6.17544 5.54335 6.0418 5.51441 5.89632C5.48547 5.75083 5.50032 5.60003 5.55709 5.46299C5.61386 5.32594 5.70999 5.20881 5.83332 5.1264C5.95666 5.04399 6.10166 5 6.25 5C6.44891 5 6.63968 5.07902 6.78033 5.21967C6.92098 5.36032 7 5.55109 7 5.75Z" fill="#8F8F8F"/>
</svg>
