<svg width="16" height="16" viewBox="0 0 16 16" fill="none" xmlns="http://www.w3.org/2000/svg">
<path d="M8.285 1.87719C8.24979 1.83608 8.20611 1.80307 8.15694 1.78044C8.10777 1.75781 8.05428 1.74609 8.00016 1.74609C7.94603 1.74609 7.89254 1.75781 7.84337 1.78044C7.7942 1.80307 7.75052 1.83608 7.71531 1.87719C6.72594 3.03438 3.5 7.035 3.5 9.99844C3.5 12.76 5.23875 14.4984 8 14.4984C10.7613 14.4984 12.5 12.76 12.5 9.99844C12.5 7.035 9.27406 3.03438 8.285 1.87719ZM8.5 12.8734C8.43994 12.8736 8.38072 12.8593 8.32734 12.8318C8.27395 12.8042 8.22796 12.7643 8.19323 12.7153C8.1585 12.6663 8.13605 12.6097 8.12776 12.5502C8.11948 12.4907 8.1256 12.4301 8.14563 12.3734C8.1712 12.2996 8.21942 12.2356 8.28344 12.1907C8.34746 12.1458 8.42401 12.1223 8.50219 12.1234C8.99856 12.1224 9.47429 11.9247 9.82528 11.5737C10.1763 11.2227 10.3739 10.747 10.375 10.2506C10.3739 10.1724 10.3974 10.0959 10.4423 10.0319C10.4872 9.96786 10.5511 9.91964 10.625 9.89406C10.6816 9.87404 10.7422 9.86792 10.8017 9.8762C10.8612 9.88449 10.9178 9.90694 10.9668 9.94167C11.0158 9.9764 11.0558 10.0224 11.0833 10.0758C11.1108 10.1292 11.1251 10.1884 11.125 10.2484C11.1243 10.9444 10.8475 11.6117 10.3553 12.1038C9.86321 12.5959 9.19596 12.8727 8.5 12.8734Z" fill="#8F8F8F"/>
</svg>
