<svg width="16" height="16" viewBox="0 0 16 16" fill="none" xmlns="http://www.w3.org/2000/svg">
<path d="M7.99967 1.33203C11.6817 1.33203 14.6663 4.3167 14.6663 7.9987C14.6663 9.76681 13.964 11.4625 12.7137 12.7127C11.4635 13.963 9.76779 14.6654 7.99967 14.6654C6.23156 14.6654 4.53587 13.963 3.28563 12.7127C2.03539 11.4625 1.33301 9.76681 1.33301 7.9987L1.33567 7.81203C1.43434 4.2167 4.37967 1.33203 7.99967 1.33203ZM8.88901 4.66536H6.66634C6.48953 4.66536 6.31996 4.7356 6.19494 4.86063C6.06991 4.98565 5.99967 5.15522 5.99967 5.33203V10.6654C5.99967 10.8422 6.06991 11.0117 6.19494 11.1368C6.31996 11.2618 6.48953 11.332 6.66634 11.332L6.74434 11.3274C6.90651 11.3083 7.05603 11.2303 7.16453 11.1083C7.27304 10.9863 7.33299 10.8287 7.33301 10.6654V8.66536H8.88901C9.89967 8.66536 10.6663 7.74536 10.6663 6.66536C10.6663 5.58536 9.89967 4.66536 8.88901 4.66536ZM8.88901 5.9987C9.10434 5.9987 9.33301 6.2727 9.33301 6.66536C9.33301 7.05803 9.10434 7.33203 8.88901 7.33203H7.33301V5.9987H8.88901Z" fill="#8F8F8F"/>
</svg>
