<svg width="16" height="16" viewBox="0 0 16 16" fill="none" xmlns="http://www.w3.org/2000/svg">
<path d="M8 1.5C6.71442 1.5 5.45772 1.88122 4.3888 2.59545C3.31988 3.30968 2.48676 4.32484 1.99479 5.51256C1.50282 6.70028 1.37409 8.00721 1.6249 9.26809C1.8757 10.529 2.49477 11.6872 3.40381 12.5962C4.31285 13.5052 5.47104 14.1243 6.73192 14.3751C7.99279 14.6259 9.29973 14.4972 10.4874 14.0052C11.6752 13.5132 12.6903 12.6801 13.4046 11.6112C14.1188 10.5423 14.5 9.28558 14.5 8C14.4983 6.2766 13.813 4.62426 12.5944 3.40563C11.3757 2.18701 9.7234 1.50165 8 1.5ZM7.875 4.5C8.02334 4.5 8.16834 4.54399 8.29168 4.6264C8.41502 4.70881 8.51115 4.82594 8.56791 4.96299C8.62468 5.10003 8.63953 5.25083 8.61059 5.39632C8.58165 5.5418 8.51022 5.67544 8.40533 5.78033C8.30044 5.88522 8.16681 5.95665 8.02132 5.98559C7.87583 6.01453 7.72503 5.99968 7.58799 5.94291C7.45095 5.88614 7.33381 5.79001 7.2514 5.66668C7.16899 5.54334 7.125 5.39834 7.125 5.25C7.125 5.05109 7.20402 4.86032 7.34467 4.71967C7.48532 4.57902 7.67609 4.5 7.875 4.5ZM8.5 11.5H8C7.86739 11.5 7.74022 11.4473 7.64645 11.3536C7.55268 11.2598 7.5 11.1326 7.5 11V8C7.36739 8 7.24022 7.94732 7.14645 7.85355C7.05268 7.75979 7 7.63261 7 7.5C7 7.36739 7.05268 7.24021 7.14645 7.14645C7.24022 7.05268 7.36739 7 7.5 7H8C8.13261 7 8.25979 7.05268 8.35356 7.14645C8.44732 7.24021 8.5 7.36739 8.5 7.5V10.5C8.63261 10.5 8.75979 10.5527 8.85356 10.6464C8.94732 10.7402 9 10.8674 9 11C9 11.1326 8.94732 11.2598 8.85356 11.3536C8.75979 11.4473 8.63261 11.5 8.5 11.5Z" fill="#8F8F8F"/>
</svg>
