<svg width="16" height="16" viewBox="0 0 16 16" fill="none" xmlns="http://www.w3.org/2000/svg">
<path d="M10.5 12.7537C9.94668 12.7537 9.50001 12.1937 9.50001 11.5003C9.50001 10.8137 9.94668 10.2537 10.5 10.2537C11.0533 10.2537 11.5 10.8137 11.5 11.5003C11.5 12.1937 11.0533 12.7537 10.5 12.7537ZM8.00001 7.50032C7.17334 7.50032 6.50001 6.94032 6.50001 6.25365C6.50001 5.56032 7.17334 5.00032 8.00001 5.00032C8.82668 5.00032 9.50001 5.56032 9.50001 6.25365C9.50001 6.94032 8.82668 7.50032 8.00001 7.50032ZM5.50001 12.7537C4.94668 12.7537 4.50001 12.1937 4.50001 11.5003C4.50001 10.8137 4.94668 10.2537 5.50001 10.2537C6.05334 10.2537 6.50001 10.8137 6.50001 11.5003C6.50001 12.1937 6.05334 12.7537 5.50001 12.7537ZM8.00001 5.50032C8.27334 5.50032 8.50001 5.72699 8.50001 6.00032C8.50001 6.27365 8.27334 6.50032 8.00001 6.50032C7.72668 6.50032 7.50001 6.27365 7.50001 6.00032C7.50001 5.72699 7.72668 5.50032 8.00001 5.50032ZM12.5 8.00032C12.2867 8.00032 12.08 8.04699 11.8933 8.13365C11.5733 7.72699 11.14 7.38032 10.62 7.11365C11 6.58032 11.2267 5.93365 11.2267 5.23365V5.19365C11.9533 5.04032 12.5 4.39365 12.5 3.61365C12.5 2.72699 11.7733 2.00032 10.8867 2.00032C10.4267 2.00032 10 2.19365 9.72001 2.50032C9.20584 2.17355 8.60923 2 8.00001 2C7.39079 2 6.79417 2.17355 6.28001 2.50032C6.00001 2.19365 5.57334 2.00032 5.11334 2.00032C4.22668 2.00032 3.50001 2.72699 3.50001 3.61365C3.50001 4.38699 4.04668 5.03365 4.76668 5.19365V5.23365C4.76668 5.93365 5.00001 6.58699 5.37334 7.11365C4.86001 7.38032 4.42668 7.72699 4.10668 8.13365C3.87885 8.03103 3.62892 7.98721 3.37977 8.00621C3.13062 8.02521 2.89022 8.10643 2.6806 8.24242C2.47097 8.37841 2.29882 8.56483 2.17992 8.78459C2.06101 9.00436 1.99915 9.25045 2.00001 9.50032C2.00001 10.3337 2.66668 11.0003 3.50001 11.0003H3.54001C3.51334 11.1603 3.50001 11.3337 3.50001 11.5003C3.50001 12.8803 4.39334 14.0003 5.50001 14.0003C6.17334 14.0003 6.76668 13.5803 7.13334 12.9403C7.41334 12.9803 7.70001 13.0003 8.00001 13.0003C8.30001 13.0003 8.58668 12.9803 8.86668 12.9403C9.23334 13.5803 9.82668 14.0003 10.5 14.0003C11.6067 14.0003 12.5 12.8803 12.5 11.5003C12.5 11.3337 12.4867 11.1603 12.46 11.0003H12.5C13.3333 11.0003 14 10.3337 14 9.50032C14 8.66699 13.3333 8.00032 12.5 8.00032Z" fill="#8F8F8F"/>
</svg>
