<svg width="16" height="16" viewBox="0 0 16 16" fill="none" xmlns="http://www.w3.org/2000/svg">
<path d="M8.5 12.092V10H7.5V12.092C7.1664 12.2099 6.88523 12.442 6.70619 12.7472C6.52715 13.0524 6.46177 13.4111 6.52161 13.7599C6.58144 14.1086 6.76264 14.425 7.03317 14.6531C7.30371 14.8811 7.64616 15.0062 8 15.0062C8.35385 15.0062 8.6963 14.8811 8.96683 14.6531C9.23737 14.425 9.41856 14.1086 9.4784 13.7599C9.53824 13.4111 9.47286 13.0524 9.29382 12.7472C9.11478 12.442 8.83361 12.2099 8.5 12.092Z" fill="#8F8F8F"/>
<path d="M12.9997 6C12.5575 6.00132 12.1282 6.14929 11.7791 6.42074C11.4301 6.69218 11.1809 7.07176 11.0707 7.5H4.92868C4.80698 7.02868 4.51756 6.61791 4.11468 6.3447C3.71179 6.0715 3.22309 5.95461 2.74018 6.01595C2.25727 6.07728 1.81331 6.31264 1.49152 6.67789C1.16972 7.04314 0.992188 7.51322 0.992188 8C0.992188 8.48679 1.16972 8.95687 1.49152 9.32212C1.81331 9.68737 2.25727 9.92273 2.74018 9.98406C3.22309 10.0454 3.71179 9.92851 4.11468 9.65531C4.51756 9.3821 4.80698 8.97133 4.92868 8.5H11.0707C11.1648 8.86128 11.3584 9.18892 11.6294 9.44572C11.9004 9.70252 12.238 9.87818 12.6038 9.95276C12.9696 10.0273 13.349 9.99785 13.6989 9.86765C14.0489 9.73744 14.3552 9.51173 14.5833 9.21614C14.8114 8.92056 14.952 8.56694 14.9892 8.19545C15.0264 7.82397 14.9587 7.44949 14.7938 7.11455C14.6289 6.7796 14.3733 6.49761 14.0562 6.3006C13.739 6.10359 13.373 5.99945 12.9997 6ZM2.99968 9C2.8019 9 2.60856 8.94136 2.44411 8.83147C2.27966 8.72159 2.15149 8.56541 2.0758 8.38269C2.00011 8.19996 1.98031 7.9989 2.01889 7.80491C2.05748 7.61093 2.15272 7.43275 2.29257 7.2929C2.43242 7.15305 2.61061 7.0578 2.80459 7.01922C2.99857 6.98063 3.19964 7.00044 3.38236 7.07613C3.56509 7.15181 3.72127 7.27999 3.83115 7.44443C3.94103 7.60888 3.99968 7.80222 3.99968 8C3.99928 8.2651 3.8938 8.51922 3.70635 8.70667C3.5189 8.89412 3.26477 8.99961 2.99968 9ZM12.9997 9C12.8019 9 12.6086 8.94136 12.4441 8.83147C12.2797 8.72159 12.1515 8.56541 12.0758 8.38269C12.0001 8.19996 11.9803 7.9989 12.0189 7.80491C12.0575 7.61093 12.1527 7.43275 12.2926 7.2929C12.4324 7.15305 12.6106 7.0578 12.8046 7.01922C12.9986 6.98063 13.1996 7.00044 13.3824 7.07613C13.5651 7.15181 13.7213 7.27999 13.8311 7.44443C13.941 7.60888 13.9997 7.80222 13.9997 8C13.9993 8.2651 13.8938 8.51922 13.7063 8.70667C13.5189 8.89412 13.2648 8.99961 12.9997 9Z" fill="#8F8F8F"/>
<path d="M9.49999 2.4984C9.50113 2.22314 9.4265 1.95287 9.28429 1.7172C9.14207 1.48152 8.93775 1.28952 8.69369 1.16223C8.44963 1.03493 8.17525 0.977244 7.90059 0.995486C7.62594 1.01373 7.3616 1.10719 7.13652 1.26565C6.91144 1.42411 6.7343 1.64144 6.6245 1.89385C6.5147 2.14627 6.47648 2.42403 6.51401 2.69672C6.55154 2.96941 6.66339 3.22651 6.8373 3.43988C7.0112 3.65324 7.24047 3.81464 7.49999 3.9064V5.9984H8.49999V3.9064C8.79185 3.80399 9.04476 3.61357 9.22386 3.3614C9.40296 3.10922 9.49943 2.8077 9.49999 2.4984Z" fill="#8F8F8F"/>
</svg>
