<svg width="16" height="16" viewBox="0 0 16 16" fill="none" xmlns="http://www.w3.org/2000/svg">
<path d="M14.2 6.53125C14.4255 6.48402 14.628 6.36081 14.7737 6.1822C14.9193 6.0036 14.9992 5.78044 15 5.55V4C15 3.73478 14.8946 3.48043 14.7071 3.29289C14.5196 3.10536 14.2652 3 14 3H2C1.73478 3 1.48043 3.10536 1.29289 3.29289C1.10536 3.48043 1 3.73478 1 4V5.55C1.00083 5.78044 1.08073 6.0036 1.22634 6.1822C1.37195 6.36081 1.57446 6.48402 1.8 6.53125C2.13775 6.60129 2.44105 6.7856 2.65879 7.05313C2.87653 7.32066 2.99541 7.65506 2.99541 8C2.99541 8.34494 2.87653 8.67934 2.65879 8.94687C2.44105 9.2144 2.13775 9.39871 1.8 9.46875C1.57446 9.51598 1.37195 9.63919 1.22634 9.81779C1.08073 9.9964 1.00083 10.2196 1 10.45V12C1 12.2652 1.10536 12.5196 1.29289 12.7071C1.48043 12.8946 1.73478 13 2 13H14C14.2652 13 14.5196 12.8946 14.7071 12.7071C14.8946 12.5196 15 12.2652 15 12V10.45C14.9992 10.2196 14.9193 9.9964 14.7737 9.81779C14.628 9.63919 14.4255 9.51598 14.2 9.46875C13.8622 9.39871 13.559 9.2144 13.3412 8.94687C13.1235 8.67934 13.0046 8.34494 13.0046 8C13.0046 7.65506 13.1235 7.32066 13.3412 7.05313C13.559 6.7856 13.8622 6.60129 14.2 6.53125ZM2 10.45C2.56514 10.3352 3.07324 10.0286 3.43819 9.58213C3.80314 9.13562 4.00251 8.57668 4.00251 8C4.00251 7.42332 3.80314 6.86438 3.43819 6.41787C3.07324 5.97136 2.56514 5.66476 2 5.55V4H5.5V12H2V10.45Z" fill="#8F8F8F"/>
</svg>
