<svg width="16" height="16" viewBox="0 0 16 16" fill="none" xmlns="http://www.w3.org/2000/svg">
<path d="M5.33333 7.9987C7.17433 7.9987 8.66667 6.50636 8.66667 4.66536C8.66667 2.82436 7.17433 1.33203 5.33333 1.33203C3.49233 1.33203 2 2.82436 2 4.66536C2 6.50636 3.49233 7.9987 5.33333 7.9987Z" fill="#8F8F8F" stroke="#8F8F8F" stroke-width="1.33333" stroke-linejoin="round"/>
<path d="M8.66643 5.06641C8.6711 5.07107 10.2407 7.04485 13.3751 10.9877C13.4282 11.0516 13.4555 11.1331 13.4517 11.2161C13.4479 11.2991 13.4132 11.3776 13.3544 11.4364L11.9931 12.7977C11.9343 12.8565 11.8558 12.8912 11.7728 12.895C11.6898 12.8988 11.6083 12.8715 11.5444 12.8184L5.94043 7.99907M8.8231 8.15574L9.7661 9.09874" stroke="#8F8F8F" stroke-width="1.33333" stroke-linecap="round" stroke-linejoin="round"/>
<path d="M5.66699 14.6941C6.3061 13.8615 7.08277 13.4451 7.99699 13.4451C9.36899 13.4451 10.988 15.1685 12.369 14.9315C13.7503 14.6941 14.1457 13.3321 13.2957 12.5781" stroke="#8F8F8F" stroke-width="1.33333" stroke-linecap="round" stroke-linejoin="round"/>
</svg>
