<svg width="16" height="16" viewBox="0 0 16 16" fill="none" xmlns="http://www.w3.org/2000/svg">
<path d="M7.5 14.6658C7.13333 14.6658 6.764 14.6243 6.392 14.5412C6.02 14.458 5.63933 14.3385 5.25 14.1825C5.38333 12.838 5.77222 11.5825 6.41667 10.4158C7.06111 9.24916 7.88889 8.22138 8.9 7.33249C7.67778 7.95471 6.61956 8.77693 5.72533 9.79916C4.83111 10.8214 4.206 11.988 3.85 13.2992C3.80556 13.2658 3.764 13.2298 3.72533 13.1912L3.6 13.0658C3.07778 12.5436 2.68067 11.9603 2.40867 11.3158C2.13667 10.6714 2.00044 9.99916 2 9.29916C2 8.5436 2.15 7.82138 2.45 7.13249C2.75 6.4436 3.16667 5.83249 3.7 5.29916C4.6 4.39916 5.76667 3.81316 7.2 3.54116C8.63333 3.26916 10.6444 3.24404 13.2333 3.46582C13.4333 6.12138 13.4 8.14649 13.1333 9.54115C12.8667 10.9358 12.2889 12.0774 11.4 12.9658C10.8556 13.5103 10.2471 13.9298 9.57467 14.2245C8.90222 14.5192 8.21067 14.6663 7.5 14.6658Z" fill="#8F8F8F"/>
</svg>
