<svg width="30" height="30" viewBox="0 0 30 30" fill="none" xmlns="http://www.w3.org/2000/svg">
<g filter="url(#filter0_i_18221_13920)">
<rect width="30" height="30" rx="6" fill="url(#paint0_linear_18221_13920)"/>
<rect x="0.5" y="0.5" width="29" height="29" rx="5.5" stroke="url(#paint1_linear_18221_13920)"/>
<g clip-path="url(#clip0_18221_13920)">
<path d="M17.3333 9.31315C17.3333 8.91044 17.0069 8.58398 16.6042 8.58398C16.2015 8.58398 15.875 8.91044 15.875 9.31315V10.1882C15.875 10.5909 16.2015 10.9173 16.6042 10.9173C17.0069 10.9173 17.3333 10.5909 17.3333 10.1882V9.31315Z" fill="#F5FFF9"/>
<path d="M17.9163 9.45898V10.1882C17.9163 10.5362 17.7781 10.8701 17.5319 11.1162C17.2858 11.3624 16.9519 11.5007 16.6038 11.5007C16.2557 11.5007 15.9219 11.3624 15.6758 11.1162C15.4296 10.8701 15.2913 10.5362 15.2913 10.1882V9.45898H12.6663V10.1882C12.6663 10.5362 12.5281 10.8701 12.2819 11.1162C12.0358 11.3624 11.7019 11.5007 11.3538 11.5007C11.0057 11.5007 10.6719 11.3624 10.4258 11.1162C10.1796 10.8701 10.0413 10.5362 10.0413 10.1882V9.45898C9.65457 9.45898 9.28363 9.61263 9.01014 9.88612C8.73665 10.1596 8.58301 10.5305 8.58301 10.9173V12.3757H19.3747V10.9173C19.3747 10.5305 19.221 10.1596 18.9475 9.88612C18.674 9.61263 18.3031 9.45898 17.9163 9.45898Z" fill="#F5FFF9"/>
<path d="M12.0833 9.31315C12.0833 8.91044 11.7569 8.58398 11.3542 8.58398C10.9515 8.58398 10.625 8.91044 10.625 9.31315V10.1882C10.625 10.5909 10.9515 10.9173 11.3542 10.9173C11.7569 10.9173 12.0833 10.5909 12.0833 10.1882V9.31315Z" fill="#F5FFF9"/>
<path d="M14.9997 18.5007C14.9995 17.9229 15.1425 17.354 15.4159 16.8451C15.6893 16.3361 16.0846 15.9028 16.5665 15.584H16.1663C16.0116 15.584 15.8633 15.5225 15.7539 15.4131C15.6445 15.3037 15.583 15.1554 15.583 15.0007V14.4173C15.583 14.2626 15.6445 14.1142 15.7539 14.0048C15.8633 13.8954 16.0116 13.834 16.1663 13.834H16.7497C16.9044 13.834 17.0528 13.8954 17.1622 14.0048C17.2716 14.1142 17.333 14.2626 17.333 14.4173V15.0007C17.3329 15.0759 17.3182 15.1504 17.2895 15.22C17.9568 14.969 18.6857 14.9324 19.3747 15.1153V12.959H8.58301V18.5007C8.58301 18.6922 8.62073 18.8818 8.69402 19.0587C8.7673 19.2357 8.87473 19.3964 9.01014 19.5318C9.14556 19.6673 9.30633 19.7747 9.48326 19.848C9.66019 19.9213 9.84983 19.959 10.0413 19.959H15.3205C15.1093 19.5018 14.9998 19.0043 14.9997 18.5007ZM12.083 17.9173C12.083 18.072 12.0215 18.2204 11.9122 18.3298C11.8028 18.4392 11.6544 18.5007 11.4997 18.5007H10.9163C10.7616 18.5007 10.6133 18.4392 10.5039 18.3298C10.3945 18.2204 10.333 18.072 10.333 17.9173V17.334C10.333 17.1793 10.3945 17.0309 10.5039 16.9215C10.6133 16.8121 10.7616 16.7507 10.9163 16.7507H11.4997C11.6544 16.7507 11.8028 16.8121 11.9122 16.9215C12.0215 17.0309 12.083 17.1793 12.083 17.334V17.9173ZM12.083 15.0007C12.083 15.1554 12.0215 15.3037 11.9122 15.4131C11.8028 15.5225 11.6544 15.584 11.4997 15.584H10.9163C10.7616 15.584 10.6133 15.5225 10.5039 15.4131C10.3945 15.3037 10.333 15.1554 10.333 15.0007V14.4173C10.333 14.2626 10.3945 14.1142 10.5039 14.0048C10.6133 13.8954 10.7616 13.834 10.9163 13.834H11.4997C11.6544 13.834 11.8028 13.8954 11.9122 14.0048C12.0215 14.1142 12.083 14.2626 12.083 14.4173V15.0007ZM14.708 17.9173C14.708 18.072 14.6466 18.2204 14.5372 18.3298C14.4278 18.4392 14.2794 18.5007 14.1247 18.5007H13.5413C13.3866 18.5007 13.2383 18.4392 13.1289 18.3298C13.0195 18.2204 12.958 18.072 12.958 17.9173V17.334C12.958 17.1793 13.0195 17.0309 13.1289 16.9215C13.2383 16.8121 13.3866 16.7507 13.5413 16.7507H14.1247C14.2794 16.7507 14.4278 16.8121 14.5372 16.9215C14.6466 17.0309 14.708 17.1793 14.708 17.334V17.9173ZM14.708 15.0007C14.708 15.1554 14.6466 15.3037 14.5372 15.4131C14.4278 15.5225 14.2794 15.584 14.1247 15.584H13.5413C13.3866 15.584 13.2383 15.5225 13.1289 15.4131C13.0195 15.3037 12.958 15.1554 12.958 15.0007V14.4173C12.958 14.2626 13.0195 14.1142 13.1289 14.0048C13.2383 13.8954 13.3866 13.834 13.5413 13.834H14.1247C14.2794 13.834 14.4278 13.8954 14.5372 14.0048C14.6466 14.1142 14.708 14.2626 14.708 14.4173V15.0007Z" fill="#F5FFF9"/>
<path d="M18.4997 15.584C17.9228 15.584 17.3589 15.755 16.8793 16.0755C16.3996 16.396 16.0258 16.8515 15.805 17.3845C15.5843 17.9174 15.5265 18.5039 15.6391 19.0697C15.7516 19.6354 16.0294 20.1551 16.4373 20.563C16.8452 20.9709 17.3649 21.2487 17.9307 21.3613C18.4964 21.4738 19.0829 21.4161 19.6158 21.1953C20.1488 20.9745 20.6043 20.6007 20.9248 20.1211C21.2453 19.6414 21.4163 19.0775 21.4163 18.5007C21.4163 18.1176 21.3409 17.7384 21.1943 17.3845C21.0477 17.0306 20.8329 16.7091 20.5621 16.4383C20.2912 16.1674 19.9697 15.9526 19.6158 15.806C19.262 15.6594 18.8827 15.584 18.4997 15.584ZM19.5809 19.5819C19.5262 19.6365 19.452 19.6673 19.3747 19.6673C19.2973 19.6673 19.2232 19.6365 19.1685 19.5819L18.2935 18.7069C18.2388 18.6522 18.208 18.578 18.208 18.5007V16.7507C18.208 16.6733 18.2387 16.5991 18.2934 16.5444C18.3481 16.4897 18.4223 16.459 18.4997 16.459C18.577 16.459 18.6512 16.4897 18.7059 16.5444C18.7606 16.5991 18.7913 16.6733 18.7913 16.7507V18.3799L19.5809 19.1694C19.6356 19.2241 19.6663 19.2983 19.6663 19.3757C19.6663 19.453 19.6356 19.5272 19.5809 19.5819Z" fill="#F5FFF9"/>
</g>
</g>
<defs>
<filter id="filter0_i_18221_13920" x="0" y="0" width="30" height="33" filterUnits="userSpaceOnUse" color-interpolation-filters="sRGB">
<feFlood flood-opacity="0" result="BackgroundImageFix"/>
<feBlend mode="normal" in="SourceGraphic" in2="BackgroundImageFix" result="shape"/>
<feColorMatrix in="SourceAlpha" type="matrix" values="0 0 0 0 0 0 0 0 0 0 0 0 0 0 0 0 0 0 127 0" result="hardAlpha"/>
<feOffset dy="3"/>
<feGaussianBlur stdDeviation="2.5"/>
<feComposite in2="hardAlpha" operator="arithmetic" k2="-1" k3="1"/>
<feColorMatrix type="matrix" values="0 0 0 0 0.137255 0 0 0 0 0.137255 0 0 0 0 0.137255 0 0 0 1 0"/>
<feBlend mode="normal" in2="shape" result="effect1_innerShadow_18221_13920"/>
</filter>
<linearGradient id="paint0_linear_18221_13920" x1="15" y1="30" x2="15" y2="0" gradientUnits="userSpaceOnUse">
<stop offset="0.72" stop-color="#0F0F0F"/>
<stop offset="1" stop-color="#1A1A1A"/>
</linearGradient>
<linearGradient id="paint1_linear_18221_13920" x1="15" y1="30" x2="15" y2="0" gradientUnits="userSpaceOnUse">
<stop stop-color="white" stop-opacity="0.06"/>
<stop offset="1" stop-color="white" stop-opacity="0.06"/>
</linearGradient>
<clipPath id="clip0_18221_13920">
<rect width="14" height="14" fill="white" transform="translate(8 8)"/>
</clipPath>
</defs>
</svg>
