<svg width="16" height="16" viewBox="0 0 16 16" fill="none" xmlns="http://www.w3.org/2000/svg">
<path d="M12.8774 8.9987H10.294C9.95159 8.99834 9.62299 9.13381 9.38029 9.37538C9.13759 9.61696 9.0006 9.94493 8.99937 10.2874V12.8707C8.99919 13.0408 9.03256 13.2092 9.09756 13.3664C9.16256 13.5235 9.25792 13.6663 9.37817 13.7866C9.49843 13.9068 9.64122 14.0022 9.79838 14.0672C9.95553 14.1322 10.124 14.1655 10.294 14.1654H12.8774C13.2197 14.164 13.5475 14.0269 13.7889 13.7842C14.0303 13.5415 14.1657 13.213 14.1654 12.8707V10.2874C14.1655 10.1182 14.1323 9.95061 14.0677 9.79426C14.003 9.63791 13.9081 9.49586 13.7885 9.37622C13.6689 9.25658 13.5268 9.16172 13.3705 9.09705C13.2141 9.03239 13.0466 8.99919 12.8774 8.99937M5.70337 8.9987H3.12003C2.77776 9.00064 2.45017 9.13796 2.20883 9.38068C1.96749 9.62339 1.83203 9.95176 1.83203 10.294V12.8774C1.83186 13.0466 1.86505 13.2141 1.92972 13.3705C1.99438 13.5268 2.08925 13.6689 2.20889 13.7885C2.32852 13.9081 2.47058 14.003 2.62693 14.0677C2.78327 14.1323 2.95084 14.1655 3.12003 14.1654H5.70337C6.04569 14.1657 6.37419 14.0303 6.61687 13.7889C6.85955 13.5475 6.99662 13.2197 6.99803 12.8774V10.294C6.99821 10.124 6.96484 9.95553 6.89984 9.79838C6.83484 9.64122 6.73948 9.49843 6.61922 9.37817C6.49897 9.25792 6.35618 9.16256 6.19902 9.09756C6.04187 9.03256 5.87343 8.99919 5.70337 8.99937M5.70337 1.83203H3.12003C2.95084 1.83186 2.78327 1.86505 2.62693 1.92972C2.47058 1.99438 2.32852 2.08925 2.20889 2.20889C2.08925 2.32852 1.99438 2.47058 1.92972 2.62693C1.86505 2.78327 1.83186 2.95084 1.83203 3.12003V5.70337C1.83168 6.04569 1.96705 6.37419 2.20848 6.61687C2.44992 6.85955 2.77771 6.99662 3.12003 6.99803H5.70337C5.87343 6.99821 6.04187 6.96484 6.19902 6.89984C6.35618 6.83484 6.49897 6.73948 6.61922 6.61922C6.73948 6.49897 6.83484 6.35618 6.89984 6.19902C6.96484 6.04187 6.99821 5.87343 6.99803 5.70337V3.12003C6.99662 2.77771 6.85955 2.44992 6.61687 2.20848C6.37419 1.96705 6.04569 1.83168 5.70337 1.83203ZM12.8774 1.83203H10.294C9.95171 1.83168 9.62321 1.96705 9.38053 2.20848C9.13784 2.44992 9.00078 2.77771 8.99937 3.12003V5.70337C8.99954 6.04668 9.136 6.37588 9.37876 6.61864C9.62152 6.8614 9.95072 6.99786 10.294 6.99803H12.8774C13.2197 6.99662 13.5475 6.85955 13.7889 6.61687C14.0303 6.37419 14.1657 6.04569 14.1654 5.70337V3.12003C14.1655 2.95084 14.1323 2.78327 14.0677 2.62693C14.003 2.47058 13.9081 2.32852 13.7885 2.20889C13.6689 2.08925 13.5268 1.99438 13.3705 1.92972C13.2141 1.86505 13.0466 1.83186 12.8774 1.83203Z" stroke="white" stroke-linecap="round" stroke-linejoin="round"/>
</svg>
