<svg width="16" height="16" viewBox="0 0 16 16" fill="none" xmlns="http://www.w3.org/2000/svg">
<path d="M8 1.5C6.71442 1.5 5.45772 1.88122 4.3888 2.59545C3.31988 3.30968 2.48676 4.32484 1.99479 5.51256C1.50282 6.70028 1.37409 8.00721 1.6249 9.26809C1.8757 10.529 2.49477 11.6872 3.40381 12.5962C4.31285 13.5052 5.47104 14.1243 6.73192 14.3751C7.99279 14.6259 9.29972 14.4972 10.4874 14.0052C11.6752 13.5132 12.6903 12.6801 13.4046 11.6112C14.1188 10.5423 14.5 9.28558 14.5 8C14.4983 6.2766 13.813 4.62426 12.5944 3.40563C11.3757 2.18701 9.7234 1.50165 8 1.5ZM8 13.5C6.91221 13.5 5.84884 13.1774 4.94437 12.5731C4.0399 11.9687 3.33495 11.1098 2.91867 10.1048C2.50238 9.09976 2.39347 7.9939 2.60568 6.927C2.8179 5.86011 3.34173 4.8801 4.11092 4.11091C4.8801 3.34172 5.86011 2.8179 6.92701 2.60568C7.9939 2.39346 9.09977 2.50238 10.1048 2.91866C11.1098 3.33494 11.9687 4.03989 12.5731 4.94436C13.1774 5.84883 13.5 6.9122 13.5 8C13.4983 9.45818 12.9184 10.8562 11.8873 11.8873C10.8562 12.9184 9.45819 13.4983 8 13.5ZM8.75 11.25C8.75 11.3983 8.70602 11.5433 8.6236 11.6667C8.54119 11.79 8.42406 11.8861 8.28701 11.9429C8.14997 11.9997 7.99917 12.0145 7.85368 11.9856C7.7082 11.9566 7.57456 11.8852 7.46967 11.7803C7.36478 11.6754 7.29335 11.5418 7.26441 11.3963C7.23547 11.2508 7.25033 11.1 7.30709 10.963C7.36386 10.8259 7.45999 10.7088 7.58332 10.6264C7.70666 10.544 7.85167 10.5 8 10.5C8.19892 10.5 8.38968 10.579 8.53033 10.7197C8.67098 10.8603 8.75 11.0511 8.75 11.25ZM10.25 6.75C10.25 7.25984 10.0769 7.75456 9.75891 8.15313C9.44097 8.55169 8.99709 8.83045 8.5 8.94375V9C8.5 9.13261 8.44732 9.25978 8.35356 9.35355C8.25979 9.44732 8.13261 9.5 8 9.5C7.86739 9.5 7.74022 9.44732 7.64645 9.35355C7.55268 9.25978 7.5 9.13261 7.5 9V8.5C7.5 8.36739 7.55268 8.24021 7.64645 8.14645C7.74022 8.05268 7.86739 8 8 8C8.24723 8 8.4889 7.92669 8.69447 7.78934C8.90003 7.65198 9.06024 7.45676 9.15485 7.22835C9.24946 6.99995 9.27422 6.74861 9.22598 6.50614C9.17775 6.26366 9.0587 6.04093 8.88389 5.86612C8.70907 5.6913 8.48634 5.57225 8.24387 5.52402C8.00139 5.47579 7.75006 5.50054 7.52165 5.59515C7.29324 5.68976 7.09802 5.84998 6.96067 6.05554C6.82331 6.2611 6.75 6.50277 6.75 6.75C6.75 6.88261 6.69732 7.00978 6.60356 7.10355C6.50979 7.19732 6.38261 7.25 6.25 7.25C6.11739 7.25 5.99022 7.19732 5.89645 7.10355C5.80268 7.00978 5.75 6.88261 5.75 6.75C5.75 6.15326 5.98706 5.58097 6.40901 5.15901C6.83097 4.73705 7.40327 4.5 8 4.5C8.59674 4.5 9.16904 4.73705 9.59099 5.15901C10.0129 5.58097 10.25 6.15326 10.25 6.75Z" fill="white"/>
</svg>
