<svg width="21" height="22" viewBox="0 0 21 22" fill="none" xmlns="http://www.w3.org/2000/svg">
<path d="M14.875 10.125H11.375V6.625C11.375 6.39294 11.2828 6.17038 11.1187 6.00628C10.9546 5.84219 10.7321 5.75 10.5 5.75C10.2679 5.75 10.0454 5.84219 9.88128 6.00628C9.71719 6.17038 9.625 6.39294 9.625 6.625V10.125H6.125C5.89294 10.125 5.67038 10.2172 5.50628 10.3813C5.34219 10.5454 5.25 10.7679 5.25 11C5.25 11.2321 5.34219 11.4546 5.50628 11.6187C5.67038 11.7828 5.89294 11.875 6.125 11.875H9.625V15.375C9.625 15.6071 9.71719 15.8296 9.88128 15.9937C10.0454 16.1578 10.2679 16.25 10.5 16.25C10.7321 16.25 10.9546 16.1578 11.1187 15.9937C11.2828 15.8296 11.375 15.6071 11.375 15.375V11.875H14.875C15.1071 11.875 15.3296 11.7828 15.4937 11.6187C15.6578 11.4546 15.75 11.2321 15.75 11C15.75 10.7679 15.6578 10.5454 15.4937 10.3813C15.3296 10.2172 15.1071 10.125 14.875 10.125Z" fill="white"/>
</svg>
