<svg width="24" height="24" viewBox="0 0 24 24" fill="none" xmlns="http://www.w3.org/2000/svg">
<g clip-path="url(#clip0_22697_63922)">
<path d="M18.2548 16.0334L12.3354 23.8341C12.1659 24.0577 11.8291 24.0575 11.6597 23.8341L5.74017 16.0334C5.60228 15.852 5.80806 15.6107 6.00854 15.7178L11.7981 18.8025C11.9211 18.8683 12.0691 18.8688 12.1927 18.8046L17.9865 15.7178C18.187 15.6107 18.3927 15.852 18.2548 16.0334Z" fill="#6E6F80"/>
<path d="M18.2573 16.0334C18.2573 16.0334 12.3362 23.8364 12.3353 23.8375C12.2268 23.9777 12 23.8928 12 23.7156V19.0224C12 18.9524 12.0387 18.888 12.1005 18.855L17.989 15.7178C18.1894 15.6107 18.3952 15.852 18.2573 16.0334Z" fill="#585966"/>
<path d="M18.5838 10.2118L12.2002 13.5664C12.0786 13.6314 11.9276 13.6315 11.8056 13.5664L5.42207 10.2118C5.19825 10.094 5.12665 9.80764 5.26826 9.59814L11.6518 0.186148C11.8192 -0.0616423 12.1854 -0.0622788 12.3535 0.185617L18.7376 9.59814C18.8792 9.80764 18.8076 10.094 18.5838 10.2118Z" fill="#6E6F80"/>
<path d="M18.5809 10.2111C18.5809 10.2111 12.1961 13.5664 12.1954 13.5667C12.1066 13.6136 12 13.5441 12 13.4437V0.169474C12 0.0704008 12.1042 0.000285491 12.1925 0.0450489C12.2536 0.0760227 12.3083 0.122642 12.3505 0.184961L18.7346 9.59749C18.8763 9.80698 18.8047 10.0934 18.5809 10.2111Z" fill="#585966"/>
<path d="M11.806 16.698L4.80511 13.0188C4.59768 12.9098 4.51792 12.6533 4.62691 12.4458C4.73601 12.2384 4.99255 12.1587 5.19992 12.2676L12.0034 15.8431L18.807 12.2676C19.0143 12.1585 19.2709 12.2384 19.38 12.4458C19.489 12.6532 19.4092 12.9098 19.2018 13.0187L12.2008 16.6979C12.0773 16.7629 11.9296 16.7629 11.806 16.698Z" fill="#6E6F80"/>
<path d="M12.1762 0.039368C12.0914 0.00860639 11.998 0.076388 11.998 0.170264V7.23737C11.998 7.49439 11.8807 7.73645 11.6814 7.8988C10.3675 8.96957 8.75125 9.3045 7.08784 9.10657C6.45855 9.03168 6.13539 8.3126 6.49106 7.78811L11.6469 0.186281C11.7691 0.00531809 11.9993 -0.0441127 12.1762 0.039368Z" fill="#828396"/>
<path d="M11.2038 18.8924C10.9225 19.683 10.2795 20.2972 9.43003 20.4929C9.26991 20.5298 9.10332 20.4652 9.00398 20.3344L5.74017 16.0334C5.60228 15.852 5.80806 15.6107 6.00854 15.7178L11.0021 18.3787C11.1866 18.477 11.2739 18.6956 11.2038 18.8924Z" fill="#828396"/>
</g>
<defs>
<clipPath id="clip0_22697_63922">
<rect width="24" height="24" fill="white"/>
</clipPath>
</defs>
</svg>
