<svg width="23" height="22" viewBox="0 0 23 22" fill="none" xmlns="http://www.w3.org/2000/svg">
<path d="M4.89844 1.10156H18.0984C19.1984 1.10156 20.0984 2.00156 20.0984 3.10156V5.30156C20.0984 6.10156 19.5984 7.10156 19.0984 7.60156L14.7984 11.4016C14.1984 11.9016 13.7984 12.9016 13.7984 13.7016V18.0016C13.7984 18.6016 13.3984 19.4016 12.8984 19.7016L11.4984 20.6016C10.1984 21.4016 8.39844 20.5016 8.39844 18.9016V13.6016C8.39844 12.9016 7.99844 12.0016 7.59844 11.5016L3.79844 7.50156C3.29844 7.00156 2.89844 6.10156 2.89844 5.50156V3.20156C2.89844 2.00156 3.79844 1.10156 4.89844 1.10156Z" stroke="white" stroke-miterlimit="10" stroke-linecap="round" stroke-linejoin="round"/>
<path d="M10.43 1.10156L5.5 9.00156" stroke="white" stroke-miterlimit="10" stroke-linecap="round" stroke-linejoin="round"/>
</svg>
