<svg width="23" height="22" viewBox="0 0 23 22" fill="none" xmlns="http://www.w3.org/2000/svg">
<path d="M15.4284 9.13696C15.3645 9.07252 15.2885 9.02137 15.2047 8.98647C15.1209 8.95156 15.0311 8.93359 14.9403 8.93359C14.8496 8.93359 14.7597 8.95156 14.6759 8.98647C14.5921 9.02137 14.5161 9.07252 14.4522 9.13696L11.5028 12.0932L8.55344 9.13696C8.42398 9.0075 8.2484 8.93477 8.06531 8.93477C7.88223 8.93477 7.70665 9.0075 7.57719 9.13696C7.44773 9.26641 7.375 9.442 7.375 9.62508C7.375 9.80816 7.44773 9.98375 7.57719 10.1132L11.0147 13.5507C11.0786 13.6151 11.1546 13.6663 11.2384 13.7012C11.3222 13.7361 11.4121 13.7541 11.5028 13.7541C11.5936 13.7541 11.6834 13.7361 11.7672 13.7012C11.851 13.6663 11.927 13.6151 11.9909 13.5507L15.4284 10.1132C15.4929 10.0493 15.544 9.97325 15.5789 9.88948C15.6138 9.8057 15.6318 9.71584 15.6318 9.62508C15.6318 9.53432 15.6138 9.44446 15.5789 9.36068C15.544 9.27691 15.4929 9.20087 15.4284 9.13696Z" fill="white"/>
</svg>
