<svg width="20" height="20" viewBox="0 0 20 20" fill="none" xmlns="http://www.w3.org/2000/svg">
<path fill-rule="evenodd" clip-rule="evenodd" d="M11.8663 3.51378C9.51438 6.98128 5.155 8.10565 5.155 8.10565C4.82063 8.19128 4.48 7.9894 4.39438 7.65503C4.30875 7.32065 4.51062 6.98003 4.845 6.8944C4.845 6.8944 8.99625 5.84253 11.0256 2.51065L9.79625 2.50003C9.45125 2.4969 9.17375 2.2144 9.17687 1.8694C9.18 1.5244 9.4625 1.2469 9.8075 1.25003L12.4825 1.27378C12.8238 1.27628 13.0994 1.5519 13.1019 1.89315L13.125 4.50628C13.1281 4.85128 12.8506 5.13378 12.5056 5.1369C12.1606 5.14003 11.8781 4.86253 11.875 4.51753L11.8663 3.51378ZM6.55312 18.75H3.75C3.05937 18.75 2.5 18.1907 2.5 17.5V11.875C2.5 11.1844 3.05937 10.625 3.75 10.625H6.55312V18.75ZM7.80312 10.0219C7.80312 9.3194 8.3725 8.75003 9.075 8.75003H10.8731C11.5756 8.75003 12.145 9.3194 12.145 10.0219V18.75H7.80312V10.0219ZM13.395 7.5219C13.395 6.8194 13.9644 6.25003 14.6663 6.25003H16.25C16.9406 6.25003 17.5 6.8094 17.5 7.50003V17.5C17.5 18.1907 16.9406 18.75 16.25 18.75H13.395V7.5219Z" fill="#00A849"/>
</svg>
