<svg width="16" height="16" viewBox="0 0 16 16" fill="none" xmlns="http://www.w3.org/2000/svg">
<path d="M5.35209 9.58786L9.59584 5.35036C9.73963 5.23068 9.92296 5.16905 10.1098 5.17758C10.2967 5.18611 10.4737 5.26418 10.606 5.39647C10.7383 5.52876 10.8163 5.70571 10.8249 5.8926C10.8334 6.07949 10.7718 6.26282 10.6521 6.40661L6.40834 10.6504C6.26787 10.7897 6.07804 10.8678 5.88021 10.8678C5.68238 10.8678 5.49255 10.7897 5.35209 10.6504C5.28217 10.5807 5.22669 10.4979 5.18883 10.4067C5.15098 10.3156 5.13149 10.2178 5.13149 10.1191C5.13149 10.0204 5.15098 9.92266 5.18883 9.8315C5.22669 9.74034 5.28217 9.65754 5.35209 9.58786ZM8.53334 10.6504L6.76459 12.4191C6.33971 12.8262 5.7723 13.0506 5.18394 13.0443C4.59559 13.038 4.03311 12.8014 3.61706 12.3854C3.20101 11.9693 2.96448 11.4069 2.95818 10.8185C2.95188 10.2302 3.17629 9.66274 3.58334 9.23786L5.35209 7.46911C5.42201 7.39944 5.47748 7.31664 5.51534 7.22548C5.55319 7.13431 5.57268 7.03657 5.57268 6.93786C5.57268 6.83915 5.55319 6.74141 5.51534 6.65025C5.47748 6.55909 5.42201 6.47629 5.35209 6.40661C5.20978 6.2684 5.01921 6.19109 4.82084 6.19109C4.62246 6.19109 4.43189 6.2684 4.28959 6.40661L2.52084 8.17536C1.81718 8.87902 1.42187 9.83337 1.42188 10.8285C1.42188 11.8236 1.81718 12.778 2.52084 13.4816C3.22449 14.1853 4.17885 14.5806 5.17396 14.5806C6.16908 14.5806 7.12343 14.1853 7.82709 13.4816L9.58959 11.7129C9.6595 11.6432 9.71498 11.5604 9.75284 11.4692C9.79069 11.3781 9.81018 11.2803 9.81018 11.1816C9.81018 11.0829 9.79069 10.9852 9.75284 10.894C9.71498 10.8028 9.6595 10.72 9.58959 10.6504C9.52044 10.5806 9.43817 10.5253 9.34753 10.4875C9.25689 10.4497 9.15966 10.4303 9.06146 10.4303C8.96326 10.4303 8.86603 10.4497 8.77539 10.4875C8.68475 10.5253 8.60248 10.5806 8.53334 10.6504ZM13.4833 2.51911C12.7791 1.81648 11.825 1.42188 10.8302 1.42188C9.83543 1.42188 8.88128 1.81648 8.17709 2.51911L6.40834 4.28786C6.27012 4.43017 6.19281 4.62074 6.19281 4.81911C6.19281 5.01749 6.27012 5.20806 6.40834 5.35036C6.47801 5.42028 6.56081 5.47576 6.65197 5.51362C6.74313 5.55147 6.84087 5.57096 6.93959 5.57096C7.0383 5.57096 7.13604 5.55147 7.2272 5.51362C7.31836 5.47576 7.40116 5.42028 7.47084 5.35036L9.23959 3.58161C9.4468 3.36532 9.69511 3.19258 9.96997 3.07353C10.2448 2.95447 10.5407 2.89149 10.8402 2.88828C11.1397 2.88507 11.4368 2.9417 11.7142 3.05484C11.9915 3.16798 12.2435 3.33536 12.4553 3.54716C12.6671 3.75896 12.8345 4.01092 12.9476 4.28826C13.0608 4.5656 13.1174 4.86274 13.1142 5.16226C13.111 5.46177 13.048 5.75763 12.9289 6.03248C12.8099 6.30734 12.6371 6.55565 12.4208 6.76286L10.6521 8.53161C10.5498 8.63763 10.4807 8.77121 10.4533 8.91595C10.4258 9.06069 10.4413 9.2103 10.4977 9.34638C10.5541 9.48246 10.6491 9.5991 10.7709 9.68197C10.8927 9.76484 11.036 9.81034 11.1833 9.81286C11.2825 9.81335 11.3808 9.79365 11.4721 9.75497C11.5634 9.71629 11.6459 9.65943 11.7146 9.58786L13.4833 7.82536C13.832 7.47709 14.1086 7.06351 14.2973 6.60826C14.486 6.15302 14.5832 5.66505 14.5832 5.17224C14.5832 4.67943 14.486 4.19146 14.2973 3.73621C14.1086 3.28097 13.832 2.86739 13.4833 2.51911Z" fill="white"/>
</svg>
