<svg width="16" height="16" viewBox="0 0 16 16" fill="none" xmlns="http://www.w3.org/2000/svg">
<path d="M14.375 12.5001C14.375 12.5996 14.3355 12.695 14.2652 12.7653C14.1948 12.8356 14.0995 12.8751 14 12.8751C13.9005 12.8751 13.8052 12.8356 13.7348 12.7653C13.6645 12.695 13.625 12.5996 13.625 12.5001C13.6233 11.0088 13.0302 9.57902 11.9756 8.52449C10.9211 7.46995 9.49133 6.87679 8 6.87514H2.90625L5.2625 9.23764C5.33212 9.30726 5.37123 9.40168 5.37123 9.50014C5.37123 9.59859 5.33212 9.69302 5.2625 9.76264C5.19288 9.83226 5.09846 9.87137 5 9.87137C4.90154 9.87137 4.80712 9.83226 4.7375 9.76264L1.7375 6.76264C1.70195 6.72878 1.67365 6.68806 1.65431 6.64293C1.63497 6.59781 1.625 6.54923 1.625 6.50014C1.625 6.45105 1.63497 6.40246 1.65431 6.35734C1.67365 6.31222 1.70195 6.27149 1.7375 6.23764L4.7375 3.23764C4.80712 3.16802 4.90154 3.12891 5 3.12891C5.09846 3.12891 5.19288 3.16802 5.2625 3.23764C5.33212 3.30726 5.37123 3.40168 5.37123 3.50014C5.37123 3.59859 5.33212 3.69302 5.2625 3.76264L2.90625 6.12514H8C9.68974 6.12844 11.3093 6.80115 12.5042 7.99598C13.699 9.19081 14.3717 10.8104 14.375 12.5001Z" fill="white"/>
</svg>
