<svg width="44" height="44" viewBox="0 0 44 44" fill="none" xmlns="http://www.w3.org/2000/svg">
<g filter="url(#filter0_b_14319_34661)">
<rect width="44" height="44" rx="22" fill="white" fill-opacity="0.12"/>
<path d="M24.4999 29.1872C24.2513 29.1861 24.013 29.088 23.8358 28.9137L17.5858 22.6637C17.4984 22.5766 17.4291 22.4731 17.3817 22.3592C17.3344 22.2452 17.3101 22.1231 17.3101 21.9997C17.3101 21.8763 17.3344 21.7541 17.3817 21.6402C17.4291 21.5262 17.4984 21.4227 17.5858 21.3356L23.8358 15.0856C24.0119 14.9095 24.2508 14.8105 24.4999 14.8105C24.6232 14.8105 24.7453 14.8348 24.8593 14.882C24.9732 14.9292 25.0767 14.9984 25.1639 15.0856C25.2511 15.1728 25.3203 15.2763 25.3675 15.3903C25.4147 15.5042 25.439 15.6263 25.439 15.7497C25.439 15.873 25.4147 15.9951 25.3675 16.1091C25.3203 16.223 25.2511 16.3265 25.1639 16.4137L19.578 21.9997L25.1639 27.5856C25.2513 27.6727 25.3207 27.7762 25.368 27.8902C25.4153 28.0041 25.4397 28.1263 25.4397 28.2497C25.4397 28.3731 25.4153 28.4952 25.368 28.6092C25.3207 28.7231 25.2513 28.8266 25.1639 28.9137C24.9867 29.088 24.7484 29.1861 24.4999 29.1872Z" fill="white"/>
</g>
<defs>
<filter id="filter0_b_14319_34661" x="-8" y="-8" width="60" height="60" filterUnits="userSpaceOnUse" color-interpolation-filters="sRGB">
<feFlood flood-opacity="0" result="BackgroundImageFix"/>
<feGaussianBlur in="BackgroundImageFix" stdDeviation="4"/>
<feComposite in2="SourceAlpha" operator="in" result="effect1_backgroundBlur_14319_34661"/>
<feBlend mode="normal" in="SourceGraphic" in2="effect1_backgroundBlur_14319_34661" result="shape"/>
</filter>
</defs>
</svg>
