<svg width="44" height="44" viewBox="0 0 44 44" fill="none" xmlns="http://www.w3.org/2000/svg">
<g filter="url(#filter0_b_15827_16887)">
<rect width="44" height="44" rx="22" fill="white" fill-opacity="0.12"/>
<path d="M24.5003 29.1891C24.2518 29.1881 24.0135 29.0899 23.8363 28.9157L17.5863 22.6657C17.4989 22.5786 17.4295 22.4751 17.3822 22.3611C17.3349 22.2472 17.3105 22.125 17.3105 22.0016C17.3105 21.8782 17.3349 21.7561 17.3822 21.6421C17.4295 21.5282 17.4989 21.4247 17.5863 21.3376L23.8363 15.0876C24.0124 14.9114 24.2513 14.8125 24.5003 14.8125C24.6237 14.8125 24.7458 14.8368 24.8597 14.884C24.9737 14.9312 25.0772 15.0004 25.1644 15.0876C25.2516 15.1748 25.3208 15.2783 25.368 15.3922C25.4152 15.5062 25.4395 15.6283 25.4395 15.7516C25.4395 15.875 25.4152 15.9971 25.368 16.111C25.3208 16.225 25.2516 16.3285 25.1644 16.4157L19.5785 22.0016L25.1644 27.5876C25.2518 27.6747 25.3212 27.7782 25.3685 27.8921C25.4158 28.0061 25.4402 28.1282 25.4402 28.2516C25.4402 28.375 25.4158 28.4972 25.3685 28.6111C25.3212 28.7251 25.2518 28.8286 25.1644 28.9157C24.9872 29.0899 24.7489 29.1881 24.5003 29.1891Z" fill="white"/>
</g>
<defs>
<filter id="filter0_b_15827_16887" x="-8" y="-8" width="60" height="60" filterUnits="userSpaceOnUse" color-interpolation-filters="sRGB">
<feFlood flood-opacity="0" result="BackgroundImageFix"/>
<feGaussianBlur in="BackgroundImageFix" stdDeviation="4"/>
<feComposite in2="SourceAlpha" operator="in" result="effect1_backgroundBlur_15827_16887"/>
<feBlend mode="normal" in="SourceGraphic" in2="effect1_backgroundBlur_15827_16887" result="shape"/>
</filter>
</defs>
</svg>
