<svg width="25" height="24" viewBox="0 0 25 24" fill="none" xmlns="http://www.w3.org/2000/svg">
<path d="M16.2497 21C16.2497 21.1989 16.1707 21.3897 16.03 21.5303C15.8894 21.671 15.6986 21.75 15.4997 21.75H9.49968C9.30077 21.75 9.11 21.671 8.96935 21.5303C8.8287 21.3897 8.74968 21.1989 8.74968 21C8.74968 20.8011 8.8287 20.6103 8.96935 20.4697C9.11 20.329 9.30077 20.25 9.49968 20.25H15.4997C15.6986 20.25 15.8894 20.329 16.03 20.4697C16.1707 20.6103 16.2497 20.8011 16.2497 21ZM21.2091 18C21.0778 18.2293 20.888 18.4195 20.659 18.5513C20.43 18.6831 20.1701 18.7517 19.9059 18.75H5.09343C4.82919 18.75 4.56963 18.6803 4.34102 18.5477C4.11241 18.4152 3.92287 18.2247 3.79156 17.9954C3.66026 17.7661 3.59186 17.5061 3.59328 17.2419C3.59471 16.9777 3.66591 16.7185 3.79968 16.4906C4.35281 15.5344 5.01843 13.7156 5.01843 10.5V9.75C5.0172 8.76632 5.20973 7.79202 5.58503 6.88275C5.96033 5.97347 6.51106 5.14702 7.20575 4.45058C7.90045 3.75414 8.72552 3.20135 9.63386 2.82378C10.5422 2.4462 11.516 2.25123 12.4997 2.25H12.5559C16.6528 2.27812 19.9809 5.68125 19.9809 9.83437V10.5C19.9809 13.7156 20.6466 15.5344 21.1997 16.4906C21.3327 16.7196 21.4035 16.9793 21.4052 17.2441C21.4068 17.5088 21.3392 17.7694 21.2091 18ZM19.9059 17.25C19.2591 16.125 18.4809 14.0531 18.4809 10.5V9.83437C18.4809 6.50625 15.8184 3.76875 12.5466 3.75H12.4997C11.7126 3.75 10.9333 3.90532 10.2064 4.20708C9.47951 4.50884 8.81931 4.95109 8.26366 5.50849C7.708 6.06589 7.26782 6.72747 6.96833 7.45532C6.66885 8.18316 6.51596 8.96295 6.51843 9.75V10.5C6.51843 14.0531 5.74031 16.125 5.09343 17.25H19.9059Z" fill="white"/>
<circle cx="18.501" cy="5.5" r="2.5" fill="#F75555"/>
</svg>
