<svg width="325" height="324" viewBox="0 0 325 324" fill="none" xmlns="http://www.w3.org/2000/svg">
<rect x="12.5" width="300" height="324" rx="12" fill="#00A849"/>
<g filter="url(#filter0_f_17646_19711)">
<g clip-path="url(#clip0_17646_19711)">
<path d="M195 125.438H186.875V145.75H195V125.438Z" fill="white"/>
<path d="M211.25 125.438H203.125V145.75H211.25V125.438Z" fill="white"/>
<path d="M195 153.875H186.875V162H195V153.875Z" fill="white"/>
<path d="M211.25 153.875H203.125V162H211.25V153.875Z" fill="white"/>
<path d="M166.562 170.125H158.438V178.25H166.562V170.125Z" fill="white"/>
<path d="M146.25 251.375H138.125V259.5H146.25V251.375Z" fill="white"/>
<path d="M211.25 170.125H203.125V178.25H211.25V170.125Z" fill="white"/>
<path d="M195 186.375H186.875V194.5H195V186.375Z" fill="white"/>
<path d="M211.25 186.375H203.125V194.5H211.25V186.375Z" fill="white"/>
<path d="M40.625 40.125H52.8125V32H36.5625C34.32 32 32.5 33.82 32.5 36.0625V52.3125H40.625V40.125Z" fill="white"/>
<path d="M288.438 32H272.188V40.125H284.375V52.3125H292.5V36.0625C292.5 33.82 290.68 32 288.438 32Z" fill="white"/>
<path d="M40.625 271.688H32.5V287.938C32.5 290.18 34.32 292 36.5625 292H52.8125V283.875H40.625V271.688Z" fill="white"/>
<path d="M284.375 283.875H272.188V292H288.438C290.68 292 292.5 290.18 292.5 287.938V271.688H284.375V283.875Z" fill="white"/>
<path d="M48.75 52.3125V101.062C48.75 103.305 50.57 105.125 52.8125 105.125H101.562C103.805 105.125 105.625 103.305 105.625 101.062V52.3125C105.625 50.07 103.805 48.25 101.562 48.25H52.8125C50.57 48.25 48.75 50.07 48.75 52.3125ZM56.875 56.375H97.5V97H56.875V56.375Z" fill="white"/>
<path d="M85.3125 64.5H69.0625C66.82 64.5 65 66.32 65 68.5625V84.8125C65 87.055 66.82 88.875 69.0625 88.875H85.3125C87.555 88.875 89.375 87.055 89.375 84.8125V68.5625C89.375 66.32 87.555 64.5 85.3125 64.5ZM81.25 80.75H73.125V72.625H81.25V80.75Z" fill="white"/>
<path d="M223.438 105.125H272.188C274.43 105.125 276.25 103.305 276.25 101.062V52.3125C276.25 50.07 274.43 48.25 272.188 48.25H223.438C221.195 48.25 219.375 50.07 219.375 52.3125V101.062C219.375 103.305 221.195 105.125 223.438 105.125ZM227.5 56.375H268.125V97H227.5V56.375Z" fill="white"/>
<path d="M255.938 64.5H239.688C237.445 64.5 235.625 66.32 235.625 68.5625V84.8125C235.625 87.055 237.445 88.875 239.688 88.875H255.938C258.18 88.875 260 87.055 260 84.8125V68.5625C260 66.32 258.18 64.5 255.938 64.5ZM251.875 80.75H243.75V72.625H251.875V80.75Z" fill="white"/>
<path d="M101.562 218.875H52.8125C50.57 218.875 48.75 220.695 48.75 222.938V271.688C48.75 273.93 50.57 275.75 52.8125 275.75H101.562C103.805 275.75 105.625 273.93 105.625 271.688V222.938C105.625 220.695 103.805 218.875 101.562 218.875ZM97.5 267.625H56.875V227H97.5V267.625Z" fill="white"/>
<path d="M69.0625 259.5H85.3125C87.555 259.5 89.375 257.68 89.375 255.438V239.188C89.375 236.945 87.555 235.125 85.3125 235.125H69.0625C66.82 235.125 65 236.945 65 239.188V255.438C65 257.68 66.82 259.5 69.0625 259.5ZM73.125 243.25H81.25V251.375H73.125V243.25Z" fill="white"/>
<path d="M211.25 109.188H182.812V60.4375H174.688V113.25C174.688 115.493 176.508 117.312 178.75 117.312H211.25V109.188Z" fill="white"/>
<path d="M150.312 80.75H121.875V88.875H150.312V80.75Z" fill="white"/>
<path d="M166.562 64.5H138.125V72.625H166.562V64.5Z" fill="white"/>
<path d="M56.875 109.188H48.75V145.75H56.875V109.188Z" fill="white"/>
<path d="M105.625 133.562H65V141.688H101.562V157.938H109.688V137.625C109.688 135.383 107.868 133.562 105.625 133.562Z" fill="white"/>
<path d="M77.1875 113.25H69.0625V121.375H77.1875V113.25Z" fill="white"/>
<path d="M125.938 105.125H117.812V137.625H125.938V105.125Z" fill="white"/>
<path d="M154.375 145.75H117.812V153.875H154.375V145.75Z" fill="white"/>
<path d="M280.312 149.812H272.188V190.438H260V198.562H276.25C278.493 198.562 280.312 196.743 280.312 194.5V149.812Z" fill="white"/>
<path d="M146.25 105.125H138.125V113.25H146.25V105.125Z" fill="white"/>
<path d="M56.875 166.062H48.75V198.562H56.875V166.062Z" fill="white"/>
<path d="M85.3125 202.625H48.75V210.75H85.3125V202.625Z" fill="white"/>
<path d="M235.625 145.75H243.75V129.5C243.75 127.258 241.93 125.438 239.688 125.438H219.375V133.562H235.625V145.75Z" fill="white"/>
<path d="M77.1875 166.062H69.0625V174.188H77.1875V166.062Z" fill="white"/>
<path d="M121.875 162H113.75V194.5H121.875V162Z" fill="white"/>
<path d="M150.312 202.625H113.75V210.75H150.312V202.625Z" fill="white"/>
<path d="M101.562 186.375H65V194.5H101.562V186.375Z" fill="white"/>
<path d="M125.938 243.25H117.812V259.5H125.938V243.25Z" fill="white"/>
<path d="M150.312 227H113.75V235.125H150.312V227Z" fill="white"/>
<path d="M178.75 210.75V190.438C178.75 188.195 176.93 186.375 174.688 186.375H134.062V194.5H170.625V210.75H178.75Z" fill="white"/>
<path d="M146.25 162H138.125V170.125H146.25V162Z" fill="white"/>
<path d="M101.562 170.125H93.4375V178.25H101.562V170.125Z" fill="white"/>
<path d="M280.312 247.312H272.188V275.75H280.312V247.312Z" fill="white"/>
<path d="M264.062 267.625H251.875V275.75H264.062V267.625Z" fill="white"/>
<path d="M260 243.25H251.875V259.5H260V243.25Z" fill="white"/>
<path d="M280.312 210.75C280.312 208.508 278.493 206.688 276.25 206.688H231.562V214.812H272.188V239.188H280.312V210.75Z" fill="white"/>
<path d="M227.5 259.5V239.188C227.5 236.945 225.68 235.125 223.438 235.125H178.75V243.25H219.375V259.5H227.5Z" fill="white"/>
<path d="M264.062 222.938H235.625V231.062H264.062V222.938Z" fill="white"/>
<path d="M142.188 267.625H113.75V275.75H142.188V267.625Z" fill="white"/>
<path d="M162.5 239.188H154.375V275.75H162.5V239.188Z" fill="white"/>
<path d="M178.75 218.875H162.5V227H178.75V218.875Z" fill="white"/>
<path d="M223.438 178.25H243.75V170.125H227.5V145.75H219.375V174.188C219.375 176.43 221.195 178.25 223.438 178.25Z" fill="white"/>
<path d="M255.938 153.875H235.625V162H255.938V153.875Z" fill="white"/>
<path d="M264.062 113.25H251.875V121.375H264.062V113.25Z" fill="white"/>
<path d="M280.312 113.25H272.188V133.562H280.312V113.25Z" fill="white"/>
<path d="M260 133.562H251.875V141.688H260V133.562Z" fill="white"/>
<path d="M190.938 101.062H207.188C209.43 101.062 211.25 99.2425 211.25 97V44.1875H203.125V92.9375H190.938V101.062Z" fill="white"/>
<path d="M130 52.3125H190.938V44.1875H125.938C123.695 44.1875 121.875 46.0075 121.875 48.25V68.5625H130V52.3125Z" fill="white"/>
<path d="M134.062 129.5H162.5C164.743 129.5 166.562 127.68 166.562 125.438V92.9375H158.438V121.375H134.062V129.5Z" fill="white"/>
<path d="M178.75 125.438H170.625V141.688H178.75V125.438Z" fill="white"/>
<path d="M207.188 251.375H178.75V259.5H207.188V251.375Z" fill="white"/>
<path d="M215.312 267.625H178.75V275.75H215.312V267.625Z" fill="white"/>
<path d="M235.625 267.625H227.5V275.75H239.688C241.93 275.75 243.75 273.93 243.75 271.688V239.188H235.625V267.625Z" fill="white"/>
<path d="M105.625 202.625H97.5V210.75H105.625V202.625Z" fill="white"/>
<path d="M207.188 202.625H190.938V210.75H207.188V202.625Z" fill="white"/>
<path d="M227.5 186.375H219.375V198.562H227.5V186.375Z" fill="white"/>
<path d="M223.438 206.688H215.312V214.812H223.438V206.688Z" fill="white"/>
<path d="M203.125 218.875H190.938V227H203.125V218.875Z" fill="white"/>
<path d="M243.75 186.375H235.625V194.5H243.75V186.375Z" fill="white"/>
<path d="M264.062 170.125H251.875V178.25H264.062V170.125Z" fill="white"/>
<path d="M195 170.125H174.688V178.25H195V170.125Z" fill="white"/>
<path d="M178.75 149.812H170.625V162H178.75V149.812Z" fill="white"/>
</g>
</g>
<circle cx="312.5" cy="208" r="12" fill="#030303"/>
<circle cx="12.5" cy="208" r="12" fill="#030303"/>
<defs>
<filter id="filter0_f_17646_19711" x="22.5" y="22" width="280" height="280" filterUnits="userSpaceOnUse" color-interpolation-filters="sRGB">
<feFlood flood-opacity="0" result="BackgroundImageFix"/>
<feBlend mode="normal" in="SourceGraphic" in2="BackgroundImageFix" result="shape"/>
<feGaussianBlur stdDeviation="5" result="effect1_foregroundBlur_17646_19711"/>
</filter>
<clipPath id="clip0_17646_19711">
<rect width="260" height="260" fill="white" transform="translate(32.5 32)"/>
</clipPath>
</defs>
</svg>
