<svg width="367" height="324" viewBox="0 0 367 324" fill="none" xmlns="http://www.w3.org/2000/svg">
<rect x="12" width="343" height="324" rx="12" fill="#00A849"/>
<g filter="url(#filter0_f_19237_15053)">
<g clip-path="url(#clip0_19237_15053)">
<path d="M216 125.438H207.875V145.75H216V125.438Z" fill="white"/>
<path d="M232.25 125.438H224.125V145.75H232.25V125.438Z" fill="white"/>
<path d="M216 153.875H207.875V162H216V153.875Z" fill="white"/>
<path d="M232.25 153.875H224.125V162H232.25V153.875Z" fill="white"/>
<path d="M187.562 170.125H179.438V178.25H187.562V170.125Z" fill="white"/>
<path d="M167.25 251.375H159.125V259.5H167.25V251.375Z" fill="white"/>
<path d="M232.25 170.125H224.125V178.25H232.25V170.125Z" fill="white"/>
<path d="M216 186.375H207.875V194.5H216V186.375Z" fill="white"/>
<path d="M232.25 186.375H224.125V194.5H232.25V186.375Z" fill="white"/>
<path d="M61.625 40.125H73.8125V32H57.5625C55.32 32 53.5 33.82 53.5 36.0625V52.3125H61.625V40.125Z" fill="white"/>
<path d="M309.438 32H293.188V40.125H305.375V52.3125H313.5V36.0625C313.5 33.82 311.68 32 309.438 32Z" fill="white"/>
<path d="M61.625 271.688H53.5V287.938C53.5 290.18 55.32 292 57.5625 292H73.8125V283.875H61.625V271.688Z" fill="white"/>
<path d="M305.375 283.875H293.188V292H309.438C311.68 292 313.5 290.18 313.5 287.938V271.688H305.375V283.875Z" fill="white"/>
<path d="M69.75 52.3125V101.062C69.75 103.305 71.57 105.125 73.8125 105.125H122.562C124.805 105.125 126.625 103.305 126.625 101.062V52.3125C126.625 50.07 124.805 48.25 122.562 48.25H73.8125C71.57 48.25 69.75 50.07 69.75 52.3125ZM77.875 56.375H118.5V97H77.875V56.375Z" fill="white"/>
<path d="M106.312 64.5H90.0625C87.82 64.5 86 66.32 86 68.5625V84.8125C86 87.055 87.82 88.875 90.0625 88.875H106.312C108.555 88.875 110.375 87.055 110.375 84.8125V68.5625C110.375 66.32 108.555 64.5 106.312 64.5ZM102.25 80.75H94.125V72.625H102.25V80.75Z" fill="white"/>
<path d="M244.438 105.125H293.188C295.43 105.125 297.25 103.305 297.25 101.062V52.3125C297.25 50.07 295.43 48.25 293.188 48.25H244.438C242.195 48.25 240.375 50.07 240.375 52.3125V101.062C240.375 103.305 242.195 105.125 244.438 105.125ZM248.5 56.375H289.125V97H248.5V56.375Z" fill="white"/>
<path d="M276.938 64.5H260.688C258.445 64.5 256.625 66.32 256.625 68.5625V84.8125C256.625 87.055 258.445 88.875 260.688 88.875H276.938C279.18 88.875 281 87.055 281 84.8125V68.5625C281 66.32 279.18 64.5 276.938 64.5ZM272.875 80.75H264.75V72.625H272.875V80.75Z" fill="white"/>
<path d="M122.562 218.875H73.8125C71.57 218.875 69.75 220.695 69.75 222.938V271.688C69.75 273.93 71.57 275.75 73.8125 275.75H122.562C124.805 275.75 126.625 273.93 126.625 271.688V222.938C126.625 220.695 124.805 218.875 122.562 218.875ZM118.5 267.625H77.875V227H118.5V267.625Z" fill="white"/>
<path d="M90.0625 259.5H106.312C108.555 259.5 110.375 257.68 110.375 255.438V239.188C110.375 236.945 108.555 235.125 106.312 235.125H90.0625C87.82 235.125 86 236.945 86 239.188V255.438C86 257.68 87.82 259.5 90.0625 259.5ZM94.125 243.25H102.25V251.375H94.125V243.25Z" fill="white"/>
<path d="M232.25 109.188H203.812V60.4375H195.688V113.25C195.688 115.493 197.508 117.312 199.75 117.312H232.25V109.188Z" fill="white"/>
<path d="M171.312 80.75H142.875V88.875H171.312V80.75Z" fill="white"/>
<path d="M187.562 64.5H159.125V72.625H187.562V64.5Z" fill="white"/>
<path d="M77.875 109.188H69.75V145.75H77.875V109.188Z" fill="white"/>
<path d="M126.625 133.562H86V141.688H122.562V157.938H130.688V137.625C130.688 135.383 128.868 133.562 126.625 133.562Z" fill="white"/>
<path d="M98.1875 113.25H90.0625V121.375H98.1875V113.25Z" fill="white"/>
<path d="M146.938 105.125H138.812V137.625H146.938V105.125Z" fill="white"/>
<path d="M175.375 145.75H138.812V153.875H175.375V145.75Z" fill="white"/>
<path d="M301.312 149.812H293.188V190.438H281V198.562H297.25C299.493 198.562 301.312 196.743 301.312 194.5V149.812Z" fill="white"/>
<path d="M167.25 105.125H159.125V113.25H167.25V105.125Z" fill="white"/>
<path d="M77.875 166.062H69.75V198.562H77.875V166.062Z" fill="white"/>
<path d="M106.312 202.625H69.75V210.75H106.312V202.625Z" fill="white"/>
<path d="M256.625 145.75H264.75V129.5C264.75 127.258 262.93 125.438 260.688 125.438H240.375V133.562H256.625V145.75Z" fill="white"/>
<path d="M98.1875 166.062H90.0625V174.188H98.1875V166.062Z" fill="white"/>
<path d="M142.875 162H134.75V194.5H142.875V162Z" fill="white"/>
<path d="M171.312 202.625H134.75V210.75H171.312V202.625Z" fill="white"/>
<path d="M122.562 186.375H86V194.5H122.562V186.375Z" fill="white"/>
<path d="M146.938 243.25H138.812V259.5H146.938V243.25Z" fill="white"/>
<path d="M171.312 227H134.75V235.125H171.312V227Z" fill="white"/>
<path d="M199.75 210.75V190.438C199.75 188.195 197.93 186.375 195.688 186.375H155.062V194.5H191.625V210.75H199.75Z" fill="white"/>
<path d="M167.25 162H159.125V170.125H167.25V162Z" fill="white"/>
<path d="M122.562 170.125H114.438V178.25H122.562V170.125Z" fill="white"/>
<path d="M301.312 247.312H293.188V275.75H301.312V247.312Z" fill="white"/>
<path d="M285.062 267.625H272.875V275.75H285.062V267.625Z" fill="white"/>
<path d="M281 243.25H272.875V259.5H281V243.25Z" fill="white"/>
<path d="M301.312 210.75C301.312 208.508 299.493 206.688 297.25 206.688H252.562V214.812H293.188V239.188H301.312V210.75Z" fill="white"/>
<path d="M248.5 259.5V239.188C248.5 236.945 246.68 235.125 244.438 235.125H199.75V243.25H240.375V259.5H248.5Z" fill="white"/>
<path d="M285.062 222.938H256.625V231.062H285.062V222.938Z" fill="white"/>
<path d="M163.188 267.625H134.75V275.75H163.188V267.625Z" fill="white"/>
<path d="M183.5 239.188H175.375V275.75H183.5V239.188Z" fill="white"/>
<path d="M199.75 218.875H183.5V227H199.75V218.875Z" fill="white"/>
<path d="M244.438 178.25H264.75V170.125H248.5V145.75H240.375V174.188C240.375 176.43 242.195 178.25 244.438 178.25Z" fill="white"/>
<path d="M276.938 153.875H256.625V162H276.938V153.875Z" fill="white"/>
<path d="M285.062 113.25H272.875V121.375H285.062V113.25Z" fill="white"/>
<path d="M301.312 113.25H293.188V133.562H301.312V113.25Z" fill="white"/>
<path d="M281 133.562H272.875V141.688H281V133.562Z" fill="white"/>
<path d="M211.938 101.062H228.188C230.43 101.062 232.25 99.2425 232.25 97V44.1875H224.125V92.9375H211.938V101.062Z" fill="white"/>
<path d="M151 52.3125H211.938V44.1875H146.938C144.695 44.1875 142.875 46.0075 142.875 48.25V68.5625H151V52.3125Z" fill="white"/>
<path d="M155.062 129.5H183.5C185.743 129.5 187.562 127.68 187.562 125.438V92.9375H179.438V121.375H155.062V129.5Z" fill="white"/>
<path d="M199.75 125.438H191.625V141.688H199.75V125.438Z" fill="white"/>
<path d="M228.188 251.375H199.75V259.5H228.188V251.375Z" fill="white"/>
<path d="M236.312 267.625H199.75V275.75H236.312V267.625Z" fill="white"/>
<path d="M256.625 267.625H248.5V275.75H260.688C262.93 275.75 264.75 273.93 264.75 271.688V239.188H256.625V267.625Z" fill="white"/>
<path d="M126.625 202.625H118.5V210.75H126.625V202.625Z" fill="white"/>
<path d="M228.188 202.625H211.938V210.75H228.188V202.625Z" fill="white"/>
<path d="M248.5 186.375H240.375V198.562H248.5V186.375Z" fill="white"/>
<path d="M244.438 206.688H236.312V214.812H244.438V206.688Z" fill="white"/>
<path d="M224.125 218.875H211.938V227H224.125V218.875Z" fill="white"/>
<path d="M264.75 186.375H256.625V194.5H264.75V186.375Z" fill="white"/>
<path d="M285.062 170.125H272.875V178.25H285.062V170.125Z" fill="white"/>
<path d="M216 170.125H195.688V178.25H216V170.125Z" fill="white"/>
<path d="M199.75 149.812H191.625V162H199.75V149.812Z" fill="white"/>
</g>
</g>
<circle cx="355" cy="208" r="12" fill="#0F0F0F"/>
<circle cx="12" cy="208" r="12" fill="#0F0F0F"/>
<defs>
<filter id="filter0_f_19237_15053" x="22" y="22" width="323" height="280" filterUnits="userSpaceOnUse" color-interpolation-filters="sRGB">
<feFlood flood-opacity="0" result="BackgroundImageFix"/>
<feBlend mode="normal" in="SourceGraphic" in2="BackgroundImageFix" result="shape"/>
<feGaussianBlur stdDeviation="5" result="effect1_foregroundBlur_19237_15053"/>
</filter>
<clipPath id="clip0_19237_15053">
<rect width="260" height="260" fill="white" transform="translate(53.5 32)"/>
</clipPath>
</defs>
</svg>
