<svg width="30" height="30" viewBox="0 0 30 30" fill="none" xmlns="http://www.w3.org/2000/svg">
<path d="M24.375 3.75H21.5625V2.8125C21.5625 2.56386 21.4637 2.3254 21.2879 2.14959C21.1121 1.97377 20.8736 1.875 20.625 1.875C20.3764 1.875 20.1379 1.97377 19.9621 2.14959C19.7863 2.3254 19.6875 2.56386 19.6875 2.8125V3.75H10.3125V2.8125C10.3125 2.56386 10.2137 2.3254 10.0379 2.14959C9.8621 1.97377 9.62364 1.875 9.375 1.875C9.12636 1.875 8.8879 1.97377 8.71209 2.14959C8.53627 2.3254 8.4375 2.56386 8.4375 2.8125V3.75H5.625C5.12772 3.75 4.65081 3.94754 4.29917 4.29917C3.94754 4.65081 3.75 5.12772 3.75 5.625V24.375C3.75 24.8723 3.94754 25.3492 4.29917 25.7008C4.65081 26.0525 5.12772 26.25 5.625 26.25H24.375C24.8723 26.25 25.3492 26.0525 25.7008 25.7008C26.0525 25.3492 26.25 24.8723 26.25 24.375V5.625C26.25 5.12772 26.0525 4.65081 25.7008 4.29917C25.3492 3.94754 24.8723 3.75 24.375 3.75ZM12.1875 22.0312C11.4414 22.0305 10.7256 21.7358 10.1953 21.2109C10.02 21.0352 9.92153 20.7971 9.92153 20.5488C9.92153 20.3006 10.02 20.0625 10.1953 19.8867C10.2815 19.7985 10.3845 19.7284 10.4982 19.6805C10.6119 19.6327 10.7341 19.608 10.8574 19.608C10.9808 19.608 11.1029 19.6327 11.2166 19.6805C11.3303 19.7284 11.4333 19.7985 11.5195 19.8867C11.6995 20.0587 11.9386 20.1552 12.1875 20.1562C12.4361 20.1562 12.6746 20.0575 12.8504 19.8817C13.0262 19.7058 13.125 19.4674 13.125 19.2188C13.125 18.9701 13.0262 18.7317 12.8504 18.5558C12.6746 18.38 12.4361 18.2812 12.1875 18.2812H11.8945L11.8477 18.2578H11.8125L11.7539 18.2344H11.7422L11.6719 18.1875H11.6484L11.6016 18.1523L11.5547 18.1172L11.5312 18.0938L11.4961 18.0586C11.4347 17.9879 11.3834 17.909 11.3438 17.8242C11.3101 17.7619 11.2863 17.6947 11.2734 17.625C11.2617 17.6133 11.2617 17.6016 11.2617 17.5781C11.2623 17.5718 11.2615 17.5654 11.2595 17.5593C11.2575 17.5533 11.2542 17.5477 11.25 17.543V17.2617C11.25 17.2383 11.2617 17.2266 11.2617 17.2148V17.168C11.271 17.1542 11.2752 17.1376 11.2734 17.1211C11.2852 17.1094 11.2852 17.0977 11.2852 17.0742L11.3086 17.0391C11.3086 17.0156 11.3086 17.0039 11.3203 16.9922L11.3438 16.9453V16.9102L11.3672 16.8633L11.3906 16.8281L11.4258 16.7812L11.4492 16.7578L12.1055 15.9375H10.7812C10.5326 15.9375 10.2942 15.8387 10.1183 15.6629C9.94252 15.4871 9.84375 15.2486 9.84375 15C9.84375 14.7514 9.94252 14.5129 10.1183 14.3371C10.2942 14.1613 10.5326 14.0625 10.7812 14.0625H14.0625C14.2387 14.0635 14.411 14.1141 14.5597 14.2085C14.7085 14.303 14.8276 14.4374 14.9034 14.5964C14.9793 14.7554 15.0088 14.9326 14.9885 15.1076C14.9683 15.2826 14.8992 15.4484 14.7891 15.5859L13.7578 16.8867C14.2572 17.2234 14.6353 17.7114 14.8365 18.279C15.0377 18.8466 15.0514 19.4638 14.8756 20.0398C14.6998 20.6158 14.3437 21.1202 13.8598 21.4787C13.3759 21.8372 12.7897 22.0308 12.1875 22.0312ZM19.6875 21.0938C19.6875 21.3424 19.5887 21.5808 19.4129 21.7567C19.2371 21.9325 18.9986 22.0312 18.75 22.0312C18.5014 22.0312 18.2629 21.9325 18.0871 21.7567C17.9113 21.5808 17.8125 21.3424 17.8125 21.0938V16.875L17.4375 17.1562C17.2375 17.3024 16.9883 17.3647 16.7431 17.3296C16.4979 17.2946 16.276 17.1651 16.125 16.9688C15.9758 16.7698 15.9118 16.5198 15.9469 16.2737C15.9821 16.0275 16.1136 15.8054 16.3125 15.6563L18.1875 14.25C18.3268 14.1455 18.4924 14.0819 18.6658 14.0663C18.8392 14.0507 19.0135 14.0836 19.1693 14.1615C19.325 14.2393 19.456 14.359 19.5475 14.5071C19.639 14.6552 19.6875 14.8259 19.6875 15V21.0938ZM24.375 9.375H5.625V5.625H8.4375V6.5625C8.4375 6.81114 8.53627 7.0496 8.71209 7.22541C8.8879 7.40123 9.12636 7.5 9.375 7.5C9.62364 7.5 9.8621 7.40123 10.0379 7.22541C10.2137 7.0496 10.3125 6.81114 10.3125 6.5625V5.625H19.6875V6.5625C19.6875 6.81114 19.7863 7.0496 19.9621 7.22541C20.1379 7.40123 20.3764 7.5 20.625 7.5C20.8736 7.5 21.1121 7.40123 21.2879 7.22541C21.4637 7.0496 21.5625 6.81114 21.5625 6.5625V5.625H24.375V9.375Z" fill="#00D059"/>
</svg>
