<svg width="20" height="20" viewBox="0 0 20 20" fill="none" xmlns="http://www.w3.org/2000/svg">
<path d="M10.0002 14.6872C9.75162 14.6861 9.51333 14.588 9.3361 14.4137L3.0861 8.16374C2.90998 7.98762 2.81104 7.74874 2.81104 7.49967C2.81104 7.2506 2.90998 7.01173 3.0861 6.83561C3.26222 6.65949 3.50109 6.56055 3.75016 6.56055C3.99923 6.56055 4.2381 6.65949 4.41422 6.83561L10.0002 12.4215L15.5861 6.83561C15.7622 6.65949 16.0011 6.56055 16.2502 6.56055C16.4992 6.56055 16.7381 6.65949 16.9142 6.83561C17.0903 7.01173 17.1893 7.2506 17.1893 7.49967C17.1893 7.74874 17.0903 7.98762 16.9142 8.16374L10.6642 14.4137C10.487 14.588 10.2487 14.6861 10.0002 14.6872Z" fill="#E6E6E6"/>
</svg>
