<svg width="52" height="52" viewBox="0 0 52 52" fill="none" xmlns="http://www.w3.org/2000/svg">
<rect x="0.5" y="0.5" width="51" height="51" rx="25.5" stroke="#00D059"/>
<path d="M33.7027 18.2976C33.5051 18.1023 33.2595 17.9626 32.9906 17.8927C32.7217 17.8227 32.4392 17.825 32.1714 17.8992L17.6167 22.0086C17.3109 22.0947 17.0385 22.272 16.836 22.5168C16.6335 22.7617 16.5104 23.0625 16.4833 23.3791C16.4561 23.6957 16.5261 24.013 16.684 24.2888C16.8418 24.5646 17.08 24.7857 17.3667 24.9226L23.9605 28.0398L27.0777 34.6336C27.202 34.9012 27.4007 35.1275 27.65 35.2854C27.8993 35.4433 28.1888 35.5262 28.4839 35.5242H28.6167C28.9344 35.499 29.2367 35.3769 29.4826 35.1743C29.7285 34.9717 29.9063 34.6984 29.9917 34.3914L34.1011 19.8289C34.1754 19.5612 34.1776 19.2786 34.1077 19.0097C34.0377 18.7409 33.898 18.4952 33.7027 18.2976ZM28.4136 33.0711L25.7886 27.532L28.8589 24.4695C29.0351 24.2934 29.134 24.0545 29.134 23.8055C29.134 23.5564 29.0351 23.3175 28.8589 23.1414C28.6828 22.9653 28.4439 22.8663 28.1949 22.8663C27.9458 22.8663 27.7069 22.9653 27.5308 23.1414L24.4683 26.2117L18.9292 23.5867L32.1402 19.8601L28.4136 33.0711Z" fill="#00D059"/>
</svg>
