<svg width="64" height="64" viewBox="0 0 64 64" fill="none" xmlns="http://www.w3.org/2000/svg">
<g filter="url(#filter0_b_15283_22033)">
<rect width="64" height="64" rx="32" fill="#FFC300" fill-opacity="0.2"/>
<path d="M41.9372 30.8281L37.6997 34.3531L39.0403 39.8C39.1019 40.0283 39.1104 40.2677 39.065 40.4998C39.0197 40.7319 38.9217 40.9505 38.7787 41.1389C38.6356 41.3272 38.4513 41.4802 38.2399 41.5861C38.0284 41.6921 37.7955 41.7481 37.559 41.75C37.2694 41.7487 36.9863 41.6641 36.7434 41.5062L32.009 38.5156H31.9903L27.5934 41.3C27.3094 41.4792 26.9783 41.5696 26.6426 41.5596C26.307 41.5495 25.9819 41.4396 25.709 41.2438C25.428 41.0386 25.2151 40.7537 25.098 40.426C24.981 40.0983 24.9652 39.743 25.0528 39.4062L26.3184 34.4281L22.0622 30.8281C21.8207 30.6263 21.6452 30.3569 21.5583 30.0544C21.4714 29.752 21.4771 29.4304 21.5747 29.1313C21.6697 28.8366 21.8509 28.5772 22.0949 28.3867C22.3389 28.1961 22.6345 28.0832 22.9434 28.0625L28.4747 27.7062L30.5747 22.475C30.6873 22.1885 30.8833 21.9424 31.1374 21.7686C31.3914 21.5947 31.6918 21.5012 31.9997 21.5C32.3075 21.5012 32.6079 21.5947 32.862 21.7686C33.116 21.9424 33.312 22.1885 33.4247 22.475L35.4872 27.6781L41.0559 28.0625C41.3652 28.082 41.6614 28.1944 41.9056 28.3851C42.1499 28.5758 42.3308 28.8359 42.4247 29.1313C42.5222 29.4304 42.5279 29.752 42.441 30.0544C42.3541 30.3569 42.1786 30.6263 41.9372 30.8281Z" fill="#FFC300"/>
</g>
<defs>
<filter id="filter0_b_15283_22033" x="-4" y="-4" width="72" height="72" filterUnits="userSpaceOnUse" color-interpolation-filters="sRGB">
<feFlood flood-opacity="0" result="BackgroundImageFix"/>
<feGaussianBlur in="BackgroundImageFix" stdDeviation="2"/>
<feComposite in2="SourceAlpha" operator="in" result="effect1_backgroundBlur_15283_22033"/>
<feBlend mode="normal" in="SourceGraphic" in2="effect1_backgroundBlur_15283_22033" result="shape"/>
</filter>
</defs>
</svg>
