<svg width="64" height="65" viewBox="0 0 64 65" fill="none" xmlns="http://www.w3.org/2000/svg">
<g filter="url(#filter0_b_17515_25098)">
<rect y="0.5" width="64" height="64" rx="32" fill="#FFC300" fill-opacity="0.2"/>
<path d="M41.122 28.2527C41.1225 28.894 40.996 29.5291 40.7499 30.1212C40.5037 30.7133 40.1426 31.2509 39.6876 31.7027L37.0345 34.3559C36.1204 35.269 34.8812 35.7819 33.5892 35.7819C32.2971 35.7819 31.0579 35.269 30.1438 34.3559C30.0686 34.2876 30.0079 34.2048 29.9656 34.1125C29.9233 34.0201 29.9002 33.9201 29.8977 33.8185C29.8952 33.717 29.9133 33.6159 29.951 33.5216C29.9888 33.4273 30.0453 33.3416 30.1171 33.2697C30.1889 33.1979 30.2746 33.1414 30.369 33.1037C30.4633 33.066 30.5643 33.0478 30.6659 33.0503C30.7675 33.0528 30.8675 33.0759 30.9598 33.1182C31.0522 33.1605 31.135 33.2212 31.2032 33.2965C31.8373 33.9268 32.6951 34.2806 33.5892 34.2806C34.4832 34.2806 35.341 33.9268 35.9751 33.2965L38.6282 30.6434C38.9527 30.3325 39.2118 29.9601 39.3904 29.5478C39.5689 29.1355 39.6634 28.6917 39.6682 28.2424C39.673 27.7932 39.5881 27.3475 39.4184 26.9314C39.2487 26.5154 38.9976 26.1375 38.6799 25.8198C38.3622 25.5021 37.9843 25.251 37.5683 25.0813C37.1522 24.9116 36.7065 24.8267 36.2573 24.8315C35.808 24.8363 35.3642 24.9308 34.9519 25.1093C34.5396 25.2879 34.1672 25.547 33.8563 25.8715L32.0001 27.7277C31.8574 27.857 31.6705 27.9265 31.478 27.9217C31.2856 27.917 31.1023 27.8384 30.9662 27.7023C30.83 27.5661 30.7515 27.3829 30.7467 27.1904C30.742 26.9979 30.8115 26.811 30.9407 26.6684L32.797 24.8121C33.4799 24.1343 34.3479 23.6733 35.2919 23.487C36.236 23.3007 37.214 23.3973 38.1033 23.7649C38.9926 24.1324 39.7535 24.7544 40.2905 25.5528C40.8276 26.3512 41.1168 27.2905 41.122 28.2527ZM32.0001 37.2715L30.1438 39.1277C29.5065 39.7383 28.6554 40.0749 27.7729 40.0655C26.8904 40.056 26.0466 39.7012 25.4226 39.0771C24.7985 38.4531 24.4437 37.6093 24.4342 36.7268C24.4248 35.8443 24.7614 34.9932 25.372 34.3559L28.0251 31.7027C28.6592 31.0724 29.517 30.7186 30.411 30.7186C31.3051 30.7186 32.1629 31.0724 32.797 31.7027C32.9396 31.832 33.1266 31.9015 33.319 31.8967C33.5115 31.892 33.6948 31.8134 33.8309 31.6773C33.967 31.5411 34.0456 31.3579 34.0503 31.1654C34.0551 30.9729 33.9856 30.786 33.8563 30.6434C32.9423 29.7302 31.7031 29.2173 30.411 29.2173C29.119 29.2173 27.8798 29.7302 26.9657 30.6434L24.3126 33.2965C23.8356 33.7433 23.4534 34.2815 23.1886 34.879C22.9238 35.4765 22.7818 36.1212 22.7712 36.7747C22.7605 37.4282 22.8814 38.0772 23.1265 38.683C23.3717 39.2888 23.7362 39.8392 24.1984 40.3013C24.6605 40.7635 25.2109 41.128 25.8167 41.3732C26.4226 41.6183 27.0715 41.7392 27.725 41.7285C28.3785 41.7179 29.0232 41.5759 29.6207 41.3111C30.2182 41.0463 30.7564 40.6641 31.2032 40.1871L33.0595 38.3309C33.1887 38.1882 33.2582 38.0013 33.2535 37.8088C33.2487 37.6163 33.1702 37.4331 33.034 37.2969C32.8979 37.1608 32.7146 37.0822 32.5221 37.0775C32.3297 37.0728 32.1428 37.1422 32.0001 37.2715Z" fill="#FFC300"/>
</g>
<defs>
<filter id="filter0_b_17515_25098" x="-4" y="-3.5" width="72" height="72" filterUnits="userSpaceOnUse" color-interpolation-filters="sRGB">
<feFlood flood-opacity="0" result="BackgroundImageFix"/>
<feGaussianBlur in="BackgroundImageFix" stdDeviation="2"/>
<feComposite in2="SourceAlpha" operator="in" result="effect1_backgroundBlur_17515_25098"/>
<feBlend mode="normal" in="SourceGraphic" in2="effect1_backgroundBlur_17515_25098" result="shape"/>
</filter>
</defs>
</svg>
