<svg width="28" height="28" viewBox="0 0 28 28" fill="none" xmlns="http://www.w3.org/2000/svg">
<path d="M18.3312 9.6688C18.4948 9.83283 18.5867 10.0551 18.5867 10.2868C18.5867 10.5185 18.4948 10.7407 18.3312 10.9047L10.9046 18.3313C10.7392 18.4923 10.5175 18.5824 10.2866 18.5824C10.0558 18.5824 9.83408 18.4923 9.66867 18.3313C9.50504 18.1673 9.41314 17.945 9.41314 17.7133C9.41314 17.4816 9.50504 17.2594 9.66867 17.0954L17.0952 9.6688C17.2593 9.50517 17.4815 9.41327 17.7132 9.41327C17.9449 9.41327 18.1671 9.50517 18.3312 9.6688ZM15.2359 18.9547L12.1405 22.0391C11.7366 22.4482 11.2555 22.773 10.7251 22.9947C10.1947 23.2163 9.62557 23.3305 9.0507 23.3305C8.47583 23.3305 7.90669 23.2163 7.37628 22.9947C6.84587 22.773 6.36476 22.4482 5.96086 22.0391C5.14268 21.219 4.6832 20.1078 4.6832 18.9493C4.6832 17.7908 5.14268 16.6796 5.96086 15.8594L9.04523 12.7641C9.19605 12.5977 9.27708 12.3796 9.27155 12.1551C9.26602 11.9305 9.17436 11.7167 9.01553 11.5579C8.85671 11.3991 8.6429 11.3074 8.41835 11.3019C8.19381 11.2963 7.97574 11.3774 7.8093 11.5282L4.71398 14.6235C3.56527 15.7722 2.91992 17.3302 2.91992 18.9547C2.91992 20.5793 3.56527 22.1373 4.71398 23.286C5.8627 24.4347 7.4207 25.0801 9.04523 25.0801C10.6698 25.0801 12.2278 24.4347 13.3765 23.286L16.4718 20.1907C16.6354 20.0266 16.7273 19.8044 16.7273 19.5727C16.7273 19.341 16.6354 19.1188 16.4718 18.9547C16.3913 18.8724 16.2952 18.807 16.1891 18.7623C16.083 18.7176 15.969 18.6946 15.8538 18.6946C15.7387 18.6946 15.6247 18.7176 15.5186 18.7623C15.4125 18.807 15.3163 18.8724 15.2359 18.9547ZM23.2859 4.71411C22.7171 4.14529 22.0418 3.69407 21.2987 3.38622C20.5555 3.07837 19.759 2.91992 18.9546 2.91992C18.1502 2.91992 17.3537 3.07837 16.6105 3.38622C15.8674 3.69407 15.1921 4.14529 14.6234 4.71411L11.528 7.80943C11.3772 7.97587 11.2962 8.19394 11.3017 8.41848C11.3073 8.64302 11.3989 8.85684 11.5577 9.01566C11.7166 9.17449 11.9304 9.26615 12.1549 9.27168C12.3795 9.27721 12.5975 9.19618 12.764 9.04536L15.8593 5.96099C16.2632 5.55192 16.7443 5.22712 17.2747 5.00544C17.8051 4.78376 18.3743 4.66961 18.9491 4.66961C19.524 4.66961 20.0932 4.78376 20.6236 5.00544C21.154 5.22712 21.6351 5.55192 22.039 5.96099C22.8572 6.78115 23.3166 7.89235 23.3166 9.05083C23.3166 10.2093 22.8572 11.3205 22.039 12.1407L18.9546 15.236C18.8723 15.3165 18.8068 15.4126 18.7622 15.5187C18.7175 15.6248 18.6945 15.7388 18.6945 15.854C18.6945 15.9691 18.7175 16.0831 18.7622 16.1892C18.8068 16.2953 18.8723 16.3914 18.9546 16.4719C19.0335 16.555 19.1285 16.6212 19.2338 16.6663C19.3391 16.7115 19.4525 16.7346 19.5671 16.7344C19.6832 16.7342 19.7982 16.7109 19.9052 16.6659C20.0123 16.6208 20.1093 16.5549 20.1905 16.4719L23.2859 13.3766C24.432 12.2265 25.0755 10.669 25.0755 9.04536C25.0755 7.42169 24.432 5.86421 23.2859 4.71411Z" fill="#F5FFF9"/>
</svg>
