<svg width="17" height="17" viewBox="0 0 17 17" fill="none" xmlns="http://www.w3.org/2000/svg">
<path d="M6.84963 12.1942C6.51213 13.2192 5.69963 13.9692 4.50588 14.3692C3.96891 14.5464 3.40869 14.6433 2.84338 14.6567C2.71078 14.6567 2.5836 14.604 2.48983 14.5103C2.39606 14.4165 2.34338 14.2893 2.34338 14.1567C2.35677 13.5914 2.45365 13.0312 2.63088 12.4942C3.03088 11.3004 3.78088 10.4879 4.80588 10.1504C4.8694 10.1226 4.93802 10.1082 5.00739 10.1083C5.07675 10.1083 5.14535 10.1228 5.20881 10.1508C5.27227 10.1788 5.32921 10.2197 5.37601 10.271C5.4228 10.3222 5.45843 10.3825 5.48063 10.4483C5.50283 10.514 5.51111 10.5836 5.50494 10.6527C5.49878 10.7218 5.4783 10.7888 5.44482 10.8496C5.41134 10.9103 5.36558 10.9635 5.31046 11.0056C5.25533 11.0477 5.19205 11.0779 5.12463 11.0942C3.89338 11.5067 3.51213 12.8379 3.39338 13.6067C4.16213 13.4879 5.49338 13.1067 5.90588 11.8755C5.95614 11.761 6.04744 11.6695 6.1618 11.6191C6.27615 11.5686 6.40526 11.5628 6.52368 11.6028C6.64211 11.6428 6.74125 11.7257 6.80159 11.8351C6.86192 11.9446 6.87906 12.0727 6.84963 12.1942V12.1942ZM13.0934 7.43795L12.5371 8.00045V11.8317C12.5353 12.0965 12.4299 12.35 12.2434 12.538L10.2184 14.5567C10.1265 14.6507 10.0166 14.7252 9.89527 14.7757C9.7739 14.8262 9.64358 14.8516 9.51213 14.8505C9.41459 14.8512 9.31754 14.8365 9.22463 14.8067C9.05066 14.7546 8.89416 14.6561 8.77193 14.5217C8.64971 14.3874 8.56638 14.2223 8.53088 14.0442L8.03713 11.5754L5.42463 8.96295L2.95588 8.4692C2.77777 8.4337 2.61269 8.35037 2.47835 8.22815C2.34401 8.10593 2.2455 7.94943 2.19338 7.77545C2.14086 7.60272 2.13637 7.41895 2.18042 7.24387C2.22446 7.06878 2.31537 6.90901 2.44338 6.7817L4.46213 4.7567C4.65009 4.57021 4.90361 4.46476 5.16838 4.46295H8.99963L9.56213 3.9067C11.3496 2.1192 13.1809 2.1692 13.8871 2.27545C14.0989 2.30475 14.2953 2.40242 14.4465 2.55359C14.5977 2.70477 14.6953 2.90118 14.7246 3.11295C14.8309 3.8192 14.8809 5.65045 13.0934 7.43795V7.43795ZM3.14963 7.48795L5.50588 7.9567L7.99963 5.46295H5.16838L3.14963 7.48795ZM11.5371 9.00045L9.04338 11.4942L9.51213 13.8505L11.5371 11.8317V9.00045Z" fill="#030303"/>
</svg>
