<svg width="20" height="20" viewBox="0 0 20 20" fill="none" xmlns="http://www.w3.org/2000/svg">
<g filter="url(#filter0_i_14814_31144)">
<path d="M17.6484 8.03125C17.3516 7.72656 17.0469 7.40625 16.9297 7.13281C16.8125 6.85938 16.8203 6.45313 16.8125 6.03906C16.8047 5.28125 16.7891 4.41406 16.1875 3.8125C15.5859 3.21094 14.7188 3.19531 13.9609 3.1875C13.5469 3.17969 13.125 3.17187 12.8672 3.07031C12.6094 2.96875 12.2734 2.64844 11.9688 2.35156C11.4297 1.83594 10.8125 1.25 10 1.25C9.1875 1.25 8.57031 1.83594 8.03125 2.35156C7.72656 2.64844 7.40625 2.95312 7.13281 3.07031C6.85938 3.1875 6.45313 3.17969 6.03906 3.1875C5.28125 3.19531 4.41406 3.21094 3.8125 3.8125C3.21094 4.41406 3.19531 5.28125 3.1875 6.03906C3.17969 6.45313 3.17187 6.875 3.07031 7.13281C2.96875 7.39062 2.64844 7.72656 2.35156 8.03125C1.83594 8.57031 1.25 9.1875 1.25 10C1.25 10.8125 1.83594 11.4297 2.35156 11.9688C2.64844 12.2734 2.95312 12.5938 3.07031 12.8672C3.1875 13.1406 3.17969 13.5469 3.1875 13.9609C3.19531 14.7188 3.21094 15.5859 3.8125 16.1875C4.41406 16.7891 5.28125 16.8047 6.03906 16.8125C6.45313 16.8203 6.875 16.8281 7.13281 16.9297C7.39062 17.0312 7.72656 17.3516 8.03125 17.6484C8.57031 18.1641 9.1875 18.75 10 18.75C10.8125 18.75 11.4297 18.1641 11.9688 17.6484C12.2734 17.3516 12.5938 17.0469 12.8672 16.9297C13.1406 16.8125 13.5469 16.8203 13.9609 16.8125C14.7188 16.8047 15.5859 16.7891 16.1875 16.1875C16.7891 15.5859 16.8047 14.7188 16.8125 13.9609C16.8203 13.5469 16.8281 13.125 16.9297 12.8672C17.0312 12.6094 17.3516 12.2734 17.6484 11.9688C18.1641 11.4297 18.75 10.8125 18.75 10C18.75 9.1875 18.1641 8.57031 17.6484 8.03125ZM13.8672 8.57812L9.28906 12.9531C9.17071 13.0645 9.01405 13.126 8.85156 13.125C8.69146 13.1256 8.53739 13.064 8.42188 12.9531L6.13281 10.7656C6.06932 10.7102 6.01769 10.6426 5.98101 10.5667C5.94434 10.4909 5.92338 10.4084 5.9194 10.3242C5.91541 10.24 5.92849 10.1559 5.95784 10.077C5.98719 9.99798 6.03221 9.92575 6.09018 9.86461C6.14816 9.80347 6.2179 9.75469 6.29521 9.72119C6.37253 9.68769 6.45581 9.67017 6.54007 9.66968C6.62432 9.66919 6.70781 9.68574 6.78551 9.71834C6.8632 9.75094 6.9335 9.79891 6.99219 9.85938L8.85156 11.6328L13.0078 7.67188C13.1293 7.56585 13.2871 7.51091 13.4482 7.51853C13.6093 7.52615 13.7612 7.59575 13.8722 7.71277C13.9832 7.8298 14.0446 7.98519 14.0437 8.14646C14.0428 8.30773 13.9795 8.4624 13.8672 8.57812Z" fill="url(#paint0_linear_14814_31144)"/>
</g>
<defs>
<filter id="filter0_i_14814_31144" x="1.25" y="1.25" width="17.5" height="20.5" filterUnits="userSpaceOnUse" color-interpolation-filters="sRGB">
<feFlood flood-opacity="0" result="BackgroundImageFix"/>
<feBlend mode="normal" in="SourceGraphic" in2="BackgroundImageFix" result="shape"/>
<feColorMatrix in="SourceAlpha" type="matrix" values="0 0 0 0 0 0 0 0 0 0 0 0 0 0 0 0 0 0 127 0" result="hardAlpha"/>
<feOffset dy="4"/>
<feGaussianBlur stdDeviation="1.5"/>
<feComposite in2="hardAlpha" operator="arithmetic" k2="-1" k3="1"/>
<feColorMatrix type="matrix" values="0 0 0 0 0.236831 0 0 0 0 0.174654 0 0 0 0 0.0539578 0 0 0 0.16 0"/>
<feBlend mode="normal" in2="shape" result="effect1_innerShadow_14814_31144"/>
</filter>
<linearGradient id="paint0_linear_14814_31144" x1="1.25" y1="1.25" x2="18.75" y2="18.75" gradientUnits="userSpaceOnUse">
<stop stop-color="#FFC100"/>
<stop offset="1" stop-color="#FF8A08"/>
</linearGradient>
</defs>
</svg>
