<svg width="30" height="30" viewBox="0 0 30 30" fill="none" xmlns="http://www.w3.org/2000/svg">
<g filter="url(#filter0_i_14762_12013)">
<rect width="30" height="30" rx="6" fill="url(#paint0_linear_14762_12013)"/>
<rect x="0.5" y="0.5" width="29" height="29" rx="5.5" stroke="url(#paint1_linear_14762_12013)"/>
<path d="M15.0059 8.875C13.7299 8.87645 12.5067 9.38394 11.6045 10.2861C10.7023 11.1884 10.1948 12.4116 10.1934 13.6875C10.1934 17.8055 14.5684 20.9172 14.7543 21.0484C14.8288 21.0981 14.9163 21.1245 15.0059 21.1245C15.0954 21.1245 15.1829 21.0981 15.2574 21.0484C15.4434 20.9172 19.8184 17.8055 19.8184 13.6875C19.8169 12.4116 19.3094 11.1884 18.4072 10.2861C17.505 9.38394 16.2818 8.87645 15.0059 8.875ZM15.0059 11.9375C15.352 11.9375 15.6903 12.0401 15.9781 12.2324C16.2659 12.4247 16.4902 12.698 16.6226 13.0178C16.7551 13.3376 16.7898 13.6894 16.7222 14.0289C16.6547 14.3684 16.488 14.6802 16.2433 14.9249C15.9986 15.1697 15.6867 15.3364 15.3473 15.4039C15.0078 15.4714 14.6559 15.4367 14.3362 15.3043C14.0164 15.1718 13.7431 14.9475 13.5508 14.6597C13.3585 14.372 13.2559 14.0336 13.2559 13.6875C13.2559 13.2234 13.4402 12.7783 13.7684 12.4501C14.0966 12.1219 14.5417 11.9375 15.0059 11.9375Z" fill="#F5FFF9"/>
</g>
<defs>
<filter id="filter0_i_14762_12013" x="0" y="0" width="30" height="33" filterUnits="userSpaceOnUse" color-interpolation-filters="sRGB">
<feFlood flood-opacity="0" result="BackgroundImageFix"/>
<feBlend mode="normal" in="SourceGraphic" in2="BackgroundImageFix" result="shape"/>
<feColorMatrix in="SourceAlpha" type="matrix" values="0 0 0 0 0 0 0 0 0 0 0 0 0 0 0 0 0 0 127 0" result="hardAlpha"/>
<feOffset dy="3"/>
<feGaussianBlur stdDeviation="2.5"/>
<feComposite in2="hardAlpha" operator="arithmetic" k2="-1" k3="1"/>
<feColorMatrix type="matrix" values="0 0 0 0 0.137255 0 0 0 0 0.137255 0 0 0 0 0.137255 0 0 0 1 0"/>
<feBlend mode="normal" in2="shape" result="effect1_innerShadow_14762_12013"/>
</filter>
<linearGradient id="paint0_linear_14762_12013" x1="15" y1="30" x2="15" y2="0" gradientUnits="userSpaceOnUse">
<stop offset="0.72" stop-color="#0F0F0F"/>
<stop offset="1" stop-color="#1A1A1A"/>
</linearGradient>
<linearGradient id="paint1_linear_14762_12013" x1="15" y1="30" x2="15" y2="0" gradientUnits="userSpaceOnUse">
<stop stop-color="white" stop-opacity="0.06"/>
<stop offset="1" stop-color="white" stop-opacity="0.06"/>
</linearGradient>
</defs>
</svg>
