<svg width="20" height="20" viewBox="0 0 20 20" fill="none" xmlns="http://www.w3.org/2000/svg">
<path d="M11.2575 12.3126C12.2347 11.7005 12.9861 10.787 13.3985 9.71015C13.8108 8.63331 13.8615 7.45155 13.5431 6.34332C13.2246 5.23509 12.5542 4.26057 11.6331 3.56689C10.712 2.87321 9.59027 2.49805 8.43719 2.49805C7.28411 2.49805 6.16234 2.87321 5.24125 3.56689C4.32017 4.26057 3.64978 5.23509 3.33132 6.34332C3.01286 7.45155 3.06362 8.63331 3.47592 9.71015C3.88823 10.787 4.63971 11.7005 5.61688 12.3126C3.91309 12.8431 2.39912 13.8551 1.2575 15.2267C1.17247 15.3548 1.1377 15.5099 1.15982 15.6621C1.18195 15.8143 1.25943 15.953 1.37743 16.0517C1.49544 16.1503 1.64568 16.202 1.7994 16.1968C1.95313 16.1916 2.09954 16.1299 2.21063 16.0235C2.97477 15.1162 3.92797 14.3869 5.00352 13.8865C6.07906 13.3862 7.25096 13.1269 8.43719 13.1269C9.62342 13.1269 10.7953 13.3862 11.8709 13.8865C12.9464 14.3869 13.8996 15.1162 14.6638 16.0235C14.7151 16.0875 14.7789 16.1404 14.8512 16.1791C14.9235 16.2178 15.0029 16.2416 15.0846 16.2489C15.1663 16.2561 15.2487 16.2469 15.3267 16.2216C15.4047 16.1963 15.4769 16.1555 15.5388 16.1017C15.6018 16.0497 15.6539 15.9856 15.692 15.9133C15.7301 15.841 15.7534 15.7619 15.7607 15.6805C15.768 15.5991 15.759 15.5171 15.7343 15.4392C15.7096 15.3612 15.6697 15.289 15.6169 15.2267C14.4753 13.8551 12.9613 12.8431 11.2575 12.3126ZM4.37469 7.8126C4.37469 7.00911 4.61295 6.22367 5.05935 5.5556C5.50574 4.88752 6.14021 4.36682 6.88254 4.05934C7.62486 3.75186 8.4417 3.67141 9.22975 3.82816C10.0178 3.98491 10.7417 4.37183 11.3098 4.93998C11.878 5.50813 12.2649 6.232 12.4216 7.02005C12.5784 7.80809 12.4979 8.62493 12.1905 9.36725C11.883 10.1096 11.3623 10.7441 10.6942 11.1904C10.0261 11.6368 9.24068 11.8751 8.43719 11.8751C7.35975 11.8751 6.32644 11.4471 5.56457 10.6852C4.8027 9.92336 4.37469 8.89004 4.37469 7.8126ZM19.3903 11.1798L19.0309 10.9689C19.0726 10.7416 19.0726 10.5086 19.0309 10.2814L19.3903 10.0704C19.4623 10.0306 19.5257 9.9768 19.5766 9.91216C19.6275 9.84752 19.665 9.77334 19.6869 9.694C19.7087 9.61465 19.7145 9.53174 19.7038 9.45014C19.6931 9.36854 19.6662 9.28991 19.6247 9.21885C19.54 9.07573 19.4023 8.97172 19.2415 8.92932C19.0806 8.88692 18.9096 8.90954 18.7653 8.99229L18.4059 9.20323C18.2309 9.0531 18.0296 8.93657 17.8122 8.85948V8.4376C17.8122 8.27184 17.7463 8.11287 17.6291 7.99566C17.5119 7.87845 17.353 7.8126 17.1872 7.8126C17.0214 7.8126 16.8625 7.87845 16.7452 7.99566C16.628 8.11287 16.5622 8.27184 16.5622 8.4376V8.85948C16.3448 8.93657 16.1435 9.0531 15.9684 9.20323L15.6091 8.99229C15.4648 8.90954 15.2937 8.88692 15.1329 8.92932C14.9721 8.97172 14.8344 9.07573 14.7497 9.21885C14.7082 9.28991 14.6813 9.36854 14.6706 9.45014C14.6599 9.53174 14.6657 9.61465 14.6875 9.694C14.7094 9.77334 14.7468 9.84752 14.7978 9.91216C14.8487 9.9768 14.912 10.0306 14.9841 10.0704L15.3434 10.2814C15.3018 10.5086 15.3018 10.7416 15.3434 10.9689L14.9841 11.1798C14.866 11.2491 14.7739 11.3552 14.722 11.4818C14.6701 11.6085 14.6612 11.7487 14.6967 11.8809C14.7322 12.0131 14.8101 12.13 14.9185 12.2136C15.0269 12.2973 15.1597 12.343 15.2966 12.3439C15.4067 12.3447 15.5149 12.315 15.6091 12.2579L15.9684 12.047C16.1435 12.1971 16.3448 12.3136 16.5622 12.3907V12.8126C16.5622 12.9784 16.628 13.1373 16.7452 13.2545C16.8625 13.3718 17.0214 13.4376 17.1872 13.4376C17.353 13.4376 17.5119 13.3718 17.6291 13.2545C17.7463 13.1373 17.8122 12.9784 17.8122 12.8126V12.3907C18.0296 12.3136 18.2309 12.1971 18.4059 12.047L18.7653 12.2579C18.8595 12.315 18.9677 12.3447 19.0778 12.3439C19.2147 12.343 19.3475 12.2973 19.4559 12.2136C19.5643 12.13 19.6422 12.0131 19.6777 11.8809C19.7132 11.7487 19.7043 11.6085 19.6524 11.4818C19.6004 11.3552 19.5084 11.2491 19.3903 11.1798ZM16.5622 10.6251C16.5622 10.5015 16.5988 10.3806 16.6675 10.2779C16.7362 10.1751 16.8338 10.095 16.948 10.0477C17.0622 10.0004 17.1879 9.98799 17.3091 10.0121C17.4304 10.0362 17.5417 10.0958 17.6291 10.1832C17.7165 10.2706 17.7761 10.3819 17.8002 10.5032C17.8243 10.6244 17.8119 10.7501 17.7646 10.8643C17.7173 10.9785 17.6372 11.0761 17.5344 11.1448C17.4316 11.2134 17.3108 11.2501 17.1872 11.2501C17.0214 11.2501 16.8625 11.1843 16.7452 11.067C16.628 10.9498 16.5622 10.7909 16.5622 10.6251Z" fill="white"/>
</svg>
