<svg width="45" height="32" viewBox="0 0 45 32" fill="none" xmlns="http://www.w3.org/2000/svg">
<path d="M8.4375 0.375C6.3655 0.375 4.37836 1.1981 2.91323 2.66323C1.4481 4.12836 0.625 6.1155 0.625 8.1875V9.75H44.375V8.1875C44.375 6.1155 43.5519 4.12836 42.0868 2.66323C40.6216 1.1981 38.6345 0.375 36.5625 0.375H8.4375ZM44.375 12.875H0.625V23.8125C0.625 25.8845 1.4481 27.8716 2.91323 29.3368C4.37836 30.8019 6.3655 31.625 8.4375 31.625H36.5625C38.6345 31.625 40.6216 30.8019 42.0868 29.3368C43.5519 27.8716 44.375 25.8845 44.375 23.8125V12.875ZM30.3125 22.25H36.5625C36.9769 22.25 37.3743 22.4146 37.6674 22.7076C37.9604 23.0007 38.125 23.3981 38.125 23.8125C38.125 24.2269 37.9604 24.6243 37.6674 24.9174C37.3743 25.2104 36.9769 25.375 36.5625 25.375H30.3125C29.8981 25.375 29.5007 25.2104 29.2076 24.9174C28.9146 24.6243 28.75 24.2269 28.75 23.8125C28.75 23.3981 28.9146 23.0007 29.2076 22.7076C29.5007 22.4146 29.8981 22.25 30.3125 22.25Z" fill="#C7330A"/>
</svg>
