<svg width="20" height="20" viewBox="0 0 20 20" fill="none" xmlns="http://www.w3.org/2000/svg">
<path d="M17.75 8.16406C18.0319 8.10502 18.2851 7.95101 18.4671 7.72776C18.6491 7.5045 18.749 7.22554 18.75 6.9375V5C18.75 4.66848 18.6183 4.35054 18.3839 4.11612C18.1495 3.8817 17.8315 3.75 17.5 3.75H2.5C2.16848 3.75 1.85054 3.8817 1.61612 4.11612C1.3817 4.35054 1.25 4.66848 1.25 5V6.9375C1.25104 7.22554 1.35092 7.5045 1.53293 7.72776C1.71494 7.95101 1.96807 8.10502 2.25 8.16406C2.67219 8.25162 3.05131 8.482 3.32348 8.81641C3.59566 9.15083 3.74427 9.56883 3.74427 10C3.74427 10.4312 3.59566 10.8492 3.32348 11.1836C3.05131 11.518 2.67219 11.7484 2.25 11.8359C1.96807 11.895 1.71494 12.049 1.53293 12.2722C1.35092 12.4955 1.25104 12.7745 1.25 13.0625V15C1.25 15.3315 1.3817 15.6495 1.61612 15.8839C1.85054 16.1183 2.16848 16.25 2.5 16.25H17.5C17.8315 16.25 18.1495 16.1183 18.3839 15.8839C18.6183 15.6495 18.75 15.3315 18.75 15V13.0625C18.749 12.7745 18.6491 12.4955 18.4671 12.2722C18.2851 12.049 18.0319 11.895 17.75 11.8359C17.3278 11.7484 16.9487 11.518 16.6765 11.1836C16.4043 10.8492 16.2557 10.4312 16.2557 10C16.2557 9.56883 16.4043 9.15083 16.6765 8.81641C16.9487 8.482 17.3278 8.25162 17.75 8.16406ZM2.5 13.0625C3.20643 12.9191 3.84155 12.5358 4.29774 11.9777C4.75393 11.4195 5.00313 10.7208 5.00313 10C5.00313 9.27915 4.75393 8.58047 4.29774 8.02234C3.84155 7.46421 3.20643 7.08095 2.5 6.9375V5H6.875V15H2.5V13.0625Z" fill="white"/>
</svg>
