<svg width="20" height="20" viewBox="0 0 20 20" fill="none" xmlns="http://www.w3.org/2000/svg">
<path d="M16.2894 14.9606C16.3768 15.0477 16.4462 15.1512 16.4935 15.2652C16.5408 15.3791 16.5652 15.5013 16.5652 15.6247C16.5652 15.7481 16.5408 15.8702 16.4935 15.9842C16.4462 16.0981 16.3768 16.2016 16.2894 16.2887C16.1125 16.4634 15.8739 16.5613 15.6253 16.5613C15.3768 16.5613 15.1382 16.4634 14.9613 16.2887L10.0003 11.3278L5.03941 16.2887C4.8625 16.4634 4.62393 16.5613 4.37535 16.5613C4.12677 16.5613 3.8882 16.4634 3.71129 16.2887C3.62389 16.2016 3.55454 16.0981 3.50722 15.9842C3.4599 15.8702 3.43555 15.7481 3.43555 15.6247C3.43555 15.5013 3.4599 15.3791 3.50722 15.2652C3.55454 15.1512 3.62389 15.0477 3.71129 14.9606L8.67222 9.99967L3.71129 5.03874C3.53517 4.86262 3.43622 4.62375 3.43622 4.37467C3.43622 4.25135 3.46051 4.12923 3.50771 4.01529C3.5549 3.90135 3.62408 3.79782 3.71129 3.71061C3.79849 3.6234 3.90202 3.55423 4.01596 3.50703C4.1299 3.45984 4.25202 3.43555 4.37535 3.43555C4.62442 3.43555 4.86329 3.53449 5.03941 3.71061L10.0003 8.67155L14.9613 3.71061C15.1374 3.53449 15.3763 3.43555 15.6253 3.43555C15.8744 3.43555 16.1133 3.53449 16.2894 3.71061C16.4655 3.88673 16.5645 4.1256 16.5645 4.37467C16.5645 4.62375 16.4655 4.86262 16.2894 5.03874L11.3285 9.99967L16.2894 14.9606Z" fill="#E6E6E6"/>
</svg>
