<svg width="280" height="81" viewBox="0 0 280 81" fill="none" xmlns="http://www.w3.org/2000/svg">
<path d="M278.444 71.6586C278.444 75.9752 274.88 79.4717 270.471 79.4717H9.53934C5.13256 79.4717 1.55556 75.9752 1.55556 71.6586V9.35163C1.55556 5.03708 5.13256 1.52832 9.53934 1.52832H270.469C274.88 1.52832 278.442 5.03708 278.442 9.35163L278.444 71.6586Z" fill="black"/>
<path d="M269.63 1.62254C274.431 1.62254 278.338 5.43713 278.338 10.125V70.875C278.338 75.5629 274.431 79.3775 269.63 79.3775H10.3704C5.56889 79.3775 1.66185 75.5629 1.66185 70.875V10.125C1.66185 5.43713 5.56889 1.62254 10.3704 1.62254H269.63ZM269.63 7.62939e-06H10.3704C4.66926 7.62939e-06 0 4.55879 0 10.125V70.875C0 76.4412 4.66926 81 10.3704 81H269.63C275.331 81 280 76.4412 280 70.875V10.125C280 4.55879 275.331 7.62939e-06 269.63 7.62939e-06Z" fill="#A6A6A6"/>
<path d="M62.4877 40.063C62.4276 33.5364 67.9612 30.3612 68.2142 30.2134C65.0803 25.7523 60.2228 25.1428 58.5159 25.0942C54.4362 24.675 50.4788 27.4776 48.4006 27.4776C46.2809 27.4776 43.0806 25.1347 39.6314 25.2036C35.1929 25.2704 31.0406 27.7794 28.7633 31.6755C24.0634 39.6195 27.5686 51.2937 32.0714 57.7149C34.3239 60.8598 36.9559 64.3711 40.4009 64.2476C43.7713 64.1119 45.0302 62.1497 49.0975 62.1497C53.1274 62.1497 54.3096 64.2476 57.8231 64.1686C61.4403 64.1119 63.7176 61.0096 65.8913 57.8364C68.4942 54.2319 69.5396 50.6821 69.581 50.4999C69.496 50.4715 62.5562 47.8856 62.4877 40.063Z" fill="white"/>
<path d="M55.8507 20.8701C57.6634 18.6567 58.9037 15.6456 58.5594 12.5898C55.9357 12.7032 52.6545 14.3617 50.765 16.5264C49.0933 18.434 47.6 21.5606 47.9858 24.5009C50.933 24.7155 53.9591 23.049 55.8507 20.8701Z" fill="white"/>
<path d="M101.733 20.2684C101.733 22.6518 101.001 24.4459 99.539 25.6508C98.1846 26.7625 96.2599 27.3194 93.7668 27.3194C92.5307 27.3194 91.4729 27.2668 90.5873 27.1615V14.1387C91.7425 13.9564 92.987 13.8633 94.331 13.8633C96.7058 13.8633 98.4957 14.3675 99.7028 15.376C101.055 16.516 101.733 18.1462 101.733 20.2684ZM99.4415 20.3271C99.4415 18.782 99.0226 17.5974 98.1846 16.7712C97.3467 15.947 96.123 15.5339 94.5114 15.5339C93.827 15.5339 93.2442 15.5785 92.7609 15.6716V25.5718C93.0285 25.6123 93.518 25.6306 94.2294 25.6306C95.8928 25.6306 97.1766 25.179 98.0809 24.2758C98.9852 23.3727 99.4415 22.0564 99.4415 20.3271Z" fill="white"/>
<path d="M113.885 22.3503C113.885 23.8184 113.456 25.0212 112.597 25.9649C111.697 26.9349 110.505 27.4188 109.015 27.4188C107.58 27.4188 106.437 26.9551 105.585 26.0236C104.735 25.0941 104.309 23.9217 104.309 22.5082C104.309 21.03 104.747 19.817 105.626 18.8754C106.506 17.9337 107.688 17.4619 109.177 17.4619C110.612 17.4619 111.766 17.9256 112.639 18.8551C113.468 19.7583 113.885 20.9247 113.885 22.3503ZM111.631 22.4191C111.631 21.5382 111.436 20.7829 111.048 20.1531C110.592 19.3917 109.943 19.011 109.098 19.011C108.225 19.011 107.562 19.3917 107.105 20.1531C106.715 20.7829 106.522 21.5504 106.522 22.4576C106.522 23.3385 106.717 24.0938 107.105 24.7236C107.576 25.485 108.231 25.8657 109.078 25.8657C109.907 25.8657 110.559 25.4789 111.027 24.7033C111.43 24.0614 111.631 23.3 111.631 22.4191Z" fill="white"/>
<path d="M130.179 17.6562L127.12 27.2021H125.129L123.862 23.0569C123.54 22.0221 123.279 20.9934 123.076 19.9728H123.036C122.847 21.0218 122.586 22.0485 122.25 23.0569L120.904 27.2021H118.89L116.013 17.6562H118.247L119.353 22.1943C119.62 23.2675 119.84 24.2901 120.016 25.2581H120.056C120.218 24.4602 120.485 23.4437 120.863 22.2145L122.25 17.6583H124.021L125.351 22.1173C125.672 23.2047 125.934 24.2517 126.135 25.2601H126.195C126.342 24.278 126.564 23.2311 126.859 22.1173L128.045 17.6583H130.179V17.6562Z" fill="white"/>
<path d="M141.448 27.2024H139.274V21.7349C139.274 20.0501 138.619 19.2077 137.304 19.2077C136.659 19.2077 136.138 19.4385 135.734 19.9023C135.333 20.366 135.13 20.9127 135.13 21.5385V27.2004H132.956V20.3842C132.956 19.5459 132.93 18.6366 132.878 17.6525H134.788L134.89 19.1449H134.95C135.203 18.6812 135.58 18.2985 136.076 17.9927C136.665 17.6363 137.324 17.4561 138.046 17.4561C138.959 17.4561 139.718 17.7436 140.321 18.3207C141.072 19.0275 141.448 20.0825 141.448 21.4838V27.2024V27.2024Z" fill="white"/>
<path d="M147.442 27.2023H145.27V13.2764H147.442V27.2023Z" fill="white"/>
<path d="M160.239 22.3503C160.239 23.8184 159.81 25.0212 158.951 25.9649C158.051 26.9349 156.856 27.4188 155.369 27.4188C153.932 27.4188 152.789 26.9551 151.938 26.0236C151.088 25.0941 150.663 23.9217 150.663 22.5082C150.663 21.03 151.1 19.817 151.98 18.8754C152.859 17.9337 154.042 17.4619 155.529 17.4619C156.966 17.4619 158.117 17.9256 158.992 18.8551C159.822 19.7583 160.239 20.9247 160.239 22.3503ZM157.982 22.4191C157.982 21.5382 157.787 20.7829 157.399 20.1531C156.945 19.3917 156.294 19.011 155.452 19.011C154.577 19.011 153.913 19.3917 153.459 20.1531C153.069 20.7829 152.876 21.5504 152.876 22.4576C152.876 23.3385 153.071 24.0938 153.459 24.7236C153.93 25.485 154.585 25.8657 155.431 25.8657C156.261 25.8657 156.91 25.4789 157.379 24.7033C157.783 24.0614 157.982 23.3 157.982 22.4191Z" fill="white"/>
<path d="M170.759 27.2022H168.807L168.645 26.1026H168.585C167.917 26.9794 166.965 27.4188 165.729 27.4188C164.806 27.4188 164.059 27.1293 163.497 26.5542C162.987 26.0317 162.732 25.3817 162.732 24.6102C162.732 23.4438 163.23 22.5548 164.231 21.9392C165.231 21.3236 166.637 21.0219 168.448 21.036V20.8578C168.448 19.6003 167.772 18.9726 166.418 18.9726C165.453 18.9726 164.603 19.2095 163.868 19.6793L163.427 18.2861C164.335 17.7373 165.457 17.4619 166.78 17.4619C169.336 17.4619 170.618 18.7782 170.618 21.4107V24.9261C170.618 25.8798 170.665 26.6392 170.759 27.2022ZM168.502 23.9217V22.4495C166.104 22.409 164.906 23.0509 164.906 24.3732C164.906 24.8714 165.042 25.244 165.322 25.4931C165.602 25.7421 165.959 25.8657 166.384 25.8657C166.861 25.8657 167.307 25.7178 167.714 25.4242C168.122 25.1286 168.373 24.7539 168.467 24.2943C168.49 24.191 168.502 24.0654 168.502 23.9217Z" fill="white"/>
<path d="M183.11 27.2023H181.181L181.079 25.6694H181.019C180.403 26.8358 179.354 27.419 177.879 27.419C176.701 27.419 175.72 26.9674 174.942 26.0642C174.164 25.1611 173.776 23.9886 173.776 22.5488C173.776 21.0038 174.197 19.7523 175.044 18.7965C175.863 17.9055 176.867 17.46 178.061 17.46C179.374 17.46 180.293 17.8913 180.816 18.756H180.857V13.2764H183.033V24.6305C183.033 25.56 183.058 26.4166 183.11 27.2023ZM180.857 23.1766V21.5849C180.857 21.3095 180.836 21.0868 180.797 20.9167C180.675 20.4064 180.411 19.9771 180.011 19.6308C179.607 19.2845 179.119 19.1104 178.557 19.1104C177.746 19.1104 177.111 19.4243 176.645 20.054C176.182 20.6838 175.948 21.4877 175.948 22.4699C175.948 23.4135 176.17 24.179 176.616 24.7682C177.087 25.396 177.721 25.7099 178.516 25.7099C179.229 25.7099 179.799 25.4486 180.233 24.9242C180.652 24.4402 180.857 23.857 180.857 23.1766Z" fill="white"/>
<path d="M201.7 22.3503C201.7 23.8184 201.27 25.0212 200.412 25.9649C199.511 26.9349 198.321 27.4188 196.83 27.4188C195.396 27.4188 194.254 26.9551 193.399 26.0236C192.549 25.0941 192.124 23.9217 192.124 22.5082C192.124 21.03 192.561 19.817 193.441 18.8754C194.32 17.9337 195.502 17.4619 196.994 17.4619C198.427 17.4619 199.582 17.9256 200.453 18.8551C201.283 19.7583 201.7 20.9247 201.7 22.3503ZM199.447 22.4191C199.447 21.5382 199.252 20.7829 198.864 20.1531C198.406 19.3917 197.759 19.011 196.913 19.011C196.042 19.011 195.378 19.3917 194.919 20.1531C194.53 20.7829 194.337 21.5504 194.337 22.4576C194.337 23.3385 194.532 24.0938 194.919 24.7236C195.39 25.485 196.046 25.8657 196.892 25.8657C197.722 25.8657 198.375 25.4789 198.844 24.7033C199.244 24.0614 199.447 23.3 199.447 22.4191Z" fill="white"/>
<path d="M213.387 27.2024H211.215V21.7349C211.215 20.0501 210.56 19.2077 209.243 19.2077C208.598 19.2077 208.077 19.4385 207.675 19.9023C207.273 20.366 207.071 20.9127 207.071 21.5385V27.2004H204.896V20.3842C204.896 19.5459 204.871 18.6366 204.819 17.6525H206.727L206.829 19.1449H206.889C207.144 18.6812 207.522 18.2985 208.015 17.9927C208.606 17.6363 209.264 17.4561 209.988 17.4561C210.898 17.4561 211.657 17.7436 212.261 18.3207C213.014 19.0275 213.387 20.0825 213.387 21.4838V27.2024V27.2024Z" fill="white"/>
<path d="M228.015 19.2463H225.622V23.8835C225.622 25.0621 226.047 25.6513 226.889 25.6513C227.279 25.6513 227.603 25.6189 227.858 25.5521L227.914 27.162C227.484 27.3199 226.92 27.3989 226.226 27.3989C225.367 27.3989 224.699 27.1438 224.216 26.6335C223.73 26.1232 223.49 25.2646 223.49 24.0597V19.2463H222.061V17.6566H223.49V15.907L225.62 15.2793V17.6546H228.013V19.2463H228.015Z" fill="white"/>
<path d="M239.522 27.2023H237.347V21.7753C237.347 20.0642 236.691 19.2076 235.378 19.2076C234.37 19.2076 233.682 19.7037 233.304 20.696C233.24 20.9045 233.203 21.1597 233.203 21.4594V27.2003H231.031V13.2764H233.203V19.0294H233.244C233.929 17.9825 234.91 17.46 236.181 17.46C237.081 17.46 237.826 17.7476 238.417 18.3247C239.153 19.0436 239.522 20.1128 239.522 21.5262V27.2023V27.2023Z" fill="white"/>
<path d="M251.392 21.9773C251.392 22.358 251.363 22.678 251.311 22.9392H244.793C244.822 23.8829 245.133 24.6017 245.736 25.0999C246.288 25.5454 246.999 25.7681 247.871 25.7681C248.835 25.7681 249.714 25.6183 250.507 25.3166L250.847 26.7908C249.92 27.1836 248.829 27.38 247.566 27.38C246.052 27.38 244.859 26.9447 243.996 26.0739C243.129 25.2032 242.7 24.0347 242.7 22.5686C242.7 21.1289 243.1 19.9301 243.907 18.9743C244.749 17.9537 245.888 17.4434 247.325 17.4434C248.731 17.4434 249.799 17.9537 250.521 18.9743C251.104 19.7843 251.392 20.7866 251.392 21.9773ZM249.318 21.4286C249.335 20.7988 249.192 20.2561 248.897 19.7984C248.52 19.2092 247.945 18.9135 247.167 18.9135C246.458 18.9135 245.879 19.2011 245.438 19.7782C245.077 20.2379 244.863 20.7866 244.793 21.4286H249.318Z" fill="white"/>
<path d="M111.264 63.7954H106.553L103.973 55.8797H95.005L92.5472 63.7954H87.9615L96.8468 36.8467H102.335L111.264 63.7954ZM103.196 52.5587L100.862 45.5218C100.615 44.8029 100.153 43.11 99.4705 40.4451H99.3875C99.1158 41.5913 98.6782 43.2842 98.0767 45.5218L95.7849 52.5587H103.196V52.5587Z" fill="white"/>
<path d="M134.114 53.8408C134.114 57.1456 133.199 59.7578 131.37 61.6755C129.731 63.3826 127.697 64.2351 125.268 64.2351C122.646 64.2351 120.763 63.3157 119.616 61.477H119.533V71.7134H115.111V50.7607C115.111 48.6831 115.055 46.5508 114.947 44.3638H118.836L119.083 47.4438H119.166C120.641 45.1231 122.878 43.9648 125.882 43.9648C128.23 43.9648 130.19 44.87 131.758 46.6824C133.33 48.4968 134.114 50.8822 134.114 53.8408ZM129.609 53.9987C129.609 52.1074 129.173 50.5481 128.298 49.321C127.342 48.0412 126.058 47.4013 124.449 47.4013C123.358 47.4013 122.366 47.7577 121.481 48.4603C120.593 49.1691 120.012 50.0945 119.74 51.2407C119.604 51.7753 119.535 52.2127 119.535 52.5569V55.7969C119.535 57.2104 119.979 58.4031 120.867 59.3771C121.754 60.3511 122.908 60.8371 124.326 60.8371C125.992 60.8371 127.288 60.2094 128.215 58.9579C129.144 57.7045 129.609 56.0521 129.609 53.9987Z" fill="white"/>
<path d="M157.005 53.8408C157.005 57.1456 156.091 59.7578 154.259 61.6755C152.623 63.3826 150.588 64.2351 148.159 64.2351C145.538 64.2351 143.655 63.3157 142.51 61.477H142.427V71.7134H138.005V50.7607C138.005 48.6831 137.949 46.5508 137.841 44.3638H141.73L141.977 47.4438H142.06C143.532 45.1231 145.77 43.9648 148.775 43.9648C151.121 43.9648 153.081 44.87 154.653 46.6824C156.219 48.4968 157.005 50.8822 157.005 53.8408ZM152.5 53.9987C152.5 52.1074 152.063 50.5481 151.188 49.321C150.231 48.0412 148.952 47.4013 147.34 47.4013C146.247 47.4013 145.258 47.7577 144.37 48.4603C143.482 49.1691 142.904 50.0945 142.632 51.2407C142.497 51.7753 142.427 52.2127 142.427 52.5569V55.7969C142.427 57.2104 142.871 58.4031 143.754 59.3771C144.642 60.3491 145.795 60.8371 147.218 60.8371C148.883 60.8371 150.18 60.2094 151.107 58.9579C152.036 57.7045 152.5 56.0521 152.5 53.9987Z" fill="white"/>
<path d="M182.599 56.2384C182.599 58.5307 181.784 60.3957 180.148 61.8355C178.35 63.4089 175.846 64.1947 172.629 64.1947C169.659 64.1947 167.278 63.6358 165.476 62.5159L166.5 58.9175C168.442 60.0636 170.572 60.6388 172.893 60.6388C174.558 60.6388 175.855 60.2702 176.786 59.5371C177.713 58.8041 178.175 57.82 178.175 56.5928C178.175 55.4993 177.794 54.5779 177.028 53.8307C176.267 53.0835 174.996 52.3889 173.22 51.747C168.388 49.9873 165.974 47.4094 165.974 44.0196C165.974 41.8042 166.82 39.9878 168.514 38.5743C170.203 37.1589 172.455 36.4521 175.272 36.4521C177.783 36.4521 179.87 36.8794 181.535 37.7319L180.43 41.2514C178.874 40.4252 177.116 40.0121 175.147 40.0121C173.592 40.0121 172.376 40.3867 171.505 41.1319C170.769 41.7982 170.4 42.6102 170.4 43.5721C170.4 44.6372 170.821 45.5181 171.667 46.2106C172.403 46.8505 173.741 47.5431 175.682 48.2903C178.057 49.2238 179.801 50.3153 180.924 51.5668C182.041 52.8142 182.599 54.3754 182.599 56.2384Z" fill="white"/>
<path d="M197.22 47.6042H192.345V57.0387C192.345 59.4383 193.204 60.6371 194.926 60.6371C195.716 60.6371 196.371 60.5703 196.89 60.4367L197.012 63.7151C196.141 64.0331 194.994 64.193 193.573 64.193C191.827 64.193 190.462 63.6726 189.477 62.6338C188.496 61.5929 188.002 59.8474 188.002 57.3951V47.6002H185.099V44.3602H188.002V40.8023L192.345 39.5225V44.3602H197.22V47.6042Z" fill="white"/>
<path d="M219.211 53.9197C219.211 56.9065 218.336 59.3588 216.589 61.2765C214.758 63.2509 212.327 64.235 209.297 64.235C206.377 64.235 204.052 63.2893 202.318 61.398C200.584 59.5066 199.717 57.1192 199.717 54.2416C199.717 51.2305 200.609 48.764 202.398 46.8463C204.184 44.9266 206.594 43.9668 209.625 43.9668C212.545 43.9668 214.895 44.9125 216.668 46.8058C218.365 48.6425 219.211 51.0138 219.211 53.9197ZM214.623 54.0594C214.623 52.2673 214.231 50.7303 213.437 49.4485C212.51 47.8973 211.184 47.1238 209.467 47.1238C207.689 47.1238 206.339 47.8993 205.412 49.4485C204.618 50.7323 204.226 52.2936 204.226 54.1404C204.226 55.9325 204.618 57.4695 205.412 58.7493C206.368 60.3004 207.704 61.074 209.428 61.074C211.116 61.074 212.441 60.2842 213.397 58.7088C214.212 57.4027 214.623 55.8495 214.623 54.0594Z" fill="white"/>
<path d="M233.584 48.1606C233.147 48.0817 232.68 48.0412 232.191 48.0412C230.635 48.0412 229.432 48.6142 228.586 49.7624C227.849 50.7749 227.48 52.0547 227.48 53.5998V63.7957H223.06L223.102 50.4833C223.102 48.2437 223.046 46.2045 222.936 44.3658H226.788L226.949 48.0837H227.072C227.538 46.8059 228.275 45.7772 229.283 45.0057C230.268 44.3111 231.332 43.9648 232.479 43.9648C232.887 43.9648 233.257 43.9932 233.584 44.0438V48.1606Z" fill="white"/>
<path d="M253.361 53.1607C253.361 53.9342 253.309 54.5863 253.199 55.1189H239.933C239.985 57.0386 240.626 58.5067 241.858 59.5192C242.976 60.4244 244.421 60.878 246.197 60.878C248.161 60.878 249.953 60.5722 251.564 59.9586L252.257 62.9556C250.374 63.7575 248.15 64.1564 245.585 64.1564C242.499 64.1564 240.076 63.2695 238.313 61.4976C236.554 59.7257 235.673 57.3464 235.673 54.3615C235.673 51.4313 236.492 48.9912 238.133 47.0452C239.85 44.9675 242.171 43.9287 245.091 43.9287C247.96 43.9287 250.131 44.9675 251.606 47.0452C252.774 48.6956 253.361 50.7368 253.361 53.1607ZM249.144 52.0409C249.173 50.7611 248.885 49.6554 248.285 48.7219C247.52 47.5211 246.344 46.9217 244.761 46.9217C243.316 46.9217 242.14 47.5069 241.242 48.6814C240.505 49.6149 240.068 50.7347 239.933 52.0388H249.144V52.0409Z" fill="white"/>
</svg>
