<svg width="20" height="20" viewBox="0 0 20 20" fill="none" xmlns="http://www.w3.org/2000/svg">
<path d="M17.3203 10.4444L11.6953 16.0694C11.5758 16.1849 11.4162 16.2495 11.25 16.2495C11.0838 16.2495 10.9242 16.1849 10.8047 16.0694C10.6873 15.9509 10.6215 15.7909 10.6215 15.6241C10.6215 15.4573 10.6873 15.2973 10.8047 15.1788L15.3672 10.6241H3.125C2.95924 10.6241 2.80027 10.5583 2.68306 10.4411C2.56585 10.3239 2.5 10.1649 2.5 9.99912C2.5 9.83336 2.56585 9.67439 2.68306 9.55718C2.80027 9.43997 2.95924 9.37412 3.125 9.37412H15.3672L10.8047 4.81943C10.705 4.698 10.6541 4.54383 10.6618 4.38693C10.6695 4.23002 10.7353 4.08159 10.8464 3.9705C10.9575 3.85942 11.1059 3.79362 11.2628 3.78592C11.4197 3.77821 11.5739 3.82914 11.6953 3.92881L17.3203 9.55381C17.4377 9.67231 17.5035 9.83234 17.5035 9.99912C17.5035 10.1659 17.4377 10.3259 17.3203 10.4444Z" fill="white"/>
</svg>
