<svg width="12" height="7" viewBox="0 0 12 7" fill="none" xmlns="http://www.w3.org/2000/svg">
<path d="M5.99984 6.7513C5.801 6.75044 5.61037 6.67194 5.46859 6.53255L0.468586 1.53255C0.32769 1.39165 0.248535 1.20056 0.248535 1.0013C0.248535 0.802043 0.32769 0.610947 0.468586 0.470051C0.609482 0.329155 0.800579 0.25 0.999836 0.25C1.19909 0.25 1.39019 0.329155 1.53109 0.470051L5.99984 4.9388L10.4686 0.470051C10.6095 0.329155 10.8006 0.25 10.9998 0.25C11.1991 0.25 11.3902 0.329155 11.5311 0.470051C11.672 0.610947 11.7511 0.802043 11.7511 1.0013C11.7511 1.20056 11.672 1.39165 11.5311 1.53255L6.53109 6.53255C6.3893 6.67194 6.19867 6.75044 5.99984 6.7513Z" fill="white"/>
</svg>
