<svg width="44" height="44" viewBox="0 0 44 44" fill="none" xmlns="http://www.w3.org/2000/svg">
<g filter="url(#filter0_b_22047_45761)">
<rect width="44" height="44" rx="22" fill="white" fill-opacity="0.12"/>
<path d="M24.5023 29.1891C24.2538 29.1881 24.0155 29.0899 23.8382 28.9157L17.5882 22.6657C17.5008 22.5786 17.4315 22.4751 17.3842 22.3611C17.3369 22.2472 17.3125 22.125 17.3125 22.0016C17.3125 21.8782 17.3369 21.7561 17.3842 21.6421C17.4315 21.5282 17.5008 21.4247 17.5882 21.3376L23.8382 15.0876C24.0144 14.9114 24.2532 14.8125 24.5023 14.8125C24.6256 14.8125 24.7478 14.8368 24.8617 14.884C24.9756 14.9312 25.0792 15.0004 25.1664 15.0876C25.2536 15.1748 25.3227 15.2783 25.3699 15.3922C25.4171 15.5062 25.4414 15.6283 25.4414 15.7516C25.4414 15.875 25.4171 15.9971 25.3699 16.111C25.3227 16.225 25.2536 16.3285 25.1664 16.4157L19.5804 22.0016L25.1664 27.5876C25.2538 27.6747 25.3231 27.7782 25.3704 27.8921C25.4177 28.0061 25.4421 28.1282 25.4421 28.2516C25.4421 28.375 25.4177 28.4972 25.3704 28.6111C25.3231 28.7251 25.2538 28.8286 25.1664 28.9157C24.9891 29.0899 24.7508 29.1881 24.5023 29.1891Z" fill="white"/>
</g>
<defs>
<filter id="filter0_b_22047_45761" x="-8" y="-8" width="60" height="60" filterUnits="userSpaceOnUse" color-interpolation-filters="sRGB">
<feFlood flood-opacity="0" result="BackgroundImageFix"/>
<feGaussianBlur in="BackgroundImageFix" stdDeviation="4"/>
<feComposite in2="SourceAlpha" operator="in" result="effect1_backgroundBlur_22047_45761"/>
<feBlend mode="normal" in="SourceGraphic" in2="effect1_backgroundBlur_22047_45761" result="shape"/>
</filter>
</defs>
</svg>
