<svg width="30" height="30" viewBox="0 0 30 30" fill="none" xmlns="http://www.w3.org/2000/svg">
<g filter="url(#filter0_b_14904_10467)">
<rect width="30" height="30" rx="15" fill="white" fill-opacity="0.12"/>
<path d="M17.4999 22.1872C17.2513 22.1861 17.013 22.088 16.8358 21.9137L10.5858 15.6637C10.4984 15.5766 10.4291 15.4731 10.3817 15.3592C10.3344 15.2452 10.3101 15.1231 10.3101 14.9997C10.3101 14.8763 10.3344 14.7541 10.3817 14.6402C10.4291 14.5262 10.4984 14.4227 10.5858 14.3356L16.8358 8.08561C17.0119 7.90949 17.2508 7.81055 17.4999 7.81055C17.6232 7.81055 17.7453 7.83484 17.8593 7.88203C17.9732 7.92923 18.0767 7.9984 18.1639 8.08561C18.2511 8.17282 18.3203 8.27635 18.3675 8.39029C18.4147 8.50423 18.439 8.62635 18.439 8.74967C18.439 8.873 18.4147 8.99512 18.3675 9.10906C18.3203 9.223 18.2511 9.32653 18.1639 9.41374L12.578 14.9997L18.1639 20.5856C18.2513 20.6727 18.3207 20.7762 18.368 20.8902C18.4153 21.0041 18.4397 21.1263 18.4397 21.2497C18.4397 21.3731 18.4153 21.4952 18.368 21.6092C18.3207 21.7231 18.2513 21.8266 18.1639 21.9137C17.9867 22.088 17.7484 22.1861 17.4999 22.1872Z" fill="white"/>
</g>
<defs>
<filter id="filter0_b_14904_10467" x="-8" y="-8" width="46" height="46" filterUnits="userSpaceOnUse" color-interpolation-filters="sRGB">
<feFlood flood-opacity="0" result="BackgroundImageFix"/>
<feGaussianBlur in="BackgroundImageFix" stdDeviation="4"/>
<feComposite in2="SourceAlpha" operator="in" result="effect1_backgroundBlur_14904_10467"/>
<feBlend mode="normal" in="SourceGraphic" in2="effect1_backgroundBlur_14904_10467" result="shape"/>
</filter>
</defs>
</svg>
