<svg width="9" height="16" viewBox="0 0 9 16" fill="none" xmlns="http://www.w3.org/2000/svg">
<path d="M7.5023 15.1891C7.25376 15.1881 7.01548 15.0899 6.83824 14.9157L0.588239 8.66569C0.50084 8.57859 0.431492 8.4751 0.384175 8.36114C0.336857 8.24719 0.3125 8.12501 0.3125 8.00163C0.3125 7.87824 0.336857 7.75606 0.384175 7.64211C0.431492 7.52815 0.50084 7.42466 0.588239 7.33756L6.83824 1.08756C7.01436 0.911443 7.25323 0.8125 7.5023 0.8125C7.62563 0.8125 7.74775 0.836791 7.86169 0.883987C7.97563 0.931182 8.07916 1.00036 8.16637 1.08756C8.25357 1.17477 8.32275 1.2783 8.36994 1.39224C8.41714 1.50618 8.44143 1.6283 8.44143 1.75163C8.44143 1.87495 8.41714 1.99707 8.36994 2.11101C8.32275 2.22495 8.25357 2.32848 8.16637 2.41569L2.58043 8.00163L8.16637 13.5876C8.25377 13.6747 8.32311 13.7782 8.37043 13.8921C8.41775 14.0061 8.4421 14.1282 8.4421 14.2516C8.4421 14.375 8.41775 14.4972 8.37043 14.6111C8.32311 14.7251 8.25377 14.8286 8.16637 14.9157C7.98913 15.0899 7.75084 15.1881 7.5023 15.1891Z" fill="white"/>
</svg>
