<svg width="20" height="20" viewBox="0 0 20 20" fill="none" xmlns="http://www.w3.org/2000/svg">
<path opacity="0.2" d="M1.875 7.5H18.125L10 2.5L1.875 7.5Z" fill="white"/>
<path d="M1.875 8.1257H3.75V13.1257H2.5C2.33424 13.1257 2.17527 13.1915 2.05806 13.3088C1.94085 13.426 1.875 13.5849 1.875 13.7507C1.875 13.9165 1.94085 14.0754 2.05806 14.1926C2.17527 14.3099 2.33424 14.3757 2.5 14.3757H17.5C17.6658 14.3757 17.8247 14.3099 17.9419 14.1926C18.0592 14.0754 18.125 13.9165 18.125 13.7507C18.125 13.5849 18.0592 13.426 17.9419 13.3088C17.8247 13.1915 17.6658 13.1257 17.5 13.1257H16.25V8.1257H18.125C18.2608 8.12546 18.3929 8.08098 18.5011 7.999C18.6094 7.91701 18.6881 7.80199 18.7251 7.67133C18.7622 7.54067 18.7557 7.40149 18.7067 7.27484C18.6576 7.1482 18.5686 7.041 18.4531 6.96945L10.3281 1.96945C10.2298 1.90774 10.1161 1.875 10 1.875C9.88392 1.875 9.77019 1.90774 9.67188 1.96945L1.54687 6.96945C1.43143 7.041 1.34243 7.1482 1.29335 7.27484C1.24427 7.40149 1.23778 7.54067 1.27485 7.67133C1.31193 7.80199 1.39057 7.91701 1.49885 7.999C1.60714 8.08098 1.73918 8.12546 1.875 8.1257ZM5 8.1257H7.5V13.1257H5V8.1257ZM11.25 8.1257V13.1257H8.75V8.1257H11.25ZM15 13.1257H12.5V8.1257H15V13.1257ZM10 3.23508L15.9141 6.8757H4.08594L10 3.23508ZM19.375 16.2507C19.375 16.4165 19.3092 16.5754 19.1919 16.6926C19.0747 16.8099 18.9158 16.8757 18.75 16.8757H1.25C1.08424 16.8757 0.925268 16.8099 0.808058 16.6926C0.690848 16.5754 0.625 16.4165 0.625 16.2507C0.625 16.0849 0.690848 15.926 0.808058 15.8088C0.925268 15.6915 1.08424 15.6257 1.25 15.6257H18.75C18.9158 15.6257 19.0747 15.6915 19.1919 15.8088C19.3092 15.926 19.375 16.0849 19.375 16.2507Z" fill="white"/>
</svg>
