<svg width="16" height="16" viewBox="0 0 16 16" fill="none" xmlns="http://www.w3.org/2000/svg">
<path d="M4.9125 5.31336C4.87624 5.22207 4.86698 5.12229 4.88582 5.02589C4.90465 4.92949 4.9508 4.84053 5.01875 4.76961L7.64375 2.14461C7.73855 2.05072 7.86658 1.99805 8 1.99805C8.13342 1.99805 8.26145 2.05072 8.35625 2.14461L10.9812 4.76961C11.0492 4.84053 11.0953 4.92949 11.1142 5.02589C11.133 5.12229 11.1238 5.22207 11.0875 5.31336C11.0502 5.40553 10.9863 5.48449 10.9039 5.54016C10.8215 5.59582 10.7244 5.62566 10.625 5.62586H8.5V9.50086C8.5 9.63347 8.44732 9.76064 8.35355 9.85441C8.25979 9.94818 8.13261 10.0009 8 10.0009C7.86739 10.0009 7.74021 9.94818 7.64645 9.85441C7.55268 9.76064 7.5 9.63347 7.5 9.50086V5.62586H5.375C5.27557 5.62566 5.17847 5.59582 5.09608 5.54016C5.0137 5.48449 4.94978 5.40553 4.9125 5.31336ZM13.5 9.00086C13.3674 9.00086 13.2402 9.05354 13.1464 9.14731C13.0527 9.24107 13 9.36825 13 9.50086V13.0009H3V9.50086C3 9.36825 2.94732 9.24107 2.85355 9.14731C2.75979 9.05354 2.63261 9.00086 2.5 9.00086C2.36739 9.00086 2.24021 9.05354 2.14645 9.14731C2.05268 9.24107 2 9.36825 2 9.50086V13.0009C2 13.2661 2.10536 13.5204 2.29289 13.708C2.48043 13.8955 2.73478 14.0009 3 14.0009H13C13.2652 14.0009 13.5196 13.8955 13.7071 13.708C13.8946 13.5204 14 13.2661 14 13.0009V9.50086C14 9.36825 13.9473 9.24107 13.8536 9.14731C13.7598 9.05354 13.6326 9.00086 13.5 9.00086Z" fill="#030303"/>
</svg>
