<svg width="24" height="26" viewBox="0 0 24 26" fill="none" xmlns="http://www.w3.org/2000/svg">
<path fill-rule="evenodd" clip-rule="evenodd" d="M8.22462 10.3477L11.8125 8.34375V4.57617C11.3956 4.50203 11.0181 4.28354 10.7461 3.95898L4.99805 7.28516C5.06641 7.47656 5.10352 7.68164 5.10352 7.89648C5.10352 8.07617 5.07813 8.24805 5.0293 8.41211L8.22462 10.3477ZM10.4414 3.4375C10.3651 3.23456 10.3261 3.01953 10.3262 2.80273C10.3262 2.30469 10.5273 1.85352 10.8535 1.52734C11.1797 1.20117 11.6309 1 12.1289 1C12.627 1 13.0781 1.20117 13.4043 1.52734C13.5719 1.69472 13.7047 1.89355 13.7952 2.11242C13.8857 2.33129 13.9321 2.56589 13.9316 2.80273C13.9316 3.02148 13.8926 3.23047 13.8223 3.42383L19.5977 6.76367C19.6387 6.71484 19.6797 6.66602 19.7246 6.62109C19.892 6.45352 20.0908 6.32067 20.3097 6.23017C20.5286 6.13967 20.7632 6.09331 21 6.09375C21.4981 6.09375 21.9492 6.29492 22.2754 6.62109C22.443 6.78847 22.5758 6.9873 22.6663 7.20617C22.7568 7.42504 22.8032 7.65964 22.8027 7.89648C22.8027 8.39453 22.6016 8.84375 22.2754 9.16992C21.9951 9.45058 21.6297 9.63052 21.2363 9.68164V16.3047C21.6406 16.3574 22.002 16.543 22.2754 16.8164C22.6016 17.1426 22.8027 17.5938 22.8027 18.0898C22.8029 18.3266 22.7565 18.5612 22.6659 18.78C22.5754 18.9988 22.4426 19.1976 22.2752 19.365C22.1077 19.5325 21.9089 19.6652 21.6901 19.7558C21.4713 19.8463 21.2368 19.8928 21 19.8926C20.7326 19.893 20.4686 19.8338 20.227 19.7192C19.9854 19.6047 19.7724 19.4377 19.6035 19.2305L13.8203 22.5742C13.8906 22.7676 13.9297 22.9766 13.9297 23.1953C13.9297 23.6934 13.7285 24.1445 13.4023 24.4707C13.235 24.6383 13.0361 24.7711 12.8173 24.8616C12.5984 24.9521 12.3638 24.9985 12.127 24.998C11.6289 24.998 11.1777 24.7969 10.8516 24.4707C10.5254 24.1445 10.3242 23.6934 10.3242 23.1953C10.3242 22.9727 10.3652 22.7578 10.4395 22.5605L4.69337 19.2383C4.52432 19.444 4.3117 19.6095 4.07087 19.723C3.83004 19.8365 3.56702 19.8951 3.30079 19.8945C2.80274 19.8945 2.35157 19.6934 2.0254 19.3672C1.70118 19.041 1.50001 18.5898 1.50001 18.0918C1.50001 17.5938 1.70118 17.1445 2.02735 16.8184C2.30449 16.5409 2.66443 16.3613 3.05274 16.3066V9.67969C2.66417 9.62588 2.30396 9.44612 2.02735 9.16797C1.85965 9.00109 1.7267 8.80263 1.63618 8.58405C1.54567 8.36547 1.49938 8.13111 1.50001 7.89453C1.50001 7.39648 1.70118 6.94531 2.02735 6.61914C2.19472 6.45157 2.39356 6.31871 2.61243 6.22821C2.8313 6.13772 3.0659 6.09136 3.30274 6.0918C3.57058 6.09133 3.83515 6.15071 4.0771 6.2656C4.31905 6.38049 4.53227 6.54799 4.70118 6.75586L10.4414 3.4375ZM13.5195 3.94727C13.2458 4.28103 12.861 4.50499 12.4356 4.57812V8.34375L16.0156 10.418L19.3066 8.51562C19.2344 8.32227 19.1973 8.11133 19.1973 7.89453C19.1973 7.68359 19.2344 7.47852 19.3008 7.29102L13.5195 3.94727ZM20.6856 9.66992C20.3213 9.60657 19.9856 9.4319 19.7246 9.16992C19.6875 9.13281 19.6523 9.0957 19.6191 9.05469L16.334 10.9531V15.0117L19.6328 16.916C19.6621 16.8828 19.6914 16.8496 19.7227 16.8184C19.9839 16.5568 20.3195 16.3821 20.6836 16.3184V9.66992H20.6856ZM19.3047 18.707C19.2344 18.5156 19.1973 18.3086 19.1973 18.0938C19.1973 17.8672 19.2383 17.6504 19.3164 17.4492L16.125 15.6074L12.4356 17.752V21.4219C12.861 21.495 13.2458 21.719 13.5195 22.0527L19.3047 18.707ZM10.7461 22.0391C11.0181 21.7145 11.3956 21.496 11.8125 21.4219V17.7344L8.10938 15.5859L4.9668 17.4004C5.05469 17.6133 5.10547 17.8477 5.10547 18.0938C5.10547 18.3125 5.06641 18.5215 4.9961 18.7148L10.7461 22.0391ZM3.60157 16.3145C3.97852 16.377 4.31641 16.5586 4.57618 16.8184C4.59571 16.8379 4.61329 16.8574 4.63087 16.877L7.83204 15.0293V10.8359L4.75001 8.96875C4.69727 9.04102 4.63868 9.10742 4.57618 9.16992C4.31136 9.43481 3.9708 9.61089 3.60157 9.67383V16.3145ZM3.30469 9.07422C3.31251 9.07422 3.32032 9.07227 3.32813 9.07227H3.34376C3.64222 9.0629 3.92585 8.93994 4.13672 8.72852C4.24643 8.61912 4.33344 8.48913 4.39277 8.34601C4.45209 8.20289 4.48256 8.04946 4.48243 7.89453C4.48243 7.56836 4.34962 7.27344 4.13672 7.06055C3.92383 6.84766 3.62891 6.71484 3.30274 6.71484C2.97657 6.71484 2.68165 6.84766 2.46876 7.06055C2.35905 7.16995 2.27204 7.29994 2.21272 7.44306C2.15339 7.58617 2.12292 7.7396 2.12305 7.89453C2.12305 8.2207 2.25587 8.51562 2.46876 8.72852C2.57843 8.83839 2.70875 8.9255 2.85221 8.98483C2.99567 9.04416 3.14945 9.07454 3.30469 9.07422ZM12.9609 22.3652C12.8515 22.2555 12.7216 22.1685 12.5784 22.1092C12.4353 22.0499 12.2819 22.0194 12.127 22.0195C11.8008 22.0195 11.5059 22.1523 11.293 22.3652C11.0801 22.5781 10.9473 22.873 10.9473 23.1992C10.9473 23.5254 11.0801 23.8203 11.293 24.0332C11.5059 24.2461 11.8008 24.3789 12.127 24.3789C12.4531 24.3789 12.7481 24.2461 12.9609 24.0332C13.1738 23.8203 13.3066 23.5254 13.3066 23.1992C13.3066 22.873 13.1758 22.5781 12.9609 22.3652ZM12.9609 1.96875C12.8515 1.85905 12.7216 1.77204 12.5784 1.71271C12.4353 1.65338 12.2819 1.62291 12.127 1.62305C11.8008 1.62305 11.5059 1.75586 11.293 1.96875C11.0801 2.18164 10.9473 2.47656 10.9473 2.80273C10.9473 3.12891 11.0801 3.42383 11.293 3.63672C11.4024 3.74642 11.5324 3.83343 11.6755 3.89276C11.8186 3.95208 11.972 3.98256 12.127 3.98242C12.4531 3.98242 12.7481 3.84961 12.9609 3.63672C13.0706 3.52732 13.1577 3.39733 13.217 3.25421C13.2763 3.11109 13.3068 2.95766 13.3066 2.80273C13.3066 2.47656 13.1758 2.18164 12.9609 1.96875ZM21.832 17.2598C21.7226 17.1501 21.5926 17.0631 21.4495 17.0037C21.3064 16.9444 21.153 16.9139 20.9981 16.9141C20.6719 16.9141 20.377 17.0469 20.1641 17.2598C20.0544 17.3692 19.9674 17.4992 19.908 17.6423C19.8487 17.7854 19.8182 17.9388 19.8184 18.0938C19.8184 18.4199 19.9512 18.7148 20.1641 18.9277C20.2735 19.0374 20.4035 19.1244 20.5466 19.1838C20.6897 19.2431 20.8431 19.2736 20.9981 19.2734C21.3242 19.2734 21.6191 19.1406 21.832 18.9277C21.9417 18.8183 22.0288 18.6883 22.0881 18.5452C22.1474 18.4021 22.1779 18.2487 22.1777 18.0938C22.1777 17.7676 22.0469 17.4727 21.832 17.2598ZM4.13672 17.2598C3.92383 17.0469 3.62891 16.9141 3.30274 16.9141C2.97657 16.9141 2.68165 17.0469 2.46876 17.2598C2.35905 17.3692 2.27204 17.4992 2.21272 17.6423C2.15339 17.7854 2.12292 17.9388 2.12305 18.0938C2.12305 18.4199 2.25587 18.7148 2.46876 18.9277C2.68165 19.1406 2.97657 19.2734 3.30274 19.2734C3.62891 19.2734 3.92383 19.1406 4.13672 18.9277C4.24643 18.8183 4.33344 18.6883 4.39277 18.5452C4.45209 18.4021 4.48256 18.2487 4.48243 18.0938C4.4818 17.781 4.35753 17.4812 4.13672 17.2598ZM19.9473 8.42773C19.9629 8.44336 19.9746 8.46289 19.9863 8.48242C19.9981 8.50195 20.0059 8.52148 20.0137 8.54297C20.0586 8.60938 20.1094 8.67188 20.1641 8.72852C20.2735 8.83822 20.4035 8.92523 20.5466 8.98456C20.6897 9.04388 20.8431 9.07435 20.9981 9.07422C21.3242 9.07422 21.6191 8.94141 21.832 8.72852C21.9417 8.61912 22.0288 8.48913 22.0881 8.34601C22.1474 8.20289 22.1779 8.04946 22.1777 7.89453C22.1777 7.56836 22.0449 7.27344 21.832 7.06055C21.7226 6.95084 21.5926 6.86383 21.4495 6.80451C21.3064 6.74518 21.153 6.71471 20.9981 6.71484C20.6719 6.71484 20.377 6.84766 20.1641 7.06055C20.0544 7.16995 19.9674 7.29994 19.908 7.44306C19.8487 7.58617 19.8182 7.7396 19.8184 7.89453C19.8203 8.08789 19.8672 8.26758 19.9473 8.42773ZM8.41602 14.9629C8.4604 15.0106 8.48962 15.0704 8.50001 15.1348L11.8457 17.1016V13.2188L8.41602 11.1777V14.9629ZM15.752 11.2305L12.4297 13.2207V17.1055L15.752 15.1426V11.2305ZM12.1231 8.81055L8.88087 10.75L12.1406 12.7129L15.3066 10.791L12.1231 8.81055Z" fill="white" stroke="white" stroke-width="0.4"/>
</svg>
