<svg width="20" height="20" viewBox="0 0 20 20" fill="none" xmlns="http://www.w3.org/2000/svg">
<path opacity="0.2" d="M11.25 16.875V3.125C11.25 2.95924 11.1842 2.80027 11.0669 2.68306C10.9497 2.56585 10.7908 2.5 10.625 2.5H3.125C2.95924 2.5 2.80027 2.56585 2.68306 2.68306C2.56585 2.80027 2.5 2.95924 2.5 3.125V16.875" fill="white"/>
<path d="M18.75 16.25H18.125V8.125C18.125 7.79348 17.9933 7.47554 17.7589 7.24112C17.5245 7.0067 17.2065 6.875 16.875 6.875H11.875V3.125C11.875 2.79348 11.7433 2.47554 11.5089 2.24112C11.2745 2.0067 10.9565 1.875 10.625 1.875H3.125C2.79348 1.875 2.47554 2.0067 2.24112 2.24112C2.0067 2.47554 1.875 2.79348 1.875 3.125V16.25H1.25C1.08424 16.25 0.925268 16.3158 0.808058 16.4331C0.690848 16.5503 0.625 16.7092 0.625 16.875C0.625 17.0408 0.690848 17.1997 0.808058 17.3169C0.925268 17.4342 1.08424 17.5 1.25 17.5H18.75C18.9158 17.5 19.0747 17.4342 19.1919 17.3169C19.3092 17.1997 19.375 17.0408 19.375 16.875C19.375 16.7092 19.3092 16.5503 19.1919 16.4331C19.0747 16.3158 18.9158 16.25 18.75 16.25ZM16.875 8.125V16.25H11.875V8.125H16.875ZM3.125 3.125H10.625V16.25H3.125V3.125ZM4.375 5.625C4.375 5.45924 4.44085 5.30027 4.55806 5.18306C4.67527 5.06585 4.83424 5 5 5H7.5C7.66576 5 7.82473 5.06585 7.94194 5.18306C8.05915 5.30027 8.125 5.45924 8.125 5.625C8.125 5.79076 8.05915 5.94973 7.94194 6.06694C7.82473 6.18415 7.66576 6.25 7.5 6.25H5C4.83424 6.25 4.67527 6.18415 4.55806 6.06694C4.44085 5.94973 4.375 5.79076 4.375 5.625ZM9.375 10.625C9.375 10.7908 9.30915 10.9497 9.19194 11.0669C9.07473 11.1842 8.91576 11.25 8.75 11.25H6.25C6.08424 11.25 5.92527 11.1842 5.80806 11.0669C5.69085 10.9497 5.625 10.7908 5.625 10.625C5.625 10.4592 5.69085 10.3003 5.80806 10.1831C5.92527 10.0658 6.08424 10 6.25 10H8.75C8.91576 10 9.07473 10.0658 9.19194 10.1831C9.30915 10.3003 9.375 10.4592 9.375 10.625ZM8.125 13.75C8.125 13.9158 8.05915 14.0747 7.94194 14.1919C7.82473 14.3092 7.66576 14.375 7.5 14.375H5C4.83424 14.375 4.67527 14.3092 4.55806 14.1919C4.44085 14.0747 4.375 13.9158 4.375 13.75C4.375 13.5842 4.44085 13.4253 4.55806 13.3081C4.67527 13.1908 4.83424 13.125 5 13.125H7.5C7.66576 13.125 7.82473 13.1908 7.94194 13.3081C8.05915 13.4253 8.125 13.5842 8.125 13.75ZM15.625 13.75C15.625 13.9158 15.5592 14.0747 15.4419 14.1919C15.3247 14.3092 15.1658 14.375 15 14.375H13.75C13.5842 14.375 13.4253 14.3092 13.3081 14.1919C13.1908 14.0747 13.125 13.9158 13.125 13.75C13.125 13.5842 13.1908 13.4253 13.3081 13.3081C13.4253 13.1908 13.5842 13.125 13.75 13.125H15C15.1658 13.125 15.3247 13.1908 15.4419 13.3081C15.5592 13.4253 15.625 13.5842 15.625 13.75ZM13.125 10.625C13.125 10.4592 13.1908 10.3003 13.3081 10.1831C13.4253 10.0658 13.5842 10 13.75 10H15C15.1658 10 15.3247 10.0658 15.4419 10.1831C15.5592 10.3003 15.625 10.4592 15.625 10.625C15.625 10.7908 15.5592 10.9497 15.4419 11.0669C15.3247 11.1842 15.1658 11.25 15 11.25H13.75C13.5842 11.25 13.4253 11.1842 13.3081 11.0669C13.1908 10.9497 13.125 10.7908 13.125 10.625Z" fill="white"/>
</svg>
