<svg width="25" height="25" viewBox="0 0 25 25" fill="none" xmlns="http://www.w3.org/2000/svg">
<path d="M20.832 12.5013C20.5816 12.5031 20.3335 12.55 20.0997 12.6398L17.6018 10.5951C17.6633 10.3721 17.707 10.1409 17.707 9.89714C17.707 8.45339 16.5466 7.29297 15.1029 7.29297C13.6591 7.29297 12.4987 8.45339 12.4987 9.89714C12.4987 10.3096 12.6029 10.694 12.7716 11.0398L9.74141 14.6211C9.62011 14.5984 9.49709 14.5862 9.3737 14.5846C9.18724 14.5846 9.0112 14.6159 8.84036 14.6617L6.17057 11.9919C6.21745 11.8221 6.2487 11.6461 6.2487 11.4596C6.2487 10.3055 5.31953 9.3763 4.16536 9.3763C3.0112 9.3763 2.08203 10.3055 2.08203 11.4596C2.08203 12.6138 3.0112 13.543 4.16536 13.543C4.35182 13.543 4.52786 13.5117 4.6987 13.4659L7.36849 16.1357C7.31842 16.3087 7.29213 16.4878 7.29036 16.668C7.29036 17.8221 8.21953 18.7513 9.3737 18.7513C10.5279 18.7513 11.457 17.8221 11.457 16.668C11.457 16.4211 11.407 16.1888 11.3289 15.969L14.3633 12.3836C14.5997 12.4523 14.8445 12.5013 15.1029 12.5013C15.514 12.499 15.9186 12.3987 16.2831 12.2086L18.782 14.2534C18.7624 14.3628 18.7513 14.4735 18.7487 14.5846C18.7487 15.7388 19.6779 16.668 20.832 16.668C21.9862 16.668 22.9154 15.7388 22.9154 14.5846C22.9154 13.4305 21.9862 12.5013 20.832 12.5013Z" fill="white"/>
</svg>
