<svg width="16" height="16" viewBox="0 0 16 16" fill="none" xmlns="http://www.w3.org/2000/svg">
<path d="M12.875 4.99952H8.5V4.33702C9.21875 4.01827 9.6375 3.55577 9.75625 2.96202C10.0125 1.62452 8.5 0.268273 8.325 0.124523C8.23678 0.0454312 8.12278 0.00117325 8.0043 2.29961e-05C7.88583 -0.00112726 7.77099 0.0409089 7.68125 0.118273C7.5 0.262023 5.94375 1.60577 6.19375 2.94952C6.30625 3.55577 6.75 4.02452 7.5 4.34327V4.99952H3.125C2.59507 5.00117 2.08732 5.21241 1.71261 5.58713C1.33789 5.96185 1.12665 6.4696 1.125 6.99952V7.83077C1.12611 8.18798 1.19792 8.54144 1.3363 8.87075C1.47467 9.20007 1.67688 9.49874 1.93125 9.74952L2 9.81202V12.9995C2 13.2647 2.10536 13.5191 2.29289 13.7066C2.48043 13.8942 2.73478 13.9995 3 13.9995H13C13.2652 13.9995 13.5196 13.8942 13.7071 13.7066C13.8946 13.5191 14 13.2647 14 12.9995V9.81202L14.0688 9.74952C14.3231 9.49874 14.5253 9.20007 14.6637 8.87075C14.8021 8.54144 14.8739 8.18798 14.875 7.83077V6.99952C14.8734 6.4696 14.6621 5.96185 14.2874 5.58713C13.9127 5.21241 13.4049 5.00117 12.875 4.99952ZM13 12.9995H3V10.387C3.25863 10.4684 3.52895 10.5064 3.8 10.4995C4.20627 10.4904 4.60493 10.3874 4.96487 10.1988C5.32481 10.0102 5.63629 9.74089 5.875 9.41202C6.11759 9.74887 6.43679 10.0232 6.80626 10.2124C7.17573 10.4017 7.58489 10.5003 8 10.5003C8.41511 10.5003 8.82427 10.4017 9.19374 10.2124C9.56321 10.0232 9.88241 9.74887 10.125 9.41202C10.3637 9.74089 10.6752 10.0102 11.0351 10.1988C11.3951 10.3874 11.7937 10.4904 12.2 10.4995H12.25C12.5042 10.4998 12.757 10.4619 13 10.387V12.9995Z" fill="#8F8F8F"/>
</svg>
