<svg width="30" height="30" viewBox="0 0 30 30" fill="none" xmlns="http://www.w3.org/2000/svg">
<g filter="url(#filter0_i_21148_64510)">
<rect width="30" height="30" rx="6" fill="url(#paint0_linear_21148_64510)"/>
<rect x="0.5" y="0.5" width="29" height="29" rx="5.5" stroke="url(#paint1_linear_21148_64510)"/>
<path d="M19.375 9.75H18.0625V9.3125C18.0625 9.19647 18.0164 9.08519 17.9344 9.00314C17.8523 8.92109 17.741 8.875 17.625 8.875C17.509 8.875 17.3977 8.92109 17.3156 9.00314C17.2336 9.08519 17.1875 9.19647 17.1875 9.3125V9.75H12.8125V9.3125C12.8125 9.19647 12.7664 9.08519 12.6844 9.00314C12.6023 8.92109 12.491 8.875 12.375 8.875C12.259 8.875 12.1477 8.92109 12.0656 9.00314C11.9836 9.08519 11.9375 9.19647 11.9375 9.3125V9.75H10.625C10.3929 9.75 10.1704 9.84219 10.0063 10.0063C9.84219 10.1704 9.75 10.3929 9.75 10.625V19.375C9.75 19.6071 9.84219 19.8296 10.0063 19.9937C10.1704 20.1578 10.3929 20.25 10.625 20.25H19.375C19.6071 20.25 19.8296 20.1578 19.9937 19.9937C20.1578 19.8296 20.25 19.6071 20.25 19.375V10.625C20.25 10.3929 20.1578 10.1704 19.9937 10.0063C19.8296 9.84219 19.6071 9.75 19.375 9.75ZM13.6875 18.2812C13.3393 18.2809 13.0053 18.1434 12.7578 17.8984C12.676 17.8164 12.63 17.7053 12.63 17.5895C12.63 17.4736 12.676 17.3625 12.7578 17.2805C12.7981 17.2393 12.8461 17.2066 12.8992 17.1842C12.9522 17.1619 13.0092 17.1504 13.0668 17.1504C13.1244 17.1504 13.1814 17.1619 13.2344 17.1842C13.2875 17.2066 13.3355 17.2393 13.3758 17.2805C13.4598 17.3607 13.5713 17.4058 13.6875 17.4062C13.8035 17.4062 13.9148 17.3602 13.9969 17.2781C14.0789 17.1961 14.125 17.0848 14.125 16.9688C14.125 16.8527 14.0789 16.7414 13.9969 16.6594C13.9148 16.5773 13.8035 16.5312 13.6875 16.5312H13.5508L13.5289 16.5203H13.5125L13.4852 16.5094H13.4797L13.4469 16.4875H13.4359L13.4141 16.4711L13.3922 16.4547L13.3813 16.4437L13.3648 16.4273C13.3362 16.3944 13.3123 16.3576 13.2938 16.318C13.278 16.2889 13.267 16.2575 13.2609 16.225C13.2555 16.2195 13.2555 16.2141 13.2555 16.2031C13.2557 16.2002 13.2554 16.1972 13.2544 16.1944C13.2535 16.1915 13.252 16.1889 13.25 16.1867V16.0555C13.25 16.0445 13.2555 16.0391 13.2555 16.0336V16.0117C13.2598 16.0053 13.2618 15.9976 13.2609 15.9898C13.2664 15.9844 13.2664 15.9789 13.2664 15.968L13.2773 15.9516C13.2773 15.9406 13.2773 15.9352 13.2828 15.9297L13.2938 15.9078V15.8914L13.3047 15.8695L13.3156 15.8531L13.332 15.8312L13.343 15.8203L13.6492 15.4375H13.0312C12.9152 15.4375 12.8039 15.3914 12.7219 15.3094C12.6398 15.2273 12.5938 15.116 12.5938 15C12.5938 14.884 12.6398 14.7727 12.7219 14.6906C12.8039 14.6086 12.9152 14.5625 13.0312 14.5625H14.5625C14.6447 14.563 14.7251 14.5866 14.7945 14.6306C14.864 14.6747 14.9195 14.7375 14.9549 14.8117C14.9903 14.8859 15.0041 14.9686 14.9947 15.0502C14.9852 15.1319 14.9529 15.2093 14.9016 15.2734L14.4203 15.8805C14.6533 16.0376 14.8298 16.2653 14.9237 16.5302C15.0176 16.7951 15.024 17.0831 14.9419 17.3519C14.8599 17.6207 14.6937 17.8561 14.4679 18.0234C14.2421 18.1907 13.9685 18.2811 13.6875 18.2812ZM17.1875 17.8438C17.1875 17.9598 17.1414 18.0711 17.0594 18.1531C16.9773 18.2352 16.866 18.2812 16.75 18.2812C16.634 18.2812 16.5227 18.2352 16.4406 18.1531C16.3586 18.0711 16.3125 17.9598 16.3125 17.8438V15.875L16.1375 16.0062C16.0442 16.0745 15.9279 16.1035 15.8134 16.0872C15.699 16.0708 15.5955 16.0104 15.525 15.9188C15.4554 15.8259 15.4255 15.7092 15.4419 15.5944C15.4583 15.4795 15.5197 15.3759 15.6125 15.3063L16.4875 14.65C16.5525 14.6013 16.6298 14.5716 16.7107 14.5643C16.7916 14.557 16.873 14.5724 16.9457 14.6087C17.0183 14.645 17.0794 14.7009 17.1222 14.77C17.1649 14.8391 17.1875 14.9188 17.1875 15V17.8438ZM19.375 12.375H10.625V10.625H11.9375V11.0625C11.9375 11.1785 11.9836 11.2898 12.0656 11.3719C12.1477 11.4539 12.259 11.5 12.375 11.5C12.491 11.5 12.6023 11.4539 12.6844 11.3719C12.7664 11.2898 12.8125 11.1785 12.8125 11.0625V10.625H17.1875V11.0625C17.1875 11.1785 17.2336 11.2898 17.3156 11.3719C17.3977 11.4539 17.509 11.5 17.625 11.5C17.741 11.5 17.8523 11.4539 17.9344 11.3719C18.0164 11.2898 18.0625 11.1785 18.0625 11.0625V10.625H19.375V12.375Z" fill="#F5FFF9"/>
</g>
<defs>
<filter id="filter0_i_21148_64510" x="0" y="0" width="30" height="33" filterUnits="userSpaceOnUse" color-interpolation-filters="sRGB">
<feFlood flood-opacity="0" result="BackgroundImageFix"/>
<feBlend mode="normal" in="SourceGraphic" in2="BackgroundImageFix" result="shape"/>
<feColorMatrix in="SourceAlpha" type="matrix" values="0 0 0 0 0 0 0 0 0 0 0 0 0 0 0 0 0 0 127 0" result="hardAlpha"/>
<feOffset dy="3"/>
<feGaussianBlur stdDeviation="2.5"/>
<feComposite in2="hardAlpha" operator="arithmetic" k2="-1" k3="1"/>
<feColorMatrix type="matrix" values="0 0 0 0 0.137255 0 0 0 0 0.137255 0 0 0 0 0.137255 0 0 0 1 0"/>
<feBlend mode="normal" in2="shape" result="effect1_innerShadow_21148_64510"/>
</filter>
<linearGradient id="paint0_linear_21148_64510" x1="15" y1="30" x2="15" y2="0" gradientUnits="userSpaceOnUse">
<stop offset="0.72" stop-color="#0F0F0F"/>
<stop offset="1" stop-color="#1A1A1A"/>
</linearGradient>
<linearGradient id="paint1_linear_21148_64510" x1="15" y1="30" x2="15" y2="0" gradientUnits="userSpaceOnUse">
<stop stop-color="white" stop-opacity="0.06"/>
<stop offset="1" stop-color="white" stop-opacity="0.06"/>
</linearGradient>
</defs>
</svg>
