<svg width="21" height="20" viewBox="0 0 21 20" fill="none" xmlns="http://www.w3.org/2000/svg">
<path d="M16.5835 2.5H14.7085V1.875C14.7085 1.70924 14.6426 1.55027 14.5254 1.43306C14.4082 1.31585 14.2493 1.25 14.0835 1.25C13.9177 1.25 13.7588 1.31585 13.6416 1.43306C13.5243 1.55027 13.4585 1.70924 13.4585 1.875V2.5H7.2085V1.875C7.2085 1.70924 7.14265 1.55027 7.02544 1.43306C6.90823 1.31585 6.74926 1.25 6.5835 1.25C6.41774 1.25 6.25876 1.31585 6.14155 1.43306C6.02434 1.55027 5.9585 1.70924 5.9585 1.875V2.5H4.0835C3.75198 2.5 3.43403 2.6317 3.19961 2.86612C2.96519 3.10054 2.8335 3.41848 2.8335 3.75V16.25C2.8335 16.5815 2.96519 16.8995 3.19961 17.1339C3.43403 17.3683 3.75198 17.5 4.0835 17.5H16.5835C16.915 17.5 17.233 17.3683 17.4674 17.1339C17.7018 16.8995 17.8335 16.5815 17.8335 16.25V3.75C17.8335 3.41848 17.7018 3.10054 17.4674 2.86612C17.233 2.6317 16.915 2.5 16.5835 2.5ZM12.6538 13.3047C12.7712 13.4232 12.837 13.5832 12.837 13.75C12.837 13.9168 12.7712 14.0768 12.6538 14.1953C12.533 14.3087 12.3742 14.3727 12.2085 14.375C12.0425 14.3743 11.8832 14.31 11.7632 14.1953L10.3335 12.7578L8.90381 14.1953C8.78298 14.3087 8.62415 14.3727 8.4585 14.375C8.29253 14.3743 8.13316 14.31 8.01318 14.1953C7.89582 14.0768 7.82998 13.9168 7.82998 13.75C7.82998 13.5832 7.89582 13.4232 8.01318 13.3047L9.45068 11.875L8.01318 10.4453C7.91352 10.3239 7.86259 10.1697 7.87029 10.0128C7.878 9.8559 7.94379 9.70747 8.05488 9.59638C8.16596 9.4853 8.31439 9.4195 8.4713 9.4118C8.62821 9.40409 8.78237 9.45502 8.90381 9.55469L10.3335 10.9922L11.7632 9.55469C11.8846 9.45502 12.0388 9.40409 12.1957 9.4118C12.3526 9.4195 12.501 9.4853 12.6121 9.59638C12.7232 9.70747 12.789 9.8559 12.7967 10.0128C12.8044 10.1697 12.7535 10.3239 12.6538 10.4453L11.2163 11.875L12.6538 13.3047ZM16.5835 6.25H4.0835V3.75H5.9585V4.375C5.9585 4.54076 6.02434 4.69973 6.14155 4.81694C6.25876 4.93415 6.41774 5 6.5835 5C6.74926 5 6.90823 4.93415 7.02544 4.81694C7.14265 4.69973 7.2085 4.54076 7.2085 4.375V3.75H13.4585V4.375C13.4585 4.54076 13.5243 4.69973 13.6416 4.81694C13.7588 4.93415 13.9177 5 14.0835 5C14.2493 5 14.4082 4.93415 14.5254 4.81694C14.6426 4.69973 14.7085 4.54076 14.7085 4.375V3.75H16.5835V6.25Z" fill="#00A849"/>
</svg>
