<svg width="20" height="20" viewBox="0 0 20 20" fill="none" xmlns="http://www.w3.org/2000/svg">
<path d="M16.25 2.5H14.375V1.875C14.375 1.70924 14.3092 1.55027 14.1919 1.43306C14.0747 1.31585 13.9158 1.25 13.75 1.25C13.5842 1.25 13.4253 1.31585 13.3081 1.43306C13.1908 1.55027 13.125 1.70924 13.125 1.875V2.5H6.875V1.875C6.875 1.70924 6.80915 1.55027 6.69194 1.43306C6.57473 1.31585 6.41576 1.25 6.25 1.25C6.08424 1.25 5.92527 1.31585 5.80806 1.43306C5.69085 1.55027 5.625 1.70924 5.625 1.875V2.5H3.75C3.41848 2.5 3.10054 2.6317 2.86612 2.86612C2.6317 3.10054 2.5 3.41848 2.5 3.75V16.25C2.5 16.5815 2.6317 16.8995 2.86612 17.1339C3.10054 17.3683 3.41848 17.5 3.75 17.5H16.25C16.5815 17.5 16.8995 17.3683 17.1339 17.1339C17.3683 16.8995 17.5 16.5815 17.5 16.25V3.75C17.5 3.41848 17.3683 3.10054 17.1339 2.86612C16.8995 2.6317 16.5815 2.5 16.25 2.5ZM8.125 14.6875C7.62759 14.687 7.15041 14.4905 6.79688 14.1406C6.67999 14.0235 6.61435 13.8647 6.61435 13.6992C6.61435 13.5337 6.67999 13.375 6.79688 13.2578C6.85436 13.199 6.92302 13.1523 6.99882 13.1203C7.07462 13.0884 7.15604 13.072 7.23828 13.072C7.32053 13.072 7.40194 13.0884 7.47774 13.1203C7.55354 13.1523 7.6222 13.199 7.67969 13.2578C7.79966 13.3725 7.95904 13.4368 8.125 13.4375C8.29076 13.4375 8.44973 13.3717 8.56694 13.2544C8.68415 13.1372 8.75 12.9783 8.75 12.8125C8.75 12.6467 8.68415 12.4878 8.56694 12.3706C8.44973 12.2533 8.29076 12.1875 8.125 12.1875H7.92969L7.89844 12.1719H7.875L7.83594 12.1562H7.82812L7.78125 12.125H7.76562L7.73438 12.1016L7.70312 12.0781L7.6875 12.0625L7.66406 12.0391C7.62311 11.992 7.58893 11.9394 7.5625 11.8828C7.54005 11.8413 7.52423 11.7964 7.51562 11.75C7.50781 11.7422 7.50781 11.7344 7.50781 11.7188C7.50817 11.7145 7.50766 11.7103 7.50632 11.7062C7.50498 11.7022 7.50283 11.6985 7.5 11.6953V11.5078C7.5 11.4922 7.50781 11.4844 7.50781 11.4766V11.4453C7.51403 11.4361 7.51679 11.4251 7.51562 11.4141C7.52344 11.4062 7.52344 11.3984 7.52344 11.3828L7.53906 11.3594C7.53906 11.3437 7.53906 11.3359 7.54688 11.3281L7.5625 11.2969V11.2734L7.57812 11.2422L7.59375 11.2188L7.61719 11.1875L7.63281 11.1719L8.07031 10.625H7.1875C7.02174 10.625 6.86277 10.5592 6.74556 10.4419C6.62835 10.3247 6.5625 10.1658 6.5625 10C6.5625 9.83424 6.62835 9.67527 6.74556 9.55806C6.86277 9.44085 7.02174 9.375 7.1875 9.375H9.375C9.49245 9.37566 9.60734 9.4094 9.70649 9.47235C9.80565 9.53531 9.88506 9.62493 9.93562 9.73094C9.98618 9.83696 10.0058 9.95507 9.99236 10.0717C9.97887 10.1884 9.93278 10.2989 9.85938 10.3906L9.17188 11.2578C9.50477 11.4822 9.75684 11.8076 9.89099 12.186C10.0251 12.5644 10.0343 12.9759 9.91707 13.3599C9.79986 13.7439 9.56248 14.0801 9.23988 14.3191C8.91728 14.5581 8.52648 14.6872 8.125 14.6875ZM13.125 14.0625C13.125 14.2283 13.0592 14.3872 12.9419 14.5044C12.8247 14.6217 12.6658 14.6875 12.5 14.6875C12.3342 14.6875 12.1753 14.6217 12.0581 14.5044C11.9408 14.3872 11.875 14.2283 11.875 14.0625V11.25L11.625 11.4375C11.4917 11.535 11.3255 11.5764 11.1621 11.5531C10.9986 11.5297 10.8507 11.4434 10.75 11.3125C10.6505 11.1799 10.6078 11.0132 10.6313 10.8491C10.6547 10.685 10.7424 10.537 10.875 10.4375L12.125 9.5C12.2179 9.43036 12.3283 9.38795 12.4439 9.37753C12.5595 9.3671 12.6757 9.38908 12.7795 9.44098C12.8833 9.49289 12.9706 9.57268 13.0317 9.67142C13.0927 9.77015 13.125 9.88393 13.125 10V14.0625ZM16.25 6.25H3.75V3.75H5.625V4.375C5.625 4.54076 5.69085 4.69973 5.80806 4.81694C5.92527 4.93415 6.08424 5 6.25 5C6.41576 5 6.57473 4.93415 6.69194 4.81694C6.80915 4.69973 6.875 4.54076 6.875 4.375V3.75H13.125V4.375C13.125 4.54076 13.1908 4.69973 13.3081 4.81694C13.4253 4.93415 13.5842 5 13.75 5C13.9158 5 14.0747 4.93415 14.1919 4.81694C14.3092 4.69973 14.375 4.54076 14.375 4.375V3.75H16.25V6.25Z" fill="white"/>
</svg>
