<svg width="21" height="20" viewBox="0 0 21 20" fill="none" xmlns="http://www.w3.org/2000/svg">
<path d="M16.917 2.5H15.042V1.875C15.042 1.70924 14.9761 1.55027 14.8589 1.43306C14.7417 1.31585 14.5828 1.25 14.417 1.25C14.2512 1.25 14.0923 1.31585 13.975 1.43306C13.8578 1.55027 13.792 1.70924 13.792 1.875V2.5H7.54199V1.875C7.54199 1.70924 7.47614 1.55027 7.35893 1.43306C7.24172 1.31585 7.08275 1.25 6.91699 1.25C6.75123 1.25 6.59226 1.31585 6.47505 1.43306C6.35784 1.55027 6.29199 1.70924 6.29199 1.875V2.5H4.41699C4.08547 2.5 3.76753 2.6317 3.53311 2.86612C3.29869 3.10054 3.16699 3.41848 3.16699 3.75V16.25C3.16699 16.5815 3.29869 16.8995 3.53311 17.1339C3.76753 17.3683 4.08547 17.5 4.41699 17.5H16.917C17.2485 17.5 17.5665 17.3683 17.8009 17.1339C18.0353 16.8995 18.167 16.5815 18.167 16.25V3.75C18.167 3.41848 18.0353 3.10054 17.8009 2.86612C17.5665 2.6317 17.2485 2.5 16.917 2.5ZM13.9092 10.4531L10.2607 13.8906C10.204 13.9462 10.1368 13.99 10.0631 14.0195C9.98934 14.049 9.91048 14.0636 9.83105 14.0625C9.67095 14.0631 9.51688 14.0015 9.40137 13.8906L7.4248 12.0156C7.36131 11.9602 7.30968 11.8926 7.273 11.8167C7.23633 11.7409 7.21537 11.6584 7.21139 11.5742C7.20741 11.49 7.22048 11.4059 7.24983 11.327C7.27918 11.248 7.3242 11.1758 7.38218 11.1146C7.44015 11.0535 7.50989 11.0047 7.58721 10.9712C7.66452 10.9377 7.7478 10.9202 7.83206 10.9197C7.91632 10.9192 7.9998 10.9357 8.0775 10.9683C8.15519 11.0009 8.2255 11.0489 8.28418 11.1094L9.83105 12.5781L13.0498 9.54688C13.1088 9.48955 13.1787 9.44461 13.2554 9.4147C13.332 9.38479 13.4139 9.3705 13.4961 9.37268C13.5784 9.37487 13.6594 9.39348 13.7343 9.42741C13.8093 9.46135 13.8767 9.50994 13.9326 9.57031C14.0464 9.69055 14.1079 9.85105 14.1035 10.0166C14.0991 10.1821 14.0292 10.3391 13.9092 10.4531ZM16.917 6.25H4.41699V3.75H6.29199V4.375C6.29199 4.54076 6.35784 4.69973 6.47505 4.81694C6.59226 4.93415 6.75123 5 6.91699 5C7.08275 5 7.24172 4.93415 7.35893 4.81694C7.47614 4.69973 7.54199 4.54076 7.54199 4.375V3.75H13.792V4.375C13.792 4.54076 13.8578 4.69973 13.975 4.81694C14.0923 4.93415 14.2512 5 14.417 5C14.5828 5 14.7417 4.93415 14.8589 4.81694C14.9761 4.69973 15.042 4.54076 15.042 4.375V3.75H16.917V6.25Z" fill="#00A849"/>
</svg>
