<svg width="21" height="20" viewBox="0 0 21 20" fill="none" xmlns="http://www.w3.org/2000/svg">
<path d="M16.9165 2.5H15.0415V1.875C15.0415 1.70924 14.9757 1.55027 14.8584 1.43306C14.7412 1.31585 14.5823 1.25 14.4165 1.25C14.2507 1.25 14.0918 1.31585 13.9746 1.43306C13.8574 1.55027 13.7915 1.70924 13.7915 1.875V2.5H7.5415V1.875C7.5415 1.70924 7.47566 1.55027 7.35845 1.43306C7.24124 1.31585 7.08226 1.25 6.9165 1.25C6.75074 1.25 6.59177 1.31585 6.47456 1.43306C6.35735 1.55027 6.2915 1.70924 6.2915 1.875V2.5H4.4165C4.08498 2.5 3.76704 2.6317 3.53262 2.86612C3.2982 3.10054 3.1665 3.41848 3.1665 3.75V16.25C3.1665 16.5815 3.2982 16.8995 3.53262 17.1339C3.76704 17.3683 4.08498 17.5 4.4165 17.5H16.9165C17.248 17.5 17.566 17.3683 17.8004 17.1339C18.0348 16.8995 18.1665 16.5815 18.1665 16.25V3.75C18.1665 3.41848 18.0348 3.10054 17.8004 2.86612C17.566 2.6317 17.248 2.5 16.9165 2.5ZM13.9087 10.4531L10.2603 13.8906C10.2035 13.9462 10.1363 13.99 10.0626 14.0195C9.98885 14.049 9.90999 14.0636 9.83057 14.0625C9.67047 14.0631 9.51639 14.0015 9.40088 13.8906L7.42432 12.0156C7.36083 11.9602 7.30919 11.8926 7.27252 11.8167C7.23584 11.7409 7.21488 11.6584 7.2109 11.5742C7.20692 11.49 7.22 11.4059 7.24934 11.327C7.27869 11.248 7.32371 11.1758 7.38169 11.1146C7.43966 11.0535 7.5094 11.0047 7.58672 10.9712C7.66403 10.9377 7.74732 10.9202 7.83157 10.9197C7.91583 10.9192 7.99931 10.9357 8.07701 10.9683C8.15471 11.0009 8.22501 11.0489 8.28369 11.1094L9.83057 12.5781L13.0493 9.54688C13.1083 9.48955 13.1782 9.44461 13.2549 9.4147C13.3315 9.38479 13.4134 9.3705 13.4957 9.37268C13.5779 9.37487 13.6589 9.39348 13.7339 9.42741C13.8088 9.46135 13.8762 9.50994 13.9321 9.57031C14.046 9.69055 14.1074 9.85105 14.103 10.0166C14.0986 10.1821 14.0287 10.3391 13.9087 10.4531ZM16.9165 6.25H4.4165V3.75H6.2915V4.375C6.2915 4.54076 6.35735 4.69973 6.47456 4.81694C6.59177 4.93415 6.75074 5 6.9165 5C7.08226 5 7.24124 4.93415 7.35845 4.81694C7.47566 4.69973 7.5415 4.54076 7.5415 4.375V3.75H13.7915V4.375C13.7915 4.54076 13.8574 4.69973 13.9746 4.81694C14.0918 4.93415 14.2507 5 14.4165 5C14.5823 5 14.7412 4.93415 14.8584 4.81694C14.9757 4.69973 15.0415 4.54076 15.0415 4.375V3.75H16.9165V6.25Z" fill="#D9D9D9"/>
</svg>
