<svg width="20" height="20" viewBox="0 0 20 20" fill="none" xmlns="http://www.w3.org/2000/svg">
<path d="M12.5023 17.1891C12.2538 17.1881 12.0155 17.0899 11.8382 16.9157L5.58824 10.6657C5.50084 10.5786 5.43149 10.4751 5.38417 10.3611C5.33686 10.2472 5.3125 10.125 5.3125 10.0016C5.3125 9.87824 5.33686 9.75606 5.38417 9.64211C5.43149 9.52815 5.50084 9.42466 5.58824 9.33756L11.8382 3.08756C12.0144 2.91144 12.2532 2.8125 12.5023 2.8125C12.6256 2.8125 12.7478 2.83679 12.8617 2.88399C12.9756 2.93118 13.0792 3.00036 13.1664 3.08756C13.2536 3.17477 13.3227 3.2783 13.3699 3.39224C13.4171 3.50618 13.4414 3.6283 13.4414 3.75163C13.4414 3.87495 13.4171 3.99707 13.3699 4.11101C13.3227 4.22495 13.2536 4.32848 13.1664 4.41569L7.58043 10.0016L13.1664 15.5876C13.2538 15.6747 13.3231 15.7782 13.3704 15.8921C13.4177 16.0061 13.4421 16.1282 13.4421 16.2516C13.4421 16.375 13.4177 16.4972 13.3704 16.6111C13.3231 16.7251 13.2538 16.8286 13.1664 16.9157C12.9891 17.0899 12.7508 17.1881 12.5023 17.1891Z" fill="#E6E6E6"/>
</svg>
