<svg width="28" height="28" viewBox="0 0 28 28" fill="none" xmlns="http://www.w3.org/2000/svg">
<path opacity="0.2" d="M11.2266 13.7511C11.8697 15.0793 12.9437 16.1505 14.2734 16.7902C14.3715 16.8366 14.48 16.8567 14.5882 16.8485C14.6965 16.8403 14.8007 16.804 14.8906 16.7433L16.8437 15.4386C16.93 15.3801 17.0298 15.3444 17.1336 15.3348C17.2374 15.3253 17.342 15.3422 17.4375 15.3839L21.0937 16.9543C21.2187 17.0063 21.3231 17.0979 21.3909 17.2151C21.4586 17.3322 21.486 17.4684 21.4687 17.6027C21.3529 18.5072 20.9114 19.3384 20.2269 19.9409C19.5424 20.5435 18.6619 20.8759 17.75 20.8761C14.9321 20.8761 12.2296 19.7567 10.237 17.7641C8.24442 15.7716 7.125 13.0691 7.125 10.2511C7.12521 9.33925 7.45767 8.45869 8.06018 7.77421C8.66268 7.08974 9.49395 6.64826 10.3984 6.53237C10.5327 6.51513 10.6689 6.54249 10.7861 6.61025C10.9032 6.67802 10.9949 6.78241 11.0469 6.90737L12.6172 10.5714C12.658 10.6655 12.6751 10.7681 12.6669 10.8703C12.6588 10.9724 12.6256 11.071 12.5703 11.1574L11.2656 13.1417C11.2075 13.2315 11.1734 13.3347 11.1666 13.4413C11.1598 13.548 11.1804 13.6547 11.2266 13.7511Z" fill="white"/>
<path d="M21.3437 16.3749L17.6797 14.8124C17.4906 14.7277 17.2831 14.6926 17.0767 14.7103C16.8703 14.7281 16.6718 14.7982 16.5 14.914L14.5391 16.2187C13.3439 15.6382 12.3763 14.6761 11.7891 13.4843L13.0859 11.4999C13.201 11.328 13.2712 11.13 13.2903 10.924C13.3094 10.718 13.2768 10.5104 13.1953 10.3203L11.625 6.6562C11.5154 6.40878 11.3299 6.20271 11.0953 6.06785C10.8607 5.933 10.5893 5.87638 10.3203 5.9062C9.26531 6.0444 8.29638 6.56102 7.59369 7.35999C6.891 8.15896 6.50235 9.18593 6.5 10.2499C6.5 16.4531 11.5469 21.4999 17.75 21.4999C18.814 21.4976 19.841 21.1089 20.64 20.4063C21.4389 19.7036 21.9555 18.7346 22.0937 17.6796C22.1236 17.4107 22.0669 17.1392 21.9321 16.9046C21.7972 16.6701 21.5912 16.4845 21.3437 16.3749ZM17.75 20.2499C15.0985 20.2479 12.5561 19.1936 10.6812 17.3187C8.8063 15.4438 7.75207 12.9015 7.75 10.2499C7.7495 9.4898 8.02608 8.75553 8.52796 8.18462C9.02985 7.61371 9.72262 7.2453 10.4766 7.14838L12.0469 10.8124L10.7422 12.7968C10.6246 12.9772 10.5557 13.1849 10.542 13.3998C10.5283 13.6147 10.5703 13.8295 10.6641 14.0234C11.3749 15.4756 12.5523 16.6474 14.0078 17.3515C14.2023 17.4441 14.4175 17.4848 14.6324 17.4698C14.8473 17.4547 15.0547 17.3844 15.2344 17.2656L17.1875 15.9609L20.8516 17.5234C20.7546 18.2773 20.3862 18.9701 19.8153 19.472C19.2444 19.9739 18.5101 20.2504 17.75 20.2499ZM16.2969 7.72651C17.2482 7.98642 18.1153 8.48989 18.8127 9.18724C19.5101 9.8846 20.0135 10.7517 20.2734 11.7031C20.3079 11.8366 20.3856 11.955 20.4944 12.0398C20.6032 12.1246 20.7371 12.171 20.875 12.1718C20.9305 12.1717 20.9857 12.1638 21.0391 12.1484C21.1185 12.1276 21.193 12.0912 21.2582 12.0412C21.3234 11.9913 21.378 11.9288 21.4187 11.8575C21.4594 11.7862 21.4855 11.7075 21.4955 11.626C21.5054 11.5444 21.499 11.4618 21.4766 11.3828C21.1641 10.2177 20.5506 9.1553 19.6976 8.30234C18.8446 7.44939 17.7823 6.83586 16.6172 6.52338C16.5357 6.49368 16.4488 6.48128 16.3623 6.48697C16.2757 6.49266 16.1912 6.51632 16.1143 6.55643C16.0374 6.59655 15.9696 6.65224 15.9154 6.71997C15.8611 6.7877 15.8216 6.86598 15.7993 6.94983C15.777 7.03368 15.7723 7.12126 15.7857 7.20699C15.7991 7.29272 15.8302 7.37472 15.877 7.44778C15.9238 7.52084 15.9853 7.58336 16.0576 7.63134C16.1299 7.67933 16.2114 7.71174 16.2969 7.72651ZM15.6484 10.1406C16.1773 10.2853 16.6592 10.5653 17.0469 10.953C17.4346 11.3407 17.7146 11.8227 17.8594 12.3515C17.8926 12.4857 17.97 12.6049 18.0791 12.6899C18.1882 12.7749 18.3226 12.8208 18.4609 12.8203C18.5139 12.8208 18.5667 12.8129 18.6172 12.7968C18.6973 12.7769 18.7727 12.7411 18.8387 12.6915C18.9048 12.6419 18.9602 12.5796 19.0018 12.5082C19.0433 12.4368 19.0701 12.3578 19.0805 12.2758C19.0909 12.1939 19.0848 12.1107 19.0625 12.0312C18.8652 11.2886 18.4751 10.6114 17.9318 10.0681C17.3886 9.5248 16.7113 9.13475 15.9687 8.93745C15.8872 8.90774 15.8004 8.89534 15.7138 8.90103C15.6272 8.90672 15.5428 8.93038 15.4659 8.9705C15.3889 9.01061 15.3212 9.06631 15.2669 9.13404C15.2127 9.20177 15.1732 9.28005 15.1508 9.36389C15.1285 9.44774 15.1239 9.53532 15.1373 9.62105C15.1507 9.70678 15.1817 9.78878 15.2285 9.86185C15.2754 9.93491 15.3369 9.99742 15.4092 10.0454C15.4814 10.0934 15.5629 10.1258 15.6484 10.1406Z" fill="white"/>
</svg>
