<svg width="16" height="16" viewBox="0 0 16 16" fill="none" xmlns="http://www.w3.org/2000/svg">
<path d="M14.5 6C14.5 5.73478 14.3946 5.48043 14.2071 5.29289C14.0196 5.10536 13.7652 5 13.5 5H11.5V3C11.5 2.73478 11.3946 2.48043 11.2071 2.29289C11.0196 2.10536 10.7652 2 10.5 2H2.5C2.23479 2 1.98043 2.10536 1.7929 2.29289C1.60536 2.48043 1.5 2.73478 1.5 3V11C1.49974 11.0947 1.5267 11.1874 1.57767 11.2672C1.62864 11.347 1.70148 11.4105 1.7875 11.45C1.85386 11.4819 1.92638 11.499 2 11.5C2.11422 11.5008 2.22499 11.4609 2.3125 11.3875L4.5 9.625V11.5C4.5 11.7652 4.60536 12.0196 4.7929 12.2071C4.98043 12.3946 5.23479 12.5 5.5 12.5H11.35L13.6875 14.3875C13.7597 14.4473 13.8477 14.485 13.9408 14.4961C14.0339 14.5072 14.1283 14.4912 14.2125 14.45C14.2985 14.4105 14.3714 14.347 14.4223 14.2672C14.4733 14.1874 14.5003 14.0947 14.5 14V6ZM4.1625 8.6125L2.5 9.95V3H10.5V8.5H4.475C4.36079 8.49923 4.25002 8.5391 4.1625 8.6125ZM11.8375 11.6125C11.75 11.5391 11.6392 11.4992 11.525 11.5H5.5V9.5H10.5C10.7652 9.5 11.0196 9.39464 11.2071 9.20711C11.3946 9.01957 11.5 8.76522 11.5 8.5V6H13.5V12.95L11.8375 11.6125Z" fill="white"/>
</svg>
