<svg width="11" height="12" viewBox="0 0 11 12" fill="none" xmlns="http://www.w3.org/2000/svg">
<path d="M5.5 10.5C6.09095 10.5 6.67611 10.3836 7.22207 10.1575C7.76804 9.93131 8.26412 9.59984 8.68198 9.18198C9.09984 8.76412 9.43131 8.26804 9.65746 7.72207C9.8836 7.17611 10 6.59095 10 6C10 5.40905 9.8836 4.82389 9.65746 4.27792C9.43131 3.73196 9.09984 3.23588 8.68198 2.81802C8.26412 2.40016 7.76804 2.06869 7.22207 1.84254C6.67611 1.6164 6.09095 1.5 5.5 1.5C4.30653 1.5 3.16193 1.97411 2.31802 2.81802C1.47411 3.66193 1 4.80653 1 6C1 7.19347 1.47411 8.33807 2.31802 9.18198C3.16193 10.0259 4.30653 10.5 5.5 10.5ZM11 6C11 9.0375 8.5375 11.5 5.5 11.5C2.4625 11.5 0 9.0375 0 6C0 2.9625 2.4625 0.5 5.5 0.5C8.5375 0.5 11 2.9625 11 6ZM7 8.207L5 6.207V2.75H6V5.793L7.707 7.5L7 8.207Z" fill="#E6E6E6" fill-opacity="0.6"/>
</svg>
