<svg width="28" height="28" viewBox="0 0 28 28" fill="none" xmlns="http://www.w3.org/2000/svg">
<path d="M20.2894 18.9626C20.3768 19.0497 20.4462 19.1532 20.4935 19.2671C20.5408 19.3811 20.5652 19.5032 20.5652 19.6266C20.5652 19.75 20.5408 19.8722 20.4935 19.9861C20.4462 20.1001 20.3768 20.2036 20.2894 20.2907C20.1125 20.4653 19.8739 20.5632 19.6253 20.5632C19.3768 20.5632 19.1382 20.4653 18.9613 20.2907L14.0003 15.3298L9.03941 20.2907C8.8625 20.4653 8.62393 20.5632 8.37535 20.5632C8.12677 20.5632 7.8882 20.4653 7.71129 20.2907C7.62389 20.2036 7.55454 20.1001 7.50722 19.9861C7.4599 19.8722 7.43555 19.75 7.43555 19.6266C7.43555 19.5032 7.4599 19.3811 7.50722 19.2671C7.55454 19.1532 7.62389 19.0497 7.71129 18.9626L12.6722 14.0016L7.71129 9.04069C7.53517 8.86457 7.43622 8.6257 7.43622 8.37663C7.43622 8.2533 7.46051 8.13118 7.50771 8.01724C7.5549 7.9033 7.62408 7.79977 7.71129 7.71256C7.79849 7.62536 7.90202 7.55618 8.01596 7.50899C8.1299 7.46179 8.25202 7.4375 8.37535 7.4375C8.62442 7.4375 8.86329 7.53644 9.03941 7.71256L14.0003 12.6735L18.9613 7.71256C19.1374 7.53644 19.3763 7.4375 19.6253 7.4375C19.8744 7.4375 20.1133 7.53644 20.2894 7.71256C20.4655 7.88868 20.5645 8.12755 20.5645 8.37663C20.5645 8.6257 20.4655 8.86457 20.2894 9.04069L15.3285 14.0016L20.2894 18.9626Z" fill="#E6E6E6"/>
</svg>
