<svg width="28" height="28" viewBox="0 0 28 28" fill="none" xmlns="http://www.w3.org/2000/svg">
<path fill-rule="evenodd" clip-rule="evenodd" d="M21.068 10.9173C21.4805 11.8615 21.7096 12.904 21.7096 13.9998C21.7096 18.254 18.2555 21.7082 14.0013 21.7082C9.74714 21.7082 6.29297 18.254 6.29297 13.9998C6.29297 9.74567 9.74714 6.2915 14.0013 6.2915C14.3463 6.2915 14.6263 6.0115 14.6263 5.6665C14.6263 5.3215 14.3463 5.0415 14.0013 5.0415C9.05714 5.0415 5.04297 9.05567 5.04297 13.9998C5.04297 18.944 9.05714 22.9582 14.0013 22.9582C18.9455 22.9582 22.9596 18.944 22.9596 13.9998C22.9596 12.7257 22.693 11.514 22.213 10.4157C22.0746 10.0998 21.7055 9.95567 21.3896 10.094C21.0738 10.2323 20.9296 10.6007 21.068 10.9173Z" fill="white"/>
<path fill-rule="evenodd" clip-rule="evenodd" d="M18.1691 5.0415C16.5858 5.0415 15.3008 6.3265 15.3008 7.90984C15.3008 8.40484 15.5249 9.00734 15.8716 9.59567C16.5674 10.7798 17.7274 11.9415 17.7274 11.9415C17.9716 12.1857 18.3666 12.1857 18.6108 11.9415C18.6108 11.9415 19.7708 10.7798 20.4666 9.59567C20.8133 9.00734 21.0374 8.40484 21.0374 7.90984C21.0374 6.3265 19.7524 5.0415 18.1691 5.0415ZM18.1691 6.2915C19.0624 6.2915 19.7874 7.0165 19.7874 7.90984C19.7874 8.34984 19.4599 8.89067 19.1083 9.40067C18.7941 9.85567 18.4399 10.279 18.1691 10.584C17.8983 10.279 17.5441 9.85567 17.2299 9.40067C16.8783 8.89067 16.5508 8.34984 16.5508 7.90984C16.5508 7.0165 17.2758 6.2915 18.1691 6.2915Z" fill="white"/>
<path fill-rule="evenodd" clip-rule="evenodd" d="M5.33705 14.5299L8.06206 16.2333C8.55872 16.5433 9.13289 16.7083 9.71789 16.7083H10.3512C10.8987 16.7083 11.4187 16.9474 11.7754 17.3633L12.6512 18.3858C13.0612 18.8641 13.2037 19.5158 13.0312 20.1208C12.8079 20.9008 12.5671 21.7449 12.5671 21.7449C12.4721 22.0766 12.6646 22.4224 12.9962 22.5174C13.3279 22.6124 13.6737 22.4199 13.7687 22.0883C13.7687 22.0883 14.0096 21.2441 14.2329 20.4641C14.5212 19.4558 14.2837 18.3691 13.6004 17.5724C13.3146 17.2383 12.9996 16.8716 12.7237 16.5499C12.1304 15.8566 11.2637 15.4583 10.3512 15.4583H9.71789C9.36705 15.4583 9.02289 15.3599 8.72456 15.1733L5.99872 13.4699C5.70622 13.2874 5.32039 13.3758 5.13789 13.6691C4.95539 13.9616 5.04372 14.3474 5.33705 14.5299Z" fill="white"/>
<path fill-rule="evenodd" clip-rule="evenodd" d="M8.44101 7.61235C8.44101 7.61235 9.28434 9.29902 9.77101 10.2723C10.0652 10.8615 10.5985 11.2949 11.2352 11.4632L12.7002 11.8507C13.0693 11.9482 13.3552 12.2399 13.4452 12.6107L14.0727 15.1832C14.2085 15.7415 14.5493 16.2282 15.0277 16.5473L15.416 16.8057C15.9627 17.1707 16.6402 17.2832 17.2752 17.114C17.911 16.9457 18.4427 16.5124 18.7368 15.924L19.216 14.9648C19.3527 14.6932 19.6002 14.494 19.8952 14.4207C19.8952 14.4198 22.221 13.839 22.221 13.839C22.5552 13.7548 22.7593 13.4157 22.6752 13.0807C22.5918 12.7465 22.2527 12.5424 21.9177 12.6265L19.5918 13.2073C18.9435 13.3698 18.3977 13.8074 18.0985 14.4057L17.6185 15.3648C17.4852 15.6323 17.2435 15.829 16.9543 15.9057C16.666 15.9823 16.3577 15.9315 16.1093 15.7657L15.721 15.5073C15.5035 15.3623 15.3485 15.1407 15.2868 14.8873L14.6602 12.3148C14.461 11.499 13.8318 10.8573 13.0193 10.6423L11.5543 10.2548C11.2652 10.1782 11.0227 9.98152 10.8893 9.71318C10.4018 8.73985 9.55934 7.05402 9.55934 7.05402C9.40518 6.74485 9.02934 6.61985 8.72101 6.77402C8.41184 6.92818 8.28684 7.30402 8.44101 7.61235Z" fill="white"/>
</svg>
