<svg width="16" height="16" viewBox="0 0 16 16" fill="none" xmlns="http://www.w3.org/2000/svg">
<rect x="2.5" y="2.5" width="11" height="11" rx="5.5" stroke="#D9D9D9"/>
<path d="M10.6542 5.34835C10.7128 5.40695 10.7457 5.48644 10.7457 5.56932C10.7457 5.6522 10.7128 5.73169 10.6542 5.79029L8.44446 8L10.6542 10.2097C10.7128 10.2683 10.7457 10.3478 10.7457 10.4307C10.7457 10.5136 10.7128 10.593 10.6542 10.6517C10.5956 10.7103 10.5161 10.7432 10.4332 10.7432C10.3503 10.7432 10.2708 10.7103 10.2122 10.6517L8.00252 8.44194L5.79281 10.6517C5.73421 10.7103 5.65472 10.7432 5.57184 10.7432C5.48896 10.7432 5.40947 10.7103 5.35087 10.6517C5.29226 10.593 5.25934 10.5136 5.25934 10.4307C5.25934 10.3478 5.29226 10.2683 5.35087 10.2097L7.56058 8L5.35087 5.79029C5.29226 5.73169 5.25934 5.6522 5.25934 5.56932C5.25934 5.48644 5.29226 5.40695 5.35087 5.34835C5.40947 5.28974 5.48896 5.25682 5.57184 5.25682C5.65472 5.25682 5.73421 5.28974 5.79281 5.34835L8.00252 7.55806L10.2122 5.34835C10.2708 5.28974 10.3503 5.25682 10.4332 5.25682C10.5161 5.25682 10.5956 5.28974 10.6542 5.34835Z" fill="white"/>
</svg>
