<svg width="16" height="16" viewBox="0 0 16 16" fill="none" xmlns="http://www.w3.org/2000/svg">
<path d="M14.9188 4.5945C14.7758 4.47512 14.6021 4.39833 14.4176 4.37292C14.233 4.3475 14.045 4.37447 13.8751 4.45075L10.7126 5.857L8.87507 2.5445C8.78724 2.38985 8.66 2.26124 8.50629 2.17177C8.35259 2.08229 8.17792 2.03516 8.00007 2.03516C7.82222 2.03516 7.64754 2.08229 7.49384 2.17177C7.34014 2.26124 7.21289 2.38985 7.12507 2.5445L5.28757 5.857L2.12507 4.45075C1.95476 4.37458 1.76654 4.34758 1.58168 4.37278C1.39683 4.39799 1.22271 4.47441 1.07902 4.5934C0.935319 4.71238 0.827775 4.8692 0.76854 5.04611C0.709305 5.22302 0.700741 5.41298 0.743817 5.5945L2.33132 12.3633C2.36167 12.4943 2.41832 12.6178 2.49782 12.7263C2.57731 12.8348 2.67802 12.9261 2.79382 12.9945C2.95059 13.0883 3.12985 13.138 3.31257 13.1383C3.40139 13.1381 3.48975 13.1255 3.57507 13.1008C6.4687 12.3007 9.52518 12.3007 12.4188 13.1008C12.683 13.1702 12.964 13.132 13.2001 12.9945C13.3166 12.9269 13.4178 12.836 13.4974 12.7273C13.577 12.6187 13.6333 12.4947 13.6626 12.3633L15.2563 5.5945C15.2989 5.41293 15.2899 5.22306 15.2302 5.04635C15.1706 4.86964 15.0627 4.71313 14.9188 4.5945ZM10.5001 10.157C10.4863 10.2802 10.4278 10.3941 10.3356 10.4771C10.2435 10.56 10.1241 10.6062 10.0001 10.607H9.95007C8.65338 10.4757 7.34675 10.4757 6.05007 10.607C5.9183 10.621 5.78637 10.5821 5.68324 10.4989C5.58011 10.4157 5.51423 10.295 5.50007 10.1633C5.48781 10.0308 5.52815 9.89894 5.61235 9.79603C5.69655 9.69311 5.81786 9.62746 5.95007 9.61325C7.31295 9.4695 8.68718 9.4695 10.0501 9.61325C10.1811 9.62747 10.3014 9.69224 10.3854 9.79378C10.4695 9.89531 10.5106 10.0256 10.5001 10.157Z" fill="#8F8F8F"/>
</svg>
