<svg width="28" height="28" viewBox="0 0 28 28" fill="none" xmlns="http://www.w3.org/2000/svg">
<path opacity="0.2" d="M7.125 10.875H20.875V7.75C20.875 7.58424 20.8092 7.42527 20.6919 7.30806C20.5747 7.19085 20.4158 7.125 20.25 7.125H7.75C7.58424 7.125 7.42527 7.19085 7.30806 7.30806C7.19085 7.42527 7.125 7.58424 7.125 7.75V10.875Z" fill="white"/>
<path d="M20.25 6.5H18.375V5.875C18.375 5.70924 18.3092 5.55027 18.1919 5.43306C18.0747 5.31585 17.9158 5.25 17.75 5.25C17.5842 5.25 17.4253 5.31585 17.3081 5.43306C17.1908 5.55027 17.125 5.70924 17.125 5.875V6.5H10.875V5.875C10.875 5.70924 10.8092 5.55027 10.6919 5.43306C10.5747 5.31585 10.4158 5.25 10.25 5.25C10.0842 5.25 9.92527 5.31585 9.80806 5.43306C9.69085 5.55027 9.625 5.70924 9.625 5.875V6.5H7.75C7.41848 6.5 7.10054 6.6317 6.86612 6.86612C6.6317 7.10054 6.5 7.41848 6.5 7.75V20.25C6.5 20.5815 6.6317 20.8995 6.86612 21.1339C7.10054 21.3683 7.41848 21.5 7.75 21.5H20.25C20.5815 21.5 20.8995 21.3683 21.1339 21.1339C21.3683 20.8995 21.5 20.5815 21.5 20.25V7.75C21.5 7.41848 21.3683 7.10054 21.1339 6.86612C20.8995 6.6317 20.5815 6.5 20.25 6.5ZM9.625 7.75V8.375C9.625 8.54076 9.69085 8.69973 9.80806 8.81694C9.92527 8.93415 10.0842 9 10.25 9C10.4158 9 10.5747 8.93415 10.6919 8.81694C10.8092 8.69973 10.875 8.54076 10.875 8.375V7.75H17.125V8.375C17.125 8.54076 17.1908 8.69973 17.3081 8.81694C17.4253 8.93415 17.5842 9 17.75 9C17.9158 9 18.0747 8.93415 18.1919 8.81694C18.3092 8.69973 18.375 8.54076 18.375 8.375V7.75H20.25V10.25H7.75V7.75H9.625ZM20.25 20.25H7.75V11.5H20.25V20.25Z" fill="white"/>
<path d="M13.1719 15.2578L13.8594 14.3906C13.9328 14.299 13.9789 14.1884 13.9924 14.0718C14.0058 13.9551 13.9862 13.837 13.9356 13.731C13.8851 13.625 13.8057 13.5353 13.7065 13.4724C13.6073 13.4094 13.4925 13.3757 13.375 13.375H11.1875C11.0217 13.375 10.8628 13.4409 10.7456 13.5581C10.6283 13.6753 10.5625 13.8343 10.5625 14C10.5625 14.1658 10.6283 14.3248 10.7456 14.442C10.8628 14.5592 11.0217 14.625 11.1875 14.625H12.0781L11.6406 15.1719C11.5672 15.2636 11.5211 15.3741 11.5076 15.4908C11.4942 15.6075 11.5138 15.7256 11.5644 15.8316C11.6149 15.9376 11.6943 16.0272 11.7935 16.0902C11.8927 16.1531 12.0075 16.1869 12.125 16.1875C12.2908 16.1875 12.4497 16.2534 12.5669 16.3706C12.6842 16.4878 12.75 16.6468 12.75 16.8125C12.75 16.9783 12.6842 17.1373 12.5669 17.2545C12.4497 17.3717 12.2908 17.4375 12.125 17.4375C11.959 17.4368 11.7997 17.3725 11.6797 17.2578C11.6222 17.199 11.5535 17.1523 11.4777 17.1204C11.4019 17.0885 11.3205 17.072 11.2383 17.072C11.156 17.072 11.0746 17.0885 10.9988 17.1204C10.923 17.1523 10.8544 17.199 10.7969 17.2578C10.68 17.375 10.6144 17.5337 10.6144 17.6992C10.6144 17.8647 10.68 18.0235 10.7969 18.1406C11.0591 18.4038 11.3936 18.5831 11.7579 18.6559C12.1223 18.7286 12.5 18.6914 12.8432 18.5492C13.1863 18.4069 13.4795 18.1658 13.6855 17.8566C13.8914 17.5474 14.0009 17.184 14 16.8125C14.0005 16.5053 13.9253 16.2026 13.7808 15.9314C13.6363 15.6602 13.4272 15.4288 13.1719 15.2578ZM16.7813 13.4375C16.6765 13.3875 16.5601 13.3669 16.4445 13.3779C16.3289 13.3889 16.2185 13.4311 16.125 13.5L14.875 14.4375C14.7424 14.537 14.6547 14.685 14.6313 14.8491C14.6078 15.0132 14.6505 15.1799 14.75 15.3125C14.8507 15.4434 14.9986 15.5298 15.1621 15.5531C15.3255 15.5765 15.4917 15.535 15.625 15.4375L15.875 15.25V18.0625C15.875 18.2283 15.9408 18.3873 16.0581 18.5045C16.1753 18.6217 16.3342 18.6875 16.5 18.6875C16.6658 18.6875 16.8247 18.6217 16.9419 18.5045C17.0592 18.3873 17.125 18.2283 17.125 18.0625V14C17.1241 13.8839 17.0916 13.7702 17.031 13.6712C16.9705 13.5721 16.8841 13.4913 16.7813 13.4375Z" fill="white"/>
</svg>
