<svg width="30" height="30" viewBox="0 0 30 30" fill="none" xmlns="http://www.w3.org/2000/svg">
<g filter="url(#filter0_i_15289_36889)">
<rect width="30" height="30" rx="6" fill="url(#paint0_linear_15289_36889)"/>
<rect x="0.5" y="0.5" width="29" height="29" rx="5.5" stroke="url(#paint1_linear_15289_36889)"/>
<path d="M19.2656 12.3746H15.4375V11.7949C16.0664 11.516 16.4328 11.1113 16.5367 10.5918C16.7609 9.42146 15.4375 8.23474 15.2844 8.10896C15.2072 8.03975 15.1074 8.00103 15.0038 8.00002C14.9001 7.99901 14.7996 8.0358 14.7211 8.10349C14.5625 8.22927 13.2008 9.40505 13.4195 10.5808C13.518 11.1113 13.9062 11.5215 14.5625 11.8004V12.3746H10.7344C10.2707 12.376 9.82641 12.5609 9.49853 12.8887C9.17065 13.2166 8.98582 13.6609 8.98438 14.1246V14.8519C8.98534 15.1645 9.04818 15.4738 9.16926 15.7619C9.29034 16.0501 9.46727 16.3114 9.68984 16.5308L9.75 16.5855V19.3746C9.75 19.6066 9.84219 19.8292 10.0063 19.9933C10.1704 20.1574 10.3929 20.2496 10.625 20.2496H19.375C19.6071 20.2496 19.8296 20.1574 19.9937 19.9933C20.1578 19.8292 20.25 19.6066 20.25 19.3746V16.5855L20.3102 16.5308C20.5327 16.3114 20.7097 16.0501 20.8307 15.7619C20.9518 15.4738 21.0147 15.1645 21.0156 14.8519V14.1246C21.0142 13.6609 20.8293 13.2166 20.5015 12.8887C20.1736 12.5609 19.7293 12.376 19.2656 12.3746ZM19.375 19.3746H10.625V17.0886C10.8513 17.1599 11.0878 17.1931 11.325 17.1871C11.6805 17.1791 12.0293 17.089 12.3443 16.924C12.6592 16.7589 12.9318 16.5233 13.1406 16.2355C13.3529 16.5303 13.6322 16.7703 13.9555 16.9359C14.2788 17.1015 14.6368 17.1878 15 17.1878C15.3632 17.1878 15.7212 17.1015 16.0445 16.9359C16.3678 16.7703 16.6471 16.5303 16.8594 16.2355C17.0682 16.5233 17.3408 16.7589 17.6557 16.924C17.9707 17.089 18.3195 17.1791 18.675 17.1871H18.7188C18.9412 17.1873 19.1624 17.1541 19.375 17.0886V19.3746Z" fill="white"/>
</g>
<defs>
<filter id="filter0_i_15289_36889" x="0" y="0" width="30" height="33" filterUnits="userSpaceOnUse" color-interpolation-filters="sRGB">
<feFlood flood-opacity="0" result="BackgroundImageFix"/>
<feBlend mode="normal" in="SourceGraphic" in2="BackgroundImageFix" result="shape"/>
<feColorMatrix in="SourceAlpha" type="matrix" values="0 0 0 0 0 0 0 0 0 0 0 0 0 0 0 0 0 0 127 0" result="hardAlpha"/>
<feOffset dy="3"/>
<feGaussianBlur stdDeviation="2.5"/>
<feComposite in2="hardAlpha" operator="arithmetic" k2="-1" k3="1"/>
<feColorMatrix type="matrix" values="0 0 0 0 0.137255 0 0 0 0 0.137255 0 0 0 0 0.137255 0 0 0 1 0"/>
<feBlend mode="normal" in2="shape" result="effect1_innerShadow_15289_36889"/>
</filter>
<linearGradient id="paint0_linear_15289_36889" x1="15" y1="30" x2="15" y2="0" gradientUnits="userSpaceOnUse">
<stop offset="0.72" stop-color="#0F0F0F"/>
<stop offset="1" stop-color="#1A1A1A"/>
</linearGradient>
<linearGradient id="paint1_linear_15289_36889" x1="15" y1="30" x2="15" y2="0" gradientUnits="userSpaceOnUse">
<stop stop-color="white" stop-opacity="0.06"/>
<stop offset="1" stop-color="white" stop-opacity="0.06"/>
</linearGradient>
</defs>
</svg>
