<svg width="24" height="24" viewBox="0 0 24 24" fill="none" xmlns="http://www.w3.org/2000/svg">
<g clip-path="url(#clip0_14319_47943)">
<path d="M22.6423 6.38855L17.6136 1.3598C17.4673 1.21353 17.2937 1.0975 17.1026 1.01834C16.9115 0.939181 16.7067 0.898437 16.4998 0.898438C16.293 0.898437 16.0881 0.939181 15.897 1.01834C15.7059 1.0975 15.5323 1.21353 15.3861 1.3598L1.88605 14.8598C1.59376 15.1572 1.42839 15.5566 1.4248 15.9736V21.0023C1.4248 21.42 1.59074 21.8206 1.88611 22.116C2.18148 22.4114 2.58209 22.5773 2.9998 22.5773H8.02855C8.44555 22.5737 8.84487 22.4083 9.1423 22.1161L22.6423 8.61605C22.935 8.31924 23.0991 7.91915 23.0991 7.5023C23.0991 7.08546 22.935 6.68537 22.6423 6.38855ZM3.05605 15.6023L12.8998 5.75855L15.0936 7.9523L5.2498 17.7961L3.05605 15.6023ZM2.7748 21.0023V17.2336L6.76855 21.2273H2.9998C2.94013 21.2273 2.8829 21.2036 2.84071 21.1614C2.79851 21.1192 2.7748 21.062 2.7748 21.0023ZM8.39981 20.9461L6.20605 18.7523L16.0498 8.90855L18.2436 11.1023L8.39981 20.9461ZM21.6861 7.6598L19.1998 10.1461L13.8561 4.8023L16.3423 2.31605C16.3623 2.29423 16.3867 2.2768 16.4138 2.26488C16.4409 2.25297 16.4702 2.24681 16.4998 2.24681C16.5294 2.24681 16.5587 2.25297 16.5858 2.26488C16.6129 2.2768 16.6373 2.29423 16.6573 2.31605L21.6861 7.3448C21.7079 7.36482 21.7253 7.38917 21.7372 7.41628C21.7491 7.44339 21.7553 7.47268 21.7553 7.5023C21.7553 7.53192 21.7491 7.56121 21.7372 7.58833C21.7253 7.61544 21.7079 7.63978 21.6861 7.6598Z" fill="white"/>
</g>
<defs>
<clipPath id="clip0_14319_47943">
<rect width="24" height="24" fill="white"/>
</clipPath>
</defs>
</svg>
