<svg width="13" height="13" viewBox="0 0 13 13" fill="none" xmlns="http://www.w3.org/2000/svg">
<path d="M12 3.79542L9.20625 1.00167C9.11384 0.908324 9.00385 0.83422 8.88262 0.783645C8.7614 0.733071 8.63135 0.707031 8.5 0.707031C8.36865 0.707031 8.2386 0.733071 8.11738 0.783645C7.99615 0.83422 7.88616 0.908324 7.79375 1.00167L6.14375 2.64542L0.29375 8.50167C0.200562 8.59415 0.126622 8.70418 0.0762023 8.8254C0.0257829 8.94663 -0.000116543 9.07664 3.94218e-07 9.20792V12.0017C3.94218e-07 12.2669 0.105357 12.5212 0.292894 12.7088C0.48043 12.8963 0.734784 13.0017 1 13.0017H3.79375C3.92504 13.0018 4.05505 12.9759 4.17627 12.9255C4.29749 12.8751 4.40752 12.8011 4.5 12.7079L12 5.20792C12.1855 5.01966 12.2895 4.76597 12.2895 4.50167C12.2895 4.23738 12.1855 3.98369 12 3.79542ZM1.20625 9.00167L7 3.20792L8.04375 4.25167L2.25 10.0454L1.20625 9.00167ZM1 10.2079L2.79375 12.0017H1V10.2079ZM4 11.7954L2.95625 10.7517L8.75 4.95792L9.79375 6.00167L4 11.7954Z" fill="#FFFFFF"/>
</svg>
