<svg width="16" height="16" viewBox="0 0 16 16" fill="none" xmlns="http://www.w3.org/2000/svg">
<path d="M12.0265 9.03463C11.7465 9.30796 11.5865 9.7013 11.6265 10.1213C11.6865 10.8413 12.3465 11.368 13.0665 11.368H14.3332V12.1613C14.3332 13.5413 13.2065 14.668 11.8265 14.668H5.09317C5.6465 14.1813 5.99984 13.468 5.99984 12.668C5.99984 11.1946 4.8065 10.0013 3.33317 10.0013C2.7065 10.0013 2.1265 10.2213 1.6665 10.588V7.67464C1.6665 6.29464 2.79317 5.16797 4.17317 5.16797H11.8265C13.2065 5.16797 14.3332 6.29464 14.3332 7.67464V8.63464H12.9865C12.6132 8.63464 12.2732 8.78129 12.0265 9.03463Z" stroke="white" stroke-linecap="round" stroke-linejoin="round"/>
<path d="M1.6665 7.67439V5.22774C1.6665 4.4344 2.15317 3.72771 2.89317 3.44771L8.1865 1.44771C9.01317 1.14104 9.89984 1.74773 9.89984 2.63439V5.16772" stroke="white" stroke-linecap="round" stroke-linejoin="round"/>
<path d="M15.039 9.31278V10.6862C15.039 11.0528 14.7457 11.3528 14.3724 11.3661H13.0657C12.3457 11.3661 11.6857 10.8395 11.6257 10.1195C11.5857 9.69947 11.7457 9.30613 12.0257 9.0328C12.2724 8.77946 12.6124 8.63281 12.9857 8.63281H14.3724C14.7457 8.64615 15.039 8.94612 15.039 9.31278Z" stroke="white" stroke-linecap="round" stroke-linejoin="round"/>
<path d="M4.6665 8H9.33317" stroke="white" stroke-linecap="round" stroke-linejoin="round"/>
<path d="M5.99984 12.6667C5.99984 13.4667 5.6465 14.18 5.09317 14.6667C4.61984 15.08 4.0065 15.3333 3.33317 15.3333C1.85984 15.3333 0.666504 14.14 0.666504 12.6667C0.666504 11.8267 1.05317 11.0733 1.6665 10.5867C2.1265 10.22 2.7065 10 3.33317 10C4.8065 10 5.99984 11.1933 5.99984 12.6667Z" stroke="white" stroke-miterlimit="10" stroke-linecap="round" stroke-linejoin="round"/>
<path d="M3.49984 11.832V12.832L2.6665 13.332" stroke="white" stroke-miterlimit="10" stroke-linecap="round" stroke-linejoin="round"/>
</svg>
