<svg width="30" height="30" viewBox="0 0 30 30" fill="none" xmlns="http://www.w3.org/2000/svg">
<g filter="url(#filter0_i_17798_21073)">
<rect width="30" height="30" rx="6" fill="url(#paint0_linear_17798_21073)"/>
<rect x="0.5" y="0.5" width="29" height="29" rx="5.5" stroke="url(#paint1_linear_17798_21073)"/>
<g clip-path="url(#clip0_17798_21073)">
<path d="M20.9062 9.53125H20.4688V9.96875C20.4688 10.2008 20.3766 10.4234 20.2125 10.5875C20.0484 10.7516 19.8258 10.8438 19.5938 10.8438C19.3617 10.8438 19.1391 10.7516 18.975 10.5875C18.8109 10.4234 18.7188 10.2008 18.7188 9.96875V9.53125H17.4062V9.96875C17.4062 10.2008 17.3141 10.4234 17.15 10.5875C16.9859 10.7516 16.7633 10.8438 16.5312 10.8438C16.2992 10.8438 16.0766 10.7516 15.9125 10.5875C15.7484 10.4234 15.6562 10.2008 15.6562 9.96875V9.53125H14.3438V9.96875C14.3438 10.2008 14.2516 10.4234 14.0875 10.5875C13.9234 10.7516 13.7008 10.8438 13.4688 10.8438C13.2367 10.8438 13.0141 10.7516 12.85 10.5875C12.6859 10.4234 12.5938 10.2008 12.5938 9.96875V9.53125H11.2812V9.96875C11.2812 10.2008 11.1891 10.4234 11.025 10.5875C10.8609 10.7516 10.6383 10.8438 10.4062 10.8438C10.1742 10.8438 9.95163 10.7516 9.78753 10.5875C9.62344 10.4234 9.53125 10.2008 9.53125 9.96875V9.53125H9.09375C8.97772 9.53125 8.86644 9.57734 8.78439 9.65939C8.70234 9.74144 8.65625 9.85272 8.65625 9.96875V11.7188H21.3438V9.96875C21.3438 9.85272 21.2977 9.74144 21.2156 9.65939C21.1336 9.57734 21.0223 9.53125 20.9062 9.53125Z" fill="#F5FFF9"/>
<path d="M10.4062 10.4062C10.5223 10.4062 10.6336 10.3602 10.7156 10.2781C10.7977 10.1961 10.8438 10.0848 10.8438 9.96875V9.09375C10.8438 8.97772 10.7977 8.86644 10.7156 8.78439C10.6336 8.70234 10.5223 8.65625 10.4062 8.65625C10.2902 8.65625 10.1789 8.70234 10.0969 8.78439C10.0148 8.86644 9.96875 8.97772 9.96875 9.09375V9.96875C9.96875 10.0848 10.0148 10.1961 10.0969 10.2781C10.1789 10.3602 10.2902 10.4062 10.4062 10.4062Z" fill="#F5FFF9"/>
<path d="M16.5312 10.4062C16.6473 10.4062 16.7586 10.3602 16.8406 10.2781C16.9227 10.1961 16.9688 10.0848 16.9688 9.96875V9.09375C16.9688 8.97772 16.9227 8.86644 16.8406 8.78439C16.7586 8.70234 16.6473 8.65625 16.5312 8.65625C16.4152 8.65625 16.3039 8.70234 16.2219 8.78439C16.1398 8.86644 16.0938 8.97772 16.0938 9.09375V9.96875C16.0938 10.0848 16.1398 10.1961 16.2219 10.2781C16.3039 10.3602 16.4152 10.4062 16.5312 10.4062Z" fill="#F5FFF9"/>
<path d="M13.4688 10.4062C13.5848 10.4062 13.6961 10.3602 13.7781 10.2781C13.8602 10.1961 13.9062 10.0848 13.9062 9.96875V9.09375C13.9062 8.97772 13.8602 8.86644 13.7781 8.78439C13.6961 8.70234 13.5848 8.65625 13.4688 8.65625C13.3527 8.65625 13.2414 8.70234 13.1594 8.78439C13.0773 8.86644 13.0312 8.97772 13.0312 9.09375V9.96875C13.0312 10.0848 13.0773 10.1961 13.1594 10.2781C13.2414 10.3602 13.3527 10.4062 13.4688 10.4062Z" fill="#F5FFF9"/>
<path d="M19.5938 10.4062C19.7098 10.4062 19.8211 10.3602 19.9031 10.2781C19.9852 10.1961 20.0312 10.0848 20.0312 9.96875V9.09375C20.0312 8.97772 19.9852 8.86644 19.9031 8.78439C19.8211 8.70234 19.7098 8.65625 19.5938 8.65625C19.4777 8.65625 19.3664 8.70234 19.2844 8.78439C19.2023 8.86644 19.1562 8.97772 19.1562 9.09375V9.96875C19.1562 10.0848 19.2023 10.1961 19.2844 10.2781C19.3664 10.3602 19.4777 10.4062 19.5938 10.4062Z" fill="#F5FFF9"/>
<path d="M8.65625 20.9062C8.65625 21.0223 8.70234 21.1336 8.78439 21.2156C8.86644 21.2977 8.97772 21.3438 9.09375 21.3438H20.9062C21.0223 21.3438 21.1336 21.2977 21.2156 21.2156C21.2977 21.1336 21.3438 21.0223 21.3438 20.9062V12.1562H8.65625V20.9062ZM14.5625 13.6875C14.5625 13.5715 14.6086 13.4602 14.6906 13.3781C14.7727 13.2961 14.884 13.25 15 13.25C15.116 13.25 15.2273 13.2961 15.3094 13.3781C15.3914 13.4602 15.4375 13.5715 15.4375 13.6875V15.875C15.4375 15.991 15.3914 16.1023 15.3094 16.1844C15.2273 16.2664 15.116 16.3125 15 16.3125C14.884 16.3125 14.7727 16.2664 14.6906 16.1844C14.6086 16.1023 14.5625 15.991 14.5625 15.875V13.6875ZM12.95 14.4066C13.0407 14.3355 13.1558 14.303 13.2704 14.3162C13.3849 14.3295 13.4895 14.3874 13.5616 14.4774C13.6337 14.5674 13.6673 14.6822 13.6552 14.7968C13.643 14.9115 13.5862 15.0167 13.4969 15.0896C13.1075 15.4011 12.8245 15.8258 12.687 16.3051C12.5495 16.7844 12.5643 17.2946 12.7293 17.7651C12.8943 18.2356 13.2015 18.6433 13.6082 18.9316C14.015 19.22 14.5013 19.3749 14.9999 19.3749C15.4986 19.3749 15.9849 19.22 16.3916 18.9316C16.7984 18.6433 17.1055 18.2356 17.2706 17.7651C17.4356 17.2946 17.4504 16.7844 17.3129 16.3051C17.1754 15.8258 16.8924 15.4011 16.503 15.0896C16.4575 15.0539 16.4196 15.0096 16.3913 14.9591C16.3631 14.9087 16.3451 14.8531 16.3385 14.7957C16.3318 14.7383 16.3366 14.6801 16.3526 14.6245C16.3686 14.569 16.3954 14.5171 16.4316 14.472C16.4677 14.4269 16.5124 14.3893 16.5631 14.3616C16.6139 14.3339 16.6696 14.3164 16.7271 14.3104C16.7846 14.3043 16.8427 14.3097 16.8981 14.3262C16.9535 14.3427 17.0051 14.3701 17.0499 14.4066C17.5808 14.8314 17.9666 15.4106 18.154 16.0642C18.3414 16.7177 18.3212 17.4134 18.0961 18.0549C17.871 18.6965 17.4522 19.2523 16.8976 19.6455C16.3429 20.0387 15.6798 20.25 14.9999 20.25C14.32 20.25 13.6569 20.0387 13.1022 19.6455C12.5475 19.2523 12.1287 18.6965 11.9037 18.0549C11.6786 17.4134 11.6584 16.7177 11.8458 16.0642C12.0332 15.4106 12.419 14.8314 12.9499 14.4066H12.95Z" fill="#F5FFF9"/>
</g>
</g>
<defs>
<filter id="filter0_i_17798_21073" x="0" y="0" width="30" height="33" filterUnits="userSpaceOnUse" color-interpolation-filters="sRGB">
<feFlood flood-opacity="0" result="BackgroundImageFix"/>
<feBlend mode="normal" in="SourceGraphic" in2="BackgroundImageFix" result="shape"/>
<feColorMatrix in="SourceAlpha" type="matrix" values="0 0 0 0 0 0 0 0 0 0 0 0 0 0 0 0 0 0 127 0" result="hardAlpha"/>
<feOffset dy="3"/>
<feGaussianBlur stdDeviation="2.5"/>
<feComposite in2="hardAlpha" operator="arithmetic" k2="-1" k3="1"/>
<feColorMatrix type="matrix" values="0 0 0 0 0.137255 0 0 0 0 0.137255 0 0 0 0 0.137255 0 0 0 1 0"/>
<feBlend mode="normal" in2="shape" result="effect1_innerShadow_17798_21073"/>
</filter>
<linearGradient id="paint0_linear_17798_21073" x1="15" y1="30" x2="15" y2="0" gradientUnits="userSpaceOnUse">
<stop offset="0.72" stop-color="#0F0F0F"/>
<stop offset="1" stop-color="#1A1A1A"/>
</linearGradient>
<linearGradient id="paint1_linear_17798_21073" x1="15" y1="30" x2="15" y2="0" gradientUnits="userSpaceOnUse">
<stop stop-color="white" stop-opacity="0.06"/>
<stop offset="1" stop-color="white" stop-opacity="0.06"/>
</linearGradient>
<clipPath id="clip0_17798_21073">
<rect width="14" height="14" fill="white" transform="translate(8 8)"/>
</clipPath>
</defs>
</svg>
