<svg width="20" height="20" viewBox="0 0 20 20" fill="none" xmlns="http://www.w3.org/2000/svg">
<path d="M12.9823 9.99896C12.9823 11.649 11.649 12.9823 9.99896 12.9823C8.34896 12.9823 7.01562 11.649 7.01562 9.99896C7.01562 8.34896 8.34896 7.01562 9.99896 7.01562C11.649 7.01562 12.9823 8.34896 12.9823 9.99896Z" stroke="#00D059" stroke-width="1.5" stroke-linecap="round" stroke-linejoin="round"/>
<path d="M10.0018 16.8932C12.9435 16.8932 15.6852 15.1599 17.5935 12.1599C18.3435 10.9849 18.3435 9.0099 17.5935 7.8349C15.6852 4.8349 12.9435 3.10156 10.0018 3.10156C7.06016 3.10156 4.31849 4.8349 2.41016 7.8349C1.66016 9.0099 1.66016 10.9849 2.41016 12.1599C4.31849 15.1599 7.06016 16.8932 10.0018 16.8932Z" stroke="#00D059" stroke-width="1.5" stroke-linecap="round" stroke-linejoin="round"/>
</svg>
