<svg width="10" height="10" viewBox="0 0 10 10" fill="none" xmlns="http://www.w3.org/2000/svg">
<g clip-path="url(#clip0_15292_39108)">
<path d="M9.29975 1.84528L3.54184 7.60278C3.50313 7.64164 3.45712 7.67248 3.40646 7.69352C3.3558 7.71457 3.30149 7.7254 3.24663 7.7254C3.19177 7.7254 3.13746 7.71457 3.0868 7.69352C3.03614 7.67248 2.99013 7.64164 2.95142 7.60278L0.724756 5.37403C0.686043 5.33516 0.640038 5.30432 0.589378 5.28328C0.538719 5.26224 0.484403 5.25141 0.429547 5.25141C0.374692 5.25141 0.320376 5.26224 0.269717 5.28328C0.219057 5.30432 0.173051 5.33516 0.134339 5.37403C0.0954739 5.41274 0.0646354 5.45875 0.043593 5.5094C0.0225507 5.56006 0.0117187 5.61438 0.0117188 5.66924C0.0117187 5.72409 0.0225507 5.77841 0.043593 5.82907C0.0646354 5.87973 0.0954739 5.92573 0.134339 5.96444L2.36184 8.19153C2.59682 8.42607 2.91525 8.5578 3.24725 8.5578C3.57926 8.5578 3.89769 8.42607 4.13267 8.19153L9.89017 2.43528C9.92897 2.39657 9.95976 2.35059 9.98076 2.29997C10.0018 2.24935 10.0126 2.19508 10.0126 2.14028C10.0126 2.08547 10.0018 2.0312 9.98076 1.98058C9.95976 1.92996 9.92897 1.88398 9.89017 1.84528C9.85146 1.80641 9.80545 1.77557 9.75479 1.75453C9.70413 1.73349 9.64982 1.72266 9.59496 1.72266C9.54011 1.72266 9.48579 1.73349 9.43513 1.75453C9.38447 1.77557 9.33847 1.80641 9.29975 1.84528Z" fill="#00D059"/>
</g>
<defs>
<clipPath id="clip0_15292_39108">
<rect width="10" height="10" fill="white"/>
</clipPath>
</defs>
</svg>
