<svg width="14" height="14" viewBox="0 0 14 14" fill="none" xmlns="http://www.w3.org/2000/svg">
<g clip-path="url(#clip0_21286_91226)">
<path d="M13.4604 2.15274L12.1478 0.840238C12.0199 0.712215 11.8122 0.712055 11.6841 0.840078C11.6841 0.840158 11.6841 0.840238 11.6839 0.840238L7.74647 4.77782C7.6849 4.8393 7.65039 4.9227 7.65039 5.00971V6.32229C7.65039 6.50345 7.79728 6.65033 7.97844 6.65033H9.29102C9.37802 6.65033 9.46142 6.61582 9.5229 6.55426L13.4604 2.61675C13.5885 2.48873 13.5886 2.28108 13.4606 2.15298C13.4606 2.15298 13.4606 2.15282 13.4604 2.15274ZM9.15513 5.99416H8.30656V5.14568L11.9159 1.5363L12.7644 2.38479L9.15513 5.99416Z" fill="white"/>
<path d="M12.5722 4.68156C12.391 4.68156 12.2441 4.82845 12.2441 5.00961V9.60336C12.2436 10.1468 11.8032 10.5872 11.2598 10.5878H7.97852C7.90748 10.5877 7.83837 10.6107 7.78163 10.6534L5.68164 12.2284V10.9159C5.68164 10.7347 5.53476 10.5878 5.35352 10.5878H2.07227C1.52887 10.5872 1.08845 10.1468 1.08797 9.60344V3.69711C1.08853 3.15379 1.52887 2.71337 2.07227 2.71281H7.97852C8.15976 2.71281 8.30664 2.56592 8.30664 2.38469C8.30664 2.20353 8.15976 2.05664 7.97852 2.05664H2.07227C1.16655 2.05752 0.432524 2.79155 0.431641 3.69711V9.60344C0.432524 10.5091 1.16655 11.2431 2.07227 11.2441H5.02539V12.8847C5.02539 13.0658 5.17228 13.2127 5.35352 13.2127C5.42455 13.2127 5.49358 13.1897 5.55041 13.1472L8.08824 11.244H11.2598C12.1655 11.2431 12.8994 10.5091 12.9004 9.60336V5.00969C12.9004 4.82845 12.7534 4.68156 12.5722 4.68156Z" fill="white"/>
<path d="M6.00969 4.02539H2.7286C2.54728 4.02539 2.40039 4.17228 2.40039 4.35352C2.40039 4.53467 2.54728 4.68156 2.7286 4.68156H6.00969C6.19093 4.68156 6.33789 4.53467 6.33789 4.35352C6.33789 4.17228 6.19093 4.02539 6.00969 4.02539Z" fill="white"/>
<path d="M2.7286 6.65039H6.00969C6.19093 6.65039 6.33789 6.50342 6.33789 6.32227C6.33789 6.14103 6.19093 5.99414 6.00969 5.99414H2.7286C2.54728 5.99414 2.40039 6.14103 2.40039 6.32227C2.40039 6.50342 2.54728 6.65039 2.7286 6.65039Z" fill="white"/>
<path d="M2.7286 8.61906H10.6035C10.7848 8.61906 10.9316 8.47217 10.9316 8.29094C10.9316 8.10978 10.7847 7.96289 10.6035 7.96289H2.7286C2.54728 7.96289 2.40039 8.10978 2.40039 8.29094C2.40039 8.47217 2.54728 8.61906 2.7286 8.61906Z" fill="white"/>
</g>
<defs>
<clipPath id="clip0_21286_91226">
<rect width="14" height="14" fill="white"/>
</clipPath>
</defs>
</svg>
