<svg width="20" height="20" viewBox="0 0 20 20" fill="none" xmlns="http://www.w3.org/2000/svg">
<g clip-path="url(#clip0_17798_29218)">
<path d="M18.7293 18.8281V11.1348H15.1916V4.10359H14.0124V1.75984H11.6291V0H10.4572V1.75984H8.07391V4.10359H6.89469V6.44734H1.27066V18.8281H0V20H20V18.8281H18.7293ZM17.5575 18.8281H16.3709V13.6309H15.199V18.8281H14.0124V13.6309H12.8405V18.8281H11.6539V12.3067H17.5575V18.8281ZM9.24574 5.27547V2.93172H12.8405V5.27547H14.0197V11.1348H10.482V18.8281H8.06648V5.27547H9.24574ZM2.44254 7.61922H6.89465V18.8281H2.44254V7.61922Z" fill="white"/>
<path d="M9.28516 6.44922H10.457V7.62109H9.28516V6.44922Z" fill="white"/>
<path d="M10.457 4.10547H11.6289V5.27734H10.457V4.10547Z" fill="white"/>
<path d="M9.28516 8.79297H10.457V9.96484H9.28516V8.79297Z" fill="white"/>
<path d="M11.6289 6.44922H12.8008V7.62109H11.6289V6.44922Z" fill="white"/>
<path d="M11.6289 8.79297H12.8008V9.96484H11.6289V8.79297Z" fill="white"/>
<path d="M4.05957 8.79297H5.23145V9.96484H4.05957V8.79297Z" fill="white"/>
<path d="M4.05957 11.3008H5.23145V12.4727H4.05957V11.3008Z" fill="white"/>
<path d="M4.05957 13.8086H5.23145V14.9805H4.05957V13.8086Z" fill="white"/>
<path d="M4.05957 16.3203H5.23145V17.4922H4.05957V16.3203Z" fill="white"/>
</g>
<defs>
<clipPath id="clip0_17798_29218">
<rect width="20" height="20" fill="white"/>
</clipPath>
</defs>
</svg>
