<svg width="16" height="16" viewBox="0 0 16 16" fill="none" xmlns="http://www.w3.org/2000/svg">
<path d="M4.25 16H13.625C13.8839 16 14.0938 15.7901 14.0938 15.5312V2.375C14.0938 2.11612 13.8839 1.90625 13.625 1.90625H12.2188V0.46875C12.2188 0.209875 12.0089 0 11.75 0H2.375C2.11612 0 1.90625 0.209875 1.90625 0.46875V13.6562C1.90625 13.9151 2.11612 14.125 2.375 14.125H3.78125V15.5312C3.78125 15.7901 3.99112 16 4.25 16ZM12.2188 13.6562V2.84375H13.1562V15.0625H4.71875V14.125H11.75C12.0089 14.125 12.2188 13.9151 12.2188 13.6562ZM2.84375 13.1875V0.9375H11.2812V13.1875H2.84375Z" fill="#00D059"/>
<path d="M4.25 3.78125H7.0625C7.32138 3.78125 7.53125 3.57138 7.53125 3.3125C7.53125 3.05362 7.32138 2.84375 7.0625 2.84375H4.25C3.99112 2.84375 3.78125 3.05362 3.78125 3.3125C3.78125 3.57138 3.99112 3.78125 4.25 3.78125Z" fill="#00D059"/>
<path d="M9.875 4.71875H4.25C3.99112 4.71875 3.78125 4.92862 3.78125 5.1875C3.78125 5.44638 3.99112 5.65625 4.25 5.65625H9.875C10.1339 5.65625 10.3438 5.44638 10.3438 5.1875C10.3438 4.92862 10.1339 4.71875 9.875 4.71875Z" fill="#00D059"/>
<path d="M9.875 6.59375H4.25C3.99112 6.59375 3.78125 6.80362 3.78125 7.0625C3.78125 7.32138 3.99112 7.53125 4.25 7.53125H9.875C10.1339 7.53125 10.3438 7.32138 10.3438 7.0625C10.3438 6.80362 10.1339 6.59375 9.875 6.59375Z" fill="#00D059"/>
<path d="M9.875 8.46875H4.25C3.99112 8.46875 3.78125 8.67862 3.78125 8.9375C3.78125 9.19638 3.99112 9.40625 4.25 9.40625H9.875C10.1339 9.40625 10.3438 9.19638 10.3438 8.9375C10.3438 8.67862 10.1339 8.46875 9.875 8.46875Z" fill="#00D059"/>
<path d="M9.875 10.3438H8C7.74112 10.3438 7.53125 10.5536 7.53125 10.8125C7.53125 11.0714 7.74112 11.2812 8 11.2812H9.875C10.1339 11.2812 10.3438 11.0714 10.3438 10.8125C10.3438 10.5536 10.1339 10.3438 9.875 10.3438Z" fill="#00D059"/>
</svg>
