<svg width="24" height="24" viewBox="0 0 24 24" fill="none" xmlns="http://www.w3.org/2000/svg">
<path d="M12 3C10.22 3 8.47991 3.52784 6.99987 4.51677C5.51983 5.50571 4.36628 6.91131 3.68509 8.55585C3.0039 10.2004 2.82567 12.01 3.17294 13.7558C3.5202 15.5016 4.37737 17.1053 5.63604 18.364C6.89471 19.6226 8.49836 20.4798 10.2442 20.8271C11.99 21.1743 13.7996 20.9961 15.4442 20.3149C17.0887 19.6337 18.4943 18.4802 19.4832 17.0001C20.4722 15.5201 21 13.78 21 12C20.9973 9.61389 20.0482 7.32631 18.3609 5.63907C16.6737 3.95184 14.3861 3.00275 12 3ZM18.7749 8.53846H15.8555C15.6499 7.23956 15.2151 5.98754 14.5712 4.84085C16.3894 5.49784 17.8913 6.81896 18.7749 8.53846ZM14.7692 12C14.769 12.694 14.7297 13.3874 14.6515 14.0769H9.34846C9.19154 12.6968 9.19154 11.3032 9.34846 9.92308H14.6515C14.7297 10.6126 14.769 11.306 14.7692 12ZM12 19.6154C11.0723 19.6154 10.0698 17.9712 9.56377 15.4615H14.4362C13.9302 17.9712 12.9277 19.6154 12 19.6154ZM9.56377 8.53846C10.0698 6.02885 11.0723 4.38462 12 4.38462C12.9277 4.38462 13.9302 6.02885 14.4362 8.53846H9.56377ZM9.42531 4.84085C8.7827 5.98777 8.34903 7.23978 8.14454 8.53846H5.22508C6.10866 6.81896 7.6106 5.49784 9.42877 4.84085H9.42531ZM4.67954 9.92308H7.95208C7.81085 11.3041 7.81085 12.6959 7.95208 14.0769H4.67954C4.2863 12.7202 4.2863 11.2798 4.67954 9.92308ZM5.22508 15.4615H8.14454C8.35011 16.7604 8.78495 18.0125 9.42877 19.1591C7.6106 18.5022 6.10866 17.181 5.22508 15.4615ZM14.5712 19.1591C15.2151 18.0125 15.6499 16.7604 15.8555 15.4615H18.7749C17.8913 17.181 16.3894 18.5022 14.5712 19.1591ZM19.3205 14.0769H16.0479C16.1182 13.3868 16.1535 12.6936 16.1538 12C16.1535 11.3063 16.1182 10.6132 16.0479 9.92308H19.3205C19.7137 11.2798 19.7137 12.7202 19.3205 14.0769Z" fill="white"/>
</svg>
