<svg width="280" height="81" viewBox="0 0 280 81" fill="none" xmlns="http://www.w3.org/2000/svg">
<path d="M269.63 81H10.3704C4.66926 81 0 76.4412 0 70.875V10.125C0 4.55878 4.66926 -3.8147e-06 10.3704 -3.8147e-06H269.63C275.331 -3.8147e-06 280 4.55878 280 10.125V70.875C280 76.4412 275.331 81 269.63 81Z" fill="black"/>
<path d="M269.63 1.62252C274.431 1.62252 278.338 5.43712 278.338 10.125V70.875C278.338 75.5629 274.431 79.3775 269.63 79.3775H10.3704C5.56889 79.3775 1.66185 75.5629 1.66185 70.875V10.125C1.66185 5.43712 5.56889 1.62252 10.3704 1.62252H269.63ZM269.63 -3.8147e-06H10.3704C4.66926 -3.8147e-06 0 4.55878 0 10.125V70.875C0 76.4412 4.66926 81 10.3704 81H269.63C275.331 81 280 76.4412 280 70.875V10.125C280 4.55878 275.331 -3.8147e-06 269.63 -3.8147e-06Z" fill="#A6A6A6"/>
<path d="M21.643 15.266C21.0337 15.8887 20.6811 16.8581 20.6811 18.1136V62.8965C20.6811 64.152 21.0337 65.1215 21.643 65.7442L21.7933 65.8809L47.4963 40.7962V40.2039L21.7933 15.1192L21.643 15.266Z" fill="url(#paint0_linear_3542_945)"/>
<path d="M56.0544 49.1621L47.4962 40.7963V40.204L56.0647 31.8382L56.2566 31.9471L66.404 37.5842C69.2999 39.1839 69.2999 41.8164 66.404 43.4263L56.2566 49.0533L56.0544 49.1621V49.1621Z" fill="url(#paint1_linear_3542_945)"/>
<path d="M56.2566 49.0533L47.4963 40.5002L21.6429 65.7443C22.6048 66.7315 24.1733 66.8505 25.957 65.8633L56.2566 49.0533" fill="url(#paint2_linear_3542_945)"/>
<path d="M56.2566 31.9469L25.957 15.1369C24.1733 14.1598 22.6048 14.2788 21.6429 15.266L47.4963 40.5L56.2566 31.9469Z" fill="url(#paint3_linear_3542_945)"/>
<path d="M98.3474 20.7443C98.3474 22.4352 97.8289 23.7894 96.8074 24.7994C95.6329 25.9967 94.1033 26.5991 92.2289 26.5991C90.4374 26.5991 88.9077 25.9865 87.6529 24.7791C86.3955 23.554 85.7681 22.0504 85.7681 20.2507C85.7681 18.451 86.3955 16.9474 87.6529 15.7324C88.9077 14.5149 90.4374 13.9023 92.2289 13.9023C93.1207 13.9023 93.9711 14.0821 94.7826 14.4162C95.5915 14.7528 96.25 15.2085 96.727 15.7704L95.6433 16.8386C94.8111 15.8793 93.6781 15.4059 92.2289 15.4059C90.9222 15.4059 89.7892 15.8514 88.8274 16.75C87.8759 17.6511 87.3989 18.818 87.3989 20.2507C87.3989 21.6834 87.8759 22.8604 88.8274 23.7616C89.7892 24.65 90.9222 25.1056 92.2289 25.1056C93.6159 25.1056 94.7826 24.65 95.7029 23.7514C96.3096 23.1566 96.6544 22.3365 96.7452 21.2885H92.2289V19.8255H98.254C98.3266 20.1419 98.3474 20.4482 98.3474 20.7443V20.7443Z" fill="white" stroke="white" stroke-width="0.16" stroke-miterlimit="10"/>
<path d="M107.906 15.6716H102.247V19.5191H107.349V20.9821H102.247V24.8296H107.906V26.3205H100.644V14.1807H107.906V15.6716Z" fill="white" stroke="white" stroke-width="0.16" stroke-miterlimit="10"/>
<path d="M114.652 26.3205H113.05V15.6716H109.578V14.1807H118.126V15.6716H114.652V26.3205V26.3205Z" fill="white" stroke="white" stroke-width="0.16" stroke-miterlimit="10"/>
<path d="M124.312 26.3205V14.1807H125.912V26.3205H124.312Z" fill="white" stroke="white" stroke-width="0.16" stroke-miterlimit="10"/>
<path d="M133.003 26.3205H131.413V15.6716H127.929V14.1807H136.487V15.6716H133.003V26.3205Z" fill="white" stroke="white" stroke-width="0.16" stroke-miterlimit="10"/>
<path d="M152.67 24.7589C151.444 25.9865 149.924 26.5991 148.112 26.5991C146.29 26.5991 144.77 25.9865 143.544 24.7589C142.32 23.5337 141.711 22.0302 141.711 20.2507C141.711 18.4712 142.32 16.9677 143.544 15.7426C144.77 14.5149 146.29 13.9023 148.112 13.9023C149.914 13.9023 151.433 14.5149 152.66 15.7527C153.894 16.9879 154.503 18.4814 154.503 20.2507C154.503 22.0302 153.894 23.5337 152.67 24.7589ZM144.729 23.7413C145.652 24.65 146.774 25.1056 148.112 25.1056C149.44 25.1056 150.573 24.65 151.485 23.7413C152.406 22.8326 152.872 21.6657 152.872 20.2507C152.872 18.8357 152.406 17.6688 151.485 16.7601C150.573 15.8514 149.44 15.3958 148.112 15.3958C146.774 15.3958 145.652 15.8514 144.729 16.7601C143.808 17.6688 143.342 18.8357 143.342 20.2507C143.342 21.6657 143.808 22.8326 144.729 23.7413V23.7413Z" fill="white" stroke="white" stroke-width="0.16" stroke-miterlimit="10"/>
<path d="M156.751 26.3205V14.1807H158.695L164.741 23.6222H164.811L164.741 21.2884V14.1807H166.341V26.3205H164.671L158.34 16.4132H158.27L158.34 18.7572V26.3205H156.751V26.3205Z" fill="white" stroke="white" stroke-width="0.16" stroke-miterlimit="10"/>
<path d="M141.317 44.0487C136.446 44.0487 132.466 47.6684 132.466 52.6626C132.466 57.6162 136.446 61.2739 141.317 61.2739C146.199 61.2739 150.178 57.6162 150.178 52.6626C150.178 47.6684 146.199 44.0487 141.317 44.0487ZM141.317 57.882C138.644 57.882 136.344 55.7279 136.344 52.6626C136.344 49.5567 138.644 47.4406 141.317 47.4406C143.99 47.4406 146.3 49.5567 146.3 52.6626C146.3 55.7279 143.99 57.882 141.317 57.882V57.882ZM122.005 44.0487C117.123 44.0487 113.154 47.6684 113.154 52.6626C113.154 57.6162 117.123 61.2739 122.005 61.2739C126.884 61.2739 130.856 57.6162 130.856 52.6626C130.856 47.6684 126.884 44.0487 122.005 44.0487ZM122.005 57.882C119.329 57.882 117.022 55.7279 117.022 52.6626C117.022 49.5567 119.329 47.4406 122.005 47.4406C124.678 47.4406 126.977 49.5567 126.977 52.6626C126.977 55.7279 124.678 57.882 122.005 57.882ZM99.0241 46.6888V50.349H107.976C107.714 52.3942 107.014 53.8978 105.941 54.9457C104.634 56.2114 102.599 57.6162 99.0241 57.6162C93.5148 57.6162 89.2007 53.2751 89.2007 47.8962C89.2007 42.5173 93.5148 38.1762 99.0241 38.1762C102.003 38.1762 104.17 39.3128 105.77 40.7859L108.412 38.2066C106.174 36.1208 103.198 34.5186 99.0241 34.5186C91.4692 34.5186 85.12 40.5202 85.12 47.8962C85.12 55.2723 91.4692 61.2739 99.0241 61.2739C103.107 61.2739 106.174 59.9677 108.586 57.5175C111.056 55.1052 111.826 51.7133 111.826 48.9745C111.826 48.124 111.754 47.3419 111.624 46.6888H99.0241ZM192.995 49.5263C192.267 47.6001 190.019 44.0487 185.44 44.0487C180.903 44.0487 177.126 47.5393 177.126 52.6626C177.126 57.4871 180.864 61.2739 185.876 61.2739C189.928 61.2739 192.267 58.8616 193.228 57.4567L190.221 55.5001C189.218 56.9328 187.851 57.882 185.876 57.882C183.913 57.882 182.506 57.0037 181.603 55.2723L193.402 50.5059L192.995 49.5263V49.5263ZM180.966 52.3942C180.864 49.0732 183.607 47.3722 185.573 47.3722C187.113 47.3722 188.419 48.124 188.855 49.1998L180.966 52.3942V52.3942ZM171.376 60.7499H175.254V35.4374H171.376V60.7499ZM165.024 45.9674H164.894C164.023 44.96 162.361 44.0487 160.256 44.0487C155.838 44.0487 151.799 47.8355 151.799 52.6904C151.799 57.5175 155.838 61.2739 160.256 61.2739C162.361 61.2739 164.023 60.355 164.894 59.3172H165.024V60.5525C165.024 63.8456 163.222 65.615 160.316 65.615C157.946 65.615 156.476 63.9443 155.869 62.5395L152.496 63.914C153.468 66.1971 156.043 69.0068 160.316 69.0068C164.863 69.0068 168.7 66.3946 168.7 60.0386V44.5727H165.024V45.9674V45.9674ZM160.588 57.882C157.915 57.882 155.677 55.6975 155.677 52.6904C155.677 49.6554 157.915 47.4406 160.588 47.4406C163.222 47.4406 165.298 49.6554 165.298 52.6904C165.298 55.6975 163.222 57.882 160.588 57.882V57.882ZM211.154 35.4374H201.877V60.7499H205.746V51.159H211.154C215.45 51.159 219.663 48.124 219.663 43.2969C219.663 38.4724 215.439 35.4374 211.154 35.4374V35.4374ZM211.255 47.638H205.746V38.9584H211.255C214.143 38.9584 215.792 41.2998 215.792 43.2969C215.792 45.2561 214.143 47.638 211.255 47.638ZM235.166 44.0006C232.371 44.0006 229.465 45.2055 228.27 47.876L231.703 49.2808C232.441 47.876 233.8 47.4203 235.236 47.4203C237.243 47.4203 239.278 48.5974 239.309 50.6755V50.9413C238.609 50.5464 237.111 49.9617 235.267 49.9617C231.57 49.9617 227.803 51.9487 227.803 55.657C227.803 59.0489 230.831 61.2334 234.235 61.2334C236.838 61.2334 238.275 60.0867 239.177 58.7527H239.309V60.7094H243.045V50.9995C243.045 46.5116 239.613 44.0006 235.166 44.0006ZM234.7 57.8719C233.434 57.8719 231.671 57.2593 231.671 55.7279C231.671 53.7687 233.87 53.0169 235.773 53.0169C237.476 53.0169 238.275 53.384 239.309 53.8674C239.006 56.2114 236.94 57.8719 234.7 57.8719V57.8719ZM256.656 44.555L252.21 55.5279H252.078L247.481 44.555H243.31L250.216 59.8893L246.275 68.4221H250.317L260.96 44.555H256.656V44.555ZM221.788 60.7499H225.667V35.4374H221.788V60.7499Z" fill="white"/>
<defs>
<linearGradient id="paint0_linear_3542_945" x1="45.2142" y1="63.3629" x2="11.2396" y2="28.5649" gradientUnits="userSpaceOnUse">
<stop stop-color="#00A0FF"/>
<stop offset="0.0066" stop-color="#00A1FF"/>
<stop offset="0.2601" stop-color="#00BEFF"/>
<stop offset="0.5122" stop-color="#00D2FF"/>
<stop offset="0.7604" stop-color="#00DFFF"/>
<stop offset="1" stop-color="#00E3FF"/>
</linearGradient>
<linearGradient id="paint1_linear_3542_945" x1="70.175" y1="40.4973" x2="19.9888" y2="40.4973" gradientUnits="userSpaceOnUse">
<stop stop-color="#FFE000"/>
<stop offset="0.4087" stop-color="#FFBD00"/>
<stop offset="0.7754" stop-color="#FFA500"/>
<stop offset="1" stop-color="#FF9C00"/>
</linearGradient>
<linearGradient id="paint2_linear_3542_945" x1="51.493" y1="35.8506" x2="5.42067" y2="-11.3383" gradientUnits="userSpaceOnUse">
<stop stop-color="#FF3A44"/>
<stop offset="1" stop-color="#C31162"/>
</linearGradient>
<linearGradient id="paint3_linear_3542_945" x1="15.1351" y1="80.6432" x2="35.7085" y2="59.5715" gradientUnits="userSpaceOnUse">
<stop stop-color="#32A071"/>
<stop offset="0.0685" stop-color="#2DA771"/>
<stop offset="0.4762" stop-color="#15CF74"/>
<stop offset="0.8009" stop-color="#06E775"/>
<stop offset="1" stop-color="#00F076"/>
</linearGradient>
</defs>
</svg>
