<svg width="20" height="20" viewBox="0 0 20 20" fill="none" xmlns="http://www.w3.org/2000/svg">
<path d="M17.8125 8.46875C18.1654 8.39671 18.4826 8.20494 18.7104 7.92591C18.9382 7.64687 19.0626 7.2977 19.0625 6.9375V5C19.0604 4.58623 18.8952 4.19 18.6026 3.89741C18.31 3.60483 17.9138 3.43955 17.5 3.4375H2.5C2.08623 3.43955 1.69 3.60483 1.39741 3.89741C1.10483 4.19 0.939554 4.58623 0.9375 5V6.9375C0.937427 7.2977 1.06181 7.64687 1.28959 7.92591C1.51738 8.20494 1.83457 8.39671 2.1875 8.46875C2.54072 8.54047 2.85827 8.7321 3.08637 9.01117C3.31446 9.29024 3.43907 9.63958 3.43907 10C3.43907 10.3604 3.31446 10.7098 3.08637 10.9888C2.85827 11.2679 2.54072 11.4595 2.1875 11.5313C1.83457 11.6033 1.51738 11.7951 1.28959 12.0741C1.06181 12.3531 0.937427 12.7023 0.9375 13.0625V15C0.939554 15.4138 1.10483 15.81 1.39741 16.1026C1.69 16.3952 2.08623 16.5604 2.5 16.5625H17.5C17.9138 16.5604 18.31 16.3952 18.6026 16.1026C18.8952 15.81 19.0604 15.4138 19.0625 15V13.0625C19.0626 12.7023 18.9382 12.3531 18.7104 12.0741C18.4826 11.7951 18.1654 11.6033 17.8125 11.5313C17.4593 11.4595 17.1417 11.2679 16.9136 10.9888C16.6855 10.7098 16.5609 10.3604 16.5609 10C16.5609 9.63958 16.6855 9.29024 16.9136 9.01117C17.1417 8.7321 17.4593 8.54047 17.8125 8.46875ZM2.8125 13.3047C3.53031 13.0991 4.16168 12.6655 4.61115 12.0692C5.06061 11.473 5.30372 10.7467 5.30372 10C5.30372 9.25334 5.06061 8.52698 4.61115 7.93075C4.16168 7.33453 3.53031 6.90085 2.8125 6.69531V5.3125H6.5625V14.6875H2.8125V13.3047ZM17.1875 13.3047V14.6875H8.4375V5.3125H17.1875V6.69531C16.4697 6.90085 15.8383 7.33453 15.3889 7.93075C14.9394 8.52698 14.6963 9.25334 14.6963 10C14.6963 10.7467 14.9394 11.473 15.3889 12.0692C15.8383 12.6655 16.4697 13.0991 17.1875 13.3047Z" fill="#00D059"/>
</svg>
