<svg width="23" height="20" viewBox="0 0 23 20" fill="none" xmlns="http://www.w3.org/2000/svg">
<path d="M18.3145 8.46875C18.6674 8.39671 18.9846 8.20494 19.2124 7.92591C19.4401 7.64687 19.5645 7.2977 19.5645 6.9375V5C19.5624 4.58623 19.3971 4.19 19.1045 3.89741C18.812 3.60483 18.4157 3.43955 18.002 3.4375H3.00195C2.58819 3.43955 2.19195 3.60483 1.89937 3.89741C1.60679 4.19 1.44151 4.58623 1.43945 5V6.9375C1.43938 7.2977 1.56376 7.64687 1.79154 7.92591C2.01933 8.20494 2.33653 8.39671 2.68945 8.46875C3.04267 8.54047 3.36023 8.7321 3.58832 9.01117C3.81642 9.29024 3.94102 9.63958 3.94102 10C3.94102 10.3604 3.81642 10.7098 3.58832 10.9888C3.36023 11.2679 3.04267 11.4595 2.68945 11.5313C2.33653 11.6033 2.01933 11.7951 1.79154 12.0741C1.56376 12.3531 1.43938 12.7023 1.43945 13.0625V15C1.44151 15.4138 1.60679 15.81 1.89937 16.1026C2.19195 16.3952 2.58819 16.5604 3.00195 16.5625H18.002C18.4157 16.5604 18.812 16.3952 19.1045 16.1026C19.3971 15.81 19.5624 15.4138 19.5645 15V13.0625C19.5645 12.7023 19.4401 12.3531 19.2124 12.0741C18.9846 11.7951 18.6674 11.6033 18.3145 11.5313C17.9612 11.4595 17.6437 11.2679 17.4156 10.9888C17.1875 10.7098 17.0629 10.3604 17.0629 10C17.0629 9.63958 17.1875 9.29024 17.4156 9.01117C17.6437 8.7321 17.9612 8.54047 18.3145 8.46875ZM3.31445 13.3047C4.03227 13.0991 4.66364 12.6655 5.1131 12.0692C5.56256 11.473 5.80567 10.7467 5.80567 10C5.80567 9.25334 5.56256 8.52698 5.1131 7.93075C4.66364 7.33453 4.03227 6.90085 3.31445 6.69531V5.3125H7.06445V14.6875H3.31445V13.3047ZM17.6895 13.3047V14.6875H8.93945V5.3125H17.6895V6.69531C16.9716 6.90085 16.3403 7.33453 15.8908 7.93075C15.4413 8.52698 15.1982 9.25334 15.1982 10C15.1982 10.7467 15.4413 11.473 15.8908 12.0692C16.3403 12.6655 16.9716 13.0991 17.6895 13.3047Z" fill="#00D059"/>
<g clip-path="url(#clip0_19074_10933)">
<path d="M22.002 15C22.002 17.4853 19.9872 19.5 17.502 19.5C15.0167 19.5 13.002 17.4853 13.002 15C13.002 12.5147 15.0167 10.5 17.502 10.5C19.9872 10.5 22.002 12.5147 22.002 15Z" fill="#00D059" stroke="url(#paint0_linear_19074_10933)"/>
<path d="M18.842 14.6791V13.6703C18.842 13.4987 18.8082 13.3287 18.7425 13.1701C18.6768 13.0116 18.5805 12.8675 18.4592 12.7461C18.3378 12.6247 18.1937 12.5285 18.0351 12.4628C17.8766 12.3971 17.7066 12.3633 17.535 12.3633H17.4689C17.1223 12.3633 16.7899 12.501 16.5447 12.7461C16.2996 12.9912 16.1619 13.3237 16.1619 13.6703V14.6791C15.9967 14.7167 15.8491 14.8093 15.7434 14.9417C15.6377 15.0741 15.5801 15.2386 15.5801 15.408V16.8893C15.5801 17.0875 15.6588 17.2776 15.799 17.4178C15.9392 17.558 16.1293 17.6367 16.3275 17.6367H18.6764C18.8746 17.6367 19.0647 17.558 19.2049 17.4178C19.3451 17.2776 19.4238 17.0875 19.4238 16.8893V15.408C19.4238 15.2386 19.3662 15.0741 19.2605 14.9417C19.1548 14.8093 19.0072 14.7167 18.842 14.6791ZM17.4689 12.8916H17.535C17.7414 12.8919 17.9393 12.974 18.0853 13.12C18.2313 13.2659 18.3134 13.4639 18.3137 13.6703V14.6604H16.6902V13.6703C16.6905 13.4639 16.7726 13.2659 16.9186 13.12C17.0646 12.974 17.2625 12.8919 17.4689 12.8916Z" fill="url(#paint1_linear_19074_10933)"/>
</g>
<defs>
<linearGradient id="paint0_linear_19074_10933" x1="17.502" y1="20" x2="17.502" y2="10" gradientUnits="userSpaceOnUse">
<stop offset="0.72" stop-color="#0F0F0F"/>
<stop offset="1" stop-color="#1A1A1A"/>
</linearGradient>
<linearGradient id="paint1_linear_19074_10933" x1="17.502" y1="17.6367" x2="17.502" y2="12.3633" gradientUnits="userSpaceOnUse">
<stop offset="0.72" stop-color="#0F0F0F"/>
<stop offset="1" stop-color="#1A1A1A"/>
</linearGradient>
<clipPath id="clip0_19074_10933">
<rect width="10" height="10" fill="white" transform="translate(12.502 10)"/>
</clipPath>
</defs>
</svg>
