<svg width="16" height="16" viewBox="0 0 16 16" fill="none" xmlns="http://www.w3.org/2000/svg">
<g clip-path="url(#clip0_14814_29979)">
<path d="M12.6687 3.38786C12.0623 2.78124 11.3408 2.30182 10.5466 1.9777C9.7524 1.65359 8.90149 1.4913 8.04375 1.50036H8C6.27609 1.50036 4.62279 2.18518 3.40381 3.40417C2.18482 4.62315 1.5 6.27645 1.5 8.00036V11.5004C1.50165 11.8977 1.66021 12.2783 1.94116 12.5592C2.22211 12.8402 2.60268 12.9987 3 13.0004H4C4.39732 12.9987 4.77789 12.8402 5.05884 12.5592C5.33979 12.2783 5.49835 11.8977 5.5 11.5004V9.00036C5.49835 8.60304 5.33979 8.22247 5.05884 7.94152C4.77789 7.66057 4.39732 7.502 4 7.50036H2.525C2.64755 6.12565 3.28361 4.8476 4.30642 3.92094C5.32922 2.99427 6.66365 2.48705 8.04375 2.50036H8.05C9.42928 2.48995 10.7621 2.99817 11.7843 3.92427C12.8065 4.85037 13.4434 6.12675 13.5687 7.50036H12.0937C11.6959 7.50036 11.3144 7.65839 11.0331 7.9397C10.7518 8.221 10.5937 8.60253 10.5937 9.00036V11.5004C10.5937 11.8982 10.7518 12.2797 11.0331 12.561C11.3144 12.8423 11.6959 13.0004 12.0937 13.0004H13.0937C13.2642 13.0003 13.4334 12.9707 13.5937 12.9129V13.0004C13.5921 13.3977 13.4335 13.7783 13.1526 14.0592C12.8716 14.3402 12.4911 14.4987 12.0937 14.5004H8.5C8.36739 14.5004 8.24021 14.553 8.14645 14.6468C8.05268 14.7406 8 14.8678 8 15.0004C8 15.133 8.05268 15.2601 8.14645 15.3539C8.24021 15.4477 8.36739 15.5004 8.5 15.5004H12.0937C12.7563 15.4987 13.3912 15.2348 13.8597 14.7663C14.3282 14.2978 14.5921 13.6629 14.5937 13.0004V8.00036C14.5948 7.14228 14.4252 6.29256 14.0947 5.50068C13.7642 4.7088 13.2795 3.99059 12.6687 3.38786ZM4 8.50036C4.13261 8.50036 4.25978 8.55304 4.35355 8.64681C4.44732 8.74057 4.5 8.86775 4.5 9.00036V11.5004C4.5 11.633 4.44732 11.7601 4.35355 11.8539C4.25978 11.9477 4.13261 12.0004 4 12.0004H3C2.86739 12.0004 2.74021 11.9477 2.64645 11.8539C2.55268 11.7601 2.5 11.633 2.5 11.5004V8.50036H4ZM13.0937 12.0004H12.0937C11.9611 12.0004 11.834 11.9477 11.7402 11.8539C11.6464 11.7601 11.5937 11.633 11.5937 11.5004V9.00036C11.5937 8.86775 11.6464 8.74057 11.7402 8.64681C11.834 8.55304 11.9611 8.50036 12.0937 8.50036H13.5937V11.5004C13.5937 11.633 13.5411 11.7601 13.4473 11.8539C13.3535 11.9477 13.2264 12.0004 13.0937 12.0004Z" fill="white"/>
</g>
<defs>
<clipPath id="clip0_14814_29979">
<rect width="16" height="16" fill="white"/>
</clipPath>
</defs>
</svg>
