<svg width="60" height="60" viewBox="0 0 60 60" fill="none" xmlns="http://www.w3.org/2000/svg">
<g filter="url(#filter0_b_14319_24677)">
<rect width="60" height="60" rx="30" fill="url(#paint0_linear_14319_24677)" fill-opacity="0.7"/>
<rect x="0.5" y="0.5" width="59" height="59" rx="29.5" stroke="url(#paint1_linear_14319_24677)"/>
<path opacity="0.2" d="M21.1995 33.1998L26.7995 38.7998L20.012 41.2623C19.8339 41.3304 19.6399 41.3455 19.4534 41.3057C19.2669 41.2659 19.0959 41.173 18.9611 41.0382C18.8263 40.9034 18.7334 40.7324 18.6936 40.5459C18.6538 40.3595 18.6689 40.1654 18.737 39.9873L21.1995 33.1998ZM38.887 32.8873L27.112 21.1123C26.9933 20.9927 26.8463 20.9049 26.6846 20.8572C26.523 20.8096 26.3519 20.8035 26.1872 20.8397C26.0226 20.8759 25.8698 20.9531 25.743 21.0641C25.6162 21.1751 25.5195 21.3164 25.462 21.4748L23.5995 26.5998L33.3995 36.3998L38.5245 34.5373C38.6829 34.4798 38.8242 34.3831 38.9352 34.2563C39.0463 34.1295 39.1234 33.9767 39.1596 33.8121C39.1958 33.6474 39.1898 33.4763 39.1421 33.3147C39.0944 33.153 39.0067 33.006 38.887 32.8873Z" fill="#F5FFF9"/>
<path d="M27.813 20.4C27.5781 20.161 27.2859 19.9861 26.9642 19.892C26.6426 19.7979 26.3022 19.7877 25.9755 19.8625C25.6458 19.9354 25.34 20.0905 25.0865 20.3134C24.8329 20.5364 24.6399 20.8199 24.5255 21.1375L17.788 39.65C17.6829 39.9513 17.651 40.2733 17.6949 40.5893C17.7388 40.9054 17.8571 41.2065 18.0403 41.4678C18.2235 41.7291 18.4661 41.9431 18.7483 42.0921C19.0304 42.2412 19.3439 42.321 19.663 42.325C19.8968 42.3253 20.129 42.2873 20.3505 42.2125L38.863 35.475C39.1806 35.3606 39.4641 35.1676 39.6871 34.9141C39.91 34.6605 40.0651 34.3547 40.138 34.025C40.2128 33.6983 40.2026 33.3579 40.1085 33.0363C40.0144 32.7146 39.8395 32.4224 39.6005 32.1875L27.813 20.4ZM27.063 37.6375L22.363 32.9375L24.0005 28.4125L31.588 36L27.063 37.6375ZM19.6755 40.325L21.6005 35.0125L24.988 38.4L19.6755 40.325ZM33.663 35.2375L24.763 26.3375L26.4005 21.8125L38.188 33.6L33.663 35.2375ZM34.0005 23C34.0189 22.3237 34.1808 21.659 34.4755 21.05C35.138 19.725 36.388 19 38.0005 19C38.838 19 39.3755 18.7125 39.713 18.1C39.8851 17.7532 39.983 17.3743 40.0005 16.9875C40.0005 16.8568 40.0264 16.7273 40.0769 16.6067C40.1273 16.4861 40.2011 16.3766 40.2941 16.2848C40.3872 16.1929 40.4975 16.1204 40.6188 16.0716C40.74 16.0227 40.8698 15.9983 41.0005 16C41.2657 16 41.5201 16.1054 41.7076 16.2929C41.8951 16.4804 42.0005 16.7348 42.0005 17C42.0005 18.6125 40.938 21 38.0005 21C37.163 21 36.6255 21.2875 36.288 21.9C36.116 22.2468 36.018 22.6257 36.0005 23.0125C36.0005 23.1432 35.9746 23.2727 35.9242 23.3933C35.8738 23.5139 35.7999 23.6234 35.7069 23.7152C35.6138 23.8071 35.5035 23.8796 35.3822 23.9284C35.261 23.9773 35.1312 24.0017 35.0005 24C34.7353 24 34.4809 23.8946 34.2934 23.7071C34.1059 23.5196 34.0005 23.2652 34.0005 23ZM31.0005 19V16C31.0005 15.7348 31.1059 15.4804 31.2934 15.2929C31.4809 15.1054 31.7353 15 32.0005 15C32.2657 15 32.5201 15.1054 32.7076 15.2929C32.8952 15.4804 33.0005 15.7348 33.0005 16V19C33.0005 19.2652 32.8952 19.5196 32.7076 19.7071C32.5201 19.8946 32.2657 20 32.0005 20C31.7353 20 31.4809 19.8946 31.2934 19.7071C31.1059 19.5196 31.0005 19.2652 31.0005 19ZM43.713 29.2875C43.9008 29.4771 44.0061 29.7332 44.0061 30C44.0061 30.2668 43.9008 30.5229 43.713 30.7125C43.5219 30.8973 43.2664 31.0006 43.0005 31.0006C42.7346 31.0006 42.4791 30.8973 42.288 30.7125L40.288 28.7125C40.1285 28.5182 40.0471 28.2715 40.0594 28.0205C40.0717 27.7694 40.177 27.5319 40.3547 27.3542C40.5324 27.1765 40.7699 27.0712 41.021 27.0589C41.272 27.0465 41.5187 27.128 41.713 27.2875L43.713 29.2875ZM44.313 23.95L41.313 24.95C41.2125 24.9847 41.1068 25.0017 41.0005 25C40.7627 25.0001 40.5326 24.9154 40.3516 24.7611C40.1706 24.6068 40.0505 24.3931 40.0129 24.1582C39.9752 23.9234 40.0225 23.6828 40.1463 23.4797C40.27 23.2766 40.4621 23.1243 40.688 23.05L43.688 22.05C43.8128 22.009 43.9444 21.9929 44.0753 22.0027C44.2063 22.0126 44.3341 22.0481 44.4513 22.1073C44.5685 22.1665 44.6729 22.2482 44.7586 22.3477C44.8443 22.4473 44.9095 22.5627 44.9505 22.6875C44.9915 22.8123 45.0076 22.9439 44.9978 23.0748C44.988 23.2058 44.9524 23.3335 44.8932 23.4508C44.834 23.568 44.7523 23.6724 44.6528 23.7581C44.5532 23.8438 44.4378 23.909 44.313 23.95Z" fill="#F5FFF9"/>
</g>
<defs>
<filter id="filter0_b_14319_24677" x="-8" y="-8" width="76" height="76" filterUnits="userSpaceOnUse" color-interpolation-filters="sRGB">
<feFlood flood-opacity="0" result="BackgroundImageFix"/>
<feGaussianBlur in="BackgroundImageFix" stdDeviation="4"/>
<feComposite in2="SourceAlpha" operator="in" result="effect1_backgroundBlur_14319_24677"/>
<feBlend mode="normal" in="SourceGraphic" in2="effect1_backgroundBlur_14319_24677" result="shape"/>
</filter>
<linearGradient id="paint0_linear_14319_24677" x1="60" y1="30" x2="0" y2="30" gradientUnits="userSpaceOnUse">
<stop stop-color="#00A849"/>
<stop offset="1" stop-color="#00421D"/>
</linearGradient>
<linearGradient id="paint1_linear_14319_24677" x1="5.625" y1="14.625" x2="2.86661" y2="53.3586" gradientUnits="userSpaceOnUse">
<stop stop-color="#055F2C"/>
<stop offset="0.195" stop-color="#0BA44E"/>
<stop offset="0.465622" stop-color="#002B12"/>
<stop offset="0.795447" stop-color="#0CAA51"/>
<stop offset="1" stop-color="#13FF7A"/>
</linearGradient>
</defs>
</svg>
