<svg width="59" height="58" viewBox="0 0 59 58" fill="none" xmlns="http://www.w3.org/2000/svg">
<path d="M49.7931 45.4072C46.8776 40.3848 42.2109 36.6153 36.6876 34.8213C39.3351 33.247 41.3924 30.8471 42.5436 27.9901C43.6947 25.1332 43.8761 21.9773 43.0598 19.0073C42.2434 16.0374 40.4745 13.4175 38.0249 11.5503C35.5752 9.68315 32.5803 8.67187 29.5001 8.67188C26.42 8.67187 23.4251 9.68315 20.9754 11.5503C18.5257 13.4175 16.7569 16.0374 15.9405 19.0073C15.1242 21.9773 15.3055 25.1332 16.4567 27.9901C17.6079 30.8471 19.6652 33.247 22.3126 34.8213C16.7894 36.6153 12.1227 40.3848 9.20717 45.4072C9.08488 45.5846 9.00061 45.7854 8.95965 45.997C8.91869 46.2085 8.92192 46.4262 8.96914 46.6365C9.01636 46.8467 9.10656 47.0449 9.23406 47.2186C9.36155 47.3923 9.5236 47.5377 9.71001 47.6458C9.89642 47.7539 10.1032 47.8222 10.3173 47.8465C10.5314 47.8708 10.7482 47.8506 10.9541 47.7871C11.16 47.7236 11.3505 47.6183 11.5137 47.4776C11.6769 47.3369 11.8093 47.164 11.9025 46.9697C13.6884 43.8838 16.2544 41.3217 19.3431 39.5405C22.4318 37.7593 25.9346 36.8217 29.5001 36.8217C33.0656 36.8217 36.5684 37.7593 39.6572 39.5405C42.7459 41.3217 45.3119 43.8838 47.0978 46.9697C47.191 47.164 47.3233 47.3369 47.4865 47.4776C47.6498 47.6183 47.8403 47.7236 48.0462 47.7871C48.2521 47.8506 48.4689 47.8708 48.683 47.8465C48.8971 47.8222 49.1039 47.7539 49.2903 47.6458C49.4767 47.5377 49.6387 47.3923 49.7662 47.2186C49.8937 47.0449 49.9839 46.8467 50.0311 46.6365C50.0784 46.4262 50.0816 46.2085 50.0406 45.997C49.9997 45.7854 49.9154 45.5846 49.7931 45.4072ZM18.5626 22.751C18.5626 20.5878 19.2041 18.4731 20.4059 16.6744C21.6078 14.8758 23.316 13.4739 25.3145 12.6461C27.3131 11.8182 29.5123 11.6016 31.6339 12.0236C33.7556 12.4457 35.7045 13.4874 37.2341 15.017C38.7638 16.5466 39.8055 18.4955 40.2275 20.6172C40.6495 22.7389 40.4329 24.938 39.6051 26.9366C38.7772 28.9352 37.3754 30.6434 35.5767 31.8452C33.778 33.047 31.6634 33.6885 29.5001 33.6885C26.5993 33.6885 23.8173 32.5361 21.7662 30.485C19.715 28.4338 18.5626 25.6518 18.5626 22.751Z" fill="#C7330A"/>
</svg>
