<svg width="14" height="14" viewBox="0 0 14 14" fill="none" xmlns="http://www.w3.org/2000/svg">
<path d="M9.16559 4.83342C9.2474 4.91544 9.29335 5.02656 9.29335 5.14241C9.29335 5.25826 9.2474 5.36938 9.16559 5.45139L5.4523 9.16467C5.3696 9.24518 5.25874 9.29023 5.14332 9.29023C5.0279 9.29023 4.91704 9.24518 4.83434 9.16467C4.75252 9.08266 4.70657 8.97154 4.70657 8.85569C4.70657 8.73984 4.75252 8.62872 4.83434 8.54671L8.54762 4.83342C8.62963 4.75161 8.74075 4.70566 8.8566 4.70566C8.97245 4.70566 9.08357 4.75161 9.16559 4.83342ZM7.61793 9.47639L6.07027 11.0186C5.86832 11.2231 5.62777 11.3855 5.36256 11.4964C5.09736 11.6072 4.81279 11.6643 4.52535 11.6643C4.23792 11.6643 3.95334 11.6072 3.68814 11.4964C3.42294 11.3855 3.18238 11.2231 2.98043 11.0186C2.57134 10.6085 2.3416 10.0529 2.3416 9.47366C2.3416 8.89442 2.57134 8.33882 2.98043 7.92874L4.52262 6.38108C4.59802 6.29786 4.63854 6.18882 4.63578 6.07655C4.63301 5.96428 4.58718 5.85737 4.50777 5.77796C4.42836 5.69855 4.32145 5.65272 4.20918 5.64995C4.09691 5.64719 3.98787 5.6877 3.90465 5.76311L2.35699 7.31077C1.78263 7.88513 1.45996 8.66413 1.45996 9.47639C1.45996 10.2887 1.78263 11.0677 2.35699 11.642C2.93135 12.2164 3.71035 12.539 4.52262 12.539C5.33488 12.539 6.11388 12.2164 6.68824 11.642L8.2359 10.0944C8.31772 10.0123 8.36366 9.90123 8.36366 9.78538C8.36366 9.66953 8.31772 9.55841 8.2359 9.47639C8.19566 9.43522 8.1476 9.4025 8.09454 9.38017C8.04148 9.35783 7.98448 9.34632 7.92691 9.34632C7.86934 9.34632 7.81235 9.35783 7.75929 9.38017C7.70623 9.4025 7.65817 9.43522 7.61793 9.47639ZM11.6429 2.35608C11.3585 2.07167 11.0209 1.84606 10.6493 1.69213C10.2778 1.53821 9.8795 1.45898 9.4773 1.45898C9.0751 1.45898 8.67684 1.53821 8.30526 1.69213C7.93368 1.84606 7.59606 2.07167 7.31168 2.35608L5.76402 3.90374C5.68862 3.98696 5.6481 4.09599 5.65086 4.20827C5.65363 4.32054 5.69946 4.42744 5.77887 4.50686C5.85828 4.58627 5.96519 4.6321 6.07746 4.63486C6.18973 4.63763 6.29877 4.59711 6.38199 4.52171L7.92965 2.97952C8.1316 2.77498 8.37215 2.61259 8.63736 2.50175C8.90256 2.39091 9.18714 2.33383 9.47457 2.33383C9.762 2.33383 10.0466 2.39091 10.3118 2.50175C10.577 2.61259 10.8175 2.77498 11.0195 2.97952C11.4286 3.3896 11.6583 3.9452 11.6583 4.52444C11.6583 5.10368 11.4286 5.65928 11.0195 6.06936L9.4773 7.61702C9.43613 7.65726 9.40341 7.70532 9.38108 7.75838C9.35874 7.81144 9.34723 7.86843 9.34723 7.926C9.34723 7.98357 9.35874 8.04056 9.38108 8.09363C9.40341 8.14669 9.43613 8.19475 9.4773 8.23499C9.51674 8.27655 9.56424 8.30962 9.6169 8.33219C9.66955 8.35476 9.72626 8.36634 9.78355 8.36624C9.84162 8.36614 9.89909 8.35449 9.95261 8.33195C10.0061 8.30942 10.0546 8.27646 10.0953 8.23499L11.6429 6.68733C12.216 6.11228 12.5378 5.33354 12.5378 4.52171C12.5378 3.70987 12.216 2.93113 11.6429 2.35608Z" fill="#F5FFF9"/>
</svg>
