<svg width="30" height="30" viewBox="0 0 30 30" fill="none" xmlns="http://www.w3.org/2000/svg">
<g filter="url(#filter0_i_21148_64505)">
<rect width="30" height="30" rx="6" fill="url(#paint0_linear_21148_64505)"/>
<rect x="0.5" y="0.5" width="29" height="29" rx="5.5" stroke="url(#paint1_linear_21148_64505)"/>
<path d="M15.0039 8.875C13.728 8.87645 12.5048 9.38394 11.6026 10.2861C10.7003 11.1884 10.1929 12.4116 10.1914 13.6875C10.1914 17.8055 14.5664 20.9172 14.7523 21.0484C14.8269 21.0981 14.9144 21.1245 15.0039 21.1245C15.0934 21.1245 15.181 21.0981 15.2555 21.0484C15.4414 20.9172 19.8164 17.8055 19.8164 13.6875C19.815 12.4116 19.3075 11.1884 18.4053 10.2861C17.5031 9.38394 16.2798 8.87645 15.0039 8.875ZM15.0039 11.9375C15.35 11.9375 15.6884 12.0401 15.9762 12.2324C16.2639 12.4247 16.4882 12.698 16.6207 13.0178C16.7531 13.3376 16.7878 13.6894 16.7203 14.0289C16.6528 14.3684 16.4861 14.6802 16.2413 14.9249C15.9966 15.1697 15.6848 15.3364 15.3453 15.4039C15.0058 15.4714 14.654 15.4367 14.3342 15.3043C14.0144 15.1718 13.7411 14.9475 13.5488 14.6597C13.3565 14.372 13.2539 14.0336 13.2539 13.6875C13.2539 13.2234 13.4383 12.7783 13.7665 12.4501C14.0947 12.1219 14.5398 11.9375 15.0039 11.9375Z" fill="#F5FFF9"/>
</g>
<defs>
<filter id="filter0_i_21148_64505" x="0" y="0" width="30" height="33" filterUnits="userSpaceOnUse" color-interpolation-filters="sRGB">
<feFlood flood-opacity="0" result="BackgroundImageFix"/>
<feBlend mode="normal" in="SourceGraphic" in2="BackgroundImageFix" result="shape"/>
<feColorMatrix in="SourceAlpha" type="matrix" values="0 0 0 0 0 0 0 0 0 0 0 0 0 0 0 0 0 0 127 0" result="hardAlpha"/>
<feOffset dy="3"/>
<feGaussianBlur stdDeviation="2.5"/>
<feComposite in2="hardAlpha" operator="arithmetic" k2="-1" k3="1"/>
<feColorMatrix type="matrix" values="0 0 0 0 0.137255 0 0 0 0 0.137255 0 0 0 0 0.137255 0 0 0 1 0"/>
<feBlend mode="normal" in2="shape" result="effect1_innerShadow_21148_64505"/>
</filter>
<linearGradient id="paint0_linear_21148_64505" x1="15" y1="30" x2="15" y2="0" gradientUnits="userSpaceOnUse">
<stop offset="0.72" stop-color="#0F0F0F"/>
<stop offset="1" stop-color="#1A1A1A"/>
</linearGradient>
<linearGradient id="paint1_linear_21148_64505" x1="15" y1="30" x2="15" y2="0" gradientUnits="userSpaceOnUse">
<stop stop-color="white" stop-opacity="0.06"/>
<stop offset="1" stop-color="white" stop-opacity="0.06"/>
</linearGradient>
</defs>
</svg>
