<svg width="30" height="30" viewBox="0 0 30 30" fill="none" xmlns="http://www.w3.org/2000/svg">
<g filter="url(#filter0_i_15289_36867)">
<rect width="30" height="30" rx="6" fill="url(#paint0_linear_15289_36867)"/>
<rect x="0.5" y="0.5" width="29" height="29" rx="5.5" stroke="url(#paint1_linear_15289_36867)"/>
<path d="M15.0054 8.875C13.7295 8.87645 12.5062 9.38394 11.604 10.2861C10.7018 11.1884 10.1943 12.4116 10.1929 13.6875C10.1929 17.8055 14.5679 20.9172 14.7538 21.0484C14.8283 21.0981 14.9158 21.1245 15.0054 21.1245C15.0949 21.1245 15.1824 21.0981 15.2569 21.0484C15.4429 20.9172 19.8179 17.8055 19.8179 13.6875C19.8164 12.4116 19.3089 11.1884 18.4067 10.2861C17.5045 9.38394 16.2813 8.87645 15.0054 8.875ZM15.0054 11.9375C15.3515 11.9375 15.6898 12.0401 15.9776 12.2324C16.2654 12.4247 16.4897 12.698 16.6222 13.0178C16.7546 13.3376 16.7893 13.6894 16.7217 14.0289C16.6542 14.3684 16.4875 14.6802 16.2428 14.9249C15.9981 15.1697 15.6862 15.3364 15.3468 15.4039C15.0073 15.4714 14.6554 15.4367 14.3357 15.3043C14.0159 15.1718 13.7426 14.9475 13.5503 14.6597C13.358 14.372 13.2554 14.0336 13.2554 13.6875C13.2554 13.2234 13.4397 12.7783 13.7679 12.4501C14.0961 12.1219 14.5412 11.9375 15.0054 11.9375Z" fill="#F5FFF9"/>
</g>
<defs>
<filter id="filter0_i_15289_36867" x="0" y="0" width="30" height="33" filterUnits="userSpaceOnUse" color-interpolation-filters="sRGB">
<feFlood flood-opacity="0" result="BackgroundImageFix"/>
<feBlend mode="normal" in="SourceGraphic" in2="BackgroundImageFix" result="shape"/>
<feColorMatrix in="SourceAlpha" type="matrix" values="0 0 0 0 0 0 0 0 0 0 0 0 0 0 0 0 0 0 127 0" result="hardAlpha"/>
<feOffset dy="3"/>
<feGaussianBlur stdDeviation="2.5"/>
<feComposite in2="hardAlpha" operator="arithmetic" k2="-1" k3="1"/>
<feColorMatrix type="matrix" values="0 0 0 0 0.137255 0 0 0 0 0.137255 0 0 0 0 0.137255 0 0 0 1 0"/>
<feBlend mode="normal" in2="shape" result="effect1_innerShadow_15289_36867"/>
</filter>
<linearGradient id="paint0_linear_15289_36867" x1="15" y1="30" x2="15" y2="0" gradientUnits="userSpaceOnUse">
<stop offset="0.72" stop-color="#0F0F0F"/>
<stop offset="1" stop-color="#1A1A1A"/>
</linearGradient>
<linearGradient id="paint1_linear_15289_36867" x1="15" y1="30" x2="15" y2="0" gradientUnits="userSpaceOnUse">
<stop stop-color="white" stop-opacity="0.06"/>
<stop offset="1" stop-color="white" stop-opacity="0.06"/>
</linearGradient>
</defs>
</svg>
