<svg width="40" height="40" viewBox="0 0 40 40" fill="none" xmlns="http://www.w3.org/2000/svg">
<g filter="url(#filter0_b_20431_58794)">
<rect width="40" height="40" rx="20" fill="white" fill-opacity="0.12"/>
<path d="M21.25 25C21.25 25.2472 21.1767 25.4889 21.0393 25.6945C20.902 25.9 20.7068 26.0602 20.4784 26.1549C20.2499 26.2495 19.9986 26.2742 19.7561 26.226C19.5137 26.1778 19.2909 26.0587 19.1161 25.8839C18.9413 25.7091 18.8223 25.4863 18.774 25.2439C18.7258 25.0014 18.7505 24.7501 18.8452 24.5216C18.9398 24.2932 19.1 24.098 19.3055 23.9607C19.5111 23.8233 19.7528 23.75 20 23.75C20.3315 23.75 20.6495 23.8817 20.8839 24.1161C21.1183 24.3505 21.25 24.6685 21.25 25ZM20 16.25C20.2472 16.25 20.4889 16.1767 20.6945 16.0393C20.9 15.902 21.0602 15.7068 21.1549 15.4784C21.2495 15.2499 21.2742 14.9986 21.226 14.7561C21.1778 14.5137 21.0587 14.2909 20.8839 14.1161C20.7091 13.9413 20.4863 13.8223 20.2439 13.774C20.0014 13.7258 19.7501 13.7505 19.5216 13.8452C19.2932 13.9398 19.098 14.1 18.9607 14.3055C18.8233 14.5111 18.75 14.7528 18.75 15C18.75 15.3315 18.8817 15.6495 19.1161 15.8839C19.3505 16.1183 19.6685 16.25 20 16.25ZM20 18.75C19.7528 18.75 19.5111 18.8233 19.3055 18.9607C19.1 19.098 18.9398 19.2932 18.8452 19.5216C18.7505 19.7501 18.7258 20.0014 18.774 20.2439C18.8223 20.4863 18.9413 20.7091 19.1161 20.8839C19.2909 21.0587 19.5137 21.1778 19.7561 21.226C19.9986 21.2742 20.2499 21.2495 20.4784 21.1549C20.7068 21.0602 20.902 20.9 21.0393 20.6945C21.1767 20.4889 21.25 20.2472 21.25 20C21.25 19.6685 21.1183 19.3505 20.8839 19.1161C20.6495 18.8817 20.3315 18.75 20 18.75Z" fill="white"/>
</g>
<defs>
<filter id="filter0_b_20431_58794" x="-8" y="-8" width="56" height="56" filterUnits="userSpaceOnUse" color-interpolation-filters="sRGB">
<feFlood flood-opacity="0" result="BackgroundImageFix"/>
<feGaussianBlur in="BackgroundImageFix" stdDeviation="4"/>
<feComposite in2="SourceAlpha" operator="in" result="effect1_backgroundBlur_20431_58794"/>
<feBlend mode="normal" in="SourceGraphic" in2="effect1_backgroundBlur_20431_58794" result="shape"/>
</filter>
</defs>
</svg>
