<svg width="16" height="16" viewBox="0 0 16 16" fill="none" xmlns="http://www.w3.org/2000/svg">
<path d="M14.5 3.5H1.5C1.23478 3.5 0.98043 3.60536 0.792893 3.79289C0.605357 3.98043 0.5 4.23478 0.5 4.5V11.5C0.5 11.7652 0.605357 12.0196 0.792893 12.2071C0.98043 12.3946 1.23478 12.5 1.5 12.5H14.5C14.7652 12.5 15.0196 12.3946 15.2071 12.2071C15.3946 12.0196 15.5 11.7652 15.5 11.5V4.5C15.5 4.23478 15.3946 3.98043 15.2071 3.79289C15.0196 3.60536 14.7652 3.5 14.5 3.5ZM5.1875 11.5L1.5 8.275V7.725L5.1875 4.5H10.8125L14.5 7.725V8.275L10.8125 11.5H5.1875ZM14.5 6.4L12.3313 4.5H14.5V6.4ZM3.66875 4.5L1.5 6.4V4.5H3.66875ZM1.5 9.6L3.66875 11.5H1.5V9.6ZM14.5 11.5H12.3313L14.5 9.6V11.5ZM8 5.5C7.50555 5.5 7.0222 5.64662 6.61107 5.92133C6.19995 6.19603 5.87952 6.58648 5.6903 7.04329C5.50108 7.50011 5.45157 8.00277 5.54804 8.48773C5.6445 8.97268 5.8826 9.41814 6.23223 9.76777C6.58186 10.1174 7.02732 10.3555 7.51227 10.452C7.99723 10.5484 8.49989 10.4989 8.95671 10.3097C9.41352 10.1205 9.80397 9.80005 10.0787 9.38893C10.3534 8.9778 10.5 8.49445 10.5 8C10.5 7.33696 10.2366 6.70107 9.76777 6.23223C9.29893 5.76339 8.66304 5.5 8 5.5ZM8 9.5C7.70333 9.5 7.41332 9.41203 7.16664 9.2472C6.91997 9.08238 6.72771 8.84811 6.61418 8.57403C6.50065 8.29994 6.47094 7.99834 6.52882 7.70736C6.5867 7.41639 6.72956 7.14912 6.93934 6.93934C7.14912 6.72956 7.41639 6.5867 7.70736 6.52882C7.99834 6.47094 8.29994 6.50065 8.57403 6.61418C8.84811 6.72771 9.08238 6.91997 9.2472 7.16664C9.41203 7.41332 9.5 7.70333 9.5 8C9.49835 8.39732 9.33979 8.77789 9.05884 9.05884C8.77789 9.33979 8.39732 9.49835 8 9.5Z" fill="white"/>
</svg>
