<svg width="152" height="24" viewBox="0 0 152 24" fill="none" xmlns="http://www.w3.org/2000/svg">
<path d="M150.477 0.0478516H146.957C146.611 0.0478516 146.281 0.22165 146.077 0.490248L140.12 8.72198C139.538 9.52777 138.36 9.52777 137.778 8.72198L131.821 0.490248C131.617 0.20585 131.287 0.0478516 130.941 0.0478516H127.389C126.792 0.0478516 126.32 0.537647 126.32 1.12224V22.9261C126.32 23.5265 126.808 24.0005 127.389 24.0005H129.731C130.328 24.0005 130.8 23.5107 130.8 22.9261V10.2546C130.8 9.10118 132.277 8.61138 132.953 9.54357L137.762 16.1637L137.935 16.4165C137.935 16.4165 137.935 16.4165 137.935 16.4323C138.14 16.7009 138.47 16.8747 138.831 16.8747C139.161 16.8747 139.46 16.7325 139.664 16.4955L139.774 16.3533L144.882 9.51197C145.574 8.59558 147.02 9.08538 147.02 10.223V22.9261C147.02 23.5265 147.507 24.0005 148.088 24.0005H150.43C151.028 24.0005 151.499 23.5107 151.499 22.9261V1.12224C151.546 0.537647 151.059 0.0478516 150.477 0.0478516Z" fill="white"/>
<path fill-rule="evenodd" clip-rule="evenodd" d="M38.9478 0.664396L48.6609 22.4524C48.9752 23.1634 48.4566 23.9692 47.7336 23.9692H45.2189C44.7945 23.9692 44.4173 23.7164 44.2444 23.3372L43.1914 21.0146C42.7513 20.0508 41.8083 19.4346 40.7552 19.4346H36.2444H31.7336C30.6806 19.4346 29.7375 20.0508 29.2975 21.0146L28.2444 23.3372C28.0715 23.7164 27.6943 23.9692 27.27 23.9692H24.7552C23.9694 23.9692 23.4507 23.1634 23.7651 22.4524L33.4782 0.664396C33.6511 0.269399 34.044 0.0166016 34.4684 0.0166016H36.213H37.9576C38.3819 0.0166016 38.7749 0.269399 38.9478 0.664396ZM36.1976 15.2473H38.9795C39.7497 15.2473 40.2683 14.4415 39.9697 13.7305L37.1878 7.31576C36.9992 6.88917 36.5905 6.66797 36.1976 6.66797C35.789 6.66797 35.396 6.88917 35.2074 7.31576L32.4255 13.7305C32.1269 14.4573 32.6455 15.2473 33.4157 15.2473H36.1976Z" fill="white"/>
<path fill-rule="evenodd" clip-rule="evenodd" d="M114.831 0.664396L124.544 22.4524C124.858 23.1634 124.339 23.9692 123.569 23.9692H121.055C120.63 23.9692 120.253 23.7164 120.08 23.3372L119.027 21.0146C118.587 20.0508 117.644 19.4346 116.591 19.4346H112.08H107.601C106.548 19.4346 105.605 20.0508 105.165 21.0146L104.112 23.3372C103.939 23.7164 103.562 23.9692 103.137 23.9692H100.622C99.8366 23.9692 99.3179 23.1634 99.6322 22.4524L109.345 0.664396C109.518 0.269399 109.911 0.0166016 110.336 0.0166016H112.08H113.84C114.265 0.0166016 114.658 0.269399 114.831 0.664396ZM112.08 15.2473H114.862C115.632 15.2473 116.151 14.4415 115.853 13.7305L113.071 7.31576C112.882 6.88917 112.473 6.66797 112.08 6.66797C111.672 6.66797 111.279 6.88917 111.09 7.31576L108.308 13.7305C108.01 14.4573 108.528 15.2473 109.298 15.2473H112.08Z" fill="white"/>
<path d="M54.8699 1.12162V22.8622C54.8699 23.4784 54.3827 23.9682 53.7697 23.9682H51.5064C50.8935 23.9682 50.4062 23.4784 50.4062 22.8622V1.12162C50.4062 0.505421 50.8935 0.015625 51.5064 0.015625H53.7697C54.367 0.015625 54.8699 0.505421 54.8699 1.12162Z" fill="white"/>
<path d="M76.1344 1.12162V3.0176C76.1344 3.63379 75.6472 4.12359 75.0342 4.12359H70.1777C69.2818 4.12359 68.5745 4.85038 68.5745 5.73518V22.8622C68.5745 23.4784 68.0873 23.9682 67.4743 23.9682H65.1796C64.5667 23.9682 64.0794 23.4784 64.0794 22.8622V5.73518C64.0794 4.83458 63.3565 4.12359 62.4763 4.12359H57.6197C57.0068 4.12359 56.5195 3.63379 56.5195 3.0176V1.12162C56.5195 0.505421 57.0068 0.015625 57.6197 0.015625H75.0342C75.6472 0.015625 76.1344 0.505421 76.1344 1.12162Z" fill="white"/>
<path fill-rule="evenodd" clip-rule="evenodd" d="M92.8852 16.8269L97.5531 22.1198C98.1818 22.8308 97.6789 23.9684 96.7044 23.9842H94.0639C93.7496 23.9842 93.451 23.842 93.2467 23.605L87.3528 16.7953C86.897 16.2739 86.2368 15.9737 85.5453 15.9737H83.5492C82.8577 15.9737 82.3076 16.5267 82.3076 17.2061V22.8782C82.3076 23.4944 81.8204 23.9842 81.2074 23.9842H78.9127C78.2997 23.9842 77.8125 23.4944 77.8125 22.8782V1.09019C77.8125 0.489796 78.2997 0 78.897 0C80.6023 0 82.3115 0.00789994 84.0207 0.0157999C85.73 0.0236998 87.4392 0.0315997 89.1445 0.0315997C94.7712 0.0631995 97.726 3.82357 97.726 7.96313C97.726 10.8229 96.5944 13.7143 93.2938 15.0257C92.5708 15.3101 92.3665 16.2423 92.8852 16.8269ZM83.3617 11.8819H89.1456C92.0061 11.8819 93.232 9.97008 93.232 8.04249C93.232 6.11491 91.9747 4.20312 89.1456 4.20312H83.3617C82.7645 4.20312 82.293 4.69292 82.293 5.27752V10.8075C82.293 11.4079 82.7802 11.8819 83.3617 11.8819Z" fill="white"/>
<path d="M54.8699 1.12162V22.8622C54.8699 23.4784 54.3827 23.9682 53.7697 23.9682H51.5064C50.8935 23.9682 50.4062 23.4784 50.4062 22.8622V1.12162C50.4062 0.505421 50.8935 0.015625 51.5064 0.015625H53.7697C54.367 0.015625 54.8699 0.505421 54.8699 1.12162Z" fill="white"/>
<path fill-rule="evenodd" clip-rule="evenodd" d="M18.5776 0.0175781H20.7937C21.4538 0.0175781 21.9882 0.554774 21.9725 1.21837V22.801C21.9725 23.4172 21.4852 23.907 20.8723 23.907H18.5461C17.8546 23.907 17.2102 23.591 16.7858 23.0538L15.2298 21.0472L7.41846 11.0459C8.84871 10.3191 9.74458 9.5133 9.5717 9.0551C9.35166 8.48631 7.51276 8.64431 5.40667 9.4185C5.35952 9.4343 5.31237 9.45405 5.26522 9.4738C5.21807 9.49355 5.17092 9.5133 5.12376 9.5291C5.09233 9.5291 5.0609 9.5449 5.02946 9.5607C2.84479 10.4297 1.27308 11.5831 1.50884 12.1835C1.69744 12.6575 2.92337 12.6259 4.5108 12.1993V22.801C4.5108 23.4172 4.02357 23.907 3.4106 23.907H1.11591C0.502946 23.907 0.0157171 23.4172 0.0157171 22.801V13.8741L3.7721 12.6891H3.75638C3.48919 12.7365 3.25343 12.7681 3.01768 12.7997C2.82907 12.8155 2.64047 12.8313 2.4833 12.8313H2.34184H2.32613L0 13.7161V13.0683C0.243615 12.9893 0.487229 12.9142 0.730844 12.8392C0.974458 12.7641 1.21807 12.6891 1.46169 12.6101C1.44597 12.6101 1.43025 12.5943 1.41454 12.5785C1.35167 12.5311 1.30452 12.4679 1.25737 12.4047L0 12.8787V12.2625L1.17878 11.8991C1.1945 11.8675 1.21021 11.8201 1.22593 11.7727C1.23069 11.7631 1.23545 11.7521 1.24064 11.7401C1.25261 11.7124 1.26688 11.6793 1.2888 11.6463L0 12.1203V1.18677C0 0.538974 0.518663 0.0175781 1.16306 0.0175781H3.42632C4.10216 0.0175781 4.74655 0.333575 5.17092 0.870771L13.5167 11.5515C14.8212 13.2263 17.4931 12.2941 17.4931 10.1769V1.10777C17.4931 0.507374 17.9803 0.0175781 18.5776 0.0175781ZM3.39345 9.97206C3.88068 9.71926 4.43078 9.46646 4.99659 9.24527C5.57812 9.02407 6.15966 8.83447 6.67832 8.70807C6.67832 8.67647 6.67832 8.66067 6.6626 8.62907C6.45828 8.07608 5.54669 7.93388 4.6351 8.28148C3.72351 8.62907 3.1577 9.37167 3.36202 9.90886C3.36988 9.91676 3.37381 9.92861 3.37773 9.94046C3.38166 9.95231 3.38559 9.96416 3.39345 9.97206Z" fill="white"/>
<path d="M5.84391 11.2986C5.1838 11.5514 4.69657 11.8516 4.728 11.978C4.77515 12.0886 5.29382 11.9938 5.90678 11.7726C5.9225 11.7726 5.93822 11.7568 5.95393 11.7568C5.96965 11.7568 5.98537 11.741 6.00108 11.741C6.0168 11.741 6.03252 11.7252 6.04824 11.7252C6.06395 11.7252 6.07967 11.7094 6.1111 11.7094C6.70835 11.4724 7.14843 11.188 7.10128 11.0774C7.06984 10.9352 6.50403 11.0458 5.84391 11.2986Z" fill="white"/>
<path d="M4.98084 8.72322C4.98084 8.70742 4.96513 8.70742 4.96513 8.69162V8.67582C4.90226 8.51783 4.82367 8.40723 4.77652 8.40723C4.72937 8.40723 4.74509 8.54943 4.82367 8.72322C4.88654 8.89702 4.98084 9.02342 5.028 9.02342C5.05943 9.02342 5.04371 8.89702 4.98084 8.72322C4.98084 8.73902 4.98084 8.73902 4.98084 8.72322Z" fill="white"/>
<path d="M3.71144 9.21266C3.68001 9.19686 3.63286 9.29166 3.63286 9.41806C3.63286 9.54446 3.64858 9.63926 3.69573 9.65506C3.72716 9.67086 3.7586 9.57606 3.77431 9.46546C3.77431 9.46546 3.77431 9.46546 3.77431 9.44966C3.77431 9.44966 3.77431 9.44966 3.77431 9.43386C3.77431 9.43386 3.77431 9.43386 3.77431 9.41806C3.77431 9.41806 3.77431 9.41806 3.77431 9.40226C3.77431 9.30746 3.74288 9.22846 3.71144 9.21266Z" fill="white"/>
<path d="M6.22418 8.48587C6.22418 8.47007 6.22418 8.48587 6.22418 8.48587C6.20846 8.47007 6.20846 8.47007 6.22418 8.48587C6.20846 8.47007 6.20846 8.47007 6.22418 8.48587C6.20846 8.47007 6.20846 8.47007 6.20846 8.47007C6.12988 8.39107 6.05129 8.34367 6.01986 8.35947C5.98842 8.37527 6.01986 8.47007 6.09844 8.54907C6.17703 8.64387 6.27133 8.69127 6.30277 8.67547C6.3342 8.65967 6.30277 8.56487 6.22418 8.48587Z" fill="white"/>
</svg>
