<svg width="360" height="24" viewBox="0 0 360 24" fill="none" xmlns="http://www.w3.org/2000/svg">
<path d="M150.477 0.0476074H146.957C146.611 0.0476074 146.281 0.221406 146.077 0.490004L140.12 8.72174C139.538 9.52753 138.36 9.52753 137.778 8.72174L131.821 0.490004C131.617 0.205606 131.287 0.0476074 130.941 0.0476074H127.389C126.792 0.0476074 126.32 0.537403 126.32 1.122V22.9258C126.32 23.5262 126.808 24.0002 127.389 24.0002H129.731C130.328 24.0002 130.8 23.5104 130.8 22.9258V10.2543C130.8 9.10093 132.277 8.61114 132.953 9.54333L137.762 16.1635L137.935 16.4163C137.935 16.4163 137.935 16.4163 137.935 16.4321C138.14 16.7007 138.47 16.8745 138.831 16.8745C139.161 16.8745 139.46 16.7323 139.664 16.4953L139.774 16.3531L144.882 9.51173C145.574 8.59534 147.02 9.08513 147.02 10.2227V22.9258C147.02 23.5262 147.507 24.0002 148.088 24.0002H150.43C151.028 24.0002 151.499 23.5104 151.499 22.9258V1.122C151.546 0.537403 151.059 0.0476074 150.477 0.0476074Z" fill="white"/>
<path fill-rule="evenodd" clip-rule="evenodd" d="M38.9478 0.664396L48.6609 22.4524C48.9752 23.1634 48.4566 23.9692 47.7336 23.9692H45.2189C44.7945 23.9692 44.4173 23.7164 44.2444 23.3372L43.1914 21.0146C42.7513 20.0508 41.8083 19.4346 40.7552 19.4346H36.2444H31.7336C30.6806 19.4346 29.7375 20.0508 29.2975 21.0146L28.2444 23.3372C28.0715 23.7164 27.6943 23.9692 27.27 23.9692H24.7552C23.9694 23.9692 23.4507 23.1634 23.7651 22.4524L33.4782 0.664396C33.6511 0.269399 34.044 0.0166016 34.4684 0.0166016H36.213H37.9576C38.3819 0.0166016 38.7749 0.269399 38.9478 0.664396ZM36.1986 15.2478H38.9805C39.7506 15.2478 40.2693 14.442 39.9707 13.731L37.1888 7.31625C37.0001 6.88966 36.5915 6.66846 36.1986 6.66846C35.7899 6.66846 35.397 6.88966 35.2084 7.31625L32.4265 13.731C32.1279 14.4578 32.6465 15.2478 33.4167 15.2478H36.1986Z" fill="white"/>
<path fill-rule="evenodd" clip-rule="evenodd" d="M114.831 0.664396L124.544 22.4524C124.858 23.1634 124.339 23.9692 123.569 23.9692H121.055C120.63 23.9692 120.253 23.7164 120.08 23.3372L119.027 21.0146C118.587 20.0508 117.644 19.4346 116.591 19.4346H112.08H107.601C106.548 19.4346 105.605 20.0508 105.165 21.0146L104.112 23.3372C103.939 23.7164 103.562 23.9692 103.137 23.9692H100.622C99.8366 23.9692 99.3179 23.1634 99.6322 22.4524L109.345 0.664396C109.518 0.269399 109.911 0.0166016 110.336 0.0166016H112.08H113.84C114.265 0.0166016 114.658 0.269399 114.831 0.664396ZM112.08 15.2478H114.862C115.632 15.2478 116.151 14.442 115.853 13.731L113.071 7.31625C112.882 6.88966 112.473 6.66846 112.08 6.66846C111.672 6.66846 111.279 6.88966 111.09 7.31625L108.308 13.731C108.01 14.4578 108.528 15.2478 109.298 15.2478H112.08Z" fill="white"/>
<path d="M54.8699 1.1221V22.8627C54.8699 23.4789 54.3827 23.9687 53.7697 23.9687H51.5064C50.8935 23.9687 50.4062 23.4789 50.4062 22.8627V1.1221C50.4062 0.505909 50.8935 0.0161133 51.5064 0.0161133H53.7697C54.367 0.0161133 54.8699 0.505909 54.8699 1.1221Z" fill="white"/>
<path d="M76.1344 1.1221V3.01809C76.1344 3.63428 75.6472 4.12408 75.0342 4.12408H70.1777C69.2818 4.12408 68.5745 4.85087 68.5745 5.73567V22.8627C68.5745 23.4789 68.0873 23.9687 67.4743 23.9687H65.1796C64.5667 23.9687 64.0794 23.4789 64.0794 22.8627V5.73567C64.0794 4.83507 63.3565 4.12408 62.4763 4.12408H57.6197C57.0068 4.12408 56.5195 3.63428 56.5195 3.01809V1.1221C56.5195 0.505909 57.0068 0.0161133 57.6197 0.0161133H75.0342C75.6472 0.0161133 76.1344 0.505909 76.1344 1.1221Z" fill="white"/>
<path fill-rule="evenodd" clip-rule="evenodd" d="M92.8852 16.8269L97.5531 22.1198C98.1818 22.8308 97.6789 23.9684 96.7044 23.9842H94.0639C93.7496 23.9842 93.451 23.842 93.2467 23.605L87.3528 16.7953C86.897 16.2739 86.2368 15.9737 85.5453 15.9737H83.5492C82.8577 15.9737 82.3076 16.5267 82.3076 17.2061V22.8782C82.3076 23.4944 81.8204 23.9842 81.2074 23.9842H78.9127C78.2997 23.9842 77.8125 23.4944 77.8125 22.8782V1.09019C77.8125 0.489796 78.2997 0 78.897 0C80.6023 0 82.3115 0.00789994 84.0207 0.0157999C85.73 0.0236998 87.4392 0.0315997 89.1445 0.0315997C94.7712 0.0631995 97.726 3.82357 97.726 7.96313C97.726 10.8229 96.5944 13.7143 93.2938 15.0257C92.5708 15.3101 92.3665 16.2423 92.8852 16.8269ZM83.3608 11.8814H89.1446C92.0051 11.8814 93.2311 9.96959 93.2311 8.042C93.2311 6.11442 91.9737 4.20264 89.1446 4.20264H83.3608C82.7635 4.20264 82.292 4.69243 82.292 5.27703V10.807C82.292 11.4074 82.7792 11.8814 83.3608 11.8814Z" fill="white"/>
<path d="M54.8699 1.1221V22.8627C54.8699 23.4789 54.3827 23.9687 53.7697 23.9687H51.5064C50.8935 23.9687 50.4062 23.4789 50.4062 22.8627V1.1221C50.4062 0.505909 50.8935 0.0161133 51.5064 0.0161133H53.7697C54.367 0.0161133 54.8699 0.505909 54.8699 1.1221Z" fill="white"/>
<path fill-rule="evenodd" clip-rule="evenodd" d="M18.5776 0.0170898H20.7937C21.4538 0.0170898 21.9882 0.554285 21.9725 1.21788V22.8005C21.9725 23.4167 21.4852 23.9065 20.8723 23.9065H18.5461C17.8546 23.9065 17.2102 23.5905 16.7858 23.0533L15.2298 21.0467L7.41846 11.0454C8.84871 10.3186 9.74458 9.51281 9.5717 9.05461C9.35166 8.48582 7.51276 8.64382 5.40667 9.41801C5.35952 9.43381 5.31237 9.45356 5.26522 9.47331C5.21807 9.49306 5.17092 9.51281 5.12376 9.52861C5.09233 9.52861 5.0609 9.54441 5.02946 9.56021C2.84479 10.4292 1.27308 11.5826 1.50884 12.183C1.69744 12.657 2.92337 12.6254 4.5108 12.1988V22.8005C4.5108 23.4167 4.02357 23.9065 3.4106 23.9065H1.11591C0.502946 23.9065 0.0157171 23.4167 0.0157171 22.8005V13.8736L3.7721 12.6886H3.75638C3.48919 12.736 3.25343 12.7676 3.01768 12.7992C2.82907 12.815 2.64047 12.8308 2.4833 12.8308H2.34184H2.32613L0 13.7156V13.0678C0.243615 12.9888 0.487229 12.9137 0.730844 12.8387C0.974458 12.7636 1.21807 12.6886 1.46169 12.6096C1.44597 12.6096 1.43025 12.5938 1.41454 12.578C1.35167 12.5306 1.30452 12.4674 1.25737 12.4042L0 12.8782V12.262L1.17878 11.8986C1.1945 11.867 1.21021 11.8196 1.22593 11.7722C1.23069 11.7626 1.23545 11.7516 1.24064 11.7396C1.25261 11.7119 1.26688 11.6788 1.2888 11.6458L0 12.1198V1.18628C0 0.538485 0.518663 0.0170898 1.16306 0.0170898H3.42632C4.10216 0.0170898 4.74655 0.333087 5.17092 0.870283L13.5167 11.551C14.8212 13.2258 17.4931 12.2936 17.4931 10.1764V1.10728C17.4931 0.506886 17.9803 0.0170898 18.5776 0.0170898ZM3.3954 9.97133C3.88263 9.71853 4.43273 9.46573 4.99855 9.24453C5.58008 9.02334 6.16161 8.83374 6.68027 8.70734C6.68027 8.67574 6.68027 8.65994 6.66456 8.62834C6.46023 8.07534 5.54864 7.93315 4.63705 8.28074C3.72546 8.62834 3.15965 9.37093 3.36397 9.90813C3.37183 9.91603 3.37576 9.92788 3.37969 9.93973C3.38362 9.95158 3.38755 9.96343 3.3954 9.97133Z" fill="white"/>
<path d="M5.84391 11.2978C5.1838 11.5506 4.69657 11.8508 4.728 11.9772C4.77515 12.0878 5.29382 11.993 5.90678 11.7718C5.9225 11.7718 5.93822 11.756 5.95393 11.756C5.96965 11.756 5.98537 11.7402 6.00108 11.7402C6.0168 11.7402 6.03252 11.7244 6.04824 11.7244C6.06395 11.7244 6.07967 11.7086 6.1111 11.7086C6.70835 11.4716 7.14843 11.1872 7.10128 11.0766C7.06984 10.9344 6.50403 11.045 5.84391 11.2978Z" fill="white"/>
<path d="M4.98084 8.72249C4.98084 8.70669 4.96513 8.70669 4.96513 8.69089V8.67509C4.90226 8.51709 4.82367 8.40649 4.77652 8.40649C4.72937 8.40649 4.74509 8.54869 4.82367 8.72249C4.88654 8.89629 4.98084 9.02269 5.028 9.02269C5.05943 9.02269 5.04371 8.89629 4.98084 8.72249C4.98084 8.73829 4.98084 8.73829 4.98084 8.72249Z" fill="white"/>
<path d="M3.71144 9.21242C3.68001 9.19662 3.63286 9.29142 3.63286 9.41781C3.63286 9.54421 3.64858 9.63901 3.69573 9.65481C3.72716 9.67061 3.7586 9.57581 3.77431 9.46521C3.77431 9.46521 3.77431 9.46521 3.77431 9.44941C3.77431 9.44941 3.77431 9.44941 3.77431 9.43361C3.77431 9.43361 3.77431 9.43361 3.77431 9.41781C3.77431 9.41781 3.77431 9.41781 3.77431 9.40201C3.77431 9.30722 3.74288 9.22822 3.71144 9.21242Z" fill="white"/>
<path d="M6.22418 8.48538C6.22418 8.46958 6.22418 8.48538 6.22418 8.48538C6.20846 8.46958 6.20846 8.46958 6.22418 8.48538C6.20846 8.46958 6.20846 8.46958 6.22418 8.48538C6.20846 8.46958 6.20846 8.46958 6.20846 8.46958C6.12988 8.39058 6.05129 8.34318 6.01986 8.35898C5.98842 8.37478 6.01986 8.46958 6.09844 8.54858C6.17703 8.64338 6.27133 8.69078 6.30277 8.67498C6.3342 8.65918 6.30277 8.56438 6.22418 8.48538Z" fill="white"/>
</svg>
