<svg width="152" height="24" viewBox="0 0 152 24" fill="none" xmlns="http://www.w3.org/2000/svg">
<path d="M150.476 0.0478516H146.956C146.61 0.0478516 146.28 0.22165 146.076 0.490248L140.119 8.72198C139.537 9.52777 138.359 9.52777 137.777 8.72198L131.82 0.490248C131.616 0.20585 131.286 0.0478516 130.94 0.0478516H127.388C126.791 0.0478516 126.319 0.537647 126.319 1.12224V22.9261C126.319 23.5265 126.807 24.0005 127.388 24.0005H129.73C130.327 24.0005 130.799 23.5107 130.799 22.9261V10.2546C130.799 9.10118 132.276 8.61138 132.952 9.54357L137.761 16.1637L137.934 16.4165C137.934 16.4165 137.934 16.4165 137.934 16.4323C138.139 16.7009 138.469 16.8747 138.83 16.8747C139.16 16.8747 139.459 16.7325 139.663 16.4955L139.773 16.3533L144.881 9.51197C145.573 8.59558 147.019 9.08538 147.019 10.223V22.9261C147.019 23.5265 147.506 24.0005 148.087 24.0005H150.429C151.027 24.0005 151.498 23.5107 151.498 22.9261V1.12224C151.545 0.537647 151.058 0.0478516 150.476 0.0478516Z" fill="white"/>
<path fill-rule="evenodd" clip-rule="evenodd" d="M38.9478 0.664396L48.6609 22.4524C48.9752 23.1634 48.4566 23.9692 47.7336 23.9692H45.2189C44.7945 23.9692 44.4173 23.7164 44.2444 23.3372L43.1914 21.0146C42.7513 20.0508 41.8083 19.4346 40.7552 19.4346H36.2444H31.7336C30.6806 19.4346 29.7375 20.0508 29.2975 21.0146L28.2444 23.3372C28.0715 23.7164 27.6943 23.9692 27.27 23.9692H24.7552C23.9694 23.9692 23.4507 23.1634 23.7651 22.4524L33.4782 0.664396C33.6511 0.269399 34.044 0.0166016 34.4684 0.0166016H36.213H37.9576C38.3819 0.0166016 38.7749 0.269399 38.9478 0.664396ZM36.1986 15.2478H38.9805C39.7506 15.2478 40.2693 14.442 39.9707 13.731L37.1888 7.31625C37.0001 6.88966 36.5915 6.66846 36.1986 6.66846C35.7899 6.66846 35.397 6.88966 35.2084 7.31625L32.4265 13.731C32.1279 14.4578 32.6465 15.2478 33.4167 15.2478H36.1986Z" fill="white"/>
<path fill-rule="evenodd" clip-rule="evenodd" d="M114.829 0.664396L124.542 22.4524C124.856 23.1634 124.338 23.9692 123.567 23.9692H121.053C120.628 23.9692 120.251 23.7164 120.078 23.3372L119.025 21.0146C118.585 20.0508 117.642 19.4346 116.589 19.4346H112.078H107.599C106.546 19.4346 105.603 20.0508 105.163 21.0146L104.11 23.3372C103.937 23.7164 103.56 23.9692 103.135 23.9692H100.62C99.8346 23.9692 99.316 23.1634 99.6303 22.4524L109.343 0.664396C109.516 0.269399 109.909 0.0166016 110.334 0.0166016H112.078H113.839C114.263 0.0166016 114.656 0.269399 114.829 0.664396ZM112.078 15.2478H114.86C115.631 15.2478 116.149 14.442 115.851 13.731L113.069 7.31625C112.88 6.88966 112.471 6.66846 112.078 6.66846C111.67 6.66846 111.277 6.88966 111.088 7.31625L108.306 13.731C108.008 14.4578 108.526 15.2478 109.297 15.2478H112.078Z" fill="white"/>
<path d="M54.8689 1.12162V22.8622C54.8689 23.4784 54.3817 23.9682 53.7687 23.9682H51.5055C50.8925 23.9682 50.4053 23.4784 50.4053 22.8622V1.12162C50.4053 0.505421 50.8925 0.015625 51.5055 0.015625H53.7687C54.366 0.015625 54.8689 0.505421 54.8689 1.12162Z" fill="white"/>
<path d="M76.1344 1.12162V3.0176C76.1344 3.63379 75.6472 4.12359 75.0342 4.12359H70.1777C69.2818 4.12359 68.5745 4.85038 68.5745 5.73518V22.8622C68.5745 23.4784 68.0873 23.9682 67.4743 23.9682H65.1796C64.5667 23.9682 64.0794 23.4784 64.0794 22.8622V5.73518C64.0794 4.83458 63.3565 4.12359 62.4763 4.12359H57.6197C57.0068 4.12359 56.5195 3.63379 56.5195 3.0176V1.12162C56.5195 0.505421 57.0068 0.015625 57.6197 0.015625H75.0342C75.6472 0.015625 76.1344 0.505421 76.1344 1.12162Z" fill="white"/>
<path fill-rule="evenodd" clip-rule="evenodd" d="M92.8871 16.8269L97.5551 22.1198C98.1838 22.8308 97.6808 23.9684 96.7064 23.9842H94.0659C93.7516 23.9842 93.4529 23.842 93.2486 23.605L87.3547 16.7953C86.8989 16.2739 86.2388 15.9737 85.5473 15.9737H83.5512C82.8596 15.9737 82.3095 16.5267 82.3095 17.2061V22.8782C82.3095 23.4944 81.8223 23.9842 81.2093 23.9842H78.9146C78.3017 23.9842 77.8145 23.4944 77.8145 22.8782V1.09019C77.8145 0.489796 78.3017 0 78.8989 0C80.6042 0 82.3135 0.00789994 84.0227 0.0157999C85.7319 0.0236998 87.4412 0.0315997 89.1465 0.0315997C94.7732 0.0631995 97.728 3.82357 97.728 7.96313C97.728 10.8229 96.5964 13.7143 93.2958 15.0257C92.5728 15.3101 92.3685 16.2423 92.8871 16.8269ZM83.3627 11.8814H89.1466C92.0071 11.8814 93.233 9.96959 93.233 8.042C93.233 6.11442 91.9757 4.20264 89.1466 4.20264H83.3627C82.7655 4.20264 82.2939 4.69243 82.2939 5.27703V10.807C82.2939 11.4074 82.7812 11.8814 83.3627 11.8814Z" fill="white"/>
<path d="M54.8689 1.12162V22.8622C54.8689 23.4784 54.3817 23.9682 53.7687 23.9682H51.5055C50.8925 23.9682 50.4053 23.4784 50.4053 22.8622V1.12162C50.4053 0.505421 50.8925 0.015625 51.5055 0.015625H53.7687C54.366 0.015625 54.8689 0.505421 54.8689 1.12162Z" fill="white"/>
<path fill-rule="evenodd" clip-rule="evenodd" d="M18.5776 0.0175781H20.7937C21.4538 0.0175781 21.9882 0.554774 21.9725 1.21837V22.801C21.9725 23.4172 21.4852 23.907 20.8723 23.907H18.5461C17.8546 23.907 17.2102 23.591 16.7858 23.0538L15.2298 21.0472L7.41846 11.0459C8.84871 10.3191 9.74458 9.5133 9.5717 9.0551C9.35166 8.48631 7.51276 8.64431 5.40667 9.4185C5.35952 9.4343 5.31237 9.45405 5.26522 9.4738C5.21807 9.49355 5.17092 9.5133 5.12376 9.5291C5.09233 9.5291 5.0609 9.5449 5.02946 9.5607C2.84479 10.4297 1.27308 11.5831 1.50884 12.1835C1.69744 12.6575 2.92337 12.6259 4.5108 12.1993V22.801C4.5108 23.4172 4.02357 23.907 3.4106 23.907H1.11591C0.502946 23.907 0.0157171 23.4172 0.0157171 22.801V13.8741L3.7721 12.6891H3.75638C3.48919 12.7365 3.25343 12.7681 3.01768 12.7997C2.82907 12.8155 2.64047 12.8313 2.4833 12.8313H2.34184H2.32613L0 13.7161V13.0683C0.243615 12.9893 0.487229 12.9142 0.730844 12.8392C0.974458 12.7641 1.21807 12.6891 1.46169 12.6101C1.44597 12.6101 1.43025 12.5943 1.41454 12.5785C1.35167 12.5311 1.30452 12.4679 1.25737 12.4047L0 12.8787V12.2625L1.17878 11.8991C1.1945 11.8675 1.21021 11.8201 1.22593 11.7727C1.23069 11.7631 1.23545 11.7521 1.24064 11.7401C1.25261 11.7124 1.26688 11.6793 1.2888 11.6463L0 12.1203V1.18677C0 0.538974 0.518663 0.0175781 1.16306 0.0175781H3.42632C4.10216 0.0175781 4.74655 0.333575 5.17092 0.870771L13.5167 11.5515C14.8212 13.2263 17.4931 12.2941 17.4931 10.1769V1.10777C17.4931 0.507374 17.9803 0.0175781 18.5776 0.0175781ZM3.3954 9.97182C3.88263 9.71902 4.43273 9.46622 4.99855 9.24502C5.58008 9.02382 6.16161 8.83423 6.68027 8.70783C6.68027 8.67623 6.68027 8.66043 6.66456 8.62883C6.46023 8.07583 5.54864 7.93363 4.63705 8.28123C3.72546 8.62883 3.15965 9.37142 3.36397 9.90862C3.37183 9.91652 3.37576 9.92837 3.37969 9.94022C3.38362 9.95207 3.38755 9.96392 3.3954 9.97182Z" fill="white"/>
<path d="M5.84587 11.2986C5.18575 11.5514 4.69852 11.8516 4.72995 11.978C4.77711 12.0886 5.29577 11.9938 5.90873 11.7726C5.92445 11.7726 5.94017 11.7568 5.95589 11.7568C5.9716 11.7568 5.98732 11.741 6.00304 11.741C6.01875 11.741 6.03447 11.7252 6.05019 11.7252C6.06591 11.7252 6.08162 11.7094 6.11306 11.7094C6.71031 11.4724 7.15038 11.188 7.10323 11.0774C7.0718 10.9352 6.50598 11.0458 5.84587 11.2986Z" fill="white"/>
<path d="M4.9828 8.72322C4.9828 8.70742 4.96708 8.70742 4.96708 8.69162V8.67582C4.90421 8.51783 4.82563 8.40723 4.77848 8.40723C4.73132 8.40723 4.74704 8.54943 4.82563 8.72322C4.8885 8.89702 4.9828 9.02342 5.02995 9.02342C5.06138 9.02342 5.04567 8.89702 4.9828 8.72322C4.9828 8.73902 4.9828 8.73902 4.9828 8.72322Z" fill="white"/>
<path d="M3.71047 9.21266C3.67903 9.19686 3.63188 9.29166 3.63188 9.41806C3.63188 9.54446 3.6476 9.63926 3.69475 9.65506C3.72618 9.67086 3.75762 9.57606 3.77334 9.46546C3.77334 9.46546 3.77334 9.46546 3.77334 9.44966C3.77334 9.44966 3.77334 9.44966 3.77334 9.43386C3.77334 9.43386 3.77334 9.43386 3.77334 9.41806C3.77334 9.41806 3.77334 9.41806 3.77334 9.40226C3.77334 9.30746 3.7419 9.22846 3.71047 9.21266Z" fill="white"/>
<path d="M6.22516 8.48587C6.22516 8.47007 6.22516 8.48587 6.22516 8.48587C6.20944 8.47007 6.20944 8.47007 6.22516 8.48587C6.20944 8.47007 6.20944 8.47007 6.22516 8.48587C6.20944 8.47007 6.20944 8.47007 6.20944 8.47007C6.13085 8.39107 6.05227 8.34367 6.02083 8.35947C5.9894 8.37527 6.02083 8.47007 6.09942 8.54907C6.17801 8.64387 6.27231 8.69127 6.30374 8.67547C6.33518 8.65967 6.30374 8.56487 6.22516 8.48587Z" fill="white"/>
</svg>
