<svg width="28" height="28" viewBox="0 0 28 28" fill="none" xmlns="http://www.w3.org/2000/svg">
<path d="M14.0078 8.6875C13.3279 8.6875 12.6633 8.88911 12.098 9.26682C11.5327 9.64454 11.0922 10.1814 10.832 10.8095C10.5718 11.4376 10.5037 12.1288 10.6364 12.7956C10.769 13.4624 11.0964 14.0749 11.5771 14.5557C12.0579 15.0364 12.6704 15.3638 13.3372 15.4964C14.004 15.6291 14.6952 15.561 15.3233 15.3008C15.9514 15.0407 16.4883 14.6001 16.866 14.0348C17.2437 13.4695 17.4453 12.8049 17.4453 12.125C17.4432 11.214 17.0804 10.3408 16.4362 9.6966C15.792 9.05239 14.9189 8.68956 14.0078 8.6875ZM14.0078 13.6875C13.6988 13.6875 13.3967 13.5959 13.1397 13.4242C12.8828 13.2525 12.6825 13.0085 12.5643 12.7229C12.446 12.4374 12.415 12.1233 12.4753 11.8202C12.5356 11.5171 12.6844 11.2387 12.903 11.0201C13.1215 10.8016 13.3999 10.6528 13.703 10.5925C14.0061 10.5322 14.3202 10.5632 14.6058 10.6814C14.8913 10.7997 15.1353 11 15.307 11.2569C15.4787 11.5139 15.5703 11.816 15.5703 12.125C15.5683 12.5388 15.403 12.935 15.1104 13.2276C14.8178 13.5202 14.4216 13.6854 14.0078 13.6875ZM14.0078 4.9375C12.1022 4.93957 10.2752 5.69748 8.92777 7.04495C7.5803 8.39242 6.82238 10.2194 6.82031 12.125C6.82031 18.1719 13.2031 22.7031 13.4688 22.8906C13.6262 23.0027 13.8146 23.0629 14.0078 23.0629C14.201 23.0629 14.3895 23.0027 14.5469 22.8906C15.7546 22.0024 16.8603 20.9831 17.8438 19.8516C20.0391 17.3281 21.1953 14.6562 21.1953 12.125C21.1932 10.2194 20.4353 8.39242 19.0879 7.04495C17.7404 5.69748 15.9134 4.93957 14.0078 4.9375ZM16.4531 18.5859C15.7087 19.4425 14.8905 20.232 14.0078 20.9453C13.1251 20.232 12.3069 19.4425 11.5625 18.5859C10.2578 17.0781 8.69531 14.7266 8.69531 12.125C8.69531 10.716 9.25502 9.36478 10.2513 8.3685C11.2476 7.37221 12.5989 6.8125 14.0078 6.8125C15.4168 6.8125 16.768 7.37221 17.7643 8.3685C18.7606 9.36478 19.3203 10.716 19.3203 12.125C19.3203 14.7266 17.7656 17.0781 16.4531 18.5859Z" fill="white"/>
</svg>
