<svg width="21" height="20" viewBox="0 0 21 20" fill="none" xmlns="http://www.w3.org/2000/svg">
<path d="M18 5.9933L14.5078 2.50112C14.3923 2.38443 14.2548 2.2918 14.1033 2.22858C13.9517 2.16536 13.7892 2.13281 13.625 2.13281C13.4608 2.13281 13.2983 2.16536 13.1467 2.22858C12.9952 2.2918 12.8577 2.38443 12.7422 2.50112L10.6797 4.5558L3.36719 11.8761C3.2507 11.9917 3.15828 12.1293 3.09525 12.2808C3.03223 12.4323 2.99985 12.5948 3 12.7589V16.2511C3 16.5826 3.1317 16.9006 3.36612 17.135C3.60054 17.3694 3.91848 17.5011 4.25 17.5011H7.74219C7.9063 17.5013 8.06881 17.4689 8.22034 17.4059C8.37186 17.3428 8.5094 17.2504 8.625 17.1339L18 7.75893C18.2319 7.5236 18.3619 7.20649 18.3619 6.87612C18.3619 6.54574 18.2319 6.22863 18 5.9933ZM4.50781 12.5011L11.75 5.25893L13.0547 6.56362L5.8125 13.8058L4.50781 12.5011ZM4.25 14.0089L6.49219 16.2511H4.25V14.0089ZM8 15.9933L6.69531 14.6886L13.9375 7.44643L15.2422 8.75112L8 15.9933Z" fill="#00D059"/>
</svg>
