<svg width="28" height="28" viewBox="0 0 28 28" fill="none" xmlns="http://www.w3.org/2000/svg">
<path opacity="0.2" d="M18.0625 20.25C19.2706 20.25 20.25 19.2706 20.25 18.0625C20.25 16.8544 19.2706 15.875 18.0625 15.875C16.8544 15.875 15.875 16.8544 15.875 18.0625C15.875 19.2706 16.8544 20.25 18.0625 20.25Z" fill="white"/>
<path opacity="0.2" d="M9.9375 12.125C11.1456 12.125 12.125 11.1456 12.125 9.9375C12.125 8.72938 11.1456 7.75 9.9375 7.75C8.72938 7.75 7.75 8.72938 7.75 9.9375C7.75 11.1456 8.72938 12.125 9.9375 12.125Z" fill="white"/>
<path d="M20.0687 7.92967C19.9502 7.81231 19.7902 7.74647 19.6234 7.74647C19.4566 7.74647 19.2966 7.81231 19.1781 7.92967L7.92809 19.1797C7.81073 19.2982 7.74489 19.4582 7.74489 19.625C7.74489 19.7918 7.81073 19.9518 7.92809 20.0703C8.04755 20.1858 8.20723 20.2504 8.3734 20.2504C8.53958 20.2504 8.69925 20.1858 8.81872 20.0703L20.0687 8.8203C20.1861 8.7018 20.2519 8.54176 20.2519 8.37498C20.2519 8.2082 20.1861 8.04817 20.0687 7.92967ZM9.9359 12.75C10.5844 12.7476 11.2121 12.5206 11.7121 12.1076C12.212 11.6946 12.5534 11.1211 12.6781 10.4846C12.8028 9.84823 12.7031 9.18827 12.396 8.61708C12.0889 8.0459 11.5933 7.5988 10.9937 7.35188C10.394 7.10496 9.7273 7.07348 9.10703 7.26279C8.48677 7.45211 7.95127 7.85053 7.5917 8.39023C7.23212 8.92993 7.07069 9.57756 7.13487 10.2229C7.19905 10.8682 7.48488 11.4714 7.94372 11.9297C8.47354 12.4552 9.18962 12.7501 9.9359 12.75ZM8.83434 8.83592C8.97826 8.68994 9.14975 8.57402 9.33886 8.4949C9.52797 8.41578 9.73091 8.37504 9.9359 8.37504C10.1409 8.37504 10.3438 8.41578 10.5329 8.4949C10.7221 8.57402 10.8936 8.68994 11.0375 8.83592C11.1834 8.97984 11.2994 9.15133 11.3785 9.34044C11.4576 9.52954 11.4983 9.73249 11.4983 9.93748C11.4983 10.1425 11.4576 10.3454 11.3785 10.5345C11.2994 10.7236 11.1834 10.8951 11.0375 11.039C10.893 11.1841 10.7214 11.2992 10.5323 11.3777C10.3433 11.4562 10.1406 11.4966 9.9359 11.4966C9.73121 11.4966 9.52853 11.4562 9.33949 11.3777C9.15046 11.2992 8.97879 11.1841 8.83434 11.039C8.68836 10.8951 8.57244 10.7236 8.49332 10.5345C8.4142 10.3454 8.37346 10.1425 8.37346 9.93748C8.37346 9.73249 8.4142 9.52954 8.49332 9.34044C8.57244 9.15133 8.68836 8.97984 8.83434 8.83592ZM20.0531 16.0703C19.5233 15.5446 18.8073 15.2495 18.0609 15.2495C17.3146 15.2495 16.5985 15.5446 16.0687 16.0703C15.6764 16.464 15.4095 16.9652 15.3017 17.5105C15.194 18.0558 15.2503 18.6208 15.4634 19.1341C15.6766 19.6475 16.0371 20.0862 16.4994 20.3948C16.9617 20.7034 17.5051 20.8681 18.0609 20.8681C18.6167 20.8681 19.1601 20.7034 19.6224 20.3948C20.0847 20.0862 20.4452 19.6475 20.6584 19.1341C20.8715 18.6208 20.9278 18.0558 20.8201 17.5105C20.7123 16.9652 20.4454 16.464 20.0531 16.0703ZM19.1625 19.164C18.8703 19.4562 18.4741 19.6203 18.0609 19.6203C17.6477 19.6203 17.2515 19.4562 16.9593 19.164C16.6672 18.8719 16.5031 18.4756 16.5031 18.0625C16.5031 17.6493 16.6672 17.2531 16.9593 16.9609C17.1033 16.8149 17.2748 16.699 17.4639 16.6199C17.653 16.5408 17.8559 16.5 18.0609 16.5C18.2659 16.5 18.4688 16.5408 18.6579 16.6199C18.8471 16.699 19.0186 16.8149 19.1625 16.9609C19.3084 17.1048 19.4244 17.2763 19.5035 17.4654C19.5826 17.6545 19.6233 17.8575 19.6233 18.0625C19.6233 18.2675 19.5826 18.4704 19.5035 18.6595C19.4244 18.8486 19.3084 19.0201 19.1625 19.164Z" fill="white"/>
</svg>
