<svg width="28" height="28" viewBox="0 0 28 28" fill="none" xmlns="http://www.w3.org/2000/svg">
<g clip-path="url(#clip0_20520_32429)">
<path d="M18.7925 8.55333V7.79961H23.1031C23.4282 7.79961 23.6914 7.53608 23.6914 7.21137V4.58824C23.6914 4.26353 23.4282 4 23.1031 4H18.2043C17.8796 4 17.6161 4.26353 17.6161 4.58824V8.55333H9.02392C6.25373 8.55333 4 10.8071 4 13.5776V19.9184C4 20.2431 4.26353 20.5067 4.58824 20.5067H11.7941V23.4118C11.7941 23.7365 12.0576 24 12.3824 24H15.6176C15.9424 24 16.2059 23.7365 16.2059 23.4118V20.5067H23.4118C23.7365 20.5067 24 20.2431 24 19.9184V13.5776C24 10.9917 21.9958 8.55333 18.7925 8.55333ZM22.8235 19.3302C21.8049 19.3302 14.9789 19.3302 14.0482 19.3302C14.0482 19.157 14.0482 13.8436 14.0482 13.5776C14.0482 12.0349 13.3494 10.6522 12.2514 9.7298H17.6161V12.8059C16.7831 13.0584 16.1757 13.8333 16.1757 14.7478C16.1757 15.8667 17.0855 16.7769 18.2043 16.7769C19.3231 16.7769 20.2333 15.8667 20.2333 14.7478C20.2333 13.8333 19.6255 13.0584 18.7925 12.8059V9.7298C21.2881 9.7298 22.8235 11.5876 22.8235 13.5776V19.3302ZM15.0294 22.8235H12.9706V20.5067H15.0294V22.8235ZM5.17647 13.5776C5.17647 11.4561 6.90216 9.7298 9.02392 9.7298C11.1459 9.7298 12.8718 11.456 12.8718 13.5776V19.3302C12.6384 19.3302 5.63078 19.3302 5.17647 19.3302V13.5776ZM18.2043 13.8953C18.6748 13.8953 19.0569 14.279 19.0569 14.7478C19.0569 15.218 18.6745 15.6004 18.2043 15.6004C17.7345 15.6004 17.3522 15.218 17.3522 14.7478C17.3522 14.2772 17.7356 13.8953 18.2043 13.8953ZM22.5149 6.62314H18.7925C18.7925 6.10067 18.7925 5.70086 18.7925 5.17647H22.5149V6.62314Z" fill="white"/>
<path d="M10.3162 14.426C10.6409 14.426 10.9044 14.1625 10.9044 13.8377C10.9044 13.5126 10.6409 13.2495 10.3162 13.2495C9.58539 13.2495 7.60527 13.2495 6.96324 13.2495C6.63853 13.2495 6.375 13.5126 6.375 13.8377C6.375 14.1625 6.63853 14.426 6.96324 14.426H10.3162Z" fill="white"/>
</g>
<defs>
<clipPath id="clip0_20520_32429">
<rect width="20" height="20" fill="white" transform="translate(4 4)"/>
</clipPath>
</defs>
</svg>
