<svg width="28" height="28" viewBox="0 0 28 28" fill="none" xmlns="http://www.w3.org/2000/svg">
<path opacity="0.2" d="M14 16.5C16.7614 16.5 19 14.2614 19 11.5C19 8.73858 16.7614 6.5 14 6.5C11.2386 6.5 9 8.73858 9 11.5C9 14.2614 11.2386 16.5 14 16.5Z" fill="white"/>
<path d="M22.1172 20.5613C20.951 18.5524 19.0844 17.0446 16.8751 16.327C17.934 15.6972 18.757 14.7373 19.2174 13.5945C19.6779 12.4517 19.7504 11.1894 19.4239 10.0014C19.0974 8.81338 18.3898 7.76545 17.41 7.01857C16.4301 6.2717 15.2321 5.86719 14.0001 5.86719C12.768 5.86719 11.57 6.2717 10.5902 7.01857C9.61029 7.76545 8.90275 8.81338 8.57621 10.0014C8.24967 11.1894 8.32221 12.4517 8.78268 13.5945C9.24316 14.7373 10.0661 15.6972 11.1251 16.327C8.91576 17.0446 7.04907 18.5524 5.88287 20.5613C5.83395 20.6323 5.80024 20.7126 5.78386 20.7972C5.76747 20.8818 5.76877 20.9689 5.78766 21.053C5.80655 21.1371 5.84262 21.2164 5.89362 21.2859C5.94462 21.3553 6.00944 21.4135 6.084 21.4568C6.15857 21.5 6.24127 21.5273 6.3269 21.537C6.41254 21.5468 6.49926 21.5387 6.58163 21.5133C6.66399 21.4879 6.7402 21.4457 6.80549 21.3895C6.87078 21.3332 6.92372 21.264 6.96099 21.1863C7.67535 19.9519 8.70176 18.9271 9.93725 18.2146C11.1727 17.5022 12.5739 17.1271 14.0001 17.1271C15.4263 17.1271 16.8274 17.5022 18.0629 18.2146C19.2983 18.9271 20.3248 19.9519 21.0391 21.1863C21.0764 21.264 21.1293 21.3332 21.1946 21.3895C21.2599 21.4457 21.3361 21.4879 21.4185 21.5133C21.5008 21.5387 21.5876 21.5468 21.6732 21.537C21.7588 21.5273 21.8415 21.5 21.9161 21.4568C21.9907 21.4135 22.0555 21.3553 22.1065 21.2859C22.1575 21.2164 22.1936 21.1371 22.2125 21.053C22.2313 20.9689 22.2326 20.8818 22.2163 20.7972C22.1999 20.7126 22.1662 20.6323 22.1172 20.5613ZM9.62506 11.4988C9.62506 10.6335 9.88164 9.78768 10.3624 9.06821C10.8431 8.34875 11.5264 7.78799 12.3258 7.45686C13.1252 7.12573 14.0049 7.03909 14.8536 7.2079C15.7022 7.37671 16.4818 7.79339 17.0936 8.40524C17.7055 9.01709 18.1222 9.79664 18.291 10.6453C18.4598 11.494 18.3732 12.3736 18.042 13.1731C17.7109 13.9725 17.1501 14.6558 16.4307 15.1365C15.7112 15.6172 14.8653 15.8738 14.0001 15.8738C12.8397 15.8738 11.7269 15.4129 10.9065 14.5924C10.086 13.772 9.62506 12.6592 9.62506 11.4988Z" fill="white"/>
</svg>
