<svg width="324" height="324" viewBox="0 0 324 324" fill="none" xmlns="http://www.w3.org/2000/svg">
<rect x="12" width="300" height="324" rx="12" fill="#00A849"/>
<g clip-path="url(#clip0_15292_38857)">
<path d="M194.5 125.438H186.375V145.75H194.5V125.438Z" fill="white"/>
<path d="M210.75 125.438H202.625V145.75H210.75V125.438Z" fill="white"/>
<path d="M194.5 153.875H186.375V162H194.5V153.875Z" fill="white"/>
<path d="M210.75 153.875H202.625V162H210.75V153.875Z" fill="white"/>
<path d="M166.062 170.125H157.938V178.25H166.062V170.125Z" fill="white"/>
<path d="M145.75 251.375H137.625V259.5H145.75V251.375Z" fill="white"/>
<path d="M210.75 170.125H202.625V178.25H210.75V170.125Z" fill="white"/>
<path d="M194.5 186.375H186.375V194.5H194.5V186.375Z" fill="white"/>
<path d="M210.75 186.375H202.625V194.5H210.75V186.375Z" fill="white"/>
<path d="M40.125 40.125H52.3125V32H36.0625C33.82 32 32 33.82 32 36.0625V52.3125H40.125V40.125Z" fill="white"/>
<path d="M287.938 32H271.688V40.125H283.875V52.3125H292V36.0625C292 33.82 290.18 32 287.938 32Z" fill="white"/>
<path d="M40.125 271.688H32V287.938C32 290.18 33.82 292 36.0625 292H52.3125V283.875H40.125V271.688Z" fill="white"/>
<path d="M283.875 283.875H271.688V292H287.938C290.18 292 292 290.18 292 287.938V271.688H283.875V283.875Z" fill="white"/>
<path d="M48.25 52.3125V101.062C48.25 103.305 50.07 105.125 52.3125 105.125H101.062C103.305 105.125 105.125 103.305 105.125 101.062V52.3125C105.125 50.07 103.305 48.25 101.062 48.25H52.3125C50.07 48.25 48.25 50.07 48.25 52.3125ZM56.375 56.375H97V97H56.375V56.375Z" fill="white"/>
<path d="M84.8125 64.5H68.5625C66.32 64.5 64.5 66.32 64.5 68.5625V84.8125C64.5 87.055 66.32 88.875 68.5625 88.875H84.8125C87.055 88.875 88.875 87.055 88.875 84.8125V68.5625C88.875 66.32 87.055 64.5 84.8125 64.5ZM80.75 80.75H72.625V72.625H80.75V80.75Z" fill="white"/>
<path d="M222.938 105.125H271.688C273.93 105.125 275.75 103.305 275.75 101.062V52.3125C275.75 50.07 273.93 48.25 271.688 48.25H222.938C220.695 48.25 218.875 50.07 218.875 52.3125V101.062C218.875 103.305 220.695 105.125 222.938 105.125ZM227 56.375H267.625V97H227V56.375Z" fill="white"/>
<path d="M255.438 64.5H239.188C236.945 64.5 235.125 66.32 235.125 68.5625V84.8125C235.125 87.055 236.945 88.875 239.188 88.875H255.438C257.68 88.875 259.5 87.055 259.5 84.8125V68.5625C259.5 66.32 257.68 64.5 255.438 64.5ZM251.375 80.75H243.25V72.625H251.375V80.75Z" fill="white"/>
<path d="M101.062 218.875H52.3125C50.07 218.875 48.25 220.695 48.25 222.938V271.688C48.25 273.93 50.07 275.75 52.3125 275.75H101.062C103.305 275.75 105.125 273.93 105.125 271.688V222.938C105.125 220.695 103.305 218.875 101.062 218.875ZM97 267.625H56.375V227H97V267.625Z" fill="white"/>
<path d="M68.5625 259.5H84.8125C87.055 259.5 88.875 257.68 88.875 255.438V239.188C88.875 236.945 87.055 235.125 84.8125 235.125H68.5625C66.32 235.125 64.5 236.945 64.5 239.188V255.438C64.5 257.68 66.32 259.5 68.5625 259.5ZM72.625 243.25H80.75V251.375H72.625V243.25Z" fill="white"/>
<path d="M210.75 109.188H182.312V60.4375H174.188V113.25C174.188 115.493 176.008 117.312 178.25 117.312H210.75V109.188Z" fill="white"/>
<path d="M149.812 80.75H121.375V88.875H149.812V80.75Z" fill="white"/>
<path d="M166.062 64.5H137.625V72.625H166.062V64.5Z" fill="white"/>
<path d="M56.375 109.188H48.25V145.75H56.375V109.188Z" fill="white"/>
<path d="M105.125 133.562H64.5V141.688H101.062V157.938H109.188V137.625C109.188 135.383 107.368 133.562 105.125 133.562Z" fill="white"/>
<path d="M76.6875 113.25H68.5625V121.375H76.6875V113.25Z" fill="white"/>
<path d="M125.438 105.125H117.312V137.625H125.438V105.125Z" fill="white"/>
<path d="M153.875 145.75H117.312V153.875H153.875V145.75Z" fill="white"/>
<path d="M279.812 149.812H271.688V190.438H259.5V198.562H275.75C277.993 198.562 279.812 196.743 279.812 194.5V149.812Z" fill="white"/>
<path d="M145.75 105.125H137.625V113.25H145.75V105.125Z" fill="white"/>
<path d="M56.375 166.062H48.25V198.562H56.375V166.062Z" fill="white"/>
<path d="M84.8125 202.625H48.25V210.75H84.8125V202.625Z" fill="white"/>
<path d="M235.125 145.75H243.25V129.5C243.25 127.258 241.43 125.438 239.188 125.438H218.875V133.562H235.125V145.75Z" fill="white"/>
<path d="M76.6875 166.062H68.5625V174.188H76.6875V166.062Z" fill="white"/>
<path d="M121.375 162H113.25V194.5H121.375V162Z" fill="white"/>
<path d="M149.812 202.625H113.25V210.75H149.812V202.625Z" fill="white"/>
<path d="M101.062 186.375H64.5V194.5H101.062V186.375Z" fill="white"/>
<path d="M125.438 243.25H117.312V259.5H125.438V243.25Z" fill="white"/>
<path d="M149.812 227H113.25V235.125H149.812V227Z" fill="white"/>
<path d="M178.25 210.75V190.438C178.25 188.195 176.43 186.375 174.188 186.375H133.562V194.5H170.125V210.75H178.25Z" fill="white"/>
<path d="M145.75 162H137.625V170.125H145.75V162Z" fill="white"/>
<path d="M101.062 170.125H92.9375V178.25H101.062V170.125Z" fill="white"/>
<path d="M279.812 247.312H271.688V275.75H279.812V247.312Z" fill="white"/>
<path d="M263.562 267.625H251.375V275.75H263.562V267.625Z" fill="white"/>
<path d="M259.5 243.25H251.375V259.5H259.5V243.25Z" fill="white"/>
<path d="M279.812 210.75C279.812 208.508 277.993 206.688 275.75 206.688H231.062V214.812H271.688V239.188H279.812V210.75Z" fill="white"/>
<path d="M227 259.5V239.188C227 236.945 225.18 235.125 222.938 235.125H178.25V243.25H218.875V259.5H227Z" fill="white"/>
<path d="M263.562 222.938H235.125V231.062H263.562V222.938Z" fill="white"/>
<path d="M141.688 267.625H113.25V275.75H141.688V267.625Z" fill="white"/>
<path d="M162 239.188H153.875V275.75H162V239.188Z" fill="white"/>
<path d="M178.25 218.875H162V227H178.25V218.875Z" fill="white"/>
<path d="M222.938 178.25H243.25V170.125H227V145.75H218.875V174.188C218.875 176.43 220.695 178.25 222.938 178.25Z" fill="white"/>
<path d="M255.438 153.875H235.125V162H255.438V153.875Z" fill="white"/>
<path d="M263.562 113.25H251.375V121.375H263.562V113.25Z" fill="white"/>
<path d="M279.812 113.25H271.688V133.562H279.812V113.25Z" fill="white"/>
<path d="M259.5 133.562H251.375V141.688H259.5V133.562Z" fill="white"/>
<path d="M190.438 101.062H206.688C208.93 101.062 210.75 99.2425 210.75 97V44.1875H202.625V92.9375H190.438V101.062Z" fill="white"/>
<path d="M129.5 52.3125H190.438V44.1875H125.438C123.195 44.1875 121.375 46.0075 121.375 48.25V68.5625H129.5V52.3125Z" fill="white"/>
<path d="M133.562 129.5H162C164.243 129.5 166.062 127.68 166.062 125.438V92.9375H157.938V121.375H133.562V129.5Z" fill="white"/>
<path d="M178.25 125.438H170.125V141.688H178.25V125.438Z" fill="white"/>
<path d="M206.688 251.375H178.25V259.5H206.688V251.375Z" fill="white"/>
<path d="M214.812 267.625H178.25V275.75H214.812V267.625Z" fill="white"/>
<path d="M235.125 267.625H227V275.75H239.188C241.43 275.75 243.25 273.93 243.25 271.688V239.188H235.125V267.625Z" fill="white"/>
<path d="M105.125 202.625H97V210.75H105.125V202.625Z" fill="white"/>
<path d="M206.688 202.625H190.438V210.75H206.688V202.625Z" fill="white"/>
<path d="M227 186.375H218.875V198.562H227V186.375Z" fill="white"/>
<path d="M222.938 206.688H214.812V214.812H222.938V206.688Z" fill="white"/>
<path d="M202.625 218.875H190.438V227H202.625V218.875Z" fill="white"/>
<path d="M243.25 186.375H235.125V194.5H243.25V186.375Z" fill="white"/>
<path d="M263.562 170.125H251.375V178.25H263.562V170.125Z" fill="white"/>
<path d="M194.5 170.125H174.188V178.25H194.5V170.125Z" fill="white"/>
<path d="M178.25 149.812H170.125V162H178.25V149.812Z" fill="white"/>
</g>
<circle cx="312" cy="208" r="12" fill="#024820"/>
<circle cx="12" cy="208" r="12" fill="#023F1C"/>
<defs>
<clipPath id="clip0_15292_38857">
<rect width="260" height="260" fill="white" transform="translate(32 32)"/>
</clipPath>
</defs>
</svg>
