<svg width="14" height="14" viewBox="0 0 14 14" fill="none" xmlns="http://www.w3.org/2000/svg">
<path d="M7 0.5C5.71442 0.5 4.45772 0.881218 3.3888 1.59545C2.31988 2.30968 1.48676 3.32484 0.994786 4.51256C0.502816 5.70028 0.374095 7.00721 0.624899 8.26809C0.875703 9.52896 1.49477 10.6872 2.40381 11.5962C3.31285 12.5052 4.47104 13.1243 5.73192 13.3751C6.99279 13.6259 8.29973 13.4972 9.48744 13.0052C10.6752 12.5132 11.6903 11.6801 12.4046 10.6112C13.1188 9.54229 13.5 8.28558 13.5 7C13.4967 5.27711 12.8108 3.62573 11.5925 2.40746C10.3743 1.18918 8.72289 0.503304 7 0.5ZM7 12.5C5.91221 12.5 4.84884 12.1774 3.94437 11.5731C3.0399 10.9687 2.33495 10.1098 1.91867 9.10476C1.50238 8.09977 1.39347 6.9939 1.60568 5.927C1.8179 4.86011 2.34173 3.8801 3.11092 3.11091C3.8801 2.34172 4.86011 1.8179 5.92701 1.60568C6.9939 1.39346 8.09977 1.50238 9.10476 1.91866C10.1098 2.33494 10.9687 3.03989 11.5731 3.94436C12.1774 4.84883 12.5 5.9122 12.5 7C12.4983 8.45818 11.9184 9.85617 10.8873 10.8873C9.85617 11.9184 8.45819 12.4983 7 12.5ZM7 3C6.20888 3 5.43552 3.2346 4.77772 3.67412C4.11993 4.11365 3.60724 4.73836 3.30448 5.46927C3.00173 6.20017 2.92252 7.00444 3.07686 7.78036C3.2312 8.55628 3.61217 9.26902 4.17158 9.82843C4.73099 10.3878 5.44372 10.7688 6.21964 10.9231C6.99557 11.0775 7.79983 10.9983 8.53074 10.6955C9.26164 10.3928 9.88636 9.88008 10.3259 9.22228C10.7654 8.56448 11 7.79113 11 7C10.9984 5.93964 10.5764 4.92319 9.8266 4.1734C9.07682 3.42361 8.06036 3.00165 7 3ZM7 10C6.40666 10 5.82664 9.82405 5.33329 9.49441C4.83994 9.16476 4.45543 8.69623 4.22836 8.14805C4.0013 7.59987 3.94189 6.99667 4.05765 6.41473C4.1734 5.83279 4.45913 5.29824 4.87868 4.87868C5.29824 4.45912 5.83279 4.1734 6.41473 4.05764C6.99668 3.94189 7.59987 4.0013 8.14805 4.22836C8.69623 4.45542 9.16477 4.83994 9.49441 5.33329C9.82406 5.82664 10 6.40666 10 7C10 7.79565 9.68393 8.55871 9.12132 9.12132C8.55871 9.68393 7.79565 10 7 10Z" fill="#00D059"/>
</svg>
