<svg width="16" height="16" viewBox="0 0 16 16" fill="none" xmlns="http://www.w3.org/2000/svg">
<path d="M14.6665 3.9987V5.61203C14.6665 6.66536 13.9998 7.33203 12.9465 7.33203H10.6665V2.67203C10.6665 1.93203 11.2732 1.33203 12.0132 1.33203C12.7399 1.3387 13.4065 1.63203 13.8865 2.11203C14.3665 2.5987 14.6665 3.26536 14.6665 3.9987Z" stroke="white" stroke-width="1.2" stroke-miterlimit="10" stroke-linecap="round" stroke-linejoin="round"/>
<path d="M1.3335 4.66536V13.9987C1.3335 14.552 1.96015 14.8654 2.40015 14.532L3.54016 13.6787C3.80683 13.4787 4.18017 13.5054 4.42017 13.7454L5.52681 14.8587C5.78681 15.1187 6.21351 15.1187 6.47351 14.8587L7.59351 13.7387C7.82684 13.5054 8.20016 13.4787 8.46016 13.6787L9.60018 14.532C10.0402 14.8587 10.6668 14.5454 10.6668 13.9987V2.66536C10.6668 1.93203 11.2668 1.33203 12.0002 1.33203H4.66683H4.00016C2.00016 1.33203 1.3335 2.52536 1.3335 3.9987V4.66536Z" stroke="white" stroke-width="1.2" stroke-miterlimit="10" stroke-linecap="round" stroke-linejoin="round"/>
<path d="M4 6H8" stroke="white" stroke-width="1.2" stroke-linecap="round" stroke-linejoin="round"/>
<path d="M4.5 8.66797H7.5" stroke="white" stroke-width="1.2" stroke-linecap="round" stroke-linejoin="round"/>
</svg>
