<svg width="80" height="80" viewBox="0 0 80 80" fill="none" xmlns="http://www.w3.org/2000/svg">
<g filter="url(#filter0_b_2694_7713)">
<rect width="80" height="80" rx="40" fill="#661A05"/>
<rect x="0.5" y="0.5" width="79" height="79" rx="39.5" stroke="#962708"/>
<path opacity="0.2" d="M52 40C52 42.3734 51.2962 44.6935 49.9776 46.6668C48.6591 48.6402 46.7849 50.1783 44.5922 51.0866C42.3995 51.9948 39.9867 52.2324 37.6589 51.7694C35.3312 51.3064 33.193 50.1635 31.5147 48.4853C29.8365 46.8071 28.6936 44.6689 28.2306 42.3411C27.7676 40.0133 28.0052 37.6005 28.9135 35.4078C29.8217 33.2151 31.3598 31.3409 33.3332 30.0224C35.3066 28.7038 37.6266 28 40 28C43.1826 28 46.2348 29.2643 48.4853 31.5147C50.7357 33.7652 52 36.8174 52 40Z" fill="#F5FFF9"/>
<path d="M40 27C37.4288 27 34.9154 27.7624 32.7776 29.1909C30.6398 30.6194 28.9735 32.6497 27.9896 35.0251C27.0056 37.4006 26.7482 40.0144 27.2498 42.5362C27.7514 45.0579 28.9895 47.3743 30.8076 49.1924C32.6257 51.0105 34.9421 52.2486 37.4638 52.7502C39.9856 53.2518 42.5995 52.9944 44.9749 52.0104C47.3503 51.0265 49.3807 49.3603 50.8091 47.2224C52.2376 45.0846 53 42.5712 53 40C52.9934 36.5542 51.6216 33.2515 49.1851 30.8149C46.7486 28.3784 43.4458 27.0066 40 27ZM40 51C37.8244 51 35.6977 50.3549 33.8887 49.1462C32.0798 47.9375 30.6699 46.2195 29.8373 44.2095C29.0048 42.1995 28.7869 39.9878 29.2114 37.854C29.6358 35.7202 30.6835 33.7602 32.2218 32.2218C33.7602 30.6834 35.7202 29.6358 37.854 29.2114C39.9878 28.7869 42.1995 29.0048 44.2095 29.8373C46.2195 30.6699 47.9375 32.0798 49.1462 33.8887C50.3549 35.6977 51 37.8244 51 40C50.9967 42.9164 49.8367 45.7123 47.7745 47.7745C45.7123 49.8367 42.9164 50.9967 40 51ZM34 37.5C34 37.2033 34.088 36.9133 34.2528 36.6666C34.4176 36.42 34.6519 36.2277 34.926 36.1142C35.2001 36.0006 35.5017 35.9709 35.7926 36.0288C36.0836 36.0867 36.3509 36.2296 36.5607 36.4393C36.7704 36.6491 36.9133 36.9164 36.9712 37.2074C37.0291 37.4983 36.9994 37.7999 36.8858 38.074C36.7723 38.3481 36.58 38.5824 36.3334 38.7472C36.0867 38.912 35.7967 39 35.5 39C35.1022 39 34.7206 38.842 34.4393 38.5607C34.158 38.2794 34 37.8978 34 37.5ZM43 37.5C43 37.2033 43.088 36.9133 43.2528 36.6666C43.4176 36.42 43.6519 36.2277 43.926 36.1142C44.2001 36.0006 44.5017 35.9709 44.7926 36.0288C45.0836 36.0867 45.3509 36.2296 45.5607 36.4393C45.7704 36.6491 45.9133 36.9164 45.9712 37.2074C46.0291 37.4983 45.9994 37.7999 45.8858 38.074C45.7723 38.3481 45.58 38.5824 45.3334 38.7472C45.0867 38.912 44.7967 39 44.5 39C44.1022 39 43.7207 38.842 43.4393 38.5607C43.158 38.2794 43 37.8978 43 37.5ZM46.0625 45.5C46.1943 45.7289 46.2301 46.0007 46.1622 46.256C46.0943 46.5113 45.9281 46.7293 45.7 46.8625C45.5493 46.9538 45.3762 47.0014 45.2 47C45.0243 47.0033 44.851 46.9585 44.699 46.8704C44.5469 46.7822 44.4219 46.6541 44.3375 46.5C43.8971 45.7396 43.2646 45.1084 42.5033 44.6695C41.742 44.2307 40.8787 43.9997 40 43.9997C39.1213 43.9997 38.258 44.2307 37.4967 44.6695C36.7355 45.1084 36.1029 45.7396 35.6625 46.5C35.6029 46.6243 35.5182 46.735 35.4137 46.825C35.3092 46.9151 35.1873 46.9825 35.0555 47.0231C34.9237 47.0638 34.785 47.0767 34.648 47.0611C34.5109 47.0456 34.3786 47.0018 34.2593 46.9327C34.14 46.8635 34.0363 46.7704 33.9547 46.6593C33.8731 46.5481 33.8154 46.4212 33.7852 46.2867C33.7549 46.1522 33.7529 46.0128 33.7791 45.8774C33.8053 45.742 33.8592 45.6135 33.9375 45.5C34.5518 44.4357 35.4355 43.5519 36.4997 42.9374C37.5639 42.3229 38.7711 41.9994 40 41.9994C41.2289 41.9994 42.4361 42.3229 43.5003 42.9374C44.5645 43.5519 45.4482 44.4357 46.0625 45.5Z" fill="#F5FFF9"/>
</g>
<defs>
<filter id="filter0_b_2694_7713" x="-8" y="-8" width="96" height="96" filterUnits="userSpaceOnUse" color-interpolation-filters="sRGB">
<feFlood flood-opacity="0" result="BackgroundImageFix"/>
<feGaussianBlur in="BackgroundImageFix" stdDeviation="4"/>
<feComposite in2="SourceAlpha" operator="in" result="effect1_backgroundBlur_2694_7713"/>
<feBlend mode="normal" in="SourceGraphic" in2="effect1_backgroundBlur_2694_7713" result="shape"/>
</filter>
</defs>
</svg>
