<svg width="16" height="16" viewBox="0 0 16 16" fill="none" xmlns="http://www.w3.org/2000/svg">
<path d="M14 2.5V5C14 5.13261 13.9473 5.25978 13.8536 5.35355C13.7598 5.44732 13.6326 5.5 13.5 5.5C13.3674 5.5 13.2402 5.44732 13.1464 5.35355C13.0527 5.25978 13 5.13261 13 5V3H11C10.8674 3 10.7402 2.94732 10.6464 2.85355C10.5527 2.75979 10.5 2.63261 10.5 2.5C10.5 2.36739 10.5527 2.24021 10.6464 2.14645C10.7402 2.05268 10.8674 2 11 2H13.5C13.6326 2 13.7598 2.05268 13.8536 2.14645C13.9473 2.24021 14 2.36739 14 2.5ZM5 13H3V11C3 10.8674 2.94732 10.7402 2.85355 10.6464C2.75979 10.5527 2.63261 10.5 2.5 10.5C2.36739 10.5 2.24021 10.5527 2.14645 10.6464C2.05268 10.7402 2 10.8674 2 11V13.5C2 13.6326 2.05268 13.7598 2.14645 13.8536C2.24021 13.9473 2.36739 14 2.5 14H5C5.13261 14 5.25978 13.9473 5.35355 13.8536C5.44732 13.7598 5.5 13.6326 5.5 13.5C5.5 13.3674 5.44732 13.2402 5.35355 13.1464C5.25978 13.0527 5.13261 13 5 13ZM13.5 10.5C13.3674 10.5 13.2402 10.5527 13.1464 10.6464C13.0527 10.7402 13 10.8674 13 11V13H11C10.8674 13 10.7402 13.0527 10.6464 13.1464C10.5527 13.2402 10.5 13.3674 10.5 13.5C10.5 13.6326 10.5527 13.7598 10.6464 13.8536C10.7402 13.9473 10.8674 14 11 14H13.5C13.6326 14 13.7598 13.9473 13.8536 13.8536C13.9473 13.7598 14 13.6326 14 13.5V11C14 10.8674 13.9473 10.7402 13.8536 10.6464C13.7598 10.5527 13.6326 10.5 13.5 10.5ZM2.5 5.5C2.63261 5.5 2.75979 5.44732 2.85355 5.35355C2.94732 5.25978 3 5.13261 3 5V3H5C5.13261 3 5.25978 2.94732 5.35355 2.85355C5.44732 2.75979 5.5 2.63261 5.5 2.5C5.5 2.36739 5.44732 2.24021 5.35355 2.14645C5.25978 2.05268 5.13261 2 5 2H2.5C2.36739 2 2.24021 2.05268 2.14645 2.14645C2.05268 2.24021 2 2.36739 2 2.5V5C2 5.13261 2.05268 5.25978 2.14645 5.35355C2.24021 5.44732 2.36739 5.5 2.5 5.5ZM10.5 11.5H5.5C5.23478 11.5 4.98043 11.3946 4.79289 11.2071C4.60536 11.0196 4.5 10.7652 4.5 10.5V5.5C4.5 5.23478 4.60536 4.98043 4.79289 4.79289C4.98043 4.60536 5.23478 4.5 5.5 4.5H10.5C10.7652 4.5 11.0196 4.60536 11.2071 4.79289C11.3946 4.98043 11.5 5.23478 11.5 5.5V10.5C11.5 10.7652 11.3946 11.0196 11.2071 11.2071C11.0196 11.3946 10.7652 11.5 10.5 11.5ZM5.5 10.5H10.5V5.5H5.5V10.5Z" fill="white"/>
</svg>
