<svg width="30" height="30" viewBox="0 0 30 30" fill="none" xmlns="http://www.w3.org/2000/svg">
<g filter="url(#filter0_i_15289_36899)">
<rect width="30" height="30" rx="6" fill="url(#paint0_linear_15289_36899)"/>
<rect x="0.5" y="0.5" width="29" height="29" rx="5.5" stroke="url(#paint1_linear_15289_36899)"/>
<path d="M19.375 10.1875H10.625C10.3929 10.1875 10.1704 10.2797 10.0063 10.4438C9.84219 10.6079 9.75 10.8304 9.75 11.0625V14.2727C9.75 19.1617 13.8953 20.7859 14.7266 21.0594C14.9029 21.1252 15.0971 21.1252 15.2734 21.0594C16.1047 20.7859 20.25 19.1617 20.25 14.2727V11.0625C20.25 10.8304 20.1578 10.6079 19.9937 10.4438C19.8296 10.2797 19.6071 10.1875 19.375 10.1875ZM17.2148 15.175L15.7055 15.6672L16.6406 16.9523C16.6744 16.9985 16.6986 17.051 16.712 17.1066C16.7253 17.1622 16.7274 17.22 16.7183 17.2764C16.7091 17.3329 16.6888 17.387 16.6586 17.4356C16.6284 17.4841 16.5888 17.5262 16.5422 17.5594C16.4687 17.6165 16.3782 17.6473 16.2852 17.6469C16.216 17.6462 16.1479 17.6296 16.0863 17.5983C16.0246 17.567 15.971 17.5219 15.9297 17.4664L15 16.1813L14.0703 17.4664C14.029 17.5219 13.9754 17.567 13.9137 17.5983C13.8521 17.6296 13.784 17.6462 13.7148 17.6469C13.6218 17.6473 13.5313 17.6165 13.4578 17.5594C13.4112 17.5262 13.3716 17.4841 13.3414 17.4356C13.3112 17.387 13.2909 17.3329 13.2817 17.2764C13.2726 17.22 13.2747 17.1622 13.288 17.1066C13.3014 17.051 13.3256 16.9985 13.3594 16.9523L14.2945 15.6672L12.7852 15.175C12.6752 15.1398 12.5836 15.0626 12.5303 14.9601C12.477 14.8577 12.4664 14.7384 12.5008 14.6281C12.5371 14.5177 12.6154 14.4261 12.7187 14.3729C12.8221 14.3197 12.9422 14.3092 13.0531 14.3438L14.5625 14.8359V13.25C14.5625 13.134 14.6086 13.0227 14.6906 12.9406C14.7727 12.8586 14.884 12.8125 15 12.8125C15.116 12.8125 15.2273 12.8586 15.3094 12.9406C15.3914 13.0227 15.4375 13.134 15.4375 13.25V14.8359L16.9469 14.3438C17.0578 14.3092 17.1779 14.3197 17.2813 14.3729C17.3846 14.4261 17.4629 14.5177 17.4992 14.6281C17.5336 14.7384 17.523 14.8577 17.4697 14.9601C17.4164 15.0626 17.3248 15.1398 17.2148 15.175Z" fill="white"/>
</g>
<defs>
<filter id="filter0_i_15289_36899" x="0" y="0" width="30" height="33" filterUnits="userSpaceOnUse" color-interpolation-filters="sRGB">
<feFlood flood-opacity="0" result="BackgroundImageFix"/>
<feBlend mode="normal" in="SourceGraphic" in2="BackgroundImageFix" result="shape"/>
<feColorMatrix in="SourceAlpha" type="matrix" values="0 0 0 0 0 0 0 0 0 0 0 0 0 0 0 0 0 0 127 0" result="hardAlpha"/>
<feOffset dy="3"/>
<feGaussianBlur stdDeviation="2.5"/>
<feComposite in2="hardAlpha" operator="arithmetic" k2="-1" k3="1"/>
<feColorMatrix type="matrix" values="0 0 0 0 0.137255 0 0 0 0 0.137255 0 0 0 0 0.137255 0 0 0 1 0"/>
<feBlend mode="normal" in2="shape" result="effect1_innerShadow_15289_36899"/>
</filter>
<linearGradient id="paint0_linear_15289_36899" x1="15" y1="30" x2="15" y2="0" gradientUnits="userSpaceOnUse">
<stop offset="0.72" stop-color="#0F0F0F"/>
<stop offset="1" stop-color="#1A1A1A"/>
</linearGradient>
<linearGradient id="paint1_linear_15289_36899" x1="15" y1="30" x2="15" y2="0" gradientUnits="userSpaceOnUse">
<stop stop-color="white" stop-opacity="0.06"/>
<stop offset="1" stop-color="white" stop-opacity="0.06"/>
</linearGradient>
</defs>
</svg>
