<svg width="40" height="40" viewBox="0 0 40 40" fill="none" xmlns="http://www.w3.org/2000/svg">
<g filter="url(#filter0_b_16354_25002)">
<rect width="40" height="40" rx="20" fill="white" fill-opacity="0.12"/>
<path d="M16.9125 17.3124C16.8762 17.2211 16.867 17.1213 16.8858 17.0249C16.9047 16.9285 16.9508 16.8396 17.0188 16.7686L19.6438 14.1436C19.7385 14.0497 19.8666 13.9971 20 13.9971C20.1334 13.9971 20.2615 14.0497 20.3562 14.1436L22.9812 16.7686C23.0492 16.8396 23.0953 16.9285 23.1142 17.0249C23.133 17.1213 23.1238 17.2211 23.0875 17.3124C23.0502 17.4046 22.9863 17.4835 22.9039 17.5392C22.8215 17.5948 22.7244 17.6247 22.625 17.6249H20.5V21.4999C20.5 21.6325 20.4473 21.7597 20.3536 21.8534C20.2598 21.9472 20.1326 21.9999 20 21.9999C19.8674 21.9999 19.7402 21.9472 19.6464 21.8534C19.5527 21.7597 19.5 21.6325 19.5 21.4999V17.6249H17.375C17.2756 17.6247 17.1785 17.5948 17.0961 17.5392C17.0137 17.4835 16.9498 17.4046 16.9125 17.3124ZM25.5 20.9999C25.3674 20.9999 25.2402 21.0526 25.1464 21.1463C25.0527 21.2401 25 21.3673 25 21.4999V24.9999H15V21.4999C15 21.3673 14.9473 21.2401 14.8536 21.1463C14.7598 21.0526 14.6326 20.9999 14.5 20.9999C14.3674 20.9999 14.2402 21.0526 14.1464 21.1463C14.0527 21.2401 14 21.3673 14 21.4999V24.9999C14 25.2651 14.1054 25.5195 14.2929 25.707C14.4804 25.8945 14.7348 25.9999 15 25.9999H25C25.2652 25.9999 25.5196 25.8945 25.7071 25.707C25.8946 25.5195 26 25.2651 26 24.9999V21.4999C26 21.3673 25.9473 21.2401 25.8536 21.1463C25.7598 21.0526 25.6326 20.9999 25.5 20.9999Z" fill="white"/>
</g>
<defs>
<filter id="filter0_b_16354_25002" x="-8" y="-8" width="56" height="56" filterUnits="userSpaceOnUse" color-interpolation-filters="sRGB">
<feFlood flood-opacity="0" result="BackgroundImageFix"/>
<feGaussianBlur in="BackgroundImageFix" stdDeviation="4"/>
<feComposite in2="SourceAlpha" operator="in" result="effect1_backgroundBlur_16354_25002"/>
<feBlend mode="normal" in="SourceGraphic" in2="effect1_backgroundBlur_16354_25002" result="shape"/>
</filter>
</defs>
</svg>
