<svg width="36" height="36" viewBox="0 0 36 36" fill="none" xmlns="http://www.w3.org/2000/svg">
<rect x="0.5" y="0.5" width="35" height="35" rx="17.5" fill="url(#paint0_linear_16354_25189)"/>
<rect x="0.5" y="0.5" width="35" height="35" rx="17.5" stroke="url(#paint1_linear_16354_25189)"/>
<rect x="10.5" y="10.5" width="15" height="15" stroke="black"/>
<path d="M19.75 18C19.75 18.3461 19.6474 18.6845 19.4551 18.9722C19.2628 19.26 18.9895 19.4843 18.6697 19.6168C18.3499 19.7492 17.9981 19.7839 17.6586 19.7164C17.3191 19.6489 17.0073 19.4822 16.7626 19.2374C16.5178 18.9927 16.3512 18.6809 16.2836 18.3414C16.2161 18.0019 16.2508 17.6501 16.3832 17.3303C16.5157 17.0105 16.74 16.7372 17.0278 16.5449C17.3155 16.3526 17.6539 16.25 18 16.25C18.4636 16.2516 18.9078 16.4366 19.2356 16.7644C19.5635 17.0922 19.7484 17.5364 19.75 18ZM18 14.75C18.3461 14.75 18.6845 14.6474 18.9722 14.4551C19.26 14.2628 19.4843 13.9895 19.6168 13.6697C19.7492 13.3499 19.7839 12.9981 19.7164 12.6586C19.6489 12.3191 19.4822 12.0073 19.2374 11.7626C18.9927 11.5178 18.6809 11.3512 18.3414 11.2836C18.0019 11.2161 17.6501 11.2508 17.3303 11.3832C17.0105 11.5157 16.7372 11.74 16.5449 12.0278C16.3526 12.3155 16.25 12.6539 16.25 13C16.2516 13.4636 16.4366 13.9078 16.7644 14.2356C17.0922 14.5635 17.5364 14.7484 18 14.75ZM18 21.25C17.6539 21.25 17.3155 21.3526 17.0278 21.5449C16.74 21.7372 16.5157 22.0105 16.3832 22.3303C16.2508 22.6501 16.2161 23.0019 16.2836 23.3414C16.3512 23.6809 16.5178 23.9927 16.7626 24.2374C17.0073 24.4822 17.3191 24.6489 17.6586 24.7164C17.9981 24.7839 18.3499 24.7492 18.6697 24.6168C18.9895 24.4843 19.2628 24.26 19.4551 23.9723C19.6474 23.6845 19.75 23.3461 19.75 23C19.7484 22.5364 19.5635 22.0922 19.2356 21.7644C18.9078 21.4366 18.4636 21.2516 18 21.25Z" fill="#00D059"/>
<defs>
<linearGradient id="paint0_linear_16354_25189" x1="18" y1="36" x2="18" y2="0" gradientUnits="userSpaceOnUse">
<stop offset="0.72" stop-color="#0F0F0F"/>
<stop offset="1" stop-color="#1A1A1A"/>
</linearGradient>
<linearGradient id="paint1_linear_16354_25189" x1="0.140625" y1="2.68221e-07" x2="36.1406" y2="36" gradientUnits="userSpaceOnUse">
<stop stop-color="#13FF7A"/>
<stop offset="0.5" stop-color="#002B12"/>
<stop offset="1" stop-color="#13FF7A"/>
</linearGradient>
</defs>
</svg>
