<svg width="16" height="16" viewBox="0 0 16 16" fill="none" xmlns="http://www.w3.org/2000/svg">
<path d="M13 2.5H3C2.73478 2.5 2.48043 2.60536 2.29289 2.79289C2.10536 2.98043 2 3.23478 2 3.5V7.16875C2 12.7563 6.7375 14.6125 7.6875 14.925C7.88904 15.0002 8.11096 15.0002 8.3125 14.925C9.2625 14.6125 14 12.7563 14 7.16875V3.5C14 3.23478 13.8946 2.98043 13.7071 2.79289C13.5196 2.60536 13.2652 2.5 13 2.5ZM10.5312 8.2L8.80625 8.7625L9.875 10.2312C9.91358 10.284 9.94129 10.344 9.95653 10.4075C9.97177 10.4711 9.97422 10.5371 9.96376 10.6016C9.95329 10.6662 9.93011 10.728 9.89556 10.7835C9.86102 10.839 9.81579 10.8871 9.7625 10.925C9.67854 10.9903 9.5751 11.0255 9.46875 11.025C9.38972 11.0243 9.31192 11.0053 9.24145 10.9695C9.17097 10.9337 9.10973 10.8821 9.0625 10.8188L8 9.35L6.9375 10.8188C6.89027 10.8821 6.82903 10.9337 6.75855 10.9695C6.68808 11.0053 6.61028 11.0243 6.53125 11.025C6.4249 11.0255 6.32146 10.9903 6.2375 10.925C6.18421 10.8871 6.13898 10.839 6.10444 10.7835C6.06989 10.728 6.04671 10.6662 6.03624 10.6016C6.02577 10.5371 6.02823 10.4711 6.04347 10.4075C6.05871 10.344 6.08642 10.284 6.125 10.2312L7.19375 8.7625L5.46875 8.2C5.34307 8.15979 5.23837 8.07153 5.17749 7.95445C5.11661 7.83738 5.10449 7.70098 5.14375 7.575C5.1853 7.44885 5.27477 7.34409 5.39285 7.28329C5.51094 7.22249 5.64818 7.21054 5.775 7.25L7.5 7.8125V6C7.5 5.86739 7.55268 5.74021 7.64645 5.64645C7.74021 5.55268 7.86739 5.5 8 5.5C8.13261 5.5 8.25979 5.55268 8.35355 5.64645C8.44732 5.74021 8.5 5.86739 8.5 6V7.8125L10.225 7.25C10.3518 7.21054 10.4891 7.22249 10.6071 7.28329C10.7252 7.34409 10.8147 7.44885 10.8562 7.575C10.8955 7.70098 10.8834 7.83738 10.8225 7.95445C10.7616 8.07153 10.6569 8.15979 10.5312 8.2Z" fill="#8F8F8F"/>
</svg>
