<svg width="16" height="16" viewBox="0 0 16 16" fill="none" xmlns="http://www.w3.org/2000/svg">
<g clip-path="url(#clip0_18785_21161)">
<path d="M9.31706 6.1C7.86906 5.56267 7.07973 5.14933 7.07973 4.494C7.07973 3.94 7.53506 3.624 8.34706 3.624C9.83173 3.624 11.3571 4.196 12.4071 4.71133L13.0004 1.04867C12.1677 0.65 10.4644 0 8.10973 0C6.4444 0 5.05906 0.436 4.06906 1.248C3.03973 2.098 2.5044 3.328 2.5044 4.812C2.5044 7.50467 4.14906 8.652 6.82173 9.62467C8.54506 10.238 9.1184 10.674 9.1184 11.3467C9.1184 12 8.5584 12.3767 7.54906 12.3767C6.29906 12.3767 4.23906 11.7627 2.88906 10.9707L2.28906 14.674C3.44973 15.3267 5.58973 16 7.80906 16C9.56973 16 11.0377 15.584 12.0277 14.7913C13.1371 13.9213 13.7111 12.634 13.7111 10.97C13.7111 8.218 12.0284 7.06933 9.31506 6.1H9.31706Z" fill="white"/>
<path d="M38.2843 8.23028C38.2843 5.50811 36.9657 3.36015 34.4456 3.36015C31.9148 3.36015 30.3836 5.50819 30.3836 8.20905C30.3836 11.4096 32.1913 13.0259 34.7858 13.0259C36.0512 13.0259 37.0082 12.7388 37.7313 12.3348V10.2081C37.0083 10.5696 36.1789 10.793 35.1261 10.793C34.0947 10.793 33.1802 10.4314 33.0633 9.17667H38.263C38.263 9.03835 38.2843 8.48546 38.2843 8.23028ZM33.0313 7.22011C33.0313 6.01854 33.7651 5.51873 34.435 5.51873C35.0836 5.51873 35.7748 6.01854 35.7748 7.22011H33.0313ZM26.2792 3.36015C25.237 3.36015 24.5671 3.84927 24.195 4.18961L24.0567 3.53032H21.7174V15.9288L24.3757 15.3653L24.3864 12.356C24.7692 12.6325 25.3327 13.0259 26.2685 13.0259C28.1719 13.0259 29.9051 11.4947 29.9051 8.12396C29.8945 5.04022 28.14 3.36015 26.2791 3.36015M25.6411 10.6866C25.0137 10.6866 24.6414 10.4633 24.3863 10.1868L24.3756 6.24179C24.6521 5.93346 25.0349 5.72082 25.6411 5.72082C26.6087 5.72082 27.2786 6.80538 27.2786 8.19835C27.2786 9.62325 26.6193 10.6866 25.6411 10.6866ZM18.0595 2.73278L20.7285 2.15858V0L18.0595 0.563589V2.73278ZM18.0595 3.54093H20.7285V12.8452H18.0595V3.54093ZM15.1991 4.32778L15.029 3.54093H12.7321V12.8452H15.3905V6.53959C16.0178 5.72082 17.0812 5.86968 17.4109 5.98662V3.54093C17.0706 3.41331 15.8265 3.17936 15.1991 4.32778ZM9.88234 1.2335L7.28779 1.78639L7.27718 10.3038C7.27718 11.8776 8.45751 13.0366 10.0313 13.0366C10.9032 13.0366 11.5412 12.8771 11.8921 12.6857V10.5271C11.5519 10.6653 9.87172 11.1545 9.87172 9.58071V5.80583H11.8921V3.54093H9.87172L9.88234 1.2335ZM2.69415 6.24179C2.69415 5.82714 3.03441 5.66759 3.59807 5.66759C4.40615 5.66759 5.42693 5.91222 6.23508 6.34819V3.84927C5.35254 3.49839 4.48062 3.36015 3.59807 3.36015C1.43942 3.36015 0.00390625 4.48733 0.00390625 6.3695C0.00390625 9.30422 4.04458 8.83641 4.04458 10.1018C4.04458 10.5909 3.61931 10.7504 3.02379 10.7504C2.14125 10.7504 1.01407 10.3889 0.120841 9.89974V12.4305C1.10978 12.8558 2.10933 13.0366 3.02379 13.0366C5.23553 13.0366 6.75613 11.9414 6.75613 10.038C6.74551 6.86923 2.69415 7.43275 2.69415 6.24179Z" fill="#635BFF"/>
</g>
<defs>
<clipPath id="clip0_18785_21161">
<rect width="16" height="16" fill="white"/>
</clipPath>
</defs>
</svg>
