<svg width="16" height="16" viewBox="0 0 16 16" fill="none" xmlns="http://www.w3.org/2000/svg">
<g clip-path="url(#clip0_18363_22940)">
<path d="M13.0362 7.44428C13.0362 6.38713 12.1761 5.52706 11.1189 5.52706C11.1113 5.52706 11.1037 5.52737 11.0961 5.52747L10.4822 3.23631C10.4227 3.01416 10.2797 2.82812 10.0794 2.71256C9.87922 2.59697 9.64659 2.56609 9.42444 2.62562C8.96444 2.74887 8.6905 3.22337 8.81375 3.68337L8.84972 3.81759L7.92103 4.4105C7.84028 2.32669 6.12012 0.65625 4.01684 0.65625C1.86225 0.65625 0.109375 2.40912 0.109375 4.56372C0.109375 5.98831 0.875844 7.23709 2.01794 7.91991C2.02003 7.99869 2.03122 8.07709 2.05191 8.15431L2.07241 8.23088L2.06281 8.23344C1.22044 8.45919 0.718719 9.32816 0.944438 10.1705C1.13359 10.8764 1.77425 11.343 2.47253 11.343C2.60763 11.343 2.74497 11.3255 2.8815 11.2889L2.89112 11.2863L2.91166 11.3629C3.03275 11.8149 3.443 12.1138 3.89016 12.1137C3.97325 12.1137 4.05762 12.1031 4.14169 12.0815L5.84916 15.0389C5.93047 15.1798 6.06197 15.2805 6.21947 15.3228C6.27219 15.3369 6.32562 15.3438 6.37872 15.3438C6.48428 15.3438 6.58838 15.3162 6.68206 15.2621L7.35784 14.872C7.49866 14.7907 7.59941 14.6592 7.64162 14.5017C7.68381 14.3442 7.66228 14.1799 7.581 14.0391L6.14159 11.546L6.27494 11.5103L10.9671 11.7197L11.0031 11.8539C11.0626 12.0761 11.2056 12.2621 11.4058 12.3777C11.5394 12.4548 11.6874 12.4943 11.8372 12.4943C11.9118 12.4943 11.9869 12.4845 12.0608 12.4647C12.5208 12.3414 12.7948 11.8669 12.6715 11.4069L12.0578 9.11637C12.659 8.78 13.0362 8.14725 13.0362 7.44428ZM0.578156 4.56372C0.578156 2.66762 2.12075 1.125 4.01687 1.125C5.913 1.125 7.45559 2.66759 7.45559 4.56372C7.45559 6.45984 5.913 8.00244 4.01687 8.00244C2.12075 8.00244 0.578156 6.45981 0.578156 4.56372ZM2.76025 10.8361C2.16741 10.995 1.55612 10.6419 1.39725 10.0492C1.23844 9.45647 1.59147 8.84503 2.18422 8.68619L2.19381 8.68363L2.76991 10.8335L2.76025 10.8361ZM3.36447 11.2416L2.54491 8.18306C2.99947 8.36859 3.49637 8.47116 4.01687 8.47116C4.43131 8.47116 4.83078 8.40606 5.20587 8.28597L5.96222 11.1087L4.03078 11.6263C3.74106 11.7039 3.44213 11.5313 3.36447 11.2416ZM7.17509 14.2735C7.19378 14.3058 7.19869 14.3438 7.18888 14.3803C7.17909 14.4169 7.15584 14.4473 7.1235 14.466L6.44772 14.8562C6.41534 14.8749 6.37728 14.8797 6.34084 14.8699C6.30428 14.8602 6.27384 14.8369 6.25519 14.8046L4.61069 11.9562L5.67287 11.6716L7.17509 14.2735ZM6.43122 11.048L5.64541 8.11519C6.86947 7.55166 7.75441 6.37356 7.90234 4.97863L8.97703 4.2925L10.8399 11.2447L6.43122 11.048ZM11.9395 12.0118C11.8383 12.0389 11.732 12.0247 11.6402 11.9717C11.5484 11.9187 11.483 11.8338 11.4559 11.7326L9.26656 3.56203C9.21022 3.35172 9.3355 3.13475 9.54584 3.07838C9.57938 3.06938 9.61347 3.06494 9.64741 3.06494C9.71588 3.06494 9.78375 3.08306 9.84513 3.11847C9.93691 3.17144 10.0023 3.25638 10.0295 3.35759L12.2188 11.5282C12.2751 11.7385 12.1498 11.9554 11.9395 12.0118ZM11.9313 8.64419L11.2227 5.99994C11.9731 6.05337 12.5674 6.68053 12.5674 7.44428C12.5674 7.93403 12.3251 8.37863 11.9313 8.64419ZM14.0356 6.42013L15.5956 6.00212C15.7207 5.96869 15.8492 6.04284 15.8827 6.16784C15.9162 6.29288 15.842 6.42141 15.717 6.45491L14.1569 6.87291C14.1366 6.87834 14.1162 6.88094 14.0961 6.88094C13.9926 6.88094 13.8979 6.81187 13.8699 6.70716C13.8363 6.58212 13.9105 6.45363 14.0356 6.42013ZM11.8891 4.46653L12.2778 3.01575C12.3113 2.89075 12.4398 2.8165 12.5649 2.85003C12.6899 2.88353 12.7641 3.01206 12.7306 3.13709L12.3418 4.58788C12.3138 4.69259 12.2191 4.76166 12.1156 4.76166C12.0955 4.76166 12.0751 4.75906 12.0548 4.75362C11.9298 4.72009 11.8556 4.59156 11.8891 4.46653ZM15.8827 8.59663C15.8546 8.70134 15.7599 8.77041 15.6564 8.77041C15.6363 8.77041 15.6159 8.76781 15.5956 8.76237L14.0648 8.35219C13.9397 8.31869 13.8655 8.19016 13.899 8.06513C13.9325 7.94009 14.061 7.86581 14.1861 7.89937L15.717 8.30956C15.842 8.34309 15.9162 8.47159 15.8827 8.59663ZM14.6683 10.3686C14.7598 10.4601 14.7598 10.6085 14.6683 10.7C14.6225 10.7457 14.5625 10.7687 14.5025 10.7687C14.4425 10.7687 14.3826 10.7458 14.3368 10.7L13.2748 9.63797C13.1832 9.54644 13.1832 9.39803 13.2748 9.30653C13.3663 9.21503 13.5147 9.21497 13.6062 9.30653L14.6683 10.3686ZM13.2161 5.51659C13.1246 5.42506 13.1246 5.27666 13.2161 5.18516L14.3368 4.06447C14.4283 3.97294 14.5767 3.97291 14.6683 4.06447C14.7598 4.156 14.7598 4.30437 14.6683 4.39591L13.5476 5.51659C13.5018 5.56234 13.4418 5.58525 13.3818 5.58525C13.3219 5.58525 13.2619 5.56238 13.2161 5.51659ZM6.91466 4.56372C6.91466 2.96587 5.61472 1.66594 4.01687 1.66594C2.41903 1.66594 1.11913 2.96587 1.11913 4.56372C1.11913 6.16156 2.41906 7.4615 4.01691 7.4615C5.61475 7.4615 6.91466 6.16153 6.91466 4.56372ZM1.58788 4.56372C1.58788 3.22434 2.67753 2.13469 4.01691 2.13469C5.35628 2.13469 6.44594 3.22434 6.44594 4.56372C6.44594 5.90309 5.35628 6.99275 4.01691 6.99275C2.67753 6.99275 1.58788 5.90306 1.58788 4.56372ZM4.01687 6.52628C3.88741 6.52628 3.7825 6.42134 3.7825 6.29191V6.05737C3.41075 5.9545 3.13703 5.61322 3.13703 5.20919C3.13703 5.07975 3.24194 4.97481 3.37141 4.97481C3.50087 4.97481 3.60578 5.07975 3.60578 5.20919C3.60578 5.43587 3.79019 5.62028 4.01684 5.62028H4.07703C4.30372 5.62028 4.48812 5.43584 4.48812 5.20916C4.48812 4.90575 4.23425 4.79806 4.01684 4.79806C3.47216 4.79806 3.07684 4.42803 3.07684 3.91819C3.07684 3.49266 3.3805 3.13672 3.7825 3.05566V2.83547C3.7825 2.70603 3.88741 2.60109 4.01687 2.60109C4.14634 2.60109 4.25125 2.70603 4.25125 2.83547V3.07003C4.623 3.17291 4.89669 3.51416 4.89669 3.91819C4.89669 4.04762 4.79178 4.15256 4.66231 4.15256C4.53284 4.15256 4.42794 4.04762 4.42794 3.91819C4.42794 3.69153 4.24353 3.50709 4.01684 3.50709H3.95669C3.73 3.50709 3.54559 3.6915 3.54559 3.91819C3.54559 4.22162 3.79947 4.32931 4.01684 4.32931C4.56153 4.32931 4.95687 4.69934 4.95687 5.20916C4.95687 5.63469 4.65322 5.99063 4.25125 6.07172V6.29187C4.25125 6.42134 4.14634 6.52628 4.01687 6.52628Z" fill="white"/>
</g>
<defs>
<clipPath id="clip0_18363_22940">
<rect width="16" height="16" fill="white"/>
</clipPath>
</defs>
</svg>
