<svg width="30" height="30" viewBox="0 0 30 30" fill="none" xmlns="http://www.w3.org/2000/svg">
<g filter="url(#filter0_i_15289_36884)">
<rect width="30" height="30" rx="6" fill="url(#paint0_linear_15289_36884)"/>
<rect x="0.5" y="0.5" width="29" height="29" rx="5.5" stroke="url(#paint1_linear_15289_36884)"/>
<path d="M21.0705 19.2772L20.2885 12.2772C20.2655 12.063 20.1638 11.865 20.0032 11.7216C19.8425 11.5781 19.6343 11.4994 19.419 11.5006H17.5869C17.4817 10.8909 17.1644 10.3379 16.6911 9.93939C16.2178 9.54083 15.619 9.32227 15.0002 9.32227C14.3815 9.32227 13.7826 9.54083 13.3093 9.93939C12.8361 10.3379 12.5188 10.8909 12.4135 11.5006H10.5815C10.3661 11.4994 10.1579 11.5781 9.99728 11.7216C9.83664 11.865 9.73496 12.063 9.71194 12.2772L8.92991 19.2772C8.91666 19.4001 8.92928 19.5244 8.96695 19.6421C9.00463 19.7598 9.06652 19.8684 9.14866 19.9608C9.23052 20.0523 9.33083 20.1254 9.443 20.1754C9.55517 20.2253 9.67665 20.251 9.79944 20.2506H20.201C20.3238 20.251 20.4453 20.2253 20.5574 20.1754C20.6696 20.1254 20.7699 20.0523 20.8518 19.9608C20.9339 19.8684 20.9958 19.7598 21.0335 19.6421C21.0712 19.5244 21.0838 19.4001 21.0705 19.2772ZM13.2502 13.6881C13.2502 13.8041 13.2041 13.9154 13.1221 13.9975C13.04 14.0795 12.9288 14.1256 12.8127 14.1256C12.6967 14.1256 12.5854 14.0795 12.5034 13.9975C12.4213 13.9154 12.3752 13.8041 12.3752 13.6881V12.8131C12.3752 12.6971 12.4213 12.5858 12.5034 12.5037C12.5854 12.4217 12.6967 12.3756 12.8127 12.3756C12.9288 12.3756 13.04 12.4217 13.1221 12.5037C13.2041 12.5858 13.2502 12.6971 13.2502 12.8131V13.6881ZM13.3049 11.5006C13.4013 11.1242 13.6202 10.7905 13.9272 10.5523C14.2341 10.314 14.6116 10.1847 15.0002 10.1847C15.3888 10.1847 15.7663 10.314 16.0733 10.5523C16.3802 10.7905 16.5991 11.1242 16.6955 11.5006H13.3049ZM17.6252 13.6881C17.6252 13.8041 17.5791 13.9154 17.4971 13.9975C17.415 14.0795 17.3038 14.1256 17.1877 14.1256C17.0717 14.1256 16.9604 14.0795 16.8784 13.9975C16.7963 13.9154 16.7502 13.8041 16.7502 13.6881V12.8131C16.7502 12.6971 16.7963 12.5858 16.8784 12.5037C16.9604 12.4217 17.0717 12.3756 17.1877 12.3756C17.3038 12.3756 17.415 12.4217 17.4971 12.5037C17.5791 12.5858 17.6252 12.6971 17.6252 12.8131V13.6881Z" fill="white"/>
</g>
<defs>
<filter id="filter0_i_15289_36884" x="0" y="0" width="30" height="33" filterUnits="userSpaceOnUse" color-interpolation-filters="sRGB">
<feFlood flood-opacity="0" result="BackgroundImageFix"/>
<feBlend mode="normal" in="SourceGraphic" in2="BackgroundImageFix" result="shape"/>
<feColorMatrix in="SourceAlpha" type="matrix" values="0 0 0 0 0 0 0 0 0 0 0 0 0 0 0 0 0 0 127 0" result="hardAlpha"/>
<feOffset dy="3"/>
<feGaussianBlur stdDeviation="2.5"/>
<feComposite in2="hardAlpha" operator="arithmetic" k2="-1" k3="1"/>
<feColorMatrix type="matrix" values="0 0 0 0 0.137255 0 0 0 0 0.137255 0 0 0 0 0.137255 0 0 0 1 0"/>
<feBlend mode="normal" in2="shape" result="effect1_innerShadow_15289_36884"/>
</filter>
<linearGradient id="paint0_linear_15289_36884" x1="15" y1="30" x2="15" y2="0" gradientUnits="userSpaceOnUse">
<stop offset="0.72" stop-color="#0F0F0F"/>
<stop offset="1" stop-color="#1A1A1A"/>
</linearGradient>
<linearGradient id="paint1_linear_15289_36884" x1="15" y1="30" x2="15" y2="0" gradientUnits="userSpaceOnUse">
<stop stop-color="white" stop-opacity="0.06"/>
<stop offset="1" stop-color="white" stop-opacity="0.06"/>
</linearGradient>
</defs>
</svg>
