<svg width="30" height="30" viewBox="0 0 30 30" fill="none" xmlns="http://www.w3.org/2000/svg">
<g filter="url(#filter0_i_17798_21063)">
<rect width="30" height="30" rx="6" fill="url(#paint0_linear_17798_21063)"/>
<rect x="0.5" y="0.5" width="29" height="29" rx="5.5" stroke="url(#paint1_linear_17798_21063)"/>
<g clip-path="url(#clip0_17798_21063)">
<path d="M17.3333 9.3112C17.3333 8.90849 17.0069 8.58203 16.6042 8.58203C16.2015 8.58203 15.875 8.90849 15.875 9.3112V10.1862C15.875 10.5889 16.2015 10.9154 16.6042 10.9154C17.0069 10.9154 17.3333 10.5889 17.3333 10.1862V9.3112Z" fill="#F5FFF9"/>
<path d="M17.9163 9.45703V10.1862C17.9163 10.5343 17.7781 10.8681 17.5319 11.1143C17.2858 11.3604 16.9519 11.4987 16.6038 11.4987C16.2557 11.4987 15.9219 11.3604 15.6758 11.1143C15.4296 10.8681 15.2913 10.5343 15.2913 10.1862V9.45703H12.6663V10.1862C12.6663 10.5343 12.5281 10.8681 12.2819 11.1143C12.0358 11.3604 11.7019 11.4987 11.3538 11.4987C11.0057 11.4987 10.6719 11.3604 10.4258 11.1143C10.1796 10.8681 10.0413 10.5343 10.0413 10.1862V9.45703C9.65457 9.45703 9.28363 9.61068 9.01014 9.88417C8.73665 10.1577 8.58301 10.5286 8.58301 10.9154V12.3737H19.3747V10.9154C19.3747 10.5286 19.221 10.1577 18.9475 9.88417C18.674 9.61068 18.3031 9.45703 17.9163 9.45703Z" fill="#F5FFF9"/>
<path d="M12.0833 9.3112C12.0833 8.90849 11.7569 8.58203 11.3542 8.58203C10.9515 8.58203 10.625 8.90849 10.625 9.3112V10.1862C10.625 10.5889 10.9515 10.9154 11.3542 10.9154C11.7569 10.9154 12.0833 10.5889 12.0833 10.1862V9.3112Z" fill="#F5FFF9"/>
<path d="M14.9997 18.4987C14.9995 17.9209 15.1425 17.3521 15.4159 16.8431C15.6893 16.3341 16.0846 15.9008 16.5665 15.582H16.1663C16.0116 15.582 15.8633 15.5206 15.7539 15.4112C15.6445 15.3018 15.583 15.1534 15.583 14.9987V14.4154C15.583 14.2607 15.6445 14.1123 15.7539 14.0029C15.8633 13.8935 16.0116 13.832 16.1663 13.832H16.7497C16.9044 13.832 17.0528 13.8935 17.1622 14.0029C17.2716 14.1123 17.333 14.2607 17.333 14.4154V14.9987C17.3329 15.0739 17.3182 15.1484 17.2895 15.218C17.9568 14.9671 18.6857 14.9305 19.3747 15.1133V12.957H8.58301V18.4987C8.58301 18.6902 8.62073 18.8798 8.69402 19.0568C8.7673 19.2337 8.87473 19.3945 9.01014 19.5299C9.14556 19.6653 9.30633 19.7727 9.48326 19.846C9.66019 19.9193 9.84983 19.957 10.0413 19.957H15.3205C15.1093 19.4999 14.9998 19.0023 14.9997 18.4987ZM12.083 17.9154C12.083 18.0701 12.0215 18.2184 11.9122 18.3278C11.8028 18.4372 11.6544 18.4987 11.4997 18.4987H10.9163C10.7616 18.4987 10.6133 18.4372 10.5039 18.3278C10.3945 18.2184 10.333 18.0701 10.333 17.9154V17.332C10.333 17.1773 10.3945 17.0289 10.5039 16.9196C10.6133 16.8102 10.7616 16.7487 10.9163 16.7487H11.4997C11.6544 16.7487 11.8028 16.8102 11.9122 16.9196C12.0215 17.0289 12.083 17.1773 12.083 17.332V17.9154ZM12.083 14.9987C12.083 15.1534 12.0215 15.3018 11.9122 15.4112C11.8028 15.5206 11.6544 15.582 11.4997 15.582H10.9163C10.7616 15.582 10.6133 15.5206 10.5039 15.4112C10.3945 15.3018 10.333 15.1534 10.333 14.9987V14.4154C10.333 14.2607 10.3945 14.1123 10.5039 14.0029C10.6133 13.8935 10.7616 13.832 10.9163 13.832H11.4997C11.6544 13.832 11.8028 13.8935 11.9122 14.0029C12.0215 14.1123 12.083 14.2607 12.083 14.4154V14.9987ZM14.708 17.9154C14.708 18.0701 14.6466 18.2184 14.5372 18.3278C14.4278 18.4372 14.2794 18.4987 14.1247 18.4987H13.5413C13.3866 18.4987 13.2383 18.4372 13.1289 18.3278C13.0195 18.2184 12.958 18.0701 12.958 17.9154V17.332C12.958 17.1773 13.0195 17.0289 13.1289 16.9196C13.2383 16.8102 13.3866 16.7487 13.5413 16.7487H14.1247C14.2794 16.7487 14.4278 16.8102 14.5372 16.9196C14.6466 17.0289 14.708 17.1773 14.708 17.332V17.9154ZM14.708 14.9987C14.708 15.1534 14.6466 15.3018 14.5372 15.4112C14.4278 15.5206 14.2794 15.582 14.1247 15.582H13.5413C13.3866 15.582 13.2383 15.5206 13.1289 15.4112C13.0195 15.3018 12.958 15.1534 12.958 14.9987V14.4154C12.958 14.2607 13.0195 14.1123 13.1289 14.0029C13.2383 13.8935 13.3866 13.832 13.5413 13.832H14.1247C14.2794 13.832 14.4278 13.8935 14.5372 14.0029C14.6466 14.1123 14.708 14.2607 14.708 14.4154V14.9987Z" fill="#F5FFF9"/>
<path d="M18.4997 15.582C17.9228 15.582 17.3589 15.7531 16.8793 16.0736C16.3996 16.3941 16.0258 16.8496 15.805 17.3825C15.5843 17.9155 15.5265 18.5019 15.6391 19.0677C15.7516 19.6335 16.0294 20.1532 16.4373 20.5611C16.8452 20.969 17.3649 21.2468 17.9307 21.3593C18.4964 21.4719 19.0829 21.4141 19.6158 21.1933C20.1488 20.9726 20.6043 20.5988 20.9248 20.1191C21.2453 19.6395 21.4163 19.0756 21.4163 18.4987C21.4163 18.1157 21.3409 17.7364 21.1943 17.3825C21.0477 17.0287 20.8329 16.7071 20.5621 16.4363C20.2912 16.1655 19.9697 15.9506 19.6158 15.804C19.262 15.6575 18.8827 15.582 18.4997 15.582ZM19.5809 19.5799C19.5262 19.6346 19.452 19.6653 19.3747 19.6653C19.2973 19.6653 19.2232 19.6346 19.1685 19.5799L18.2935 18.7049C18.2388 18.6502 18.208 18.576 18.208 18.4987V16.7487C18.208 16.6713 18.2387 16.5972 18.2934 16.5425C18.3481 16.4878 18.4223 16.457 18.4997 16.457C18.577 16.457 18.6512 16.4878 18.7059 16.5425C18.7606 16.5972 18.7913 16.6713 18.7913 16.7487V18.3779L19.5809 19.1675C19.6356 19.2222 19.6663 19.2964 19.6663 19.3737C19.6663 19.451 19.6356 19.5252 19.5809 19.5799Z" fill="#F5FFF9"/>
</g>
</g>
<defs>
<filter id="filter0_i_17798_21063" x="0" y="0" width="30" height="33" filterUnits="userSpaceOnUse" color-interpolation-filters="sRGB">
<feFlood flood-opacity="0" result="BackgroundImageFix"/>
<feBlend mode="normal" in="SourceGraphic" in2="BackgroundImageFix" result="shape"/>
<feColorMatrix in="SourceAlpha" type="matrix" values="0 0 0 0 0 0 0 0 0 0 0 0 0 0 0 0 0 0 127 0" result="hardAlpha"/>
<feOffset dy="3"/>
<feGaussianBlur stdDeviation="2.5"/>
<feComposite in2="hardAlpha" operator="arithmetic" k2="-1" k3="1"/>
<feColorMatrix type="matrix" values="0 0 0 0 0.137255 0 0 0 0 0.137255 0 0 0 0 0.137255 0 0 0 1 0"/>
<feBlend mode="normal" in2="shape" result="effect1_innerShadow_17798_21063"/>
</filter>
<linearGradient id="paint0_linear_17798_21063" x1="15" y1="30" x2="15" y2="0" gradientUnits="userSpaceOnUse">
<stop offset="0.72" stop-color="#0F0F0F"/>
<stop offset="1" stop-color="#1A1A1A"/>
</linearGradient>
<linearGradient id="paint1_linear_17798_21063" x1="15" y1="30" x2="15" y2="0" gradientUnits="userSpaceOnUse">
<stop stop-color="white" stop-opacity="0.06"/>
<stop offset="1" stop-color="white" stop-opacity="0.06"/>
</linearGradient>
<clipPath id="clip0_17798_21063">
<rect width="14" height="14" fill="white" transform="translate(8 8)"/>
</clipPath>
</defs>
</svg>
