<svg width="14" height="14" viewBox="0 0 14 14" fill="none" xmlns="http://www.w3.org/2000/svg">
<path d="M7 0.5C5.71442 0.5 4.45772 0.881218 3.3888 1.59545C2.31988 2.30968 1.48676 3.32484 0.994786 4.51256C0.502816 5.70028 0.374095 7.00721 0.624899 8.26809C0.875703 9.52896 1.49477 10.6872 2.40381 11.5962C3.31285 12.5052 4.47104 13.1243 5.73192 13.3751C6.99279 13.6259 8.29973 13.4972 9.48744 13.0052C10.6752 12.5132 11.6903 11.6801 12.4046 10.6112C13.1188 9.54229 13.5 8.28558 13.5 7C13.4967 5.27711 12.8108 3.62573 11.5925 2.40746C10.3743 1.18918 8.72289 0.503304 7 0.5ZM9 8.5C9 8.63261 8.94732 8.75979 8.85356 8.85355C8.75979 8.94732 8.63261 9 8.5 9H5.5C5.36739 9 5.24022 8.94732 5.14645 8.85355C5.05268 8.75979 5 8.63261 5 8.5V5.5C5 5.36739 5.05268 5.24021 5.14645 5.14645C5.24022 5.05268 5.36739 5 5.5 5H8.5C8.63261 5 8.75979 5.05268 8.85356 5.14645C8.94732 5.24021 9 5.36739 9 5.5V8.5Z" fill="white"/>
</svg>
