<svg width="81" height="80" viewBox="0 0 81 80" fill="none" xmlns="http://www.w3.org/2000/svg">
<g filter="url(#filter0_b_2694_7932)">
<rect x="0.5" width="80" height="80" rx="40" fill="url(#paint0_linear_2694_7932)" fill-opacity="0.7"/>
<rect x="1" y="0.5" width="79" height="79" rx="39.5" stroke="url(#paint1_linear_2694_7932)"/>
<path opacity="0.2" d="M31.7 43.1998L37.3 48.7998L30.5125 51.2623C30.3344 51.3304 30.1403 51.3455 29.9539 51.3057C29.7674 51.2659 29.5964 51.173 29.4616 51.0382C29.3268 50.9034 29.2339 50.7324 29.1941 50.5459C29.1543 50.3595 29.1694 50.1654 29.2375 49.9873L31.7 43.1998ZM49.3875 42.8873L37.6125 31.1123C37.4938 30.9927 37.3468 30.9049 37.1851 30.8572C37.0235 30.8096 36.8524 30.8035 36.6877 30.8397C36.5231 30.8759 36.3703 30.9531 36.2435 31.0641C36.1167 31.1751 36.02 31.3164 35.9625 31.4748L34.1 36.5998L43.9 46.3998L49.025 44.5373C49.1834 44.4798 49.3247 44.3831 49.4357 44.2563C49.5467 44.1295 49.6239 43.9767 49.6601 43.8121C49.6963 43.6474 49.6902 43.4763 49.6426 43.3147C49.5949 43.153 49.5072 43.006 49.3875 42.8873Z" fill="#F5FFF9"/>
<path d="M38.3125 30.4C38.0776 30.161 37.7854 29.9861 37.4638 29.892C37.1421 29.7979 36.8017 29.7877 36.475 29.8625C36.1454 29.9354 35.8395 30.0905 35.586 30.3134C35.3324 30.5364 35.1394 30.8199 35.025 31.1375L28.2875 49.65C28.1825 49.9513 28.1505 50.2733 28.1944 50.5893C28.2383 50.9054 28.3567 51.2065 28.5398 51.4678C28.723 51.7291 28.9656 51.9431 29.2478 52.0921C29.5299 52.2412 29.8435 52.321 30.1625 52.325C30.3963 52.3253 30.6285 52.2873 30.85 52.2125L49.3625 45.475C49.6802 45.3606 49.9636 45.1676 50.1866 44.9141C50.4095 44.6605 50.5647 44.3547 50.6375 44.025C50.7123 43.6983 50.7021 43.3579 50.608 43.0363C50.5139 42.7146 50.3391 42.4224 50.1 42.1875L38.3125 30.4ZM37.5625 47.6375L32.8625 42.9375L34.5 38.4125L42.0875 46L37.5625 47.6375ZM30.175 50.325L32.1 45.0125L35.4875 48.4L30.175 50.325ZM44.1625 45.2375L35.2625 36.3375L36.9 31.8125L48.6875 43.6L44.1625 45.2375ZM44.5 33C44.5184 32.3237 44.6803 31.659 44.975 31.05C45.6375 29.725 46.8875 29 48.5 29C49.3375 29 49.875 28.7125 50.2125 28.1C50.3846 27.7532 50.4825 27.3743 50.5 26.9875C50.5 26.8568 50.526 26.7273 50.5764 26.6067C50.6268 26.4861 50.7006 26.3766 50.7937 26.2848C50.8867 26.1929 50.997 26.1204 51.1183 26.0716C51.2395 26.0227 51.3693 25.9983 51.5 26C51.7652 26 52.0196 26.1054 52.2071 26.2929C52.3947 26.4804 52.5 26.7348 52.5 27C52.5 28.6125 51.4375 31 48.5 31C47.6625 31 47.125 31.2875 46.7875 31.9C46.6155 32.2468 46.5175 32.6257 46.5 33.0125C46.5 33.1432 46.4741 33.2727 46.4237 33.3933C46.3733 33.5139 46.2994 33.6234 46.2064 33.7152C46.1134 33.8071 46.003 33.8796 45.8818 33.9284C45.7605 33.9773 45.6307 34.0017 45.5 34C45.2348 34 44.9804 33.8946 44.7929 33.7071C44.6054 33.5196 44.5 33.2652 44.5 33ZM41.5 29V26C41.5 25.7348 41.6054 25.4804 41.7929 25.2929C41.9804 25.1054 42.2348 25 42.5 25C42.7652 25 43.0196 25.1054 43.2071 25.2929C43.3947 25.4804 43.5 25.7348 43.5 26V29C43.5 29.2652 43.3947 29.5196 43.2071 29.7071C43.0196 29.8946 42.7652 30 42.5 30C42.2348 30 41.9804 29.8946 41.7929 29.7071C41.6054 29.5196 41.5 29.2652 41.5 29ZM54.2125 39.2875C54.4003 39.4771 54.5056 39.7332 54.5056 40C54.5056 40.2668 54.4003 40.5229 54.2125 40.7125C54.0214 40.8973 53.7659 41.0006 53.5 41.0006C53.2341 41.0006 52.9787 40.8973 52.7875 40.7125L50.7875 38.7125C50.6281 38.5182 50.5466 38.2715 50.5589 38.0205C50.5712 37.7694 50.6765 37.5319 50.8542 37.3542C51.032 37.1765 51.2695 37.0712 51.5205 37.0589C51.7716 37.0465 52.0182 37.128 52.2125 37.2875L54.2125 39.2875ZM54.8125 33.95L51.8125 34.95C51.7121 34.9847 51.6063 35.0017 51.5 35C51.2622 35.0001 51.0321 34.9154 50.8511 34.7611C50.6701 34.6068 50.55 34.3931 50.5124 34.1582C50.4747 33.9234 50.522 33.6828 50.6458 33.4797C50.7695 33.2766 50.9616 33.1243 51.1875 33.05L54.1875 32.05C54.3123 32.009 54.4439 31.9929 54.5749 32.0027C54.7058 32.0126 54.8336 32.0481 54.9508 32.1073C55.068 32.1665 55.1725 32.2482 55.2581 32.3477C55.3438 32.4473 55.409 32.5627 55.45 32.6875C55.4911 32.8123 55.5071 32.9439 55.4973 33.0748C55.4875 33.2058 55.4519 33.3335 55.3927 33.4508C55.3335 33.568 55.2518 33.6724 55.1523 33.7581C55.0527 33.8438 54.9373 33.909 54.8125 33.95Z" fill="#F5FFF9"/>
</g>
<defs>
<filter id="filter0_b_2694_7932" x="-7.5" y="-8" width="96" height="96" filterUnits="userSpaceOnUse" color-interpolation-filters="sRGB">
<feFlood flood-opacity="0" result="BackgroundImageFix"/>
<feGaussianBlur in="BackgroundImageFix" stdDeviation="4"/>
<feComposite in2="SourceAlpha" operator="in" result="effect1_backgroundBlur_2694_7932"/>
<feBlend mode="normal" in="SourceGraphic" in2="effect1_backgroundBlur_2694_7932" result="shape"/>
</filter>
<linearGradient id="paint0_linear_2694_7932" x1="80.5" y1="40" x2="0.5" y2="40" gradientUnits="userSpaceOnUse">
<stop stop-color="#00A849"/>
<stop offset="1" stop-color="#00421D"/>
</linearGradient>
<linearGradient id="paint1_linear_2694_7932" x1="8" y1="19.5" x2="4.32215" y2="71.1448" gradientUnits="userSpaceOnUse">
<stop stop-color="#055F2C"/>
<stop offset="0.195" stop-color="#0BA44E"/>
<stop offset="0.465622" stop-color="#002B12"/>
<stop offset="0.795447" stop-color="#0CAA51"/>
<stop offset="1" stop-color="#13FF7A"/>
</linearGradient>
</defs>
</svg>
