<svg width="65" height="64" viewBox="0 0 65 64" fill="none" xmlns="http://www.w3.org/2000/svg">
<g filter="url(#filter0_b_15665_27370)">
<rect x="0.5" width="64" height="64" rx="32" fill="#00D059" fill-opacity="0.2"/>
<g clip-path="url(#clip0_15665_27370)">
<path d="M42.8186 24.431L28.9996 38.249C28.9067 38.3423 28.7963 38.4163 28.6747 38.4668C28.5531 38.5173 28.4228 38.5433 28.2911 38.5433C28.1595 38.5433 28.0291 38.5173 27.9075 38.4668C27.786 38.4163 27.6755 38.3423 27.5826 38.249L22.2386 32.9C22.1457 32.8067 22.0353 32.7327 21.9137 32.6822C21.7921 32.6317 21.6618 32.6057 21.5301 32.6057C21.3985 32.6057 21.2681 32.6317 21.1465 32.6822C21.025 32.7327 20.9145 32.8067 20.8216 32.9C20.7284 32.9929 20.6543 33.1033 20.6038 33.2249C20.5533 33.3465 20.5273 33.4769 20.5273 33.6085C20.5273 33.7402 20.5533 33.8705 20.6038 33.9921C20.6543 34.1137 20.7284 34.2241 20.8216 34.317L26.1676 39.662C26.7316 40.2249 27.4958 40.5411 28.2926 40.5411C29.0894 40.5411 29.8537 40.2249 30.4176 39.662L44.2356 25.847C44.3288 25.7541 44.4026 25.6438 44.4531 25.5223C44.5035 25.4008 44.5294 25.2705 44.5294 25.139C44.5294 25.0075 44.5035 24.8772 44.4531 24.7557C44.4026 24.6343 44.3288 24.5239 44.2356 24.431C44.1427 24.3377 44.0323 24.2637 43.9107 24.2132C43.7891 24.1627 43.6588 24.1367 43.5271 24.1367C43.3955 24.1367 43.2651 24.1627 43.1435 24.2132C43.022 24.2637 42.9115 24.3377 42.8186 24.431Z" fill="#00D059"/>
</g>
</g>
<defs>
<filter id="filter0_b_15665_27370" x="-3.5" y="-4" width="72" height="72" filterUnits="userSpaceOnUse" color-interpolation-filters="sRGB">
<feFlood flood-opacity="0" result="BackgroundImageFix"/>
<feGaussianBlur in="BackgroundImageFix" stdDeviation="2"/>
<feComposite in2="SourceAlpha" operator="in" result="effect1_backgroundBlur_15665_27370"/>
<feBlend mode="normal" in="SourceGraphic" in2="effect1_backgroundBlur_15665_27370" result="shape"/>
</filter>
<clipPath id="clip0_15665_27370">
<rect width="24" height="24" fill="white" transform="translate(20.5 20)"/>
</clipPath>
</defs>
</svg>
