<svg width="24" height="24" viewBox="0 0 24 24" fill="none" xmlns="http://www.w3.org/2000/svg">
<path fill-rule="evenodd" clip-rule="evenodd" d="M19.9999 16.5717V8.57171L14.2856 2.85742H8.57136C7.96515 2.85742 7.38377 3.09824 6.95511 3.52689C6.52646 3.95555 6.28564 4.53693 6.28564 5.14314V16.5717C6.28564 17.1779 6.52646 17.7593 6.95511 18.188C7.38377 18.6166 7.96515 18.8574 8.57136 18.8574H17.7142C18.3204 18.8574 18.9018 18.6166 19.3305 18.188C19.7591 17.7593 19.9999 17.1779 19.9999 16.5717Z" stroke="white" stroke-width="0.857143" stroke-linecap="round" stroke-linejoin="round"/>
<path d="M13.1429 7.42829V11.9997H16.5714M6.28571 5.14258C5.67951 5.14258 5.09812 5.38339 4.66947 5.81205C4.24082 6.2407 4 6.82208 4 7.42829V18.8569C4 19.4631 4.24082 20.0445 4.66947 20.4731C5.09812 20.9018 5.67951 21.1426 6.28571 21.1426H15.4286C16.0348 21.1426 16.6162 20.9018 17.0448 20.4731C17.4735 20.0445 17.7143 19.4631 17.7143 18.8569" stroke="white" stroke-width="0.857143" stroke-linecap="round" stroke-linejoin="round"/>
</svg>
