<svg width="24" height="24" viewBox="0 0 24 24" fill="none" xmlns="http://www.w3.org/2000/svg">
<path d="M19.0283 6.18112C19.0968 6.10933 19.135 6.01392 19.135 5.91471C19.135 5.81549 19.0968 5.72008 19.0283 5.64829L17.9834 4.60333C17.6888 4.30953 17.2898 4.14453 16.8737 4.14453C16.4577 4.14453 16.0586 4.30953 15.7641 4.60333L9.33133 11.0361C9.52858 11.2267 9.95158 11.6611 10.141 11.8457C10.2079 11.9146 10.2451 12.0071 10.2444 12.1032C10.2437 12.1993 10.2052 12.2913 10.1372 12.3593C10.0692 12.4272 9.97728 12.4657 9.88117 12.4664C9.78507 12.4671 9.69255 12.4299 9.62362 12.363C9.43437 12.1809 9.00555 11.7397 8.81401 11.5534L7.25176 13.1157C6.95796 13.4102 6.79297 13.8093 6.79297 14.2253C6.79297 14.6413 6.95796 15.0404 7.25176 15.3349L8.29672 16.3799C8.37102 16.4474 8.46818 16.4841 8.56854 16.4827C8.66891 16.4812 8.76498 16.4417 8.8373 16.3721C8.92765 16.2702 9.03753 16.1875 9.16043 16.1288C9.28333 16.0701 9.41676 16.0367 9.5528 16.0305C9.68885 16.0244 9.82475 16.0456 9.95246 16.0929C10.0802 16.1402 10.1971 16.2126 10.2963 16.306C10.3955 16.3993 10.4749 16.5115 10.53 16.6361C10.585 16.7607 10.6144 16.895 10.6166 17.0312C10.6187 17.1674 10.5936 17.3026 10.5425 17.4289C10.4915 17.5551 10.4156 17.6698 10.3194 17.7663C10.2742 17.7977 10.2364 17.8385 10.2084 17.886C10.1805 17.9334 10.1631 17.9863 10.1575 18.041C10.1518 18.0958 10.158 18.1511 10.1757 18.2032C10.1934 18.2553 10.2221 18.303 10.2599 18.343L11.3101 19.3932C11.6046 19.687 12.0036 19.852 12.4197 19.852C12.8357 19.852 13.2347 19.687 13.5293 19.3932L15.0916 17.8309C14.8995 17.6402 14.4697 17.2081 14.2846 17.0239C14.2179 16.9549 14.181 16.8625 14.1818 16.7666C14.1826 16.6706 14.2211 16.5789 14.289 16.511C14.3568 16.4432 14.4486 16.4047 14.5445 16.4039C14.6405 16.4031 14.7329 16.44 14.8019 16.5066C14.9837 16.6936 15.423 17.124 15.6089 17.3136L22.0416 10.8809C22.3354 10.5863 22.5004 10.1873 22.5004 9.77125C22.5004 9.35521 22.3354 8.95616 22.0416 8.66161L20.9915 7.61147C20.9227 7.54313 20.8298 7.50478 20.7328 7.50478C20.6359 7.50478 20.5429 7.54313 20.4742 7.61147C20.3828 7.71664 20.2707 7.80195 20.1451 7.86211C20.0194 7.92228 19.8827 7.95603 19.7434 7.96127C19.6042 7.96651 19.4653 7.94314 19.3355 7.89259C19.2056 7.84205 19.0875 7.76541 18.9884 7.6674C18.8893 7.5694 18.8114 7.45212 18.7595 7.32282C18.7075 7.19351 18.6827 7.05492 18.6864 6.91562C18.6901 6.77632 18.7224 6.63927 18.7812 6.51293C18.84 6.3866 18.9241 6.27367 19.0283 6.18112ZM18.4619 11.4137C18.5167 11.4536 18.5594 11.5079 18.5853 11.5705C18.6112 11.6332 18.6192 11.7018 18.6085 11.7688C18.5978 11.8357 18.5688 11.8984 18.5246 11.9499C18.4805 12.0013 18.4229 12.0396 18.3584 12.0603L16.8246 12.5388L16.3434 14.0753C16.3236 14.1403 16.286 14.1985 16.2348 14.2433C16.1836 14.2881 16.1209 14.3177 16.0537 14.3287C15.9862 14.3388 15.9172 14.3302 15.8543 14.3037C15.7913 14.2773 15.7368 14.234 15.6968 14.1787L14.7683 12.8622L13.1594 12.8829C13.0916 12.8834 13.025 12.8651 12.967 12.8299C12.909 12.7947 12.8619 12.7441 12.831 12.6837C12.8002 12.6233 12.7867 12.5555 12.7922 12.4879C12.7976 12.4203 12.8218 12.3556 12.862 12.3009L13.8216 11.0102L13.3069 9.48674C13.2857 9.42228 13.2828 9.3532 13.2985 9.28719C13.3143 9.22118 13.348 9.16083 13.396 9.11285C13.444 9.06487 13.5043 9.03114 13.5703 9.01541C13.6363 8.99968 13.7054 9.00257 13.7699 9.02376L15.2933 9.53847L16.584 8.57887C16.6384 8.53788 16.7032 8.51293 16.7711 8.50686C16.839 8.50079 16.9072 8.51384 16.968 8.54452C17.0288 8.57521 17.0799 8.6223 17.1153 8.68049C17.1508 8.73867 17.1692 8.80561 17.1686 8.87374L17.1479 10.4826L18.4619 11.4137ZM10.8108 13.0329C10.8447 12.9988 10.885 12.9717 10.9294 12.9532C10.9738 12.9347 11.0214 12.9252 11.0695 12.9252C11.1176 12.9252 11.1652 12.9347 11.2096 12.9532C11.254 12.9717 11.2943 12.9988 11.3282 13.0329L11.8765 13.5812C11.9448 13.6499 11.9831 13.7428 11.983 13.8397C11.9828 13.9365 11.9443 14.0294 11.8758 14.0979C11.8074 14.1664 11.7145 14.2049 11.6177 14.205C11.5208 14.2051 11.4279 14.1668 11.3592 14.0985L10.8108 13.5502C10.7765 13.5165 10.7491 13.4762 10.7305 13.4318C10.7118 13.3874 10.7022 13.3397 10.7022 13.2915C10.7022 13.2434 10.7118 13.1957 10.7305 13.1513C10.7491 13.1069 10.7765 13.0666 10.8108 13.0329ZM13.6147 15.8367C13.5808 15.8708 13.5405 15.8979 13.4961 15.9164C13.4517 15.9348 13.4041 15.9444 13.356 15.9444C13.3079 15.9444 13.2603 15.9348 13.2159 15.9164C13.1715 15.8979 13.1312 15.8708 13.0973 15.8367L12.5464 15.2858C12.4781 15.2171 12.4398 15.1242 12.44 15.0273C12.4401 14.9305 12.4786 14.8376 12.5471 14.7691C12.6156 14.7006 12.7084 14.6621 12.8053 14.662C12.9021 14.6619 12.9951 14.7001 13.0637 14.7685L13.6147 15.3194C13.683 15.3881 13.7214 15.4811 13.7214 15.578C13.7214 15.675 13.683 15.768 13.6147 15.8367Z" fill="#00D059"/>
<path d="M15.2395 10.2974L14.2359 9.95598L14.5747 10.9621C14.5947 11.0181 14.6005 11.0781 14.5914 11.1368C14.5824 11.1955 14.5589 11.2511 14.523 11.2984L13.8867 12.1468L14.9498 12.1338C15.0086 12.1338 15.0667 12.1476 15.1192 12.1741C15.1718 12.2006 15.2174 12.2391 15.2524 12.2864L15.8654 13.153L16.1784 12.1416C16.1965 12.0853 16.2278 12.0341 16.2696 11.9923C16.3115 11.9505 16.3626 11.9192 16.4189 11.901L17.4329 11.5855L16.5664 10.9725C16.5178 10.9387 16.4784 10.8933 16.4517 10.8405C16.4251 10.7877 16.412 10.729 16.4138 10.6699L16.4241 9.60938L15.5757 10.2457C15.5279 10.2806 15.4724 10.3035 15.4139 10.3125C15.3554 10.3215 15.2956 10.3163 15.2395 10.2974Z" fill="#00D059"/>
<path d="M9.74712 16.8036C9.68058 16.7755 9.60695 16.7689 9.53647 16.7847C9.466 16.8005 9.4022 16.8378 9.35396 16.8916C9.14377 17.0971 8.86189 17.2128 8.56793 17.2142C8.27396 17.2157 7.99096 17.1028 7.77876 16.8993L6.7338 15.8544C6.30333 15.4223 6.06162 14.8373 6.06162 14.2274C6.06162 13.6175 6.30333 13.0325 6.7338 12.6005C8.41695 10.9173 12.5916 6.74265 14.315 5.01932L13.9218 4.62616C13.6573 4.40964 13.329 4.28603 12.9874 4.27435C12.6457 4.26267 12.3097 4.36356 12.0311 4.56151L2.16855 11.4598C1.82798 11.6988 1.59613 12.0632 1.52388 12.4729C1.45162 12.8827 1.54487 13.3044 1.78315 13.6455L2.63154 14.856C2.66049 14.8971 2.69744 14.9321 2.7402 14.9586C2.78295 14.9852 2.83062 15.0029 2.88036 15.0106C2.9301 15.0183 2.98089 15.0159 3.02969 15.0036C3.07849 14.9912 3.12429 14.9692 3.16437 14.9387C3.2714 14.8566 3.39366 14.7966 3.52406 14.7621C3.65445 14.7275 3.7904 14.7192 3.92404 14.7376C4.05767 14.756 4.18633 14.8007 4.30257 14.8691C4.41881 14.9376 4.52032 15.0284 4.60122 15.1363C4.68213 15.2442 4.74082 15.3671 4.7739 15.4979C4.80698 15.6287 4.81379 15.7647 4.79394 15.8981C4.77409 16.0316 4.72797 16.1597 4.65825 16.2752C4.58854 16.3907 4.49661 16.4912 4.38779 16.5709C4.33683 16.593 4.29135 16.626 4.25453 16.6676C4.21771 16.7092 4.19045 16.7583 4.17467 16.8116C4.15888 16.8648 4.15497 16.9209 4.16319 16.9758C4.17141 17.0308 4.19156 17.0832 4.22224 17.1295L5.07579 18.3504C5.31669 18.6903 5.68231 18.921 6.09278 18.9923C6.50326 19.0635 6.92524 18.9694 7.26659 18.7306L9.83763 16.889C9.8113 16.8567 9.78087 16.828 9.74712 16.8036Z" fill="#00D059"/>
</svg>
