<svg width="24" height="24" viewBox="0 0 24 24" fill="none" xmlns="http://www.w3.org/2000/svg">
<path opacity="0.2" d="M9 5.25H21C21.1989 5.25 21.3897 5.32902 21.5303 5.46967C21.671 5.61032 21.75 5.80109 21.75 6V8.325C21.751 8.49773 21.6915 8.66535 21.5819 8.79889C21.4724 8.93242 21.3196 9.02346 21.15 9.05625C20.4755 9.19948 19.8706 9.57002 19.4365 10.1059C19.0025 10.6417 18.7657 11.3104 18.7657 12C18.7657 12.6896 19.0025 13.3583 19.4365 13.8941C19.8706 14.43 20.4755 14.8005 21.15 14.9437C21.3196 14.9765 21.4724 15.0676 21.5819 15.2011C21.6915 15.3346 21.751 15.5023 21.75 15.675V18C21.75 18.1989 21.671 18.3897 21.5303 18.5303C21.3897 18.671 21.1989 18.75 21 18.75H9V5.25Z" fill="white"/>
<path d="M21.3 9.79688C21.6383 9.72603 21.9421 9.54121 22.1605 9.27331C22.3789 9.0054 22.4988 8.67065 22.5 8.325V6C22.5 5.60218 22.342 5.22064 22.0607 4.93934C21.7794 4.65804 21.3978 4.5 21 4.5H3C2.60218 4.5 2.22064 4.65804 1.93934 4.93934C1.65804 5.22064 1.5 5.60218 1.5 6V8.325C1.50125 8.67065 1.6211 9.0054 1.83952 9.27331C2.05793 9.54121 2.36168 9.72603 2.7 9.79688C3.20663 9.90194 3.66157 10.1784 3.98818 10.5797C4.31479 10.981 4.49312 11.4826 4.49312 12C4.49312 12.5174 4.31479 13.019 3.98818 13.4203C3.66157 13.8216 3.20663 14.0981 2.7 14.2031C2.36168 14.274 2.05793 14.4588 1.83952 14.7267C1.6211 14.9946 1.50125 15.3293 1.5 15.675V18C1.5 18.3978 1.65804 18.7794 1.93934 19.0607C2.22064 19.342 2.60218 19.5 3 19.5H21C21.3978 19.5 21.7794 19.342 22.0607 19.0607C22.342 18.7794 22.5 18.3978 22.5 18V15.675C22.4988 15.3293 22.3789 14.9946 22.1605 14.7267C21.9421 14.4588 21.6383 14.274 21.3 14.2031C20.7934 14.0981 20.3384 13.8216 20.0118 13.4203C19.6852 13.019 19.5069 12.5174 19.5069 12C19.5069 11.4826 19.6852 10.981 20.0118 10.5797C20.3384 10.1784 20.7934 9.90194 21.3 9.79688V9.79688ZM3 15.675C3.84772 15.5029 4.60986 15.043 5.15728 14.3732C5.70471 13.7034 6.00376 12.865 6.00376 12C6.00376 11.135 5.70471 10.2966 5.15728 9.62681C4.60986 8.95705 3.84772 8.49714 3 8.325V6H8.25V18H3V15.675ZM21 15.675V18H9.75V6H21V8.325C20.1523 8.49714 19.3901 8.95705 18.8427 9.62681C18.2953 10.2966 17.9962 11.135 17.9962 12C17.9962 12.865 18.2953 13.7034 18.8427 14.3732C19.3901 15.043 20.1523 15.5029 21 15.675V15.675Z" fill="white"/>
</svg>
