<svg width="12" height="12" viewBox="0 0 12 12" fill="none" xmlns="http://www.w3.org/2000/svg">
<path d="M10.5891 4.81875C10.4109 4.63594 10.2281 4.44375 10.1578 4.27969C10.0875 4.11563 10.0922 3.87188 10.0875 3.62344C10.0828 3.16875 10.0734 2.64844 9.7125 2.2875C9.35156 1.92656 8.83125 1.91719 8.37656 1.9125C8.12812 1.90781 7.875 1.90312 7.72031 1.84219C7.56562 1.78125 7.36406 1.58906 7.18125 1.41094C6.85781 1.10156 6.4875 0.75 6 0.75C5.5125 0.75 5.14219 1.10156 4.81875 1.41094C4.63594 1.58906 4.44375 1.77187 4.27969 1.84219C4.11563 1.9125 3.87188 1.90781 3.62344 1.9125C3.16875 1.91719 2.64844 1.92656 2.2875 2.2875C1.92656 2.64844 1.91719 3.16875 1.9125 3.62344C1.90781 3.87188 1.90312 4.125 1.84219 4.27969C1.78125 4.43438 1.58906 4.63594 1.41094 4.81875C1.10156 5.14219 0.75 5.5125 0.75 6C0.75 6.4875 1.10156 6.85781 1.41094 7.18125C1.58906 7.36406 1.77187 7.55625 1.84219 7.72031C1.9125 7.88437 1.90781 8.12812 1.9125 8.37656C1.91719 8.83125 1.92656 9.35156 2.2875 9.7125C2.64844 10.0734 3.16875 10.0828 3.62344 10.0875C3.87188 10.0922 4.125 10.0969 4.27969 10.1578C4.43438 10.2188 4.63594 10.4109 4.81875 10.5891C5.14219 10.8984 5.5125 11.25 6 11.25C6.4875 11.25 6.85781 10.8984 7.18125 10.5891C7.36406 10.4109 7.55625 10.2281 7.72031 10.1578C7.88437 10.0875 8.12812 10.0922 8.37656 10.0875C8.83125 10.0828 9.35156 10.0734 9.7125 9.7125C10.0734 9.35156 10.0828 8.83125 10.0875 8.37656C10.0922 8.12812 10.0969 7.875 10.1578 7.72031C10.2188 7.56562 10.4109 7.36406 10.5891 7.18125C10.8984 6.85781 11.25 6.4875 11.25 6C11.25 5.5125 10.8984 5.14219 10.5891 4.81875ZM8.32031 5.14688L5.57344 7.77188C5.50242 7.83868 5.40843 7.8756 5.31094 7.875C5.21488 7.87537 5.12243 7.83839 5.05313 7.77188L3.67969 6.45938C3.64159 6.42614 3.61061 6.38554 3.58861 6.34003C3.5666 6.29452 3.55403 6.24502 3.55164 6.19452C3.54925 6.14403 3.55709 6.09357 3.5747 6.04618C3.59231 5.99879 3.61932 5.95545 3.65411 5.91877C3.6889 5.88208 3.73074 5.85281 3.77713 5.83271C3.82352 5.81261 3.87349 5.8021 3.92404 5.80181C3.97459 5.80152 4.02469 5.81145 4.0713 5.83101C4.11792 5.85056 4.1601 5.87935 4.19531 5.91562L5.31094 6.97969L7.80469 4.60312C7.8776 4.53951 7.97229 4.50654 8.06894 4.51112C8.1656 4.51569 8.25675 4.55745 8.32333 4.62766C8.38991 4.69788 8.42677 4.79111 8.42621 4.88788C8.42565 4.98464 8.38771 5.07744 8.32031 5.14688Z" fill="#FFC109"/>
</svg>
