<svg width="44" height="44" viewBox="0 0 44 44" fill="none" xmlns="http://www.w3.org/2000/svg">
<rect x="0.5" y="0.5" width="43" height="43" rx="21.5" stroke="#D9D9D9"/>
<path d="M30.125 18.5625V21.6875C30.125 21.8533 30.0592 22.0122 29.9419 22.1294C29.8247 22.2467 29.6658 22.3125 29.5 22.3125C28.1944 22.3159 26.9076 22.0023 25.75 21.3984V24.1875C25.7501 25.3171 25.4281 26.4233 24.8216 27.3762C24.2151 28.3292 23.3493 29.0893 22.3259 29.5675C21.3026 30.0457 20.164 30.222 19.0439 30.0758C17.9239 29.9296 16.8687 29.4669 16.0024 28.742C15.1361 28.0172 14.4945 27.0602 14.1529 25.9835C13.8114 24.9068 13.7841 23.755 14.0742 22.6633C14.3643 21.5716 14.9598 20.5853 15.7907 19.8202C16.6217 19.0551 17.6537 18.5429 18.7656 18.3438C18.8548 18.3277 18.9465 18.3313 19.0341 18.3543C19.1218 18.3772 19.2035 18.4189 19.2734 18.4766C19.3455 18.5348 19.4034 18.6086 19.4427 18.6926C19.4819 18.7765 19.5015 18.8683 19.5 18.9609V22.2109C19.5003 22.3293 19.4666 22.4452 19.4029 22.545C19.3392 22.6447 19.2482 22.724 19.1406 22.7734C18.8884 22.8936 18.673 23.0791 18.5168 23.3108C18.3607 23.5425 18.2695 23.8117 18.2528 24.0906C18.2361 24.3695 18.2944 24.6477 18.4218 24.8964C18.5492 25.1451 18.7409 25.355 18.9769 25.5044C19.213 25.6538 19.4848 25.7372 19.764 25.7459C20.0433 25.7545 20.3197 25.6882 20.5646 25.5537C20.8095 25.4192 21.0138 25.2215 21.1564 24.9813C21.2989 24.741 21.3744 24.4669 21.375 24.1875V14.1875C21.375 14.0217 21.4408 13.8628 21.5581 13.7456C21.6753 13.6283 21.8342 13.5625 22 13.5625H25.125C25.2908 13.5625 25.4497 13.6283 25.5669 13.7456C25.6842 13.8628 25.75 14.0217 25.75 14.1875C25.75 15.1821 26.1451 16.1359 26.8483 16.8392C27.5516 17.5424 28.5054 17.9375 29.5 17.9375C29.6658 17.9375 29.8247 18.0033 29.9419 18.1206C30.0592 18.2378 30.125 18.3967 30.125 18.5625Z" fill="white"/>
</svg>
