<svg width="20" height="20" viewBox="0 0 20 20" fill="none" xmlns="http://www.w3.org/2000/svg">
<path d="M6.27344 6.84336C6.15655 6.72619 6.09091 6.56745 6.09091 6.40195C6.09091 6.23645 6.15655 6.07771 6.27344 5.96055L9.55469 2.6793C9.67318 2.56193 9.83322 2.49609 10 2.49609C10.1668 2.49609 10.3268 2.56193 10.4453 2.6793L13.7266 5.96055C13.8434 6.07771 13.9091 6.23645 13.9091 6.40195C13.9091 6.56745 13.8434 6.72619 13.7266 6.84336C13.6684 6.90241 13.5991 6.94931 13.5226 6.98132C13.4462 7.01333 13.3641 7.02981 13.2812 7.02981C13.1984 7.02981 13.1163 7.01333 13.0399 6.98132C12.9634 6.94931 12.8941 6.90241 12.8359 6.84336L10.625 4.63242V11.8746C10.625 12.0404 10.5592 12.1993 10.4419 12.3166C10.3247 12.4338 10.1658 12.4996 10 12.4996C9.83424 12.4996 9.67527 12.4338 9.55806 12.3166C9.44085 12.1993 9.375 12.0404 9.375 11.8746V4.63242L7.16406 6.84336C7.10591 6.90241 7.03659 6.94931 6.96014 6.98132C6.88369 7.01333 6.80163 7.02981 6.71875 7.02981C6.63587 7.02981 6.55381 7.01333 6.47736 6.98132C6.40091 6.94931 6.33159 6.90241 6.27344 6.84336ZM16.875 11.2496C16.7092 11.2496 16.5503 11.3155 16.4331 11.4327C16.3158 11.5499 16.25 11.7088 16.25 11.8746V16.2496H3.75V11.8746C3.75 11.7088 3.68415 11.5499 3.56694 11.4327C3.44973 11.3155 3.29076 11.2496 3.125 11.2496C2.95924 11.2496 2.80027 11.3155 2.68306 11.4327C2.56585 11.5499 2.5 11.7088 2.5 11.8746V16.2496C2.5 16.5811 2.6317 16.8991 2.86612 17.1335C3.10054 17.3679 3.41848 17.4996 3.75 17.4996H16.25C16.5815 17.4996 16.8995 17.3679 17.1339 17.1335C17.3683 16.8991 17.5 16.5811 17.5 16.2496V11.8746C17.5 11.7088 17.4342 11.5499 17.3169 11.4327C17.1997 11.3155 17.0408 11.2496 16.875 11.2496Z" fill="white"/>
</svg>
