<svg width="52" height="52" viewBox="0 0 52 52" fill="none" xmlns="http://www.w3.org/2000/svg">
<rect x="0.5" y="0.5" width="51" height="51" rx="25.5" stroke="#00D059"/>
<path d="M22.1406 22.6402C22.0953 22.5261 22.0837 22.4014 22.1073 22.2809C22.1308 22.1604 22.1885 22.0492 22.2734 21.9605L25.5547 18.6793C25.6732 18.5619 25.8332 18.4961 26 18.4961C26.1668 18.4961 26.3268 18.5619 26.4453 18.6793L29.7266 21.9605C29.8115 22.0492 29.8692 22.1604 29.8927 22.2809C29.9163 22.4014 29.9047 22.5261 29.8594 22.6402C29.8128 22.7554 29.7329 22.8541 29.6299 22.9237C29.5269 22.9933 29.4055 23.0306 29.2812 23.0309H26.625V27.8746C26.625 28.0404 26.5592 28.1993 26.4419 28.3166C26.3247 28.4338 26.1658 28.4996 26 28.4996C25.8342 28.4996 25.6753 28.4338 25.5581 28.3166C25.4408 28.1993 25.375 28.0404 25.375 27.8746V23.0309H22.7188C22.5945 23.0306 22.4731 22.9933 22.3701 22.9237C22.2671 22.8541 22.1872 22.7554 22.1406 22.6402ZM32.875 27.2496C32.7092 27.2496 32.5503 27.3155 32.4331 27.4327C32.3158 27.5499 32.25 27.7088 32.25 27.8746V32.2496H19.75V27.8746C19.75 27.7088 19.6842 27.5499 19.5669 27.4327C19.4497 27.3155 19.2908 27.2496 19.125 27.2496C18.9592 27.2496 18.8003 27.3155 18.6831 27.4327C18.5658 27.5499 18.5 27.7088 18.5 27.8746V32.2496C18.5 32.5811 18.6317 32.8991 18.8661 33.1335C19.1005 33.3679 19.4185 33.4996 19.75 33.4996H32.25C32.5815 33.4996 32.8995 33.3679 33.1339 33.1335C33.3683 32.8991 33.5 32.5811 33.5 32.2496V27.8746C33.5 27.7088 33.4342 27.5499 33.3169 27.4327C33.1997 27.3155 33.0408 27.2496 32.875 27.2496Z" fill="white"/>
</svg>
