<svg width="28" height="28" viewBox="0 0 28 28" fill="none" xmlns="http://www.w3.org/2000/svg">
<g clip-path="url(#clip0_20621_45122)">
<path d="M21.5755 4.4541H6.42395C5.27243 4.4541 4.30273 5.3935 4.30273 6.57531V13.8177C4.30273 14.9693 5.24213 15.9086 6.42395 15.9086H12.4542C12.9088 16.8177 13.6664 17.5147 14.6361 17.8783C15.0906 18.0602 15.5452 18.1208 16.03 18.1208C16.1815 18.1208 16.3633 18.0905 16.5149 18.0905L18.2421 22.6056C18.3936 22.9996 18.6967 23.2723 19.0603 23.4238C19.2421 23.4844 19.4239 23.545 19.6058 23.545C19.8179 23.545 20.03 23.5147 20.2118 23.4238C20.5755 23.242 20.8482 22.939 20.9997 22.545C21.1209 22.1511 21.0906 21.7571 20.9088 21.3935L18.6664 17.1208C19.03 16.7874 19.333 16.3935 19.5755 15.939H21.5755C22.727 15.939 23.6967 14.9996 23.6967 13.848V6.57531C23.6967 5.3935 22.7573 4.4541 21.5755 4.4541ZM19.1815 15.3329C18.8785 16.1814 18.2421 16.848 17.4239 17.2117C15.727 17.9693 13.727 17.242 12.9391 15.545C12.1512 13.848 12.9088 11.848 14.6058 11.0602C15.0603 10.848 15.5149 10.7571 15.9997 10.7571C16.3936 10.7571 16.7876 10.8177 17.1815 10.9693C18.03 11.2723 18.6967 11.9086 19.0603 12.7268C19.4543 13.5753 19.4846 14.4844 19.1815 15.3329ZM23.0906 13.8177C23.0906 14.6359 22.4239 15.3026 21.5755 15.3026H19.7876C20.0603 14.3632 20.03 13.3935 19.6058 12.4844C19.5755 12.4541 19.5755 12.4238 19.5452 12.3935V7.4844C19.5452 7.30259 19.4239 7.18137 19.2421 7.18137H17.9391C17.7876 7.18137 17.6361 7.30259 17.6361 7.4844V10.545C17.5452 10.5147 17.4846 10.4844 17.3936 10.4541C17.2421 10.3935 17.0906 10.3632 16.9391 10.3329V7.51471C16.9391 7.33289 16.8179 7.21168 16.6361 7.21168H15.7573C15.6058 7.21168 15.4542 7.33289 15.4542 7.51471V10.242C15.1512 10.2723 14.8482 10.3632 14.5452 10.4844V7.51471C14.5452 7.33289 14.4239 7.21168 14.2421 7.21168H11.8482C11.6664 7.21168 11.5452 7.33289 11.5452 7.51471V12.9996C11.5452 13.1814 11.6664 13.3026 11.8482 13.3026H12.1209C11.9694 13.9693 11.9694 14.6965 12.1815 15.3632H6.42395C5.60576 15.3632 4.90879 14.6965 4.90879 13.8783V6.57531C4.90879 5.75713 5.57546 5.06016 6.42395 5.06016H21.5755C22.3936 5.06016 23.0906 5.72683 23.0906 6.57531V13.8177Z" fill="white"/>
<path d="M22.0006 7.48467V12.9695C22.0006 13.1513 21.8491 13.2725 21.6976 13.2725H20.6976C20.5157 13.2725 20.3945 13.1513 20.3945 12.9695V7.48467C20.3945 7.30285 20.5157 7.18164 20.6976 7.18164H21.6976C21.8794 7.18164 22.0006 7.30285 22.0006 7.48467Z" fill="white"/>
<path d="M10.6666 7.48467V12.9695C10.6666 13.1513 10.5151 13.2725 10.3636 13.2725H9.36358C9.18176 13.2725 9.06055 13.1513 9.06055 12.9695V7.48467C9.06055 7.30285 9.18176 7.18164 9.36358 7.18164H10.3636C10.5151 7.18164 10.6666 7.30285 10.6666 7.48467Z" fill="white"/>
<path d="M8.21212 7.48467V12.9695C8.21212 13.1513 8.09091 13.2725 7.90909 13.2725H6.30303C6.15152 13.2725 6 13.1513 6 12.9695V7.48467C6 7.30285 6.15152 7.18164 6.30303 7.18164H7.90909C8.06061 7.18164 8.21212 7.30285 8.21212 7.48467Z" fill="white"/>
<path d="M21.6976 13.9697H20.6976C20.5157 13.9697 20.3945 14.0909 20.3945 14.2728C20.3945 14.4546 20.5157 14.5758 20.6976 14.5758H21.6976C21.8794 14.5758 22.0006 14.4546 22.0006 14.2728C22.0006 14.0909 21.8794 13.9697 21.6976 13.9697Z" fill="white"/>
<path d="M10.3636 13.9697H9.36358C9.18176 13.9697 9.06055 14.0909 9.06055 14.2728C9.06055 14.4546 9.18176 14.5758 9.36358 14.5758H10.3636C10.5454 14.5758 10.6666 14.4546 10.6666 14.2728C10.6666 14.0909 10.5454 13.9697 10.3636 13.9697Z" fill="white"/>
<path d="M7.90909 13.9697H6.30303C6.12121 13.9697 6 14.0909 6 14.2728C6 14.4546 6.12121 14.5758 6.30303 14.5758H7.90909C8.09091 14.5758 8.21212 14.4546 8.21212 14.2728C8.21212 14.0909 8.06061 13.9697 7.90909 13.9697Z" fill="white"/>
<path d="M21.5144 6.15069C21.5144 5.96887 21.3932 5.84766 21.2114 5.84766H7.09014C6.90832 5.84766 6.78711 5.96887 6.78711 6.15069C6.78711 6.3325 6.90832 6.45372 7.09014 6.45372H21.2114C21.3629 6.45372 21.5144 6.3022 21.5144 6.15069Z" fill="white"/>
<path d="M17.0909 16.5148C16.7575 16.6663 16.3636 16.7572 16 16.7572C15 16.7572 14.0606 16.1814 13.606 15.242C13 13.939 13.5757 12.3632 14.9091 11.7875C15.5454 11.5148 16.2424 11.4845 16.9091 11.7269C17.5757 11.9693 18.0909 12.4542 18.3636 13.0905C18.9697 14.3632 18.3939 15.939 17.0909 16.5148Z" fill="white"/>
</g>
<defs>
<clipPath id="clip0_20621_45122">
<rect width="20" height="20" fill="white" transform="translate(4 4)"/>
</clipPath>
</defs>
</svg>
