<svg width="16" height="16" viewBox="0 0 16 16" fill="none" xmlns="http://www.w3.org/2000/svg">
<g clip-path="url(#clip0_14814_29967)">
<path d="M9.0062 9.84969C9.78793 9.35997 10.3891 8.6292 10.719 7.76773C11.0488 6.90626 11.0894 5.96085 10.8346 5.07427C10.5799 4.18768 10.0436 3.40806 9.3067 2.85312C8.56983 2.29818 7.67241 1.99805 6.74995 1.99805C5.82749 1.99805 4.93007 2.29818 4.1932 2.85312C3.45633 3.40806 2.92002 4.18768 2.66525 5.07427C2.41048 5.96085 2.45109 6.90626 2.78093 7.76773C3.11078 8.6292 3.71196 9.35997 4.4937 9.84969C3.13067 10.2741 1.91949 11.0837 1.0062 12.1809C0.938175 12.2835 0.910352 12.4075 0.928054 12.5293C0.945756 12.651 1.00774 12.762 1.10214 12.8409C1.19655 12.9199 1.31674 12.9612 1.43972 12.9571C1.5627 12.9529 1.67983 12.9036 1.7687 12.8184C2.38001 12.0926 3.14257 11.5091 4.00301 11.1088C4.86344 10.7085 5.80096 10.5012 6.74995 10.5012C7.69893 10.5012 8.63645 10.7085 9.49689 11.1088C10.3573 11.5091 11.1199 12.0926 11.7312 12.8184C11.7723 12.8696 11.8233 12.9119 11.8812 12.9429C11.939 12.9739 12.0025 12.9929 12.0679 12.9987C12.1333 13.0045 12.1991 12.9971 12.2616 12.9769C12.324 12.9566 12.3817 12.924 12.4312 12.8809C12.4816 12.8393 12.5233 12.7881 12.5538 12.7303C12.5843 12.6724 12.6029 12.6091 12.6088 12.544C12.6146 12.4789 12.6074 12.4133 12.5876 12.3509C12.5679 12.2886 12.536 12.2308 12.4937 12.1809C11.5804 11.0837 10.3692 10.2741 9.0062 9.84969ZM3.49995 6.24969C3.49995 5.6069 3.69056 4.97855 4.04767 4.44409C4.40479 3.90963 4.91237 3.49307 5.50623 3.24708C6.10009 3.0011 6.75355 2.93674 7.38399 3.06214C8.01443 3.18754 8.59352 3.49707 9.04804 3.95159C9.50256 4.40611 9.8121 4.98521 9.9375 5.61565C10.0629 6.24609 9.99854 6.89955 9.75256 7.49341C9.50657 8.08727 9.09001 8.59485 8.55555 8.95197C8.02109 9.30908 7.39274 9.49969 6.74995 9.49969C5.88799 9.49969 5.06134 9.15728 4.45185 8.54779C3.84236 7.93829 3.49995 7.11164 3.49995 6.24969ZM15.5124 8.94344L15.2249 8.77469C15.2583 8.59287 15.2583 8.40651 15.2249 8.22469L15.5124 8.05594C15.5701 8.0241 15.6207 7.98105 15.6615 7.92934C15.7022 7.87762 15.7322 7.81828 15.7497 7.75481C15.7672 7.69133 15.7718 7.625 15.7632 7.55972C15.7547 7.49445 15.7332 7.43153 15.6999 7.37469C15.6322 7.26019 15.522 7.17699 15.3934 7.14307C15.2647 7.10915 15.1279 7.12724 15.0124 7.19344L14.7249 7.36219C14.5849 7.24209 14.4238 7.14886 14.2499 7.08719V6.74969C14.2499 6.61708 14.1973 6.48991 14.1035 6.39614C14.0097 6.30237 13.8826 6.24969 13.7499 6.24969C13.6173 6.24969 13.4902 6.30237 13.3964 6.39614C13.3026 6.48991 13.2499 6.61708 13.2499 6.74969V7.08719C13.076 7.14886 12.915 7.24209 12.7749 7.36219L12.4874 7.19344C12.372 7.12724 12.2352 7.10915 12.1065 7.14307C11.9779 7.17699 11.8677 7.26019 11.7999 7.37469C11.7667 7.43153 11.7452 7.49445 11.7367 7.55972C11.7281 7.625 11.7327 7.69133 11.7502 7.75481C11.7677 7.81828 11.7977 7.87762 11.8384 7.92934C11.8792 7.98105 11.9298 8.0241 11.9874 8.05594L12.2749 8.22469C12.2416 8.40651 12.2416 8.59287 12.2749 8.77469L11.9874 8.94344C11.893 8.99886 11.8193 9.08375 11.7778 9.18508C11.7363 9.28641 11.7292 9.39857 11.7576 9.50434C11.786 9.6101 11.8483 9.70362 11.935 9.77053C12.0217 9.83744 12.1279 9.87403 12.2374 9.87469C12.3255 9.8754 12.4121 9.8516 12.4874 9.80594L12.7749 9.63719C12.915 9.75729 13.076 9.85052 13.2499 9.91219V10.2497C13.2499 10.3823 13.3026 10.5095 13.3964 10.6032C13.4902 10.697 13.6173 10.7497 13.7499 10.7497C13.8826 10.7497 14.0097 10.697 14.1035 10.6032C14.1973 10.5095 14.2499 10.3823 14.2499 10.2497V9.91219C14.4238 9.85052 14.5849 9.75729 14.7249 9.63719L15.0124 9.80594C15.0878 9.8516 15.1744 9.8754 15.2624 9.87469C15.372 9.87403 15.4782 9.83744 15.5649 9.77053C15.6516 9.70362 15.7139 9.6101 15.7423 9.50434C15.7707 9.39857 15.7636 9.28641 15.7221 9.18508C15.6806 9.08375 15.6069 8.99886 15.5124 8.94344ZM13.2499 8.49969C13.2499 8.4008 13.2793 8.30413 13.3342 8.22191C13.3892 8.13968 13.4672 8.07559 13.5586 8.03775C13.65 7.99991 13.7505 7.99001 13.8475 8.0093C13.9445 8.02859 14.0336 8.07621 14.1035 8.14614C14.1734 8.21606 14.221 8.30515 14.2403 8.40214C14.2596 8.49914 14.2497 8.59967 14.2119 8.69103C14.174 8.78239 14.11 8.86049 14.0277 8.91543C13.9455 8.97037 13.8488 8.99969 13.7499 8.99969C13.6173 8.99969 13.4902 8.94701 13.3964 8.85324C13.3026 8.75948 13.2499 8.6323 13.2499 8.49969Z" fill="white"/>
</g>
<defs>
<clipPath id="clip0_14814_29967">
<rect width="16" height="16" fill="white"/>
</clipPath>
</defs>
</svg>
