<svg width="44" height="44" viewBox="0 0 44 44" fill="none" xmlns="http://www.w3.org/2000/svg">
<rect x="0.5" y="0.5" width="43" height="43" rx="21.5" stroke="#D9D9D9"/>
<path d="M30.3047 17.4531C30.2329 17.1651 30.0923 16.8988 29.895 16.677C29.6977 16.4552 29.4496 16.2846 29.1719 16.1797C26.5 15.1484 22.2344 15.1563 22 15.1563C21.7656 15.1563 17.5 15.1484 14.8281 16.1797C14.5504 16.2846 14.3023 16.4552 14.105 16.677C13.9077 16.8988 13.7671 17.1651 13.6953 17.4531C13.4922 18.2266 13.25 19.6484 13.25 22C13.25 24.3516 13.4922 25.7734 13.6953 26.5469C13.7671 26.8349 13.9077 27.1012 14.105 27.323C14.3023 27.5448 14.5504 27.7154 14.8281 27.8203C17.3906 28.8125 21.4062 28.8438 21.9453 28.8438H22.0547C22.5938 28.8438 26.6094 28.8125 29.1719 27.8203C29.4496 27.7154 29.6977 27.5448 29.895 27.323C30.0923 27.1012 30.2329 26.8349 30.3047 26.5469C30.5078 25.7734 30.75 24.3516 30.75 22C30.75 19.6484 30.5078 18.2266 30.3047 17.4531ZM24.6719 22.2578L20.9219 24.7578C20.8721 24.7944 20.8117 24.8136 20.75 24.8125C20.6982 24.8106 20.6476 24.7972 20.6016 24.7734C20.5516 24.7475 20.5099 24.7082 20.4809 24.6599C20.4519 24.6116 20.4369 24.5563 20.4375 24.5V19.5C20.4369 19.4437 20.4519 19.3884 20.4809 19.3401C20.5099 19.2918 20.5516 19.2525 20.6016 19.2266C20.6514 19.2 20.7075 19.1874 20.7639 19.1902C20.8203 19.1929 20.8749 19.2109 20.9219 19.2422L24.6719 21.7422C24.7154 21.7696 24.7514 21.8077 24.7762 21.8528C24.8011 21.8978 24.8142 21.9485 24.8142 22C24.8142 22.0515 24.8011 22.1022 24.7762 22.1472C24.7514 22.1923 24.7154 22.2304 24.6719 22.2578Z" fill="white"/>
</svg>
