<svg width="80" height="80" viewBox="0 0 80 80" fill="none" xmlns="http://www.w3.org/2000/svg">
<g filter="url(#filter0_b_14244_14248)">
<rect width="80" height="80" rx="40" fill="#661A05"/>
<rect x="0.5" y="0.5" width="79" height="79" rx="39.5" stroke="#962708"/>
<path d="M42.2513 34C42.2513 33.8011 42.3304 33.6103 42.471 33.4696C42.6117 33.329 42.8024 33.25 43.0013 33.25H55.0013C55.2003 33.25 55.391 33.329 55.5317 33.4696C55.6723 33.6103 55.7513 33.8011 55.7513 34C55.7513 34.1989 55.6723 34.3897 55.5317 34.5303C55.391 34.671 55.2003 34.75 55.0013 34.75H43.0013C42.8024 34.75 42.6117 34.671 42.471 34.5303C42.3304 34.3897 42.2513 34.1989 42.2513 34ZM55.0013 39.25H43.0013C42.8024 39.25 42.6117 39.329 42.471 39.4696C42.3304 39.6103 42.2513 39.8011 42.2513 40C42.2513 40.1989 42.3304 40.3897 42.471 40.5303C42.6117 40.671 42.8024 40.75 43.0013 40.75H55.0013C55.2003 40.75 55.391 40.671 55.5317 40.5303C55.6723 40.3897 55.7513 40.1989 55.7513 40C55.7513 39.8011 55.6723 39.6103 55.5317 39.4696C55.391 39.329 55.2003 39.25 55.0013 39.25V39.25ZM55.0013 45.25H46.0013C45.8024 45.25 45.6117 45.329 45.471 45.4696C45.3304 45.6103 45.2513 45.8011 45.2513 46C45.2513 46.1989 45.3304 46.3897 45.471 46.5303C45.6117 46.671 45.8024 46.75 46.0013 46.75H55.0013C55.2003 46.75 55.391 46.671 55.5317 46.5303C55.6723 46.3897 55.7513 46.1989 55.7513 46C55.7513 45.8011 55.6723 45.6103 55.5317 45.4696C55.391 45.329 55.2003 45.25 55.0013 45.25V45.25ZM42.4763 47.8125C42.5258 48.0047 42.4969 48.2088 42.3962 48.3798C42.2954 48.5509 42.131 48.675 41.9388 48.725L41.7513 48.75C41.5853 48.7497 41.424 48.6943 41.2928 48.5925C41.1616 48.4907 41.0679 48.3483 41.0263 48.1875C40.6191 46.6346 39.7089 45.2604 38.4379 44.2797C37.1669 43.299 35.6067 42.7671 34.0013 42.7671C32.396 42.7671 30.8358 43.299 29.5648 44.2797C28.2938 45.2604 27.3835 46.6346 26.9763 48.1875C26.9181 48.3702 26.7922 48.5236 26.6244 48.6163C26.4565 48.709 26.2596 48.734 26.0739 48.6859C25.8883 48.6379 25.7281 48.5207 25.6263 48.3582C25.5244 48.1958 25.4887 48.0005 25.5263 47.8125C25.8744 46.4594 26.5419 45.2096 27.4728 44.1678C28.4037 43.126 29.5708 42.3226 30.8763 41.825C29.8349 41.1507 29.0394 40.1576 28.6088 38.9941C28.1782 37.8305 28.1354 36.5589 28.487 35.369C28.8386 34.1792 29.5655 33.135 30.5594 32.3923C31.5532 31.6496 32.7606 31.2483 34.0013 31.2483C35.242 31.2483 36.4494 31.6496 37.4433 32.3923C38.4372 33.135 39.1641 34.1792 39.5157 35.369C39.8672 36.5589 39.8245 37.8305 39.3939 38.9941C38.9632 40.1576 38.1678 41.1507 37.1263 41.825C38.4318 42.3226 39.599 43.126 40.5299 44.1678C41.4607 45.2096 42.1282 46.4594 42.4763 47.8125ZM34.0013 41.25C34.8419 41.25 35.6636 41.0007 36.3625 40.5337C37.0614 40.0667 37.6062 39.403 37.9278 38.6264C38.2495 37.8498 38.3337 36.9953 38.1697 36.1708C38.0057 35.3464 37.6009 34.5891 37.0065 33.9948C36.4122 33.4004 35.6549 32.9956 34.8305 32.8316C34.0061 32.6676 33.1515 32.7518 32.3749 33.0735C31.5984 33.3952 30.9346 33.9399 30.4676 34.6388C30.0006 35.3377 29.7513 36.1594 29.7513 37C29.7546 38.1261 30.2035 39.2052 30.9998 40.0015C31.7961 40.7979 32.8752 41.2467 34.0013 41.25V41.25Z" fill="white"/>
</g>
<defs>
<filter id="filter0_b_14244_14248" x="-8" y="-8" width="96" height="96" filterUnits="userSpaceOnUse" color-interpolation-filters="sRGB">
<feFlood flood-opacity="0" result="BackgroundImageFix"/>
<feGaussianBlur in="BackgroundImageFix" stdDeviation="4"/>
<feComposite in2="SourceAlpha" operator="in" result="effect1_backgroundBlur_14244_14248"/>
<feBlend mode="normal" in="SourceGraphic" in2="effect1_backgroundBlur_14244_14248" result="shape"/>
</filter>
</defs>
</svg>
