<svg width="20" height="20" viewBox="0 0 20 20" fill="none" xmlns="http://www.w3.org/2000/svg">
<path d="M12.8438 9.47656L9.09375 6.97656C8.99884 6.91626 8.88989 6.88167 8.77757 6.87619C8.66526 6.87071 8.55345 6.89453 8.45312 6.94531C8.3532 6.99925 8.26986 7.07938 8.21205 7.1771C8.15424 7.27483 8.12415 7.38646 8.125 7.5V12.5C8.12415 12.6135 8.15424 12.7252 8.21205 12.8229C8.26986 12.9206 8.3532 13.0008 8.45312 13.0547C8.54529 13.1008 8.64693 13.1249 8.75 13.125C8.87179 13.1237 8.99081 13.0885 9.09375 13.0234L12.8438 10.5234C12.9308 10.4666 13.0023 10.389 13.0518 10.2976C13.1013 10.2062 13.1272 10.1039 13.1272 10C13.1272 9.89606 13.1013 9.79376 13.0518 9.70237C13.0023 9.61097 12.9308 9.53336 12.8438 9.47656ZM9.375 11.3359V8.66406L11.375 10L9.375 11.3359ZM18.3047 5.45313C18.2329 5.1651 18.0923 4.89878 17.895 4.67699C17.6977 4.4552 17.4496 4.28456 17.1719 4.17969C14.5 3.14844 10.2344 3.15625 10 3.15625C9.76562 3.15625 5.5 3.14844 2.82812 4.17969C2.55042 4.28456 2.30229 4.4552 2.10499 4.67699C1.9077 4.89878 1.76712 5.1651 1.69531 5.45313C1.49219 6.22656 1.25 7.64844 1.25 10C1.25 12.3516 1.49219 13.7734 1.69531 14.5469C1.76712 14.8349 1.9077 15.1012 2.10499 15.323C2.30229 15.5448 2.55042 15.7154 2.82812 15.8203C5.39062 16.8125 9.40625 16.8438 9.94531 16.8438H10.0547C10.5938 16.8438 14.6094 16.8125 17.1719 15.8203C17.4496 15.7154 17.6977 15.5448 17.895 15.323C18.0923 15.1012 18.2329 14.8349 18.3047 14.5469C18.5078 13.7734 18.75 12.3516 18.75 10C18.75 7.64844 18.5078 6.22656 18.3047 5.45313ZM17.0938 14.2344C17.0707 14.3289 17.0253 14.4165 16.9614 14.4899C16.8975 14.5633 16.817 14.6204 16.7266 14.6563C14.25 15.6094 10.0469 15.5938 10 15.5938H9.99219C9.95312 15.5938 5.75 15.6094 3.27344 14.6563C3.183 14.6204 3.10247 14.5633 3.03859 14.4899C2.9747 14.4165 2.92933 14.3289 2.90625 14.2344C2.71875 13.5234 2.5 12.2188 2.5 10C2.5 7.78125 2.71875 6.47656 2.90625 5.76563C2.92933 5.6711 2.9747 5.58347 3.03859 5.51008C3.10247 5.43668 3.183 5.37965 3.27344 5.34375C5.65625 4.42969 9.65625 4.40625 9.98438 4.40625H10C10.0469 4.40625 14.25 4.39063 16.7266 5.34375C16.817 5.37965 16.8975 5.43668 16.9614 5.51008C17.0253 5.58347 17.0707 5.6711 17.0938 5.76563C17.2812 6.47656 17.5 7.78125 17.5 10C17.5 12.2188 17.2812 13.5234 17.0938 14.2344Z" fill="white"/>
</svg>
